<svg xmlns="http://www.w3.org/2000/svg" xmlns:xlink="http://www.w3.org/1999/xlink" width="282" height="83.33" viewBox="0 0 423 125"><defs><path id="p2r3a" d="M1610.872 1348.054h-393.968c-7.802 0-14.127-6.325-14.127-14.127v-96.522c0-7.802 6.325-14.127 14.127-14.127h393.968c7.803 0 14.128 6.325 14.128 14.127v96.522c0 7.802-6.325 14.127-14.128 14.127z"/><path id="p2r3b" d="M1419.924 1253.474c10.009.54 18.889 5.32 24.872 12.581.786-.39 1.583-.763 2.393-1.11-6.455-8.122-16.222-13.49-27.265-14.044z"/><path id="p2r3c" d="M1419.02 1322.73c-.328.009-.656.025-.988.025-18.935 0-34.314-15.182-34.652-34.036h-2.569c.34 20.272 16.867 36.604 37.22 36.604.584 0 1.163-.017 1.739-.044a50.485 50.485 0 0 1-.75-2.549z"/><path id="p2r3d" d="M1383.513 1284.933c1.539-17.045 15.41-30.531 32.625-31.458v-2.574c-18.634.933-33.648 15.567-35.2 34.032z"/></defs><g><g transform="translate(-1202 -1223)"><use fill="#333" xlink:href="#p2r3a"/></g><g opacity=".37" transform="translate(-1202 -1223)"><g opacity=".37"><use fill="#fff" xlink:href="#p2r3b"/></g></g><g transform="translate(-1202 -1223)"><use fill="#fff" xlink:href="#p2r3c"/></g><g opacity=".76" transform="translate(-1202 -1223)"><g opacity=".76"><use fill="#fff" xlink:href="#p2r3d"/></g></g></g></svg>