<svg xmlns="http://www.w3.org/2000/svg" xmlns:xlink="http://www.w3.org/1999/xlink" width="282" height="83.33" viewBox="0 0 423 125"><defs><path id="11mha" d="M311.904 1347.804c-7.65 0-13.877-6.226-13.877-13.877v-96.522c0-7.652 6.226-13.877 13.877-13.877h393.968c7.652 0 13.878 6.225 13.878 13.877v96.522c0 7.651-6.226 13.877-13.878 13.877z"/><path id="11mhb" d="M705.873 1223.778c7.514 0 13.627 6.113 13.627 13.627v96.52c0 7.516-6.113 13.629-13.627 13.629H311.904c-7.513 0-13.627-6.113-13.627-13.628v-96.521c0-7.514 6.114-13.627 13.627-13.627h393.969zm0-.5H311.904c-7.802 0-14.127 6.325-14.127 14.127v96.52c0 7.804 6.325 14.129 14.127 14.129h393.969c7.802 0 14.127-6.325 14.127-14.128v-96.521c0-7.802-6.325-14.127-14.127-14.127z"/><path id="11mhc" d="M505.532 1253.474c10.01.54 18.89 5.32 24.872 12.581.786-.39 1.583-.763 2.393-1.11-6.455-8.122-16.222-13.49-27.265-14.044z"/><path id="11mhd" d="M504.629 1322.73c-.33.009-.657.025-.99.025-18.934 0-34.313-15.182-34.651-34.036h-2.568c.339 20.272 16.866 36.604 37.22 36.604.583 0 1.162-.017 1.738-.044a50.485 50.485 0 0 1-.75-2.549z"/><path id="11mhe" d="M469.121 1284.933c1.54-17.045 15.41-30.531 32.625-31.458v-2.574c-18.634.933-33.648 15.567-35.199 34.032z"/></defs><g><g transform="translate(-297 -1223)"><use fill="#fff" xlink:href="#11mha"/></g><g transform="translate(-297 -1223)"><use fill="#d3d3d3" xlink:href="#11mhb"/></g><g transform="translate(-297 -1223)"><use fill="#a6def4" xlink:href="#11mhc"/></g><g transform="translate(-297 -1223)"><use fill="#0694ea" xlink:href="#11mhd"/></g><g transform="translate(-297 -1223)"><use fill="#6bc2ef" xlink:href="#11mhe"/></g></g></svg>