<svg xmlns="http://www.w3.org/2000/svg" xmlns:xlink="http://www.w3.org/1999/xlink" width="52" height="52" viewBox="0 0 78 78"><defs><path id="py56a" d="M1405.82 846.305a2.176 2.176 0 0 1-.606-1.508v-19.561a2.172 2.172 0 0 1 4.345 0v18.683l14.481 15.033a2.171 2.171 0 1 1-3.129 3.014zm2.03 26.195c16.284 0 29.529-13.248 29.529-29.529 0-16.282-13.245-29.529-29.529-29.529-16.281 0-29.527 13.247-29.527 29.529 0 16.281 13.246 29.529 29.527 29.529zm0-64.511c19.321 0 34.982 15.661 34.982 34.982 0 19.32-15.661 34.983-34.982 34.983-19.32 0-34.983-15.663-34.983-34.983 0-19.321 15.663-34.982 34.983-34.982zm0 73.796c21.438 0 38.817-17.377 38.817-38.814 0-21.438-17.379-38.815-38.817-38.815-21.435 0-38.814 17.377-38.814 38.815 0 21.437 17.379 38.814 38.814 38.814z"/><linearGradient id="py56b" x1="1380.4" x2="1435.3" y1="870.42" y2="815.52" gradientUnits="userSpaceOnUse"><stop offset="0" stop-color="#0693e9"/><stop offset=".01" stop-color="#0693e9"/><stop offset="1" stop-color="#9cc037"/><stop offset="1" stop-color="#9cc037"/></linearGradient></defs><g><g transform="translate(-1369 -804)"><use fill="url(#py56b)" xlink:href="#py56a"/></g></g></svg>