<svg xmlns="http://www.w3.org/2000/svg" xmlns:xlink="http://www.w3.org/1999/xlink" width="63.33" height="76" viewBox="0 0 95 114"><defs><path id="n6u5a" d="M372.999 2439.61c0 4.696 2.015 8.501 4.501 8.501 2.485 0 4.5-3.805 4.5-8.501 0-4.694-2.015-8.5-4.5-8.5-2.486 0-4.501 3.806-4.501 8.5z"/><path id="n6u5c" d="M392.999 2440.611c0 4.694 2.015 8.5 4.501 8.5 2.485 0 4.5-3.806 4.5-8.5s-2.015-8.5-4.5-8.5c-2.486 0-4.501 3.806-4.501 8.5z"/><path id="n6u5e" d="M357.015 2494.428v12.797h-7.131v12.206h58.671v-11.993h-8.753v-13.299z"/><path id="n6u5g" d="M347.883 2524.631v.216h-9.401v19.79h78.769v-18.923h-10.697v-1.083z"/><path id="n6u5i" d="M354 2483.11v-25h48v25z"/><path id="n6u5k" d="M332.063 2544.923c-.793 0-1.437-.723-1.437-1.615v-17.314c0-.892.644-1.616 1.437-1.616h40.045c.793 0 1.437.724 1.437 1.616 0 .892-.644 1.616-1.437 1.616H333.5v15.698c0 .892-.644 1.615-1.437 1.615z"/><path id="n6u5l" d="M423.315 2544.923c-.793 0-1.437-.723-1.437-1.615v-15.698h-36.274c-.793 0-1.437-.724-1.437-1.616 0-.892.644-1.616 1.437-1.616h37.711c.793 0 1.437.724 1.437 1.616v17.314c0 .892-.644 1.615-1.437 1.615z"/><path id="n6u5m" d="M337.801 2522.435a1.66 1.66 0 0 1-1.66-1.66v-13.827c0-.917.743-1.66 1.66-1.66h34.201a1.66 1.66 0 1 1 0 3.32h-32.54v12.167a1.66 1.66 0 0 1-1.66 1.66z"/><path id="n6u5n" d="M419.108 2522.166a1.66 1.66 0 0 1-1.661-1.66v-11.899h-31.574a1.66 1.66 0 1 1 0-3.32h33.235a1.66 1.66 0 0 1 1.66 1.66v13.559a1.66 1.66 0 0 1-1.66 1.66z"/><path id="n6u5o" d="M407.022 2504.212a1.66 1.66 0 0 1-1.661-1.66v-11.744h-54.912v11.744a1.66 1.66 0 1 1-3.321 0v-13.404c0-.917.744-1.662 1.66-1.662h58.234c.917 0 1.66.745 1.66 1.662v13.404a1.66 1.66 0 0 1-1.66 1.66z"/><path id="n6u5p" d="M423.138 2545.11h-90.922c-.696 0-1.26-.724-1.26-1.615 0-.893.564-1.615 1.26-1.615h90.922c.696 0 1.26.722 1.26 1.615 0 .891-.564 1.615-1.26 1.615z"/><path id="n6u5q" d="M376.976 2537.42v-2.493a1.66 1.66 0 0 1 3.322 0v2.492a1.66 1.66 0 0 1-3.322 0zm0-10.795v-2.492a1.66 1.66 0 0 1 3.322 0v2.492a1.66 1.66 0 0 1-3.322 0zm0-10.794v-2.49c0-.917.744-1.662 1.661-1.662s1.661.745 1.661 1.662v2.49a1.661 1.661 0 0 1-3.322 0zm0-10.793v-2.49a1.661 1.661 0 0 1 3.322 0v2.49a1.66 1.66 0 0 1-3.322 0zm0-10.794v-2.49a1.661 1.661 0 0 1 3.322 0v2.49a1.66 1.66 0 0 1-3.322 0z"/><path id="n6u5r" d="M382.368 2481.36a.642.642 0 0 1-.295-.072l-4.64-2.44-4.639 2.44a.633.633 0 0 1-.918-.668l.886-5.166-3.754-3.658a.635.635 0 0 1 .352-1.081l5.186-.753 2.32-4.7a.634.634 0 0 1 1.136 0l2.32 4.7 5.185.753a.635.635 0 0 1 .352 1.081l-3.753 3.658.885 5.166a.633.633 0 0 1-.624.74zm-11.556-9.576l3.073 2.995a.636.636 0 0 1 .182.561l-.726 4.23 3.798-1.998a.634.634 0 0 1 .59 0l3.798 1.997-.726-4.229a.634.634 0 0 1 .183-.56l3.072-2.996-4.246-.616a.636.636 0 0 1-.477-.347l-1.9-3.848-1.898 3.848a.632.632 0 0 1-.477.347z"/><path id="n6u5s" d="M364.487 2476.76a.632.632 0 0 1-.624-.74l.622-3.625-2.635-2.57a.634.634 0 0 1 .351-1.08l3.641-.528 1.628-3.3a.632.632 0 0 1 1.136 0l1.776 3.599a.633.633 0 1 1-1.136.56l-1.208-2.446-1.207 2.446a.634.634 0 0 1-.477.347l-2.7.393 1.954 1.904a.634.634 0 0 1 .182.56l-.462 2.69 2.415-1.27a.634.634 0 0 1 .743.113l1.642 1.642a.633.633 0 1 1-.896.896l-1.312-1.313-3.138 1.65a.63.63 0 0 1-.295.073z"/><path id="n6u5t" d="M390.616 2476.875a.631.631 0 0 1-.295-.073l-3.214-1.69-1.483 1.466a.634.634 0 0 1-.89-.9l1.812-1.793a.634.634 0 0 1 .74-.111l2.49 1.309-.477-2.771a.634.634 0 0 1 .182-.561l2.014-1.963-2.782-.404a.633.633 0 0 1-.478-.347l-1.244-2.521-1.244 2.521a.635.635 0 0 1-1.137-.56l1.813-3.672a.633.633 0 0 1 1.136 0l1.665 3.373 3.723.541a.635.635 0 0 1 .352 1.081l-2.694 2.626.636 3.708a.636.636 0 0 1-.625.741z"/><path id="n6u5u" d="M377.286 2461.637a.633.633 0 0 1-.633-.634v-1.26a.632.632 0 1 1 1.266 0v1.26a.633.633 0 0 1-.633.634z"/><path id="n6u5v" d="M372.35 2463.29a.636.636 0 0 1-.532-.288l-.542-.834a.634.634 0 1 1 1.062-.691l.542.834a.633.633 0 0 1-.53.979z"/><path id="n6u5w" d="M382.267 2463.29a.631.631 0 0 1-.555-.937l.538-.982a.633.633 0 1 1 1.11.608l-.537.982a.633.633 0 0 1-.556.329z"/><linearGradient id="n6u5b" x1="372.69" x2="382.31" y1="2444.42" y2="2434.8" gradientUnits="userSpaceOnUse"><stop offset="0" stop-color="#0693e9"/><stop offset=".01" stop-color="#0693e9"/><stop offset="1" stop-color="#9cc037"/><stop offset="1" stop-color="#9cc037"/></linearGradient><linearGradient id="n6u5d" x1="392.69" x2="402.31" y1="2445.42" y2="2435.8" gradientUnits="userSpaceOnUse"><stop offset="0" stop-color="#0693e9"/><stop offset=".01" stop-color="#0693e9"/><stop offset="1" stop-color="#9cc037"/><stop offset="1" stop-color="#9cc037"/></linearGradient><linearGradient id="n6u5f" x1="360.08" x2="397.69" y1="2529.63" y2="2492.02" gradientUnits="userSpaceOnUse"><stop offset="0" stop-color="#0693e9"/><stop offset=".01" stop-color="#0693e9"/><stop offset="1" stop-color="#9cc037"/><stop offset="1" stop-color="#9cc037"/></linearGradient><linearGradient id="n6u5h" x1="353.23" x2="402.07" y1="2559.38" y2="2510.54" gradientUnits="userSpaceOnUse"><stop offset="0" stop-color="#0693e9"/><stop offset=".01" stop-color="#0693e9"/><stop offset="1" stop-color="#9cc037"/><stop offset="1" stop-color="#9cc037"/></linearGradient><linearGradient id="n6u5j" x1="359.75" x2="396.25" y1="2488.86" y2="2452.36" gradientUnits="userSpaceOnUse"><stop offset="0" stop-color="#0693e9"/><stop offset=".01" stop-color="#0693e9"/><stop offset="1" stop-color="#9cc037"/><stop offset="1" stop-color="#9cc037"/></linearGradient></defs><g><g transform="translate(-330 -2431)"><use fill="url(#n6u5b)" xlink:href="#n6u5a"/></g><g transform="translate(-330 -2431)"><use fill="url(#n6u5d)" xlink:href="#n6u5c"/></g><g transform="translate(-330 -2431)"><use fill="url(#n6u5f)" xlink:href="#n6u5e"/></g><g transform="translate(-330 -2431)"><use fill="url(#n6u5h)" xlink:href="#n6u5g"/></g><g transform="translate(-330 -2431)"><use fill="url(#n6u5j)" xlink:href="#n6u5i"/></g><g transform="translate(-330 -2431)"><use fill="#333" xlink:href="#n6u5k"/></g><g transform="translate(-330 -2431)"><use fill="#333" xlink:href="#n6u5l"/></g><g transform="translate(-330 -2431)"><use fill="#333" xlink:href="#n6u5m"/></g><g transform="translate(-330 -2431)"><use fill="#333" xlink:href="#n6u5n"/></g><g transform="translate(-330 -2431)"><use fill="#333" xlink:href="#n6u5o"/></g><g transform="translate(-330 -2431)"><use fill="#333" xlink:href="#n6u5p"/></g><g transform="translate(-330 -2431)"><use fill="#333" xlink:href="#n6u5q"/></g><g transform="translate(-330 -2431)"><g><text dominant-baseline="text-before-edge" transform="translate(351 2426)"><tspan fill="#333" font-family="'Hero New Bold','HeroNew-Bold'" font-size="26" font-weight="700" letter-spacing="1.3">300</tspan></text></g></g><g transform="translate(-330 -2431)"><use fill="#fff" xlink:href="#n6u5r"/></g><g transform="translate(-330 -2431)"><use fill="#fff" xlink:href="#n6u5s"/></g><g transform="translate(-330 -2431)"><use fill="#fff" xlink:href="#n6u5t"/></g><g transform="translate(-330 -2431)"><use fill="#fff" xlink:href="#n6u5u"/></g><g transform="translate(-330 -2431)"><use fill="#fff" xlink:href="#n6u5v"/></g><g transform="translate(-330 -2431)"><use fill="#fff" xlink:href="#n6u5w"/></g></g></svg>