<svg xmlns="http://www.w3.org/2000/svg" xmlns:xlink="http://www.w3.org/1999/xlink" width="78.67" height="79.33" viewBox="0 0 118 119"><defs><path id="7nnea" d="M1148.976 2220.992a6.572 6.572 0 0 0 6.572 6.572 6.573 6.573 0 0 0 0-13.146 6.572 6.572 0 0 0-6.572 6.574z"/><path id="7nnec" d="M1175.268 2224.577a6.574 6.574 0 0 0 13.148 0 6.575 6.575 0 0 0-13.148 0z"/><path id="7nnee" d="M1155.55 2270.633l-14.799-20.965L1128 2268l-9.001-6-8.998 22-8.001 18.001 1 5 99.886 1.999-.128-.292 10.243-1.707.999-5-11.423-26.443L1194 2257l-15.017 6.232-9.867-13.564z"/><path id="7nneg" d="M1122.682 2224.577a6.574 6.574 0 0 0 13.146 0 6.574 6.574 0 0 0-6.572-6.574 6.574 6.574 0 0 0-6.574 6.574z"/><path id="7nnei" d="M1130.743 2215.96l-1.15 4.597 1.15 6.895 2.298 5.746 3.448-1.15 2.298-6.895v-5.746z"/><path id="7nnej" d="M1176.71 2214.811l-3.448 5.746-1.149 8.045 3.448 4.596h2.298l2.3-5.746 1.148-8.044-1.149-4.597z"/><path id="7nnek" d="M1215.45 2300.72l-19.912-46.22-3 1 19.848 46.602a3.365 3.365 0 0 1-3.068 4.733h-10.08v3.36h10.08a6.727 6.727 0 0 0 6.131-9.475z"/><path id="7nnel" d="M1170.52 2310.2v-3.36h3.36v3.36z"/><path id="7nnem" d="M1103.32 2303.475c0-.48.098-.943.294-1.376l18.924-43.6-2-3-19.99 45.22a6.727 6.727 0 0 0 6.131 9.476h60.48v-3.36h-60.48a3.364 3.364 0 0 1-3.36-3.36z"/><path id="7nnen" d="M1155.405 2233c6.591 0 11.953-5.362 11.953-11.953 0-6.592-5.362-11.953-11.953-11.953-6.592 0-11.953 5.36-11.953 11.953 0 6.59 5.361 11.953 11.953 11.953zm0-19.922c4.395 0 7.97 3.574 7.97 7.969 0 4.395-3.575 7.969-7.97 7.969s-7.969-3.574-7.969-7.97c0-4.394 3.574-7.968 7.97-7.968z"/><path id="7nneo" d="M1201.918 2207.033a26.342 26.342 0 0 0-2.967-2.634l-2.413 3.171c.894.68 1.74 1.43 2.516 2.234z"/><path id="7nnep" d="M1201.918 2207.033a26.342 26.342 0 0 0-2.967-2.634l-2.413 3.171c.894.68 1.74 1.43 2.516 2.234l2.864-2.77z"/><path id="7nneq" d="M1109.272 2246.251l1.728 2.654 2.815-1.834-1.728-2.653z"/><path id="7nner" d="M1109.272 2246.251l1.728 2.654 2.815-1.834-1.728-2.653-2.815 1.833z"/><path id="7nnes" d="M1105.938 2239.136a25.794 25.794 0 0 1-4.174-14.105c0-14.28 11.618-25.898 25.898-25.898 3.045 0 6.002.552 8.829 1.58 4.99-4.68 11.695-7.556 19.06-7.556 7.368 0 14.072 2.876 19.063 7.558 6.142-2.223 13.043-2.071 19.06.517l-1.575 3.66c-4.571-1.967-9.763-2.268-14.54-.95a27.775 27.775 0 0 1 5.242 11.174c.214-.014.426-.046.64-.046 5.493 0 9.962 4.469 9.962 9.96 0 5.493-4.47 9.962-9.961 9.962a9.917 9.917 0 0 1-3.386-.618 28.088 28.088 0 0 1-1.042 1.758l-7.261 11.1 11.684 17.528 18.398-27.81a21.823 21.823 0 0 0 3.52-11.92c0-3.66-.92-7.281-2.658-10.473l3.497-1.907a25.937 25.937 0 0 1 3.146 12.38c0 5.028-1.443 9.905-4.173 14.106l-21.72 32.825-14.065-21.104-13.83 21.143-13.832-21.146-14.05 21.088-11.663-17.348 3.306-2.222 8.34 12.407 11.695-17.551-7.258-11.096a27.17 27.17 0 0 1-1.042-1.76 9.907 9.907 0 0 1-3.386.62c-5.492 0-9.961-4.47-9.961-9.961 0-5.492 4.469-9.961 9.96-9.961.216 0 .428.032.642.046a27.773 27.773 0 0 1 5.245-11.176 21.836 21.836 0 0 0-5.886-.822c-12.083 0-21.914 9.83-21.914 21.913 0 4.257 1.22 8.383 3.529 11.934l1.549 2.38-3.34 2.172zm21.724-8.128a5.97 5.97 0 0 0 1.736-.262 27.873 27.873 0 0 1-1.736-9.7c0-.668.032-1.33.078-1.986-.026 0-.052-.005-.078-.005a5.983 5.983 0 0 0-5.977 5.976 5.983 5.983 0 0 0 5.977 5.977zm55.78-11.953c-.026 0-.052.005-.078.005.046.657.078 1.318.078 1.987 0 3.339-.593 6.617-1.737 9.7.56.17 1.143.26 1.737.26a5.983 5.983 0 0 0 5.977-5.976 5.983 5.983 0 0 0-5.977-5.976zm-27.89-21.914c-13.182 0-23.906 10.723-23.906 23.906 0 4.603 1.31 9.072 3.79 12.92l20.116 30.754 20.12-30.76a23.798 23.798 0 0 0 3.786-12.914c0-13.183-10.724-23.906-23.906-23.906z"/><path id="7nnet" d="M1107.487 2241.517l-1.55-2.381a25.794 25.794 0 0 1-4.173-14.105c0-14.28 11.618-25.898 25.898-25.898 3.045 0 6.002.552 8.829 1.58 4.99-4.68 11.695-7.556 19.06-7.556 7.368 0 14.072 2.876 19.063 7.558 6.142-2.223 13.043-2.071 19.06.517l-1.575 3.66c-4.571-1.967-9.763-2.268-14.54-.95a27.775 27.775 0 0 1 5.242 11.174c.214-.014.426-.046.64-.046 5.493 0 9.962 4.469 9.962 9.96 0 5.493-4.47 9.962-9.961 9.962a9.917 9.917 0 0 1-3.386-.618 28.088 28.088 0 0 1-1.042 1.758l-7.261 11.1 11.684 17.528 18.398-27.81a21.823 21.823 0 0 0 3.52-11.92c0-3.66-.92-7.281-2.658-10.473l3.497-1.907a25.937 25.937 0 0 1 3.146 12.38c0 5.028-1.443 9.905-4.173 14.106l-21.72 32.825-14.065-21.104-13.83 21.143-13.832-21.146-14.05 21.088-11.663-17.348 3.306-2.222 8.34 12.407 11.695-17.551-7.258-11.096a27.17 27.17 0 0 1-1.042-1.76 9.907 9.907 0 0 1-3.386.62c-5.492 0-9.961-4.47-9.961-9.961 0-5.492 4.469-9.961 9.96-9.961.216 0 .428.032.642.046a27.773 27.773 0 0 1 5.245-11.176 21.836 21.836 0 0 0-5.886-.822c-12.083 0-21.914 9.83-21.914 21.913 0 4.257 1.22 8.383 3.529 11.934l1.549 2.38zm20.175-10.51a5.97 5.97 0 0 0 1.736-.261 27.873 27.873 0 0 1-1.736-9.7c0-.668.032-1.33.078-1.986-.026 0-.052-.005-.078-.005a5.983 5.983 0 0 0-5.977 5.976 5.983 5.983 0 0 0 5.977 5.977zm55.78-11.952c-.026 0-.052.005-.078.005.046.657.078 1.318.078 1.987 0 3.339-.593 6.617-1.737 9.7.56.17 1.143.26 1.737.26a5.983 5.983 0 0 0 5.977-5.976 5.983 5.983 0 0 0-5.977-5.976zm-27.89-21.914c-13.182 0-23.906 10.723-23.906 23.906 0 4.603 1.31 9.072 3.79 12.92l20.116 30.754 20.12-30.76a23.798 23.798 0 0 0 3.786-12.914c0-13.183-10.724-23.906-23.906-23.906z"/><path id="7nneu" d="M1148.76 2294v-2.89h16.8v2.89z"/><path id="7nnev" d="M1140.66 2280v-3h33v3z"/><path id="7nnew" d="M1146.66 2287v-3h21v3z"/><path id="7nnex" d="M1151.66 2300v-2h11v2z"/><linearGradient id="7nneb" x1="1150.9" x2="1160.2" y1="2225.64" y2="2216.34" gradientUnits="userSpaceOnUse"><stop offset="0" stop-color="#0693e9"/><stop offset=".01" stop-color="#0693e9"/><stop offset="1" stop-color="#9cc037"/><stop offset="1" stop-color="#9cc037"/></linearGradient><linearGradient id="7nned" x1="1177.19" x2="1186.49" y1="2229.22" y2="2219.93" gradientUnits="userSpaceOnUse"><stop offset="0" stop-color="#0693e9"/><stop offset=".01" stop-color="#0693e9"/><stop offset="1" stop-color="#9cc037"/><stop offset="1" stop-color="#9cc037"/></linearGradient><linearGradient id="7nnef" x1="1123.25" x2="1193.75" y1="2327.25" y2="2256.75" gradientUnits="userSpaceOnUse"><stop offset="0" stop-color="#0693e9"/><stop offset=".01" stop-color="#0693e9"/><stop offset="1" stop-color="#9cc037"/><stop offset="1" stop-color="#9cc037"/></linearGradient><linearGradient id="7nneh" x1="1124.61" x2="1133.9" y1="2229.22" y2="2219.93" gradientUnits="userSpaceOnUse"><stop offset="0" stop-color="#0693e9"/><stop offset=".01" stop-color="#0693e9"/><stop offset="1" stop-color="#9cc037"/><stop offset="1" stop-color="#9cc037"/></linearGradient></defs><g><g transform="translate(-1099 -2192)"><use fill="url(#7nneb)" xlink:href="#7nnea"/></g><g transform="translate(-1099 -2192)"><use fill="url(#7nned)" xlink:href="#7nnec"/></g><g transform="translate(-1099 -2192)"><use fill="url(#7nnef)" xlink:href="#7nnee"/></g><g transform="translate(-1099 -2192)"><use fill="url(#7nneh)" xlink:href="#7nneg"/></g><g transform="translate(-1099 -2192)"><use fill="#fff" xlink:href="#7nnei"/></g><g transform="translate(-1099 -2192)"><use fill="#fff" xlink:href="#7nnej"/></g><g transform="translate(-1099 -2192)"><use fill="#231f20" xlink:href="#7nnek"/></g><g transform="translate(-1099 -2192)"><use fill="#fff" fill-opacity="0" stroke="#fff" stroke-miterlimit="50" stroke-width=".75" xlink:href="#7nnek"/></g><g transform="translate(-1099 -2192)"><use fill="#231f20" xlink:href="#7nnel"/><use fill="#fff" fill-opacity="0" stroke="#fff" stroke-miterlimit="50" stroke-width=".75" xlink:href="#7nnel"/></g><g transform="translate(-1099 -2192)"><use fill="#231f20" xlink:href="#7nnem"/></g><g transform="translate(-1099 -2192)"><use fill="#fff" fill-opacity="0" stroke="#fff" stroke-miterlimit="50" stroke-width=".75" xlink:href="#7nnem"/></g><g transform="translate(-1099 -2192)"><use fill="#231f20" xlink:href="#7nnen"/></g><g transform="translate(-1099 -2192)"><use fill="#fff" fill-opacity="0" stroke="#fff" stroke-miterlimit="50" stroke-width=".25" xlink:href="#7nnen"/></g><g transform="translate(-1099 -2192)"><use fill="#231f20" xlink:href="#7nneo"/></g><g transform="translate(-1099 -2192)"><use fill="#fff" fill-opacity="0" stroke="#fff" stroke-miterlimit="50" stroke-width=".25" xlink:href="#7nnep"/></g><g transform="translate(-1099 -2192)"><use fill="#231f20" xlink:href="#7nneq"/></g><g transform="translate(-1099 -2192)"><use fill="#fff" fill-opacity="0" stroke="#fff" stroke-miterlimit="50" stroke-width=".25" xlink:href="#7nner"/></g><g transform="translate(-1099 -2192)"><use fill="#231f20" xlink:href="#7nnes"/></g><g transform="translate(-1099 -2192)"><use fill="#fff" fill-opacity="0" stroke="#fff" stroke-miterlimit="50" stroke-width=".75" xlink:href="#7nnet"/></g><g transform="translate(-1099 -2192)"><use fill="#fff" xlink:href="#7nneu"/></g><g transform="translate(-1099 -2192)"><use fill="#fff" xlink:href="#7nnev"/></g><g transform="translate(-1099 -2192)"><use fill="#fff" xlink:href="#7nnew"/></g><g transform="translate(-1099 -2192)"><use fill="#fff" xlink:href="#7nnex"/></g></g></svg>