<svg xmlns="http://www.w3.org/2000/svg" xmlns:xlink="http://www.w3.org/1999/xlink" width="22.67" height="18.67" viewBox="0 0 34 28"><defs><path id="c6eia" d="M1464.891 1343.296a6.983 6.983 0 0 0-2.776.784 7.136 7.136 0 0 0-2.239 1.829 6.887 6.887 0 0 0-1.337 2.679c-.23.943-.212 1.875-.071 2.828.022.159.007.18-.136.159-5.409-.805-9.894-2.742-13.533-6.889-.159-.18-.244-.18-.375.013-1.592 2.388-.819 6.224 1.17 8.108.266.252.539.504.833.733-.108.022-1.432-.122-2.612-.733-.157-.099-.237-.041-.251.137-.014.259.007.495.042.776.306 2.419 1.983 4.659 4.278 5.532.272.114.574.215.868.266-.523.114-1.062.196-2.562.079-.186-.037-.257.057-.186.236 1.127 3.073 3.559 3.985 5.381 4.507.244.041.488.041.734.099-.016.023-.031.023-.045.043-.604.922-2.699 1.608-3.674 1.949-1.775.62-3.707.899-5.583.714-.3-.045-.363-.04-.444 0-.082.05-.011.123.086.201.38.25.767.474 1.162.69a18.527 18.527 0 0 0 3.731 1.492c6.706 1.851 14.26.49 19.293-4.512 3.955-3.928 5.34-9.346 5.34-14.77 0-.211.251-.329.4-.441 1.029-.773 1.858-1.698 2.626-2.73a.83.83 0 0 0 .174-.524v-.028c0-.087-.001-.061-.135 0-1.044.471-2.196.758-3.322.947.533-.09 1.318-1.057 1.633-1.449.481-.596.879-1.276 1.103-2.01.028-.058.049-.129-.008-.173-.072-.029-.119-.013-.176.015a16.898 16.898 0 0 1-3.938 1.507c-.115.029-.2 0-.272-.072-.115-.13-.222-.251-.345-.353a6.974 6.974 0 0 0-1.908-1.168 6.615 6.615 0 0 0-2.493-.485c-.144 0-.289.005-.433.014z"/><linearGradient id="c6eib" x1="1442.74" x2="1470.5" y1="1367.64" y2="1339.88" gradientUnits="userSpaceOnUse"><stop offset="0" stop-color="#00cdff"/><stop offset="1" stop-color="#0080ff"/></linearGradient></defs><g><g transform="translate(-1442 -1343)"><use fill="url(#c6eib)" xlink:href="#c6eia"/></g></g></svg>