<svg xmlns="http://www.w3.org/2000/svg" xmlns:xlink="http://www.w3.org/1999/xlink" width="70" height="74" viewBox="0 0 105 111"><defs><path id="th86a" d="M371.077 2311l-48.042-27.737v-55.473l48.042-27.738 48.041 27.737v55.474zm-44.915-29.543l44.915 25.933 44.914-25.933v-51.862l-44.914-25.931-44.915 25.93z"/><path id="th86b" d="M371.077 2280.355l-13.509-13.508c-7.614 2.139-13.199 9.128-13.199 17.426v9.503l26.708 15.419 26.707-15.419v-9.503c0-8.298-5.584-15.287-13.197-17.426z"/><path id="th86d" d="M395.898 2229.772c0 7.361 5.967 13.331 13.33 13.331 7.362 0 13.331-5.97 13.331-13.331 0-7.364-5.969-13.331-13.331-13.331-7.363 0-13.33 5.967-13.33 13.331z"/><path id="th86f" d="M320.061 2229.772c0 7.319 5.933 13.252 13.252 13.252 7.319 0 13.252-5.933 13.252-13.252 0-7.319-5.933-13.252-13.252-13.252-7.319 0-13.252 5.933-13.252 13.252z"/><path id="th86h" d="M399.347 2293.775h-3.127v-9.063c0-9.522-7.266-16.982-16.542-16.982h-17.202c-9.121 0-16.542 7.421-16.542 16.542v9.503h-3.127v-9.503c0-10.846 8.823-19.669 19.669-19.669h17.202c5.28 0 10.223 2.068 13.917 5.825 3.709 3.771 5.752 8.844 5.752 14.284z"/><path id="th86i" d="M384.262 2244.684c0 7.282-5.903 13.185-13.185 13.185-7.282 0-13.185-5.903-13.185-13.185 0-7.282 5.903-13.185 13.185-13.185 7.282 0 13.185 5.903 13.185 13.185z"/><path id="th86j" d="M371.077 2259.434c-8.132 0-14.75-6.618-14.75-14.75s6.618-14.748 14.75-14.748 14.749 6.616 14.749 14.749c0 8.132-6.617 14.749-14.75 14.749zm0-26.372c-6.408 0-11.622 5.214-11.622 11.623 0 6.407 5.214 11.62 11.622 11.62 6.408 0 11.622-5.212 11.622-11.62 0-6.41-5.214-11.623-11.622-11.623z"/><path id="th86k" d="M354 2300.24v-10.8h3.13v10.8z"/><path id="th86l" d="M385.03 2300.24v-10.8h3.13v10.8z"/><path id="th86m" d="M409.228 2219.735c6.804 0 12.413 5.1 13.226 11.683.066-.54.105-1.089.105-1.647 0-7.363-5.97-13.33-13.331-13.33-7.362 0-13.331 5.967-13.331 13.33 0 .558.039 1.107.105 1.647.813-6.584 6.422-11.683 13.226-11.683z"/><path id="th86n" d="M409.228 2244.254c-7.986 0-14.483-6.497-14.483-14.483 0-7.986 6.497-14.483 14.483-14.483 7.986 0 14.483 6.497 14.483 14.483 0 7.986-6.497 14.483-14.483 14.483zm0-26.662c-6.715 0-12.178 5.463-12.178 12.18 0 6.714 5.463 12.177 12.178 12.177 6.715 0 12.178-5.463 12.178-12.178 0-6.716-5.463-12.179-12.178-12.179z"/><path id="th86o" d="M333.313 2219.795c6.764 0 12.34 5.068 13.148 11.614.066-.537.104-1.083.104-1.638 0-7.32-5.933-13.252-13.252-13.252-7.319 0-13.252 5.933-13.252 13.252 0 .555.038 1.1.105 1.638.807-6.546 6.383-11.614 13.147-11.614z"/><path id="th86p" d="M333.313 2244.168c-7.939 0-14.397-6.458-14.397-14.397 0-7.94 6.458-14.397 14.397-14.397 7.94 0 14.397 6.458 14.397 14.397s-6.458 14.397-14.397 14.397zm0-26.503c-6.676 0-12.107 5.43-12.107 12.106s5.431 12.107 12.107 12.107c6.676 0 12.107-5.431 12.107-12.107 0-6.675-5.43-12.106-12.107-12.106z"/><path id="th86q" d="M336.254 2233.794c-.476.489-1.118.81-1.924.965v.63c0 .267-.084.48-.25.644a.892.892 0 0 1-.65.245.892.892 0 0 1-.65-.245c-.168-.163-.252-.377-.252-.643v-.58c-.952-.12-1.768-.398-2.445-.836a.86.86 0 0 1-.328-.322.998.998 0 0 1-.097-.476c0-.257.075-.48.225-.67.15-.188.328-.282.534-.282a.98.98 0 0 1 .31.05c.102.036.235.1.398.194.378.206.73.352 1.056.438a4.07 4.07 0 0 0 1.042.129c.455 0 .8-.075 1.036-.225.236-.151.354-.376.354-.676a.55.55 0 0 0-.212-.444 1.629 1.629 0 0 0-.528-.277 14.75 14.75 0 0 0-.92-.257 12.424 12.424 0 0 1-1.583-.496 2.73 2.73 0 0 1-1.069-.785c-.3-.356-.45-.834-.45-1.435 0-.687.24-1.283.721-1.79.48-.505 1.115-.84 1.905-1.003v-.644c0-.257.085-.47.257-.636a.882.882 0 0 1 .643-.251c.266 0 .483.08.65.244.168.163.251.378.251.643v.605c.712.112 1.408.382 2.085.81a.96.96 0 0 1 .33.342.993.993 0 0 1 .095.457c0 .258-.077.48-.232.67-.154.188-.334.282-.54.282a.865.865 0 0 1-.296-.051 3.497 3.497 0 0 1-.412-.193c-.06-.034-.193-.105-.399-.212a3.318 3.318 0 0 0-.663-.257 2.825 2.825 0 0 0-.753-.097c-.386 0-.699.083-.939.25a.784.784 0 0 0-.36.677c0 .274.137.48.411.617.275.138.708.275 1.3.412.635.146 1.156.3 1.564.463.407.163.76.425 1.055.786.296.36.444.845.444 1.454 0 .695-.238 1.287-.714 1.776z"/><path id="th86r" d="M369.34 2304.51v-3.35h3.13v3.35zm0-6.7v-3.35h3.13v3.35zm0-6.71v-3.35h3.13v3.35zm0-6.7v-3.35h3.13v3.35z"/><path id="th86s" d="M406.402 2235.786l-1.63-1.63 3.304-3.303v-6.281h2.304v7.235z"/><path id="th86t" d="M408.08 2220.21v-3.77h2.3v3.77z"/><path id="th86u" d="M408.08 2243.1v-3.76h2.3v3.76z"/><path id="th86v" d="M418.79 2230.92v-2.3h3.76v2.3z"/><path id="th86w" d="M395.9 2230.92v-2.3h3.76v2.3z"/><path id="th86x" d="M343.615 2292.648l27.12 14.69 27.118-14.69h2.26l-29.035 18.031-27.462-16.9h2.26z"/><linearGradient id="th86c" x1="344.37" x2="397.78" y1="2288.02" y2="2288.02" gradientUnits="userSpaceOnUse"><stop offset="0" stop-color="#0693e9"/><stop offset=".01" stop-color="#0693e9"/><stop offset="1" stop-color="#9cc037"/><stop offset="1" stop-color="#9cc037"/></linearGradient><linearGradient id="th86e" x1="395.9" x2="422.56" y1="2229.77" y2="2229.77" gradientUnits="userSpaceOnUse"><stop offset="0" stop-color="#0693e9"/><stop offset=".01" stop-color="#0693e9"/><stop offset="1" stop-color="#9cc037"/><stop offset="1" stop-color="#9cc037"/></linearGradient><linearGradient id="th86g" x1="320.06" x2="346.57" y1="2229.77" y2="2229.77" gradientUnits="userSpaceOnUse"><stop offset="0" stop-color="#0693e9"/><stop offset=".01" stop-color="#0693e9"/><stop offset="1" stop-color="#9cc037"/><stop offset="1" stop-color="#9cc037"/></linearGradient></defs><g><g transform="translate(-319 -2200)"><use fill="#122436" xlink:href="#th86a"/></g><g transform="translate(-319 -2200)"><use fill="url(#th86c)" xlink:href="#th86b"/></g><g transform="translate(-319 -2200)"><use fill="url(#th86e)" xlink:href="#th86d"/></g><g transform="translate(-319 -2200)"><use fill="url(#th86g)" xlink:href="#th86f"/></g><g transform="translate(-319 -2200)"><use fill="#122436" xlink:href="#th86h"/></g><g transform="translate(-319 -2200)"><use fill="#fff" xlink:href="#th86i"/></g><g transform="translate(-319 -2200)"><use fill="#122436" xlink:href="#th86j"/></g><g transform="translate(-319 -2200)"><use fill="#122436" xlink:href="#th86k"/></g><g transform="translate(-319 -2200)"><use fill="#122436" xlink:href="#th86l"/></g><g transform="translate(-319 -2200)"><use fill="#fff" xlink:href="#th86m"/></g><g transform="translate(-319 -2200)"><use fill="#122436" xlink:href="#th86n"/></g><g transform="translate(-319 -2200)"><use fill="#fff" xlink:href="#th86o"/></g><g transform="translate(-319 -2200)"><use fill="#122436" xlink:href="#th86p"/></g><g transform="translate(-319 -2200)"><use fill="#fff" xlink:href="#th86q"/></g><g transform="translate(-319 -2200)"><use fill="#122436" xlink:href="#th86r"/></g><g transform="translate(-319 -2200)"><use fill="#fff" xlink:href="#th86s"/></g><g transform="translate(-319 -2200)"><use fill="#122436" xlink:href="#th86t"/></g><g transform="translate(-319 -2200)"><use fill="#122436" xlink:href="#th86u"/></g><g transform="translate(-319 -2200)"><use fill="#122436" xlink:href="#th86v"/></g><g transform="translate(-319 -2200)"><use fill="#122436" xlink:href="#th86w"/></g><g transform="translate(-319 -2200)"><use fill="#122436" xlink:href="#th86x"/></g></g></svg>