<svg xmlns="http://www.w3.org/2000/svg" xmlns:xlink="http://www.w3.org/1999/xlink" width="22" height="22" viewBox="0 0 33 33"><defs><path id="cyt8a" d="M461.222 1015.686c-1.047-1.034-2.354-1.034-3.395 0-.794.788-1.588 1.574-2.368 2.375-.214.22-.394.267-.654.12-.514-.28-1.061-.507-1.554-.814-2.302-1.448-4.23-3.308-5.938-5.403-.847-1.041-1.601-2.155-2.128-3.41-.106-.252-.087-.42.12-.626.794-.767 1.568-1.555 2.349-2.342 1.087-1.094 1.087-2.375-.007-3.475-.62-.627-1.241-1.241-1.861-1.868-.641-.64-1.274-1.288-1.921-1.922-1.048-1.02-2.355-1.02-3.396.007-.801.788-1.568 1.595-2.381 2.368-.755.714-1.135 1.588-1.215 2.609-.127 1.66.28 3.228.854 4.756 1.174 3.162 2.962 5.97 5.13 8.545 2.929 3.483 6.424 6.238 10.513 8.226 1.842.893 3.749 1.58 5.824 1.693 1.428.08 2.669-.28 3.663-1.394.68-.76 1.447-1.454 2.168-2.18 1.067-1.082 1.073-2.39.013-3.457-1.267-1.274-2.542-2.54-3.816-3.809z"/><path id="cyt8b" d="M459.948 1010.369l2.462-.42a11.003 11.003 0 0 0-3.076-5.937 10.946 10.946 0 0 0-6.27-3.13l-.347 2.476a8.49 8.49 0 0 1 4.856 2.422 8.486 8.486 0 0 1 2.375 4.589z"/><path id="cyt8c" d="M463.797 999.668a18.15 18.15 0 0 0-10.407-5.19l-.346 2.475a15.746 15.746 0 0 1 8.992 4.483 15.721 15.721 0 0 1 4.409 8.505l2.462-.42a18.285 18.285 0 0 0-5.11-9.853z"/></defs><g><g transform="translate(-436 -994)"><use fill="#0694ea" xlink:href="#cyt8a"/></g><g transform="translate(-436 -994)"><use fill="#0694ea" xlink:href="#cyt8b"/></g><g transform="translate(-436 -994)"><use fill="#0694ea" xlink:href="#cyt8c"/></g></g></svg>