<svg xmlns="http://www.w3.org/2000/svg" xmlns:xlink="http://www.w3.org/1999/xlink" width="16" height="19.33" viewBox="0 0 24 29"><defs><path id="ehwfa" d="M1274.14 1017.887a.966.966 0 0 0 .224-1.355v-.006l-4.083-5.688a.968.968 0 0 0-1.351-.223l-2.01 1.439 5.21 7.27s2.009-1.43 2.009-1.433zm13.14 16.657l-3.968-5.528a.97.97 0 0 0-1.353-.223l-2.01 1.438 5.097 7.113s2.01-1.432 2.009-1.435l.005-.002c.46-.33.52-.937.22-1.358zm-15.31-11.313c-.775-1.365-1.427-2.774-.39-3.516l-5.215-7.266c-1.1.985-4.013 6.054 3.168 16.336 7.567 10.838 13.776 9.817 14.962 8.934l-5.083-7.094c-.992.708-1.963-.228-3.784-2.29-.03-.016-3.642-5.036-3.657-5.104z"/></defs><g><g transform="translate(-1264 -1010)"><use fill="#fff" xlink:href="#ehwfa"/></g></g></svg>