<svg xmlns="http://www.w3.org/2000/svg" xmlns:xlink="http://www.w3.org/1999/xlink" width="71.33" height="52" viewBox="0 0 107 78"><defs><path id="a6dsa" d="M375.607 844.092s-.087.801-.369 1.95c-6.795 1.269-15.33 1.555-15.33 1.555s-7.186-.24-13.62-1.26c.033-.743.12-1.184.12-1.184-2.322-.246-6.123-1.232-6.123-1.232s.171.494.446 1.215l-.247-.072s2.112 6.755 4.644 8.865c2.534 2.113 10.135 1.691 10.557 1.691.422 0 2.111-4.645 4.223-4.645 2.11 0 3.799 4.645 4.221 4.645.422 0 8.023.422 10.557-1.691 2.532-2.11 4.644-8.865 4.644-8.865-.883.275-1.869.521-2.913.743.294-.68.595-1.43.899-2.265zm-42.637 21.256l-.004-.002-24.151 5.764-3.786 10.601h10.601l1.516-8.33 18.594-5.613c4.561 3.795 9.809 7.283 15.102 9.589 0 0-17.795-16.488-23.853-38.052 0 0-3.787 4.23-5.301 9.303-.889 2.98 3.973 10.045 11.282 16.74zm48.385 2.42l18.594 5.613 1.516 8.33h10.6l-3.785-10.601-24.151-5.764-.004.002c7.309-6.695 12.171-13.76 11.282-16.74-1.516-5.073-5.301-9.303-5.301-9.303-6.057 21.564-23.853 38.052-23.853 38.052 5.294-2.306 10.542-5.794 15.102-9.589zm-39.202-57.836l-1.205 10.193c-9.438 2.29-15.723 6.36-15.723 11.003 0 7.161 14.936 12.964 33.358 12.964 18.422 0 33.355-5.803 33.355-12.964 0-4.646-6.293-8.72-15.747-11.008l-1.17-9.93.003-.048c0-3.264-7.361-5.911-16.441-5.911-8.884 0-16.117 2.533-16.427 5.701z"/><linearGradient id="a6dsb" x1="322.92" x2="394.22" y1="899.6" y2="828.3" gradientUnits="userSpaceOnUse"><stop offset="0" stop-color="#0693e9"/><stop offset=".01" stop-color="#0693e9"/><stop offset="1" stop-color="#9cc037"/><stop offset="1" stop-color="#9cc037"/></linearGradient></defs><g><g transform="translate(-305 -804)"><use fill="url(#a6dsb)" xlink:href="#a6dsa"/></g></g></svg>