<svg xmlns="http://www.w3.org/2000/svg" xmlns:xlink="http://www.w3.org/1999/xlink" width="23.33" height="23.33" viewBox="0 0 35 35"><defs><path id="50k3a" d="M603.598 1318.62a.567.567 0 0 1 .125-.188l1.638-1.639a.577.577 0 1 1 .817.818l-.65.65h.788c6.027 0 11.567 3.518 14.115 8.96a.577.577 0 0 1-.523.824.577.577 0 0 1-.524-.333c-2.358-5.038-7.488-8.294-13.068-8.294h-.788l.65.65a.576.576 0 0 1-.408.988.576.576 0 0 1-.409-.17l-1.638-1.637a.588.588 0 0 1-.125-.19c-.002-.002-.002-.005-.003-.008a.566.566 0 0 1 0-.421c.001-.004.001-.007.003-.01zm5.48 29.7a.574.574 0 0 1-.042.212c0 .002 0 .005-.003.008a.552.552 0 0 1-.125.189l-1.638 1.638a.575.575 0 0 1-.817 0 .577.577 0 0 1 0-.817l.651-.651h-.788c-6.458 0-12.317-4.045-14.58-10.064a.578.578 0 0 1 1.082-.409c2.094 5.573 7.52 9.317 13.498 9.317h.788l-.65-.651a.578.578 0 0 1 .816-.819l1.638 1.639a.572.572 0 0 1 .125.188l.003.01a.566.566 0 0 1 .041.21zm-17.502-11.978a.566.566 0 0 1-.21-.042l-.01-.001a.58.58 0 0 1-.189-.126l-1.638-1.638a.577.577 0 1 1 .817-.817l.652.65v-.787c0-6.295 3.737-11.933 9.52-14.364a.578.578 0 1 1 .448 1.066c-5.353 2.25-8.812 7.47-8.812 13.298v.788l.651-.651a.577.577 0 1 1 .817.817l-1.637 1.638a.595.595 0 0 1-.19.126.565.565 0 0 1-.219.043zm31.527-4.263a.58.58 0 0 1-.409.988.58.58 0 0 1-.409-.17l-.65-.651v1.334c0 6.33-3.934 12.152-9.787 14.487a.58.58 0 0 1-.751-.323.578.578 0 0 1 .323-.751c5.418-2.161 9.058-7.551 9.058-13.412v-1.335l-.65.651a.579.579 0 0 1-.818-.817l1.637-1.638a.581.581 0 0 1 .19-.125l.008-.003a.574.574 0 0 1 .422 0 .588.588 0 0 1 .198.128zm-8.802 9.425a11.132 11.132 0 0 1-7.934 3.289c-6.189 0-11.236-5.028-11.252-11.208a11.11 11.11 0 0 1 3.263-7.924 11.13 11.13 0 0 1 7.934-3.289c6.188 0 11.235 5.028 11.251 11.21a11.102 11.102 0 0 1-3.262 7.921zm-2.584-12.486h3.575a10.152 10.152 0 0 0-5.882-5c1.02 1.168 1.826 2.907 2.307 5zm-4.828 1.156v6.104h3.982a19.918 19.918 0 0 0-.107-6.104zm-6.31 6.103a21.682 21.682 0 0 1 .098-6.104h-3.823a10.049 10.049 0 0 0-.203 6.11c.018-.002.036-.006.054-.006zm5.154 0v-6.104h-3.876a19.632 19.632 0 0 0-.292 3.395c0 .935.066 1.844.186 2.71zm0-7.26v-5.384c-1.562.421-2.915 2.52-3.629 5.384zm-3.786 8.418c.66 3.212 2.101 5.615 3.786 6.07v-6.07zm4.942 0v6.07c1.684-.456 3.127-2.859 3.786-6.07zm3.628-8.418c-.713-2.865-2.066-4.963-3.628-5.384v5.384zm-9.612 0c.481-2.093 1.288-3.834 2.308-5.003a9.999 9.999 0 0 0-4.016 2.464 10.036 10.036 0 0 0-1.843 2.54zm-.145 8.418h-3.708a10.15 10.15 0 0 0 6.168 5.697c-1.133-1.295-2.005-3.293-2.46-5.698zm11.102 0c-.462 2.442-1.355 4.463-2.514 5.754a9.98 9.98 0 0 0 4.134-2.502 9.99 9.99 0 0 0 2.173-3.252zm3.94-7.261h-3.857c.173 1.067.267 2.206.267 3.395 0 .938-.059 1.844-.169 2.709h3.883c.041 0 .08.006.117.015.24-.871.366-1.78.364-2.708a10.002 10.002 0 0 0-.606-3.411z"/></defs><g><g transform="translate(-589 -1316)"><use fill="#c6c6c6" xlink:href="#50k3a"/></g></g></svg>