<svg xmlns="http://www.w3.org/2000/svg" xmlns:xlink="http://www.w3.org/1999/xlink" width="124.67" height="124.67" viewBox="0 0 187 187"><defs><path id="3qdpa" d="M802.374 1617.513h-94.218c-25.487 0-46.147-20.661-46.147-46.147v-94.22c0-25.485 20.66-46.146 46.147-46.146h94.218c25.486 0 46.147 20.66 46.147 46.147v94.219c0 25.486-20.661 46.147-46.147 46.147z"/><path id="3qdpb" d="M703.329 1548.642l8.43 8.026-8.43 8.026h19.595v-12.747h8.497v-3.305z"/><path id="3qdpd" d="M779.107 1548.642v3.305h8.497v12.747h19.595l-8.427-8.026 8.427-8.026z"/><path id="3qdpf" d="M723.87 1568.94v-16.05h62.79v16.05z"/><path id="3qdph" d="M754.865 1547.219c-7.809-2.506-14.281-6.9-19.241-13.05-.034-.04-.072-.078-.106-.119-3.95-4.938-6.941-11.001-8.888-18.025-3.302-11.906-2.452-22.636-2.443-22.744l.066-.774.918-.09c7.261-.709 16.895-3.49 28.634-8.268.929-.376 1.019-.412 1.186-.448l.273-.056.271.056c.167.036.257.072 1.186.448 11.739 4.778 21.373 7.559 28.634 8.268l.918.09.066.774c.009.108.859 10.838-2.443 22.744-1.947 7.024-4.938 13.087-8.888 18.025-4.976 6.215-11.484 10.645-19.347 13.169l-.397.126zm.397-67.651l-.361.147c-13.816 5.626-25.37 9.038-34.375 10.162-.203 5.493-.182 27.478 11.61 44.292 5.148 7.338 12.526 13.697 23.126 17.259 34.92-11.732 35.035-53.663 34.737-61.551-9.002-1.124-20.553-4.536-34.372-10.16a43.858 43.858 0 0 1-.363-.149z"/><path id="3qdpj" d="M744.644 1502.394c1.027 0 2.01-.061 2.951-.181.938-.122 1.721-.331 2.35-.631.74-.357 1.295-.819 1.665-1.39.372-.568.584-1.281.64-2.136h7.074v26.344h6.56v5.556h-21.24v-5.556h6.711v-16.814h-6.711zm10.135-16.557c-11.472 4.669-21.023 7.471-28.41 8.339-.122 2.624-.289 11.637 2.447 21.47 2.071 7.446 5.251 13.624 9.494 18.523 4.476 5.166 10.131 8.908 16.954 11.168 13.293-4.405 22.192-14.393 26.446-29.691 2.736-9.833 2.569-18.846 2.447-21.47-7.387-.868-16.938-3.67-28.41-8.339-.174-.07-.341-.14-.483-.196-.144.056-.313.126-.485.196z"/><linearGradient id="3qdpc" x1="704.22" x2="726.29" y1="1565.58" y2="1543.51" gradientUnits="userSpaceOnUse"><stop offset="0" stop-color="#0694ea"/><stop offset=".01" stop-color="#0694ea"/><stop offset="1" stop-color="#9dc137"/><stop offset="1" stop-color="#9dc137"/></linearGradient><linearGradient id="3qdpe" x1="786.37" x2="804.19" y1="1563.46" y2="1545.63" gradientUnits="userSpaceOnUse"><stop offset="0" stop-color="#0694ea"/><stop offset=".01" stop-color="#0694ea"/><stop offset="1" stop-color="#9dc137"/><stop offset="1" stop-color="#9dc137"/></linearGradient><linearGradient id="3qdpg" x1="735.55" x2="774.98" y1="1580.63" y2="1541.21" gradientUnits="userSpaceOnUse"><stop offset="0" stop-color="#0694ea"/><stop offset=".01" stop-color="#0694ea"/><stop offset="1" stop-color="#9dc137"/><stop offset="1" stop-color="#9dc137"/></linearGradient><linearGradient id="3qdpi" x1="729.47" x2="781.07" y1="1532.54" y2="1480.94" gradientUnits="userSpaceOnUse"><stop offset="0" stop-color="#0694ea"/><stop offset=".01" stop-color="#0694ea"/><stop offset="1" stop-color="#9dc137"/><stop offset="1" stop-color="#9dc137"/></linearGradient><linearGradient id="3qdpk" x1="733.77" x2="776.76" y1="1529.77" y2="1486.78" gradientUnits="userSpaceOnUse"><stop offset="0" stop-color="#0694ea"/><stop offset=".01" stop-color="#0694ea"/><stop offset="1" stop-color="#9dc137"/><stop offset="1" stop-color="#9dc137"/></linearGradient></defs><g><g transform="translate(-662 -1431)"><use fill="#fff" xlink:href="#3qdpa"/></g><g transform="translate(-662 -1431)"><use fill="url(#3qdpc)" xlink:href="#3qdpb"/></g><g transform="translate(-662 -1431)"><use fill="url(#3qdpe)" xlink:href="#3qdpd"/></g><g transform="translate(-662 -1431)"><use fill="url(#3qdpg)" xlink:href="#3qdpf"/></g><g transform="translate(-662 -1431)"><use fill="url(#3qdpi)" xlink:href="#3qdph"/></g><g transform="translate(-662 -1431)"><use fill="url(#3qdpk)" xlink:href="#3qdpj"/></g></g></svg>