<svg xmlns="http://www.w3.org/2000/svg" xmlns:xlink="http://www.w3.org/1999/xlink" width="52" height="52"><defs><rect id="a" width="34" height="11" rx="2"/></defs><g transform="translate(5.508 2.492)" fill="none" fill-rule="evenodd"><rect width="40.5" height="46.5" x=".75" y=".75" rx="4" stroke="#3a5ba2" stroke-width="1.5"/><g transform="translate(4 5)"><mask id="b" fill="#fff"><use xlink:href="#a" width="100%" height="100%"/></mask><rect width="33.25" height="10.25" x=".375" y=".375" rx="2" stroke="#3a6ad1" stroke-width=".75"/><g mask="url(#b)" stroke="#3a6ad1" stroke-width=".625" stroke-linecap="square"><path d="M29.12-40.11L-12.112 1.122m58.911-23.555L5.565 18.801m24.44-58.028L-11.23 2.007m58.912-23.556L6.45 19.685m24.439-58.028L-10.345 2.891m58.911-23.556L7.332 20.569m24.441-58.028L-9.461 3.775M49.45-19.781L8.216 21.453m24.44-58.028L-8.577 4.659m58.911-23.556L9.1 22.337m24.44-58.028L-7.694 5.543m58.912-23.556L9.984 23.22m24.44-58.027L-6.81 6.427M52.102-17.13L10.868 24.104m24.44-58.027L-5.926 7.31m58.912-23.556L11.752 24.988m24.44-58.028L-5.042 8.195M53.87-15.362L12.636 25.872m24.44-58.028L-4.158 9.078m58.911-23.556L13.52 26.756m24.44-58.028L-3.274 9.962m58.911-23.556L14.403 27.64m24.441-58.028L-2.39 10.846M56.521-12.71L15.287 28.524m24.44-58.028L-1.506 11.73m58.911-23.556L16.171 29.408m24.44-58.028L-.623 12.614m58.912-23.556L17.055 30.29m24.44-58.026L.261 13.498m58.912-23.557L17.939 31.175M42.38-26.852L1.144 14.382M60.057-9.175L18.823 32.06m24.44-58.028L2.029 15.265M60.94-8.29L19.708 32.942m24.439-58.027L2.913 16.15M61.825-7.407L20.59 33.827M45.03-24.2L3.798 17.032m58.91-23.555L21.475 34.711m24.44-58.028L4.68 17.917M63.592-5.64L22.358 35.596"/></g></g><g transform="translate(4 20)" stroke="#3a5ba2" stroke-width="1.5"><rect width="8.5" height="4.5" x=".75" y=".75" rx="2"/><rect width="8.5" height="4.5" x=".75" y="9.75" rx="2"/><rect width="8.5" height="4.5" x=".75" y="18.75" rx="2"/><rect width="8.5" height="4.5" x="12.75" y=".75" rx="2"/><rect width="8.5" height="4.5" x="12.75" y="9.75" rx="2"/><rect width="8.5" height="4.5" x="12.75" y="18.75" rx="2"/><rect width="8.5" height="4.5" x="24.75" y=".75" rx="2"/><rect width="8.5" height="4.5" x="24.75" y="9.75" rx="2"/><rect width="8.5" height="4.5" x="24.75" y="18.75" rx="2"/></g></g></svg>