<svg xmlns="http://www.w3.org/2000/svg" xmlns:xlink="http://www.w3.org/1999/xlink" width="24" height="24" viewBox="0 0 36 36"><defs><path id="z1lca" d="M1249.937 2697.001a.633.633 0 0 0-.565.332l-5.988 10.975a.641.641 0 0 0 .062.713c.163.201.43.286.682.216l3.414-.989.002 7.314-7.421.002.987-3.413a.644.644 0 0 0-.214-.682.64.64 0 0 0-.711-.066l-10.975 5.991a.638.638 0 0 0-.336.566c0 .237.128.451.336.565l10.973 5.988c.226.126.508.1.713-.064a.652.652 0 0 0 .216-.682l-.989-3.412 8.914-.003 6.168 6.166-3.109 1.716a.643.643 0 0 0 .125 1.182l11.996 3.524a.636.636 0 0 0 .637-.164.636.636 0 0 0 .164-.634l-3.527-11.995a.637.637 0 0 0-.548-.458.651.651 0 0 0-.635.328l-1.714 3.112-6.259-6.257v-8.624l3.411.987a.643.643 0 0 0 .682-.214.642.642 0 0 0 .065-.713l-5.991-10.975a.638.638 0 0 0-.553-.333l-.012.001z"/><linearGradient id="z1lcb" x1="1241.37" x2="1262.65" y1="2730.73" y2="2709.45" gradientUnits="userSpaceOnUse"><stop offset="0" stop-color="#0693e9"/><stop offset=".01" stop-color="#0693e9"/><stop offset="1" stop-color="#9cc037"/><stop offset="1" stop-color="#9cc037"/></linearGradient></defs><g><g transform="translate(-1229 -2697)"><use fill="url(#z1lcb)" xlink:href="#z1lca"/></g></g></svg>