<svg xmlns="http://www.w3.org/2000/svg" xmlns:xlink="http://www.w3.org/1999/xlink" width="26.67" height="26.67" viewBox="0 0 40 40"><defs><path id="l9dha" d="M309.406 8277.734a19.45 19.45 0 0 0-13.844-5.734 19.449 19.449 0 0 0-13.844 5.734 19.45 19.45 0 0 0-5.734 13.845v6.14l-.001.003v9.215a4.224 4.224 0 0 0 4.219 4.22h18.432a1.148 1.148 0 0 0 .967-1.762 1.148 1.148 0 0 0-.967-1.762h-6.144a1.148 1.148 0 0 0-1.143 1.23h-11.145a1.926 1.926 0 0 1-1.924-1.926v-5.463a4.184 4.184 0 0 0 1.924.467c1.46 0 2.75-.746 3.508-1.878a14.496 14.496 0 0 1-2.73-8.484c0-1.388.195-2.73.558-4a4.203 4.203 0 0 0-2.803.045c1.794-7.632 8.657-13.33 16.827-13.33 8.17 0 15.033 5.698 16.827 13.33a4.182 4.182 0 0 0-2.803-.046c.363 1.271.558 2.613.558 4.001 0 3.162-1.013 6.092-2.73 8.484a4.215 4.215 0 0 0 3.507 1.878 4.224 4.224 0 0 0 4.219-4.219v-6.143a19.45 19.45 0 0 0-5.734-13.845z"/><path id="l9dhb" d="M295.562 8279.29c-6.775 0-12.287 5.513-12.287 12.29 0 6.774 5.512 12.287 12.287 12.287 6.775 0 12.288-5.513 12.288-12.287 0-6.777-5.513-12.29-12.288-12.29zm6.144 13.436h-6.144a1.147 1.147 0 0 1-1.147-1.146v-6.145a1.147 1.147 0 1 1 2.294 0v4.997h4.997a1.148 1.148 0 0 1 0 2.294z"/></defs><g><g transform="translate(-276 -8272)"><use fill="#d3d3d3" xlink:href="#l9dha"/></g><g transform="translate(-276 -8272)"><use fill="#d3d3d3" xlink:href="#l9dhb"/></g></g></svg>