<svg xmlns="http://www.w3.org/2000/svg" xmlns:xlink="http://www.w3.org/1999/xlink" width="125.33" height="124.67" viewBox="0 0 188 187"><defs><path id="vp15a" d="M1592.176 1616.705h-94.22c-25.485 0-46.145-20.66-46.145-46.147v-94.218c0-25.487 20.66-46.148 46.146-46.148h94.219c25.486 0 46.146 20.661 46.146 46.148v94.218c0 25.486-20.66 46.147-46.146 46.147z"/><path id="vp15b" d="M1538.262 1488.169l-20.017 20.137h-15.416a3.313 3.313 0 0 0-3.306 3.32v23.906a3.31 3.31 0 0 0 3.306 3.307h15.35l20.096 20.137a3.277 3.277 0 0 0 2.344.979 3.313 3.313 0 0 0 3.316-3.308v-66.139a3.343 3.343 0 0 0-2.062-3.065 3.336 3.336 0 0 0-3.611.726z"/><path id="vp15d" d="M1553.204 1496.736a3.308 3.308 0 0 0 1.732 4.351 24.337 24.337 0 0 1 14.784 22.402c0 9.704-5.779 18.469-14.714 22.329a3.332 3.332 0 0 0-1.735 4.351 3.335 3.335 0 0 0 3.052 1.997c.438 0 .889-.093 1.311-.278a30.902 30.902 0 0 0 18.709-28.399 30.956 30.956 0 0 0-18.799-28.485 3.296 3.296 0 0 0-4.34 1.732z"/><path id="vp15f" d="M1547.411 1510.226a3.307 3.307 0 0 0 1.748 4.348 9.636 9.636 0 0 1 5.897 8.902 9.69 9.69 0 0 1-5.816 8.871 3.299 3.299 0 0 0-1.734 4.349 3.299 3.299 0 0 0 3.04 1.996c.438 0 .9-.094 1.324-.277 5.965-2.592 9.824-8.448 9.824-14.939 0-6.549-3.9-12.445-9.943-15.01a3.32 3.32 0 0 0-4.34 1.76z"/><path id="vp15h" d="M1558.827 1483.633a3.309 3.309 0 0 0 1.728 4.351 38.596 38.596 0 0 1 23.432 35.505c0 15.413-9.165 29.326-23.351 35.432a3.308 3.308 0 0 0-1.732 4.35 3.297 3.297 0 0 0 3.04 1.998c.436 0 .887-.079 1.322-.264 16.607-7.167 27.344-23.459 27.344-41.516a45.196 45.196 0 0 0-27.434-41.588 3.3 3.3 0 0 0-4.349 1.732z"/><linearGradient id="vp15c" x1="1509.24" x2="1555.33" y1="1546.62" y2="1500.53" gradientUnits="userSpaceOnUse"><stop offset="0" stop-color="#0694ea"/><stop offset=".01" stop-color="#0694ea"/><stop offset="1" stop-color="#9dc137"/><stop offset="1" stop-color="#9dc137"/></linearGradient><linearGradient id="vp15e" x1="1541.95" x2="1573.41" y1="1539.17" y2="1507.71" gradientUnits="userSpaceOnUse"><stop offset="0" stop-color="#0694ea"/><stop offset=".01" stop-color="#0694ea"/><stop offset="1" stop-color="#9dc137"/><stop offset="1" stop-color="#9dc137"/></linearGradient><linearGradient id="vp15g" x1="1542.54" x2="1559.79" y1="1532.06" y2="1514.81" gradientUnits="userSpaceOnUse"><stop offset="0" stop-color="#0694ea"/><stop offset=".01" stop-color="#0694ea"/><stop offset="1" stop-color="#9dc137"/><stop offset="1" stop-color="#9dc137"/></linearGradient><linearGradient id="vp15i" x1="1541.38" x2="1586.67" y1="1546.08" y2="1500.8" gradientUnits="userSpaceOnUse"><stop offset="0" stop-color="#0694ea"/><stop offset=".01" stop-color="#0694ea"/><stop offset="1" stop-color="#9dc137"/><stop offset="1" stop-color="#9dc137"/></linearGradient></defs><g><g transform="translate(-1451 -1430)"><use fill="#fff" xlink:href="#vp15a"/></g><g transform="translate(-1451 -1430)"><use fill="url(#vp15c)" xlink:href="#vp15b"/></g><g transform="translate(-1451 -1430)"><use fill="url(#vp15e)" xlink:href="#vp15d"/></g><g transform="translate(-1451 -1430)"><use fill="url(#vp15g)" xlink:href="#vp15f"/></g><g transform="translate(-1451 -1430)"><use fill="url(#vp15i)" xlink:href="#vp15h"/></g></g></svg>