<svg xmlns="http://www.w3.org/2000/svg" xmlns:xlink="http://www.w3.org/1999/xlink" width="8.67" height="18.67" viewBox="0 0 13 28"><defs><path id="h5fwa" d="M1167.854 1356.685v13.115c0 .189.152.342.341.342h4.871a.342.342 0 0 0 .341-.342v-13.328h3.531a.342.342 0 0 0 .34-.313l.34-4.016a.342.342 0 0 0-.34-.37h-3.87v-2.85a1.21 1.21 0 0 1 1.208-1.21h2.721a.342.342 0 0 0 .342-.341v-4.015a.342.342 0 0 0-.342-.342h-4.598a4.886 4.886 0 0 0-4.885 4.886v3.872h-2.436a.341.341 0 0 0-.34.342v4.015c0 .189.152.342.34.342h2.436z"/></defs><g><g transform="translate(-1165 -1343)"><use fill="#fff" xlink:href="#h5fwa"/></g></g></svg>