<svg xmlns="http://www.w3.org/2000/svg" xmlns:xlink="http://www.w3.org/1999/xlink" width="61.33" height="61.33" viewBox="0 0 92 92"><defs><path id="a97va" d="M289.953 4853.387h-41.596c-13.643 0-24.702-11.06-24.702-24.702v-41.596c0-13.642 11.059-24.702 24.702-24.702h41.596c13.643 0 24.702 11.06 24.702 24.702v41.596c0 13.643-11.06 24.702-24.702 24.702z"/><path id="a97vb" d="M262.894 4779.573c-8.393 2.321-13.331 11.037-11.012 19.43l3.848 13.911 4.209-1.162-3.848-13.913c-1.681-6.072 1.895-12.379 7.967-14.06 6.072-1.678 12.377 1.895 14.057 7.968l.47 1.696 4.207-1.164-.47-1.696c-1.933-6.989-8.302-11.583-15.224-11.583-1.39 0-2.801.185-4.204.573z"/><path id="a97vd" d="M248.363 4803.611c-.936 0-1.694.759-1.694 1.692v27.006c0 .933.758 1.691 1.694 1.691h41.561c.934 0 1.692-.758 1.692-1.691v-27.006c0-.933-.758-1.692-1.692-1.692z"/><path id="a97vf" d="M291.616 4832.307v-16.546c-13.692 11.585-33.435 15.938-44.623 17.535.308.425.805.704 1.369.704h41.562c.934 0 1.692-.758 1.692-1.693z"/><path id="a97vg" d="M272.857 4814.229a3.714 3.714 0 0 0-7.43 0c0 1.222.595 2.304 1.507 2.98l-1.182 8.4h6.78l-1.181-8.4a3.703 3.703 0 0 0 1.506-2.98z"/><path id="a97vh" d="M248.31 4806.813v5.815c.154-2.469 1.342-7.843 8.775-7.843h-6.748a2.034 2.034 0 0 0-2.027 2.028z"/><path id="a97vi" d="M265.752 4825.609s5.033-1.423 5.6-8.4l1.182 8.4z"/><linearGradient id="a97vc" x1="251.31" x2="282.79" y1="4795.96" y2="4795.96" gradientUnits="userSpaceOnUse"><stop offset="0" stop-color="#0694ea"/><stop offset=".01" stop-color="#0694ea"/><stop offset="1" stop-color="#9dc137"/><stop offset="1" stop-color="#9dc137"/></linearGradient><linearGradient id="a97ve" x1="246.67" x2="291.62" y1="4818.81" y2="4818.81" gradientUnits="userSpaceOnUse"><stop offset="0" stop-color="#0694ea"/><stop offset=".01" stop-color="#0694ea"/><stop offset="1" stop-color="#9dc137"/><stop offset="1" stop-color="#9dc137"/></linearGradient></defs><g><g transform="translate(-223 -4762)"><use fill="#fff" xlink:href="#a97va"/></g><g transform="translate(-223 -4762)"><use fill="url(#a97vc)" xlink:href="#a97vb"/></g><g transform="translate(-223 -4762)"><use fill="url(#a97ve)" xlink:href="#a97vd"/></g><g opacity=".25" transform="translate(-223 -4762)"><g opacity=".25"><use fill="#fff" xlink:href="#a97vf"/></g></g><g transform="translate(-223 -4762)"><use fill="#fff" xlink:href="#a97vg"/></g><g opacity=".25" transform="translate(-223 -4762)"><g opacity=".25"><use fill="#fff" xlink:href="#a97vh"/></g></g><g transform="translate(-223 -4762)"><use fill="#d3d3d3" xlink:href="#a97vi"/></g></g></svg>