<svg xmlns="http://www.w3.org/2000/svg" xmlns:xlink="http://www.w3.org/1999/xlink" width="18" height="18.67" viewBox="0 0 27 28"><defs><path id="fm5ma" d="M1320.111 1348.695a1.584 1.584 0 0 0 3.166 0 1.584 1.584 0 0 0-3.166 0z"/><path id="fm5mc" d="M1310.397 1355.791a4.265 4.265 0 0 1 4.26-4.26 4.265 4.265 0 0 1 4.26 4.26 4.264 4.264 0 0 1-4.26 4.259 4.265 4.265 0 0 1-4.26-4.259zm-2.389 0a6.657 6.657 0 0 0 6.649 6.649 6.656 6.656 0 0 0 6.649-6.649 6.656 6.656 0 0 0-6.649-6.649 6.656 6.656 0 0 0-6.649 6.649z"/><path id="fm5me" d="M1303.587 1361.181V1350.4a5.574 5.574 0 0 1 5.569-5.569h10.78a5.575 5.575 0 0 1 5.57 5.569v10.781a5.576 5.576 0 0 1-5.57 5.57h-10.78a5.575 5.575 0 0 1-5.569-5.57zm5.569-18.89c-4.472 0-8.109 3.638-8.109 8.109v10.781c0 4.471 3.637 8.11 8.109 8.11h10.78c4.472 0 8.111-3.639 8.111-8.11V1350.4c0-4.471-3.639-8.109-8.111-8.109z"/><linearGradient id="fm5mb" x1="1320.58" x2="1322.81" y1="1349.81" y2="1347.58" gradientUnits="userSpaceOnUse"><stop offset="0" stop-color="#ffe286"/><stop offset="0" stop-color="#ffe286"/><stop offset=".21" stop-color="#ffbc36"/><stop offset=".38" stop-color="#ff5176"/><stop offset=".52" stop-color="#f73396"/><stop offset=".74" stop-color="#a536d3"/><stop offset="1" stop-color="#5f4eee"/></linearGradient><linearGradient id="fm5md" x1="1309.96" x2="1319.36" y1="1360.49" y2="1351.09" gradientUnits="userSpaceOnUse"><stop offset="0" stop-color="#ffe286"/><stop offset="0" stop-color="#ffe286"/><stop offset=".21" stop-color="#ffbc36"/><stop offset=".38" stop-color="#ff5176"/><stop offset=".52" stop-color="#f73396"/><stop offset=".74" stop-color="#a536d3"/><stop offset="1" stop-color="#5f4eee"/></linearGradient><linearGradient id="fm5mf" x1="1303.42" x2="1325.67" y1="1366.91" y2="1344.67" gradientUnits="userSpaceOnUse"><stop offset="0" stop-color="#ffe286"/><stop offset="0" stop-color="#ffe286"/><stop offset=".21" stop-color="#ffbc36"/><stop offset=".38" stop-color="#ff5176"/><stop offset=".52" stop-color="#f73396"/><stop offset=".74" stop-color="#a536d3"/><stop offset="1" stop-color="#5f4eee"/></linearGradient></defs><g><g transform="translate(-1301 -1342)"><use fill="url(#fm5mb)" xlink:href="#fm5ma"/></g><g transform="translate(-1301 -1342)"><use fill="url(#fm5md)" xlink:href="#fm5mc"/></g><g transform="translate(-1301 -1342)"><use fill="url(#fm5mf)" xlink:href="#fm5me"/></g></g></svg>