<svg xmlns="http://www.w3.org/2000/svg" xmlns:xlink="http://www.w3.org/1999/xlink" width="34" height="33" viewBox="0 0 34 33"><defs><path id="jrt9a" d="M877.283 168.58c8.271 0 15 6.73 15 15 0 8.271-6.729 15-15 15-8.27 0-15-6.729-15-15 0-8.27 6.73-15 15-15zm0-1.5c-9.113 0-16.5 7.387-16.5 16.5s7.387 16.5 16.5 16.5 16.5-7.387 16.5-16.5-7.387-16.5-16.5-16.5z"/><path id="jrt9b" d="M866.58 186.702l7.136-10.703 8.027 15.162 6.243-8.918"/></defs><g><g transform="translate(-860 -167)"><use fill="#c6c6c6" xlink:href="#jrt9a"/></g><g transform="translate(-860 -167)"><use fill="#fff" fill-opacity="0" stroke="#c6c6c6" stroke-linecap="round" stroke-miterlimit="50" stroke-width="2" xlink:href="#jrt9b"/></g></g></svg>