<svg xmlns="http://www.w3.org/2000/svg" xmlns:xlink="http://www.w3.org/1999/xlink" width="25.33" height="25.33" viewBox="0 0 38 38"><defs><path id="1o98a" d="M737.958 2504v14h13.446l-.831.831h1.553l1.832-1.832-1.832-1.829h-1.553l.831.831h-11.446V2504zm37.002 15v-21.11h-16.89V2519zm-15.171-37.831l-1.831 1.831 1.831 1.831h1.554l-.831-.831h11.445v11.999h2.001V2482h-13.446l.831-.831zm-5.939 20.941V2481h-16.89v21.11z"/><path id="1o98c" d="M749.382 2490.151c1.046.747 1.576 1.877 1.576 3.358 0 1.184-.355 2.14-1.054 2.84-.738.737-1.943 1.21-3.583 1.402l-.162.018-.96-1.73.37-.034c1.48-.135 2.468-.442 2.94-.913.371-.372.56-.905.56-1.583 0-.992-.276-1.706-.818-2.125a2.712 2.712 0 0 0-1.357-.562c-.382 1.366-1.056 2.727-2.007 4.048l.374.823-1.423 1.044-.343-.55c-.9.713-1.777 1.074-2.608 1.074a1.86 1.86 0 0 1-1.365-.563c-.42-.418-.633-1.09-.633-1.996 0-1.325.497-2.492 1.475-3.472a8.927 8.927 0 0 1 1.614-1.299c.003-.59.02-1.14.052-1.64l-2.33.137-.289-1.825 2.72-.07.141-2.534 1.445.001c.15.014.544.05.631.345.074.255-.157.478-.283.585l-.167 1.508a50.985 50.985 0 0 0 4.394-.47l.252-.039.191 1.903-.246.02a190.05 190.05 0 0 1-4.763.34c-.005.377-.02.762-.046 1.148a10.127 10.127 0 0 1 1.756-.213l.073-.956 1.545.258c.138.035.46.116.481.381.016.194-.142.31-.248.368l-.018.121c.781.124 1.491.41 2.113.852zm-7.289 1.665c-.357.266-.694.642-1.002 1.121-.394.614-.593 1.184-.593 1.695 0 .557.106.708.14.741.094.095.218.14.39.14.55 0 1.12-.295 1.691-.876a17.65 17.65 0 0 1-.626-2.82zm2.033 1.263c.38-.638.714-1.422.997-2.339a4.781 4.781 0 0 0-1.379.26c.076.74.204 1.437.382 2.08z"/><path id="1o98d" d="M760.162 2512.698l.883-.127 3.759-10.744h2.538l3.734 10.743.882.128v1.485h-4.21v-1.485l.858-.153-.543-1.697h-4.006l-.543 1.697.857.153v1.485h-4.21zm4.48-3.675h2.835l-1.391-4.355h-.051z"/><linearGradient id="1o98b" x1="603.83" x2="773.96" y1="2652.13" y2="2482" gradientUnits="userSpaceOnUse"><stop offset="0" stop-color="#0693e9"/><stop offset=".01" stop-color="#0693e9"/><stop offset="1" stop-color="#9cc037"/><stop offset="1" stop-color="#9cc037"/></linearGradient></defs><g><g transform="translate(-737 -2481)"><use fill="url(#1o98b)" xlink:href="#1o98a"/></g><g transform="translate(-737 -2481)"><use fill="#fff" xlink:href="#1o98c"/></g><g transform="translate(-737 -2481)"><use fill="#fff" xlink:href="#1o98d"/></g></g></svg>