<svg xmlns="http://www.w3.org/2000/svg" xmlns:xlink="http://www.w3.org/1999/xlink" width="23.33" height="22" viewBox="0 0 35 33"><defs><path id="8wd4a" d="M1484.147 994.717a.518.518 0 0 0-.557-.08l-33.37 15.505a.516.516 0 0 0-.01.928l9.444 4.635c.174.085.38.065.534-.05l9.183-6.863-7.208 7.415a.511.511 0 0 0-.145.398l.718 9.346a.516.516 0 0 0 .902.297l5.012-5.81 6.197 2.963a.513.513 0 0 0 .712-.311l8.739-27.832a.516.516 0 0 0-.151-.541z"/></defs><g><g transform="translate(-1450 -994)"><use fill="#0694ea" xlink:href="#8wd4a"/></g></g></svg>