<svg xmlns="http://www.w3.org/2000/svg" xmlns:xlink="http://www.w3.org/1999/xlink" width="26.67" height="25.33" viewBox="0 0 40 38"><defs><path id="i6vxa" d="M747.899 2952.727l-.047.005-.046.002c-.268.008-.62.022-.967.065-.075.009-.15.021-.224.031a19.049 19.049 0 0 0 5.485 11.583 18.947 18.947 0 0 0 13.488 5.587c4.804 0 9.336-1.765 12.859-4.988l3.435 3.436 2.007-13.31-13.346 1.973 4.548 4.547a14.22 14.22 0 0 1-9.493 3.598 14.257 14.257 0 0 1-10.147-4.192c-2.461-2.465-3.849-5.397-4.127-8.72zM765.442 2932a18.945 18.945 0 0 0-13.486 5.586c-.426.424-.825.864-1.203 1.32l-3.479-3.479-1.975 13.345 13.312-2.008-4.481-4.481c.365-.469.751-.924 1.175-1.347a14.226 14.226 0 0 1 10.128-4.192c3.839 0 7.442 1.488 10.146 4.192a14.225 14.225 0 0 1 4.183 9.757c1.568-.256 3.141-.51 4.714-.761a18.99 18.99 0 0 0-5.547-12.346 18.95 18.95 0 0 0-13.485-5.586z"/><linearGradient id="i6vxb" x1="752.1" x2="778.93" y1="2964.41" y2="2937.59" gradientUnits="userSpaceOnUse"><stop offset="0" stop-color="#0693e9"/><stop offset=".01" stop-color="#0693e9"/><stop offset="1" stop-color="#9cc037"/><stop offset="1" stop-color="#9cc037"/></linearGradient></defs><g><g transform="translate(-745 -2932)"><use fill="url(#i6vxb)" xlink:href="#i6vxa"/></g></g></svg>