<svg xmlns="http://www.w3.org/2000/svg" xmlns:xlink="http://www.w3.org/1999/xlink" width="24" height="26" viewBox="0 0 36 39"><defs><path id="ggzpa" d="M308.085 2960.505v9.711h4.696v-9.865c-1.068.13-2.156.198-3.261.198-.479 0-.958-.019-1.435-.044zm-7.043 9.711h4.697v-9.946a25.906 25.906 0 0 1-4.697-1.133zm14.087 0h4.693v-11.747a25.712 25.712 0 0 1-4.693 1.488zm7.043 0h4.695v-16.287a24.275 24.275 0 0 1-4.695 3.389zm11.619-28.527a22.608 22.608 0 0 1-4.575 9.72v18.807h4.694v-28.527zm-10.51-5.172l-4.587 4h5.02c-1.692 10.379-11.283 18.456-22.198 16.74-.479-.077-.674.57-.203.734 13.584 4.729 29.234-3.04 31.499-17.474h4.229l-4.586-4-4.588-4.001z"/><linearGradient id="ggzpb" x1="306.07" x2="338.92" y1="2975.25" y2="2942.4" gradientUnits="userSpaceOnUse"><stop offset="0" stop-color="#0693e9"/><stop offset=".01" stop-color="#0693e9"/><stop offset="1" stop-color="#9cc037"/><stop offset="1" stop-color="#9cc037"/></linearGradient></defs><g><g transform="translate(-301 -2932)"><use fill="url(#ggzpb)" xlink:href="#ggzpa"/></g></g></svg>