<svg xmlns="http://www.w3.org/2000/svg" xmlns:xlink="http://www.w3.org/1999/xlink" width="8" height="8" viewBox="0 0 12 12"><defs><path id="os4pa" d="M387.83 7623.751l-1.315 2.497c-.158.3-.562.591-.896.645l-2.785.456c-.334.054-.415.298-.179.541l1.97 2.021c.237.244.388.718.336 1.054l-.429 2.788c-.052.334.156.487.46.336l2.531-1.247c.305-.152.801-.149 1.106.004l2.519 1.27c.302.151.512.002.463-.334l-.406-2.792c-.048-.336.108-.808.347-1.049l1.987-2.006c.237-.239.16-.485-.176-.541l-2.781-.478c-.334-.059-.733-.354-.891-.654l-1.29-2.509c-.078-.151-.182-.227-.285-.227-.104 0-.207.075-.286.225z"/><radialGradient id="os4pb" cx="384.41" cy="7634.31" r="11.67" gradientUnits="userSpaceOnUse"><stop offset="0" stop-color="#ffbf00"/><stop offset=".35" stop-color="#ffbf00"/><stop offset="1" stop-color="#ff923a"/></radialGradient></defs><g><g transform="translate(-382 -7623)"><use fill="url(#os4pb)" xlink:href="#os4pa"/></g></g></svg>