<svg xmlns="http://www.w3.org/2000/svg" xmlns:xlink="http://www.w3.org/1999/xlink" width="40.67" height="40.67" viewBox="0 0 61 61"><defs><path id="8b1ja" d="M1358.026 517.252c8.42 14.585 3.425 33.236-11.161 41.657-14.585 8.42-33.246 3.425-41.66-11.16-8.426-14.588-3.423-33.246 11.163-41.66 14.585-8.43 33.237-3.425 41.658 11.163zm-14.214 36.37c11.667-6.737 15.666-21.657 8.928-33.327-6.73-11.667-21.66-15.664-33.326-8.926-11.67 6.739-15.666 21.659-8.927 33.326 6.737 11.667 21.658 15.666 33.325 8.928zm-1.22-22.366c1.458.85 1.45 2.22-.008 3.06l-15.845 9.152c-1.458.849-2.65.164-2.657-1.526l-.082-18.488c-.008-1.683 1.168-2.362 2.62-1.511z"/></defs><g><g transform="translate(-1301 -502)"><use fill="#fff" xlink:href="#8b1ja"/></g></g></svg>