<svg xmlns="http://www.w3.org/2000/svg" xmlns:xlink="http://www.w3.org/1999/xlink" width="219.33" height="128" viewBox="0 0 329 192"><defs><path id="yp37b" d="M1489.806 4939.098s-21.358 24.763-68.097 32.225c-71.18 11.364-69.736 99.675 7.384 117.661 77.121 17.987 56.601-11.241 165.72-3.747 109.117 7.494 82.624-73.948 42.942-99.09-41.035-26-2.525-72.346-63.444-82.273-47.868-7.8-84.505 35.224-84.505 35.224z"/><path id="yp37d" d="M1359.823 5061.09h327.254"/><path id="yp37e" d="M1395.401 5045.257c-2.39 0-12.216-2.098-13.014-11.791-.408-4.95.934-8.271 2.231-11.483 1.552-3.843 3.016-7.473 1.785-13.747-.536-2.725-1.223-4.988-1.829-6.985-2.007-6.608-3.113-10.25 5.444-17.27.058-.043 4.821-3.64 4.89-8.342.073-5.026 6.83-10.545 12.91-10.545 1.555 0 2.997.349 4.288 1.036 2.418 1.287 3.885 2.894 4.484 4.91.99 3.323-.269 7.699-4.344 15.104-4.067 7.39-1.944 9.928-.07 12.167.6.716 1.164 1.39 1.472 2.178.147.372.314.747.484 1.13 1.246 2.786 2.795 6.254-2.266 13.159-2.874 3.923-2.313 8.249-1.77 12.43.508 3.924 1.034 7.98-1.323 11.608-.056.073-4.418 5.592-13.31 6.439z"/><path id="yp37f" d="M1407.818 4965.344c1.438 0 2.858.308 4.171 1.007 6.891 3.67 5.503 9.74.038 19.673-5.465 9.93.171 11.445 1.39 14.556 1.216 3.112 3.907 6.329-1.752 14.05-5.659 7.723 1.688 16.676-3.102 24.05 0 0-4.236 5.48-13.124 6.326a.332.332 0 0 1-.038.002c-.85 0-11.907-1.154-12.765-11.562-.874-10.613 6.324-13.488 4.012-25.257-2.312-11.77-7.455-15.002 3.528-24.015 0 0 4.911-3.645 4.982-8.531.07-4.736 6.541-10.3 12.66-10.3zm0-.5c-6.197 0-13.085 5.648-13.16 10.79-.067 4.577-4.733 8.104-4.779 8.139-8.706 7.142-7.582 10.84-5.544 17.55.604 1.992 1.29 4.249 1.822 6.962 1.218 6.2-.234 9.797-1.77 13.605-1.309 3.239-2.66 6.589-2.249 11.597.814 9.88 10.827 12.02 13.263 12.02h.023l.062-.003c9-.856 13.295-6.288 13.473-6.52 2.43-3.738 1.898-7.84 1.384-11.806-.56-4.324-1.089-8.41 1.725-12.252 5.146-7.021 3.564-10.562 2.293-13.408-.17-.38-.335-.75-.48-1.12-.323-.825-.9-1.516-1.513-2.247-1.822-2.178-3.887-4.646.096-11.886 4.112-7.47 5.376-11.901 4.366-15.296-.62-2.084-2.127-3.74-4.607-5.06-1.327-.707-2.809-1.065-4.405-1.065z"/><path id="yp37g" d="M1397.769 5061.24a.483.483 0 0 0 .336-.57c-7.222-32.24 3.819-76.904 3.932-77.35a.482.482 0 1 0-.937-.235c-.113.45-11.21 45.335-3.937 77.796.057.26.316.423.577.366l.029-.008z"/><path id="yp37h" d="M1397.814 5003.178a.484.484 0 0 0 .301-.676c-.028-.056-2.77-5.705-3.98-10.566a.483.483 0 1 0-.938.233c1.235 4.962 4.021 10.699 4.05 10.757a.482.482 0 0 0 .567.252z"/><path id="yp37i" d="M1396.291 5016.439a.488.488 0 0 0 .186-.103c2.359-2.086 8.336-6.068 8.396-6.108a.481.481 0 0 0 .135-.67.48.48 0 0 0-.67-.134c-.247.163-6.092 4.058-8.501 6.19a.482.482 0 0 0 .454.824z"/><path id="yp37j" d="M1425.247 5047.554c-.94 0-4.729-7.594-5.628-16.464-.007-.07-.158-1.697.656-2.597.347-.382.812-.577 1.38-.577.497 0 1.08.154 1.738.455-.454-2.305-2.01-11.637 1.52-16.046 1.215-1.52 2.917-2.291 5.058-2.291.401 0 .824.028 1.256.082 2.243.28 3.395.808 4.567 2.094 1.447 1.588 2.731 4.43.635 8.95-1.092 2.355-2.133 4.272-3.052 5.963-2.209 4.068-3.542 6.523-2.423 9.495 1.693 4.5 1.023 5.823-5.519 10.873l-.067.05z"/><path id="yp37k" d="M1429.97 5010.284c.389 0 .797.025 1.227.08 2.057.256 3.228.714 4.413 2.014 1.602 1.76 2.485 4.596.592 8.677-3.784 8.161-7.11 11.33-5.482 15.651 1.626 4.321 1.077 5.557-5.436 10.586a.06.06 0 0 1-.037.012c-.594 0-4.461-7.172-5.38-16.24 0 0-.287-2.898 1.789-2.898.528 0 1.21.187 2.087.66 0 0-4.16-18.54 6.228-18.542zm.002-.5c-2.221 0-3.988.802-5.255 2.384-3.392 4.238-2.187 12.871-1.655 15.791-.517-.196-.982-.293-1.406-.293-.633 0-1.174.228-1.565.66-.89.98-.727 2.715-.72 2.788.842 8.312 4.56 16.69 5.875 16.69h.17l.172-.117c6.6-5.093 7.332-6.553 5.6-11.158-1.078-2.865.16-5.146 2.41-9.287.92-1.695 1.963-3.615 3.059-5.977 2.267-4.89.548-7.878-.678-9.224-1.362-1.495-2.763-1.93-4.721-2.174a10.279 10.279 0 0 0-1.286-.083z"/><path id="yp37l" d="M1426.447 5060.277a.44.44 0 0 0 .342-.519c-2.75-13.41 1.204-35.999 1.71-36.989a.426.426 0 0 0-.109-.6.45.45 0 0 0-.62.111c-.815 1.136-4.509 24.646-1.842 37.655a.44.44 0 0 0 .52.342z"/><path id="yp37m" d="M1520.115 5074.895c0 .794-8.469 1.437-18.914 1.437-10.446 0-18.915-.643-18.915-1.437 0-.795 8.47-1.438 18.915-1.438 10.445 0 18.914.643 18.914 1.438z"/><path id="yp37n" d="M1489.613 5070.343c.233.862.145 1.17.236 1.732.115.698.78.95 1.164 1.523.425.63 1.091 1.642-1.51 1.692-2.786.055-4.436-.131-3.962-1.648.472-1.517.563-2.185.532-2.68-.03-.495 0-1.01.315-1.306.316-.296 2.816-.831 3.225.687z"/><path id="yp37o" d="M1527.113 4966.14c.121 1.56.028 2.618-1.812 5.805-2.488 4.305-4.148 6.553-5.795 8.333-1.522 1.644-4.935-2.485-3.408-5.096 1.291-2.207 8.382-8.225 9.162-9.571.518-.892 1.755-.738 1.853.529z"/><path id="yp37p" d="M1518.59 4980.62c-1.2.236-3.954.35-10.484-1.107-3.985-.888-5.624-1.552-6.805-1.992-2.104-.784-2.417-3.082-1.631-3.96 1.268-1.416 3.94-2.48 5.068-2.136 6.364 1.94 11.139 3.821 12.762 4.018 2.37.29 2.513 4.897 1.09 5.177z"/><path id="yp37q" d="M1499.995 4959.352c.203 2.38.448 3.392 1.801 4.026 1.139.533 1.635.539 2.046-.877.318-1.099.859-4.964-.905-5.223-.459-.067-.891-.12-1.277-.12-1.099 0-1.816.43-1.665 2.194z"/><path id="yp37s" d="M1495.137 4965.451c-.026.174-.41 3.876-.478 6.718-.033 1.392 1.363 2.715 2.755 2.748h.06c1.366 0 2.974-1.237 2.852-2.603-.217-2.473-.053-5.005-.047-5.045z"/><path id="yp37t" d="M1488.241 4980.867c2.537 8.341 3.674 18.462 3.178 24.288h19.107s-.112-17.896-1.39-27.697c-.298-2.279-1.61-4.332-4.034-5.62-1.438-.764-4.036-1.128-5.093-1.128h-3.532c-1.182 0-2.548.242-3.727.464-5.06.953-5.98 4.858-4.509 9.693z"/><path id="yp37u" d="M1491.418 5005.156c-1.572 7.679.079 11.689.079 11.689h19.726c-.015-6.209-.697-11.689-.697-11.689z"/><path id="yp37w" d="M1488.439 5039.039c-2.837 6.364-2.61 26.711-2.459 30.772.019.533.307.433.616.325.904-.314 1.66-.438 2.019-.365.699.142 1.064.836 1.064.836.6-5.532 4.107-22.726 5.589-28.754.905-3.674-.944-5.56-3.021-5.56-1.439 0-2.987.905-3.808 2.746z"/><path id="yp37y" d="M1493.799 5006.505c-2.02 1.075-2.758 3.224-3.029 5.246-.274 2.022-1.756 23.048-2.277 26.848-1.173 8.567 5.591 6.258 6.324 3.883 1.853-5.99 5.798-20.586 6.163-24.798.565-6.497-1.51-11.773-5.032-11.774-.668 0-1.386.189-2.149.595z"/><path id="yp37A" d="M1505.459 5040.496c-2.231 7.426 1.63 23.368 1.869 32.472.984-1.572 1.913-1.955 2.351-1.923.71.052 1.096.595 1.096.595-.145-11.993 1.231-23.987 1.499-30.186.131-3.016-1.333-4.43-2.967-4.431-1.51 0-3.166 1.207-3.848 3.473z"/><path id="yp37C" d="M1500.736 5018.078c.896 5.108 3.394 19.093 4.949 24.003.752 2.368 7.214 5.108 6.54-3.509-.3-3.825-1.097-24.934-1.252-26.968-.154-2.035-.505-5.009-1.527-5.381a5.455 5.455 0 0 0-1.867-.337c-4.36 0-8.02 5.493-6.843 12.192z"/><path id="yp37E" d="M1491.263 5000.804c-1.505-.428-2.29-1.504-4.831-4.165-3.66-3.833-4.284-4.978-5.678-8.113-.91-2.048 3.935-3.531 5.852-1.191 1.622 1.978 4.804 10.716 5.796 11.915.656.794.083 1.903-1.14 1.554z"/><path id="yp37F" d="M1480.64 4987.784c.197-1.208 1.047-3.83 4.68-9.449 2.216-3.428 3.407-4.736 4.229-5.69 1.466-1.7 3.73-1.197 4.28-.155.888 1.68.958 4.557.244 5.495-4.028 5.294-7.451 9.12-8.2 10.573-1.092 2.123-5.463.658-5.232-.774z"/><path id="yp37G" d="M1493.26 4962.77c.316 3.161.41 3.86 1.79 5.155 1.382 1.296 3.357 1.889 4.856 1.889 1.618 0 2.818-1.71 3.183-3.048.378-1.385.82-4.634.366-8.096-.23-1.754-2.396-3.883-4.63-3.883s-6.335.258-5.564 7.983z"/><path id="yp37H" d="M1490.69 4998.813c.733-.804 1.88-2.053 2.443-2.768.565-.713 2.24.516 2.277 1.13.053.916-.869 3.415-2.04 3.41-1.173-.003-1.507 1.069-2.506.74-1-.332-1.37-1.2-.174-2.513z"/><path id="yp37I" d="M1511.012 5071.608c.218.408 1.262 1.354 2.707 1.977 1.445.622 4.51.914 2.809 1.461-1.703.548-3.69.217-4.694.061-1.005-.155-1.98-.177-3.166-.185-1.562-.008-1.575-.1-1.365-1.8.289-2.34 3.005-2.835 3.709-1.514z"/><path id="yp37J" d="M1492.954 4958.051c-.593 2.22-.702 3.214.313 4.229.857.855 1.302 1.022 2.136-.124.647-.891 2.399-4.209.888-5.018-.702-.376-1.344-.684-1.89-.684-.628 0-1.129.409-1.447 1.597z"/><path id="yp37L" d="M1494.203 4962.809c.446 1.095.345 2.17-.229 2.404-.573.235-1.399-.463-1.846-1.556-.446-1.094-.344-2.17.228-2.404.574-.234 1.4.463 1.847 1.556z"/><path id="yp37M" d="M1500.687 4954.069c-.641.261-7.767.509-6.453 2.471 1.23 1.838 7.181 2.01 9.123 1.333 1.942-.677 1.807-4.433-.97-4.689h-.022c-1.533-.001-.415.374-1.678.885z"/><path id="yp37O" d="M1525.001 4965.776c.348-.957 3.452-8.334 4.68-7.102 1.355 1.363.761 4.56.431 5.611-.605 1.92-2.419 3.063-3.64 2.981-.865-.058-1.799-.58-1.471-1.49z"/><path id="yp37P" d="M1524.84 4965.219c-.046-.466-.303-3.232.212-3.317.785-.13 1.044 1.672 1.22 2.866.096.646-.207 1.58-.742 1.595-.533.014-.616-.398-.69-1.144z"/><path id="yp37a" d="M1486.644 4987.389c.6-.818 1.465-1.892 2.514-3.19a84.02 84.02 0 0 1 2.145 12.958c-1.374-3.025-3.439-8.227-4.659-9.768zm14.043-33.32c-.634.259-7.598.505-6.489 2.404-.532.087-.96.523-1.244 1.578-.393 1.473-.564 2.402-.345 3.162a.603.603 0 0 0-.253.039c-.571.234-.674 1.31-.228 2.404.348.85.923 1.456 1.432 1.574.214 1.168.539 1.772 1.354 2.564a91.013 91.013 0 0 0-.204 3.054 39.88 39.88 0 0 0-1.961.326 8.924 8.924 0 0 0-1.611.46c-.399.102-.798.3-1.168.605a4.93 4.93 0 0 0-1.782 2.029c-.712.898-1.63 2.152-2.87 4.067-3.631 5.618-4.48 8.241-4.678 9.449a.762.762 0 0 0 .012.277c.006.15.031.305.101.465 1.394 3.135 2.019 4.28 5.679 8.114 1.727 1.807 2.641 2.872 3.524 3.51-.063.573.303.974.909 1.173.255.085.465.076.659.02.023 1.4-.009 2.688-.106 3.813-.559 2.727-.706 4.986-.668 6.771-.32 2.798-1.748 22.958-2.257 26.672-.02.149-.032.288-.048.428a.067.067 0 0 1-.006.012c-2.837 6.364-2.61 26.711-2.459 30.772.007.214.059.323.138.372a2.712 2.712 0 0 0-.045.78c.032.494-.059 1.162-.532 2.678-.474 1.519 1.177 1.704 3.96 1.65 2.603-.051 1.937-1.062 1.513-1.693-.385-.573-1.049-.826-1.164-1.523-.083-.502-.022-.802-.173-1.47l.002.002c.6-5.532 4.107-22.726 5.589-28.754a7.488 7.488 0 0 0 .212-1.579c1.84-6.265 4.677-16.954 5.369-21.544.909 5.151 3.006 16.77 4.497 22.192-1.973 7.593 1.746 23.109 1.982 32.046.001-.004.005-.008.007-.011-.009.056-.025.106-.033.163-.21 1.702-.197 1.794 1.366 1.802 1.186.009 2.161.031 3.166.185 1.004.157 2.989.487 4.693-.061 1.703-.547-1.362-.838-2.809-1.46-1.444-.624-2.488-1.569-2.707-1.977a1.235 1.235 0 0 0-.237-.305c-.115-11.881 1.234-23.709 1.5-29.85.016-.37.007-.715-.022-1.038.031-.548.025-1.157-.027-1.844-.219-2.776-.697-14.641-1.002-21.727-.015-6.209-.697-11.689-.697-11.689s-.096-15.311-1.123-25.364c5.436 1.125 7.918 1.053 9.08.846.377.054.733-.048 1.022-.361 1.648-1.778 3.308-4.026 5.797-8.333 1.408-2.438 1.791-3.629 1.839-4.752 1.138-.267 2.469-1.313 2.972-2.907.329-1.051.923-4.247-.433-5.611-.834-.837-2.535 2.305-3.649 4.704-.189-.841-.474-1.56-.979-1.477-.516.086-.259 2.851-.212 3.318.029.299.068.527.129.714-.005.03-.014.061-.018.091-1.558 1.856-7.558 7.036-8.816 9.104-2.26-.649-6.321-2.156-11.396-3.703-.205-.061-.473-.063-.76-.04a15.733 15.733 0 0 0-3.746-.668 31.01 31.01 0 0 1-.018-.943c1.458-.203 2.533-1.759 2.874-3.008.205-.751.424-2.059.514-3.641.083-.169.164-.365.239-.624.261-.906.67-3.676-.174-4.775 1.604-.951 1.337-4.302-1.281-4.542h-.022c-1.533-.001-.415.374-1.678.885z"/><path id="yp37R" d="M1468.406 4946.735c9.968-1.67 24.131 4.996 26.997 15.42 2.926 10.642-5.071 15.731 1.486 30.464 5.187 11.654-.771 24.436-2.174 34.522-1.54 11.076 4 16.432 2.171 26.309-4.209 22.729-3.938 29.428-19.562 34.246-16.041 4.947-19.338-17.426-29.755-35.112-7.692-13.059-12.067-26.563-6.807-36.149 7.552-13.77 18.592.198 14.719-16.414-2.317-9.94-1.941-27.125 12.428-24.538 14.369 2.587-13.858-26.342.497-28.748z"/><path id="yp37T" d="M1530.744 4915.226v101.76l118.593-9.12v-79.686z"/><path id="yp37U" d="M1534.958 5014.4l116.721-8.489v-71.332l-116.721-11.066z"/><path id="yp37V" d="M1589.22 5004.887l51.067-3.133v-64.93l-51.066-4.454z"/><path id="yp37W" d="M1597.042 4949.123l44.383 2.386c.54.028.977-.515.977-1.214v-8.799c0-.699-.437-1.301-.977-1.345l-44.383-3.541c-.658-.052-1.193.533-1.193 1.306v9.742c0 .774.535 1.43 1.193 1.465z"/><path id="yp37X" d="M1597.042 4965.624l44.383.861c.54.01.977-.548.977-1.247v-8.8c0-.699-.437-1.286-.977-1.31l-44.383-2.017c-.658-.03-1.193.574-1.193 1.347v9.741c0 .775.535 1.412 1.193 1.425z"/><path id="yp37Y" d="M1595.468 4967.44l44.66.695c.544.008.984-.554.984-1.256v-8.824c0-.702-.44-1.289-.984-1.31l-44.66-1.86c-.662-.028-1.2.58-1.2 1.356v9.773c0 .777.538 1.415 1.2 1.425z"/><path id="yp37Z" d="M1597.042 4982.125l44.383-.664c.54-.008.977-.581.977-1.28v-8.8c0-.699-.437-1.271-.977-1.277l-44.383-.493c-.658-.007-1.193.615-1.193 1.389v9.741c0 .775.535 1.394 1.193 1.384z"/><path id="yp37aa" d="M1516.516 5000.493l62.496-2.448v-80.244l-62.496-7.545z"/><path id="yp37ab" d="M1597.042 4998.625l44.383-2.188c.54-.027.977-.615.977-1.314v-8.799c0-.7-.437-1.256-.977-1.243l-44.383 1.031c-.658.015-1.193.656-1.193 1.43v9.74c0 .775.535 1.376 1.193 1.343z"/><path id="yp37ac" d="M1548.075 4964.242c-7.473 2.987-16.588 1.143-23.003-5.645a24.076 24.076 0 0 1-6.072-11.593l10.858-1.808c1.074 5.16 5.425 9.156 10.53 9.378a9.66 9.66 0 0 0 3.885-.616z"/><path id="yp37ad" d="M1555.768 4956.82c-.156.162-.318.318-.48.474l-6.883-8.185c1.994-1.897 3.233-4.663 3.233-7.81 0-6.024-4.587-11.293-10.358-11.783-4.19-.354-7.87 1.897-9.648 5.496l-9.924-5.79a20.017 20.017 0 0 1 4.256-5.689c8.56-7.964 21.905-6.504 29.804 2.778 7.674 9.018 7.668 22.48 0 30.51z"/><path id="yp37ae" d="M1530.497 4939.945c0 .836.09 1.654.253 2.438l-10.859 1.808c-1.099-5.112-.496-10.433 1.817-14.969l9.924 5.79c-.726 1.457-1.135 3.131-1.135 4.933z"/><path id="yp37af" d="M1555.287 4957.294a19.017 19.017 0 0 1-6.32 4.136l-3.803-10.284a9.577 9.577 0 0 0 3.24-2.037z"/><path id="yp37ag" d="M1621.122 4959.307l17.865.612v-1.297l-17.865-.665z"/><path id="yp37ah" d="M1621.122 4961.706l17.865.52v-1.298l-17.865-.572z"/><path id="yp37ai" d="M1631.241 4964.346l7.746.184v-1.296l-7.746-.207z"/><path id="yp37aj" d="M1608.331 4985.089l5.343.126v-6.374l-5.343-.2z"/><path id="yp37ak" d="M1598.988 4970.473l5.488.129v-6.46l-5.488-.203z"/><path id="yp37al" d="M1545.2 4968.428v40.456l.943-.06v-40.384z"/><path id="yp37am" d="M1583.805 4993.79v12.632l.812-.052v-12.612z"/><path id="yp37an" d="M1565.228 4980.161v27.445l.874-.055v-27.399z"/><path id="yp37ao" d="M1523.791 4999.814c11.154-.502 11.154-25.909 21.868-25.889 10.299.02 10.299 24.444 20.206 23.998 9.538-.427 9.538-23.94 18.729-23.922"/><path id="yp37ap" d="M1559.812 4967.398v-2.086l-3.853-.071v2.1z"/><path id="yp37aq" d="M1566.495 4967.495v-2.059l-3.755-.07v2.074z"/><path id="yp37ar" d="M1573.008 4967.59v-2.032l-3.66-.07v2.048z"/><path id="yp37as" d="M1619.816 4975.116l18.14-.007v-1.749l-18.14-.064z"/><path id="yp37at" d="M1625.905 4978.308l12.05-.09v-1.75l-12.05.043z"/><path id="yp37au" d="M1621.332 4978.342l3.131-.023v-1.802l-3.131.01z"/><path id="yp37av" d="M1619.816 4944.058l18.14 1.224v-1.748l-18.14-1.296z"/><path id="yp37aw" d="M1627.338 4947.749l10.617.642v-1.749l-10.617-.684z"/><path id="yp37ax" d="M1614.016 4946.943l11.89.72v-1.798l-11.89-.766z"/><path id="yp37ay" d="M1630.887 4990.45l7.068-.245v-1.749l-7.068.218z"/><path id="yp37az" d="M1622.204 4990.752l7.343-.256v-1.781l-7.343.225z"/><path id="yp37aA" d="M1625.905 4993.817l12.05-.504v-1.749l-12.05.456z"/><path id="yp37aB" d="M1611.847 4994.404l12.616-.527v-1.802l-12.616.476z"/><path id="yp37aC" d="M1570.493 4929.744c-1.194-.636-2.614-.49-3.589.503a3.441 3.441 0 0 0-.907 1.756l1.633.531c.164-.823.836-1.39 1.635-1.322.218.018.427.083.618.184z"/><path id="yp37aD" d="M1571.605 4930.658c-.025-.03-.053-.06-.079-.09l-1.124 1.24c.324.365.525.862.525 1.395 0 1.018-.742 1.787-1.661 1.714-.658-.052-1.229-.518-1.502-1.155l-1.497.7c.157.366.37.717.637 1.032 1.305 1.545 3.412 1.701 4.701.363 1.283-1.333 1.282-3.656 0-5.199z"/><path id="yp37aE" d="M1567.59 4932.928c0-.138.016-.27.04-.394l-1.633-.531a4.144 4.144 0 0 0 .27 2.458l1.498-.698a2.084 2.084 0 0 1-.174-.835z"/><path id="yp37aF" d="M1571.526 4930.568a3.648 3.648 0 0 0-1.033-.824l-.61 1.652c.194.103.37.243.52.412z"/><path id="yp37aG" d="M1566.192 4956.765c.516 1.34 1.7 2.3 3.072 2.344a2.967 2.967 0 0 0 1.788-.53l-.887-1.572c-.645.439-1.516.324-2.082-.324a1.945 1.945 0 0 1-.355-.592z"/><path id="yp37aH" d="M1565.919 4955.287l.003.123 1.67.003a1.894 1.894 0 0 1 .492-1.356c.653-.698 1.709-.653 2.358.096.462.533.594 1.28.398 1.916l1.554.646a3.98 3.98 0 0 0 .174-1.173c0-2.026-1.473-3.735-3.302-3.819-1.844-.084-3.347 1.512-3.347 3.564z"/><path id="yp37aI" d="M1570.443 4956.768a1.664 1.664 0 0 1-.278.239l.887 1.573c.623-.422 1.102-1.078 1.341-1.865l-1.554-.645c-.078.258-.21.497-.396.698z"/><path id="yp37aJ" d="M1565.922 4955.41c.013.477.108.935.27 1.354l1.537-.673a2.037 2.037 0 0 1-.136-.678z"/><path id="yp37aK" d="M1570.575 4947.703c1.175-.5 1.993-1.752 1.993-3.263 0-.73-.19-1.422-.52-2.013l-1.383.9c.413.741.338 1.698-.223 2.291a1.53 1.53 0 0 1-.518.361z"/><path id="yp37aL" d="M1569.266 4947.933c.037.002.073.003.11.003l-.055-1.84c-.446-.01-.896-.217-1.238-.615-.655-.764-.655-1.941 0-2.625a1.5 1.5 0 0 1 1.718-.336l.53-1.704a3.128 3.128 0 0 0-1.066-.268c-1.842-.125-3.346 1.438-3.346 3.49 0 2.053 1.505 3.797 3.347 3.895z"/><path id="yp37aM" d="M1570.442 4943.004c.087.102.161.21.223.322l1.382-.9c-.397-.72-1-1.294-1.716-1.61l-.53 1.704c.235.102.454.264.641.484z"/><path id="yp37aN" d="M1569.376 4947.935c.425.008.83-.074 1.199-.232l-.651-1.724a1.484 1.484 0 0 1-.604.116z"/><path id="yp37aO" d="M1659.065 5074.895c0 .794-8.468 1.437-18.913 1.437-10.447 0-18.915-.643-18.915-1.437 0-.795 8.468-1.438 18.915-1.438 10.445 0 18.913.643 18.913 1.438z"/><path id="yp37aP" d="M1649.938 4989.85c-2.448.735-9.971 6.202-11.464 6.644-.988.291-1.132 1.531.077 1.924 1.488.487 2.738.033 6.334-.754 5.176-1.134 6.335-1.736 9.242-3.556 1.713-1.073-.715-4.382-3.335-4.382-.284 0-.57.039-.854.124z"/><path id="yp37aR" d="M1649.662 4973.759c-1.543 1.109-2.884 3.654-2.663 4.813 1.256 6.533 2.62 11.481 2.645 13.116.034 2.388 4.601 3.017 5.031 1.633.362-1.169.767-3.897.01-10.544-.461-4.056-.946-5.757-1.259-6.977-.409-1.596-1.73-2.319-2.782-2.319-.381-.001-.728.095-.982.278z"/><path id="yp37aT" d="M1651.52 5070.343c-.233.862-.146 1.17-.237 1.732-.114.698-.78.95-1.163 1.523-.425.63-1.091 1.545 1.51 1.595 2.784.054 4.434-.034 3.961-1.551-.471-1.517-.562-2.185-.531-2.68.03-.495 0-1.01-.315-1.306-.316-.296-2.816-.831-3.225.687z"/><path id="yp37aU" d="M1618.01 4984.765c-.904-.467-8.193-3.773-8.257-2.035-.07 1.92 2.538 3.864 3.494 4.41 1.747.999 3.856.606 4.696-.283.595-.63.927-1.648.067-2.092z"/><path id="yp37aV" d="M1617.75 4984.245c-.283-.373-1.972-2.578-2.408-2.29-.664.436.369 1.936 1.05 2.932.369.54 1.227 1.018 1.629.668.4-.353.182-.712-.271-1.31z"/><path id="yp37aW" d="M1630.121 5071.608c-.219.408-1.262 1.354-2.707 1.977-1.445.622-4.51.914-2.809 1.461 1.703.548 3.688.217 4.694.061 1.005-.155 1.98-.177 3.166-.185 1.562-.008 1.575-.1 1.364-1.8-.289-2.34-3.004-2.835-3.708-1.514z"/><path id="yp37aX" d="M1647.872 4963.201c-.316 3.161-.409 3.861-1.79 5.156-1.38 1.294-3.539 1.484-5.038 1.484-1.618 0-2.686-1.953-3.052-3.29-.378-1.386-.769-3.988-.314-7.45.23-1.754 2.395-3.883 4.63-3.883 2.233 0 6.335.258 5.564 7.983z"/><path id="yp37aY" d="M1616.28 4986.804c.986 1.214 1.782 1.918 5.311 2.96 4.768 1.41 7.52 1.897 9.941 2.055 2.235.144 1.867-5.201-1.039-6.042-2.456-.711-11.74-.194-13.235-.633-.988-.29-1.78.674-.979 1.66z"/><path id="yp37aZ" d="M1646.262 4968.77c.085 1.096.166 2.356.202 3.508.047 1.51-1.13 2.922-2.633 3.063a1.822 1.822 0 0 1-.173.007c-1.365 0-2.972-1.236-2.852-2.603.078-.889.108-1.785.113-2.57a3.552 3.552 0 0 1 2.368-3.335 2.234 2.234 0 0 1 2.975 1.93z"/><path id="yp37ba" d="M1652.587 4982.284c-2.537 8.342-3.37 17.045-2.873 22.871h-19.107s.11-17.896 1.39-27.697c.298-2.279 1.61-4.332 4.033-5.62 1.439-.764 4.036-1.128 5.094-1.128h3.53c1.184 0 2.58.112 3.729.464 5.212 1.597 5.676 6.276 4.204 11.11z"/><path id="yp37bb" d="M1630.606 5005.156s-.681 5.48-.697 11.689h19.726s1.653-4.01.079-11.689z"/><path id="yp37bd" d="M1645.864 5041.853c1.482 6.028 5.104 22.828 5.591 28.754.07.88.769.877 1.482.9.446.014 1.515.02 2.02-.325.269-.183.178-.838.195-1.371.153-4.061.378-24.408-2.459-30.772-.821-1.841-2.369-2.746-3.808-2.746-2.076 0-3.925 1.886-3.021 5.56z"/><path id="yp37bf" d="M1640.152 5017.684c.365 4.212 4.31 18.808 6.163 24.798.734 2.375 7.497 4.684 6.324-3.883-.521-3.8-2.003-24.826-2.276-26.848-.272-2.022-1.01-4.171-3.028-5.246-.763-.406-1.482-.595-2.149-.595-3.524.001-5.599 5.277-5.034 11.774z"/><path id="yp37bh" d="M1628.858 5041.454c.268 6.199 2.135 18.209 1.499 30.186-.061 1.177 3.404 2.391 3.447 1.328.241-9.104 4.1-25.046 1.869-32.472-.682-2.266-2.338-3.472-3.848-3.473-1.634 0-3.098 1.415-2.967 4.431z"/><path id="yp37bj" d="M1631.686 5006.223c-1.02.372-1.373 3.346-1.525 5.381-.155 2.034-.954 23.143-1.253 26.968-.675 8.617 5.788 5.877 6.539 3.509 1.555-4.91 4.053-18.895 4.951-24.003 1.175-6.699-2.484-12.192-6.845-12.192-.612 0-1.238.109-1.867.337z"/><path id="yp37bl" d="M1638.51 4962.537c.447 1.093.345 2.17-.23 2.403-.571.235-1.397-.463-1.844-1.556-.447-1.094-.345-2.169.227-2.404.574-.234 1.4.462 1.847 1.557z"/><path id="yp37bm" d="M1646.743 4962.537c-.446 1.093-.344 2.17.23 2.403.572.235 1.4-.463 1.845-1.556.446-1.094.345-2.169-.228-2.404-.574-.234-1.4.462-1.847 1.557z"/><path id="yp37bn" d="M1638.745 4953.615c-2.777.257-2.912 4.012-.97 4.689 1.942.677 7.891.505 9.124-1.333 1.313-1.962-5.813-2.21-6.454-2.471-1.261-.511-.145-.885-1.678-.885h-.022z"/><path id="yp37bp" d="M1640.204 4956.653c-1.832 1.107-2.258 2.077-2.206 4.341.05 2.265 1.02 6.132 5.19 6.994 4.172.864 5.155-3.275 5.408-6.13.252-2.855.088-4.99-2.021-5.502-1.215-.295-2.279-.418-3.192-.418-1.439 0-2.499.305-3.179.715z"/><path id="yp37br" d="M1640.412 4931.324a2.743 2.743 0 0 1-1.598-.502 3.37 3.37 0 0 1-.678-.613 4.025 4.025 0 0 1-.526-.817c-.607-1.24-.607-2.77 0-3.965.144-.282.317-.545.526-.779.208-.23.437-.416.678-.564a2.606 2.606 0 0 1 1.598-.384 2.84 2.84 0 0 1 1.533.637c.22.177.427.385.613.632.185.247.338.514.46.794.519 1.162.519 2.565 0 3.69a3.68 3.68 0 0 1-.46.76 3.168 3.168 0 0 1-.613.587 2.648 2.648 0 0 1-1.533.524zm1.257-11.66l-2.557-.366-.08 1.265a4.872 4.872 0 0 0-1.705.633l-.855-.965-2.055 2.124.777 1.095a7.564 7.564 0 0 0-.77 2.057l-1.215.031v3.421l1.215.12c.159.74.418 1.453.77 2.112l-.777 1.04 2.055 2.273.855-.902a5.213 5.213 0 0 0 1.705.757l.08 1.273 2.557-.18.073-1.237a5.203 5.203 0 0 0 1.522-.865l.715.752 1.603-2.142-.59-.88a7.663 7.663 0 0 0 .586-1.839l.879-.072v-2.87l-.88-.138a8.149 8.149 0 0 0-.584-1.88l.589-.839-1.603-2.258-.715.7a5.665 5.665 0 0 0-1.522-.977l-.073-1.243z"/><path id="yp37bs" d="M1628.19 4922.497a1.046 1.046 0 0 1-.497-.184 1.213 1.213 0 0 1-.206-.183 1.183 1.183 0 0 1-.158-.231c-.181-.34-.181-.743 0-1.047a.888.888 0 0 1 .158-.199.888.888 0 0 1 .703-.225c.17.018.34.084.492.193.07.052.138.113.2.184.06.071.111.148.152.228.173.335.173.729 0 1.028a.932.932 0 0 1-.152.198.884.884 0 0 1-.692.238zm.81-5.33l-1.636-.248-.05.69c-.366.04-.725.142-1.062.306l-.525-.537-1.24 1.088.466.604a3.53 3.53 0 0 0-.462 1.071l-.719-.026v1.805l.719.119c.095.4.249.793.462 1.163l-.466.511 1.24 1.338.525-.432a3.98 3.98 0 0 0 1.062.521l.05.699 1.636.082.048-.681c.349-.07.686-.198.998-.382l.476.471 1.082-1.104-.4-.537a3.53 3.53 0 0 0 .396-1.007l.602.005v-1.639l-.602-.116a4.317 4.317 0 0 0-.396-1.088l.4-.455-1.082-1.323-.476.374a4.089 4.089 0 0 0-.998-.582l-.048-.69z"/><path id="yp37bt" d="M1631.76 4990.462c.935-.791 2.74-2.871 5.68-8.883 1.793-3.667 2.298-5.362 2.69-6.56.7-2.132-.898-3.811-2.076-3.745-1.897.106-4.397 1.53-4.831 2.626-2.457 6.183-3.968 11.088-4.827 12.48-1.254 2.03 2.257 5.019 3.364 4.082z"/><linearGradient id="yp37c" x1="1369.74" x2="1672.26" y1="4998.93" y2="4998.93" gradientUnits="userSpaceOnUse"><stop offset="0" stop-color="#0694ea"/><stop offset=".01" stop-color="#0694ea"/><stop offset="1" stop-color="#9dc137"/><stop offset="1" stop-color="#9dc137"/></linearGradient><linearGradient id="yp37r" x1="1499.98" x2="1504.18" y1="4960.43" y2="4960.43" gradientUnits="userSpaceOnUse"><stop offset="0" stop-color="#343a44"/><stop offset="1" stop-color="#142138"/></linearGradient><linearGradient id="yp37v" x1="1490.74" x2="1511.22" y1="5011" y2="5011" gradientUnits="userSpaceOnUse"><stop offset="0" stop-color="#343a44"/><stop offset="1" stop-color="#142138"/></linearGradient><linearGradient id="yp37x" x1="1485.9" x2="1495.5" y1="5053.45" y2="5053.45" gradientUnits="userSpaceOnUse"><stop offset="0" stop-color="#343a44"/><stop offset="1" stop-color="#142138"/></linearGradient><linearGradient id="yp37z" x1="1488.36" x2="1501.07" y1="5025.29" y2="5025.29" gradientUnits="userSpaceOnUse"><stop offset="0" stop-color="#343a44"/><stop offset="1" stop-color="#142138"/></linearGradient><linearGradient id="yp37B" x1="1504.77" x2="1512.28" y1="5055" y2="5055" gradientUnits="userSpaceOnUse"><stop offset="0" stop-color="#343a44"/><stop offset="1" stop-color="#142138"/></linearGradient><linearGradient id="yp37D" x1="1500.51" x2="1512.27" y1="5025.17" y2="5025.17" gradientUnits="userSpaceOnUse"><stop offset="0" stop-color="#343a44"/><stop offset="1" stop-color="#142138"/></linearGradient><linearGradient id="yp37K" x1="1492.51" x2="1496.89" y1="4959.71" y2="4959.71" gradientUnits="userSpaceOnUse"><stop offset="0" stop-color="#343a44"/><stop offset="1" stop-color="#142138"/></linearGradient><linearGradient id="yp37N" x1="1494.07" x2="1504.67" y1="4955.71" y2="4955.71" gradientUnits="userSpaceOnUse"><stop offset="0" stop-color="#343a44"/><stop offset="1" stop-color="#142138"/></linearGradient><linearGradient id="yp37S" x1="1472.06" x2="1464.69" y1="5070.92" y2="4987.32" gradientUnits="userSpaceOnUse"><stop offset="0" stop-color="#00f"/><stop offset="1" stop-color="#9e005d"/></linearGradient><linearGradient id="yp37aQ" x1="1643.29" x2="1657.1" y1="4991.9" y2="5006.42" gradientUnits="userSpaceOnUse"><stop offset="0" stop-color="#f70f47"/><stop offset="1" stop-color="#ffb41d"/></linearGradient><linearGradient id="yp37aS" x1="1651.67" x2="1665.48" y1="4983.93" y2="4998.46" gradientUnits="userSpaceOnUse"><stop offset="0" stop-color="#f70f47"/><stop offset="1" stop-color="#ffb41d"/></linearGradient><linearGradient id="yp37bc" x1="1629.91" x2="1650.39" y1="5011" y2="5011" gradientUnits="userSpaceOnUse"><stop offset="0" stop-color="#343a44"/><stop offset="1" stop-color="#142138"/></linearGradient><linearGradient id="yp37be" x1="1645.63" x2="1655.23" y1="5053.9" y2="5053.9" gradientUnits="userSpaceOnUse"><stop offset="0" stop-color="#343a44"/><stop offset="1" stop-color="#142138"/></linearGradient><linearGradient id="yp37bg" x1="1640.06" x2="1652.78" y1="5025.29" y2="5025.29" gradientUnits="userSpaceOnUse"><stop offset="0" stop-color="#343a44"/><stop offset="1" stop-color="#142138"/></linearGradient><linearGradient id="yp37bi" x1="1628.85" x2="1636.36" y1="5055.2" y2="5055.2" gradientUnits="userSpaceOnUse"><stop offset="0" stop-color="#343a44"/><stop offset="1" stop-color="#142138"/></linearGradient><linearGradient id="yp37bk" x1="1628.86" x2="1640.62" y1="5025.17" y2="5025.17" gradientUnits="userSpaceOnUse"><stop offset="0" stop-color="#343a44"/><stop offset="1" stop-color="#142138"/></linearGradient><linearGradient id="yp37bo" x1="1633.27" x2="1660.16" y1="4950.25" y2="4970.97" gradientUnits="userSpaceOnUse"><stop offset="0" stop-color="#343a44"/><stop offset="1" stop-color="#142138"/></linearGradient><linearGradient id="yp37bq" x1="1631.7" x2="1658.6" y1="4952.29" y2="4973" gradientUnits="userSpaceOnUse"><stop offset="0" stop-color="#343a44"/><stop offset="1" stop-color="#142138"/></linearGradient><clipPath id="yp37Q"><use xlink:href="#yp37a"/></clipPath></defs><g><g opacity=".4" transform="translate(-1359 -4903)"><g opacity=".4"><use fill="url(#yp37c)" xlink:href="#yp37b"/></g></g><g transform="translate(-1359 -4903)"><use fill="#fff" fill-opacity="0" stroke="#001c34" stroke-linecap="round" stroke-linejoin="round" stroke-miterlimit="50" stroke-width=".53" xlink:href="#yp37d"/></g><g transform="translate(-1359 -4903)"><use fill="#64b9ff" xlink:href="#yp37e"/></g><g transform="translate(-1359 -4903)"><use fill="#fff" xlink:href="#yp37f"/></g><g transform="translate(-1359 -4903)"><use fill="#008ddc" xlink:href="#yp37g"/></g><g transform="translate(-1359 -4903)"><use fill="#008ddc" xlink:href="#yp37h"/></g><g transform="translate(-1359 -4903)"><use fill="#008ddc" xlink:href="#yp37i"/></g><g transform="translate(-1359 -4903)"><use fill="#00cbdb" xlink:href="#yp37j"/></g><g transform="translate(-1359 -4903)"><use fill="#fff" xlink:href="#yp37k"/></g><g transform="translate(-1359 -4903)"><use fill="#07a4a8" xlink:href="#yp37l"/></g><g transform="translate(-1359 -4903)"><use fill="#d8d8d8" xlink:href="#yp37m"/></g><g transform="translate(-1359 -4903)"><use fill="#f70f47" xlink:href="#yp37n"/></g><g transform="translate(-1359 -4903)"><use fill="#dd4d05" xlink:href="#yp37o"/></g><g transform="translate(-1359 -4903)"><use fill="#dd4d05" xlink:href="#yp37p"/></g><g transform="translate(-1359 -4903)"><use fill="url(#yp37r)" xlink:href="#yp37q"/></g><g transform="translate(-1359 -4903)"><use fill="#ed9169" xlink:href="#yp37s"/></g><g transform="translate(-1359 -4903)"><use fill="#ff5b00" xlink:href="#yp37t"/></g><g transform="translate(-1359 -4903)"><use fill="url(#yp37v)" xlink:href="#yp37u"/></g><g transform="translate(-1359 -4903)"><use fill="url(#yp37x)" xlink:href="#yp37w"/></g><g transform="translate(-1359 -4903)"><use fill="url(#yp37z)" xlink:href="#yp37y"/></g><g transform="translate(-1359 -4903)"><use fill="url(#yp37B)" xlink:href="#yp37A"/></g><g transform="translate(-1359 -4903)"><use fill="url(#yp37D)" xlink:href="#yp37C"/></g><g transform="translate(-1359 -4903)"><use fill="#fc8449" xlink:href="#yp37E"/></g><g transform="translate(-1359 -4903)"><use fill="#fc8449" xlink:href="#yp37F"/></g><g transform="translate(-1359 -4903)"><use fill="#ffaf84" xlink:href="#yp37G"/></g><g transform="translate(-1359 -4903)"><use fill="#ffaf84" xlink:href="#yp37H"/></g><g transform="translate(-1359 -4903)"><use fill="#f70f47" xlink:href="#yp37I"/></g><g transform="translate(-1359 -4903)"><use fill="url(#yp37K)" xlink:href="#yp37J"/></g><g transform="translate(-1359 -4903)"><use fill="#ffaf84" xlink:href="#yp37L"/></g><g transform="translate(-1359 -4903)"><use fill="url(#yp37N)" xlink:href="#yp37M"/></g><g transform="translate(-1359 -4903)"><use fill="#ffaf84" xlink:href="#yp37O"/></g><g transform="translate(-1359 -4903)"><use fill="#ffaf84" xlink:href="#yp37P"/></g><g transform="translate(-1359 -4903)"/><g clip-path="url(#yp37Q)" opacity=".3" transform="translate(-1359 -4903)"><g opacity=".3"><use fill="url(#yp37S)" xlink:href="#yp37R"/></g></g><g transform="translate(-1359 -4903)"><use fill="#0697ed" xlink:href="#yp37T"/></g><g opacity=".5" transform="translate(-1359 -4903)"><g opacity=".5"><use fill="#7bcaff" xlink:href="#yp37U"/></g></g><g opacity=".5" transform="translate(-1359 -4903)"><g opacity=".5"><use fill="#7bcaff" xlink:href="#yp37V"/></g></g><g transform="translate(-1359 -4903)"><use fill="#fff" fill-opacity="0" stroke="#bbceff" stroke-miterlimit="50" stroke-width=".93" xlink:href="#yp37W"/></g><g transform="translate(-1359 -4903)"><use fill="#fff" fill-opacity="0" stroke="#bbceff" stroke-miterlimit="50" stroke-width=".93" xlink:href="#yp37X"/></g><g transform="translate(-1359 -4903)"><use fill="#f6f3ff" xlink:href="#yp37Y"/></g><g transform="translate(-1359 -4903)"><use fill="#fff" fill-opacity="0" stroke="#bbceff" stroke-miterlimit="50" stroke-width=".93" xlink:href="#yp37Z"/></g><g opacity=".37" transform="translate(-1359 -4903)"><g opacity=".37"><use fill="#0697ed" xlink:href="#yp37aa"/></g></g><g transform="translate(-1359 -4903)"><use fill="#fff" fill-opacity="0" stroke="#bbceff" stroke-miterlimit="50" stroke-width=".93" xlink:href="#yp37ab"/></g><g transform="translate(-1359 -4903)"><use fill="#ffc550" xlink:href="#yp37ac"/></g><g transform="translate(-1359 -4903)"><use fill="#edf4fc" xlink:href="#yp37ad"/></g><g transform="translate(-1359 -4903)"><use fill="#f70f47" xlink:href="#yp37ae"/></g><g transform="translate(-1359 -4903)"><use fill="#f70f47" xlink:href="#yp37af"/></g><g opacity=".6" transform="translate(-1359 -4903)"><g opacity=".6"><use fill="#7bcaff" xlink:href="#yp37ag"/></g><g opacity=".6"><use fill="#7bcaff" xlink:href="#yp37ah"/></g><g opacity=".6"><use fill="#7bcaff" xlink:href="#yp37ai"/></g></g><g opacity=".5" transform="translate(-1359 -4903)"><g opacity=".5"><use fill="#ff3369" xlink:href="#yp37aj"/></g></g><g opacity=".5" transform="translate(-1359 -4903)"><g opacity=".5"><use fill="#ff3369" xlink:href="#yp37ak"/></g></g><g transform="translate(-1359 -4903)"><use fill="#f2bbd2" xlink:href="#yp37al"/></g><g transform="translate(-1359 -4903)"><use fill="#edf4fc" xlink:href="#yp37am"/></g><g transform="translate(-1359 -4903)"><use fill="#aaa4f7" xlink:href="#yp37an"/></g><g transform="translate(-1359 -4903)"><use fill="#fff" fill-opacity="0" stroke="#ffc550" stroke-miterlimit="50" stroke-width="1.01" xlink:href="#yp37ao"/></g><g transform="translate(-1359 -4903)"><use fill="#ff3369" xlink:href="#yp37ap"/></g><g transform="translate(-1359 -4903)"><use fill="#ff3369" xlink:href="#yp37aq"/></g><g transform="translate(-1359 -4903)"><use fill="#ff3369" xlink:href="#yp37ar"/></g><g opacity=".5" transform="translate(-1359 -4903)"><g opacity=".5"><use fill="#7bcaff" xlink:href="#yp37as"/></g></g><g opacity=".5" transform="translate(-1359 -4903)"><g opacity=".5"><use fill="#7bcaff" xlink:href="#yp37at"/></g></g><g opacity=".5" transform="translate(-1359 -4903)"><g opacity=".5"><use fill="#7bcaff" xlink:href="#yp37au"/></g></g><g opacity=".5" transform="translate(-1359 -4903)"><g opacity=".5"><use fill="#7bcaff" xlink:href="#yp37av"/></g></g><g opacity=".5" transform="translate(-1359 -4903)"><g opacity=".5"><use fill="#7bcaff" xlink:href="#yp37aw"/></g></g><g opacity=".5" transform="translate(-1359 -4903)"><g opacity=".5"><use fill="#7bcaff" xlink:href="#yp37ax"/></g></g><g opacity=".5" transform="translate(-1359 -4903)"><g opacity=".5"><use fill="#7bcaff" xlink:href="#yp37ay"/></g></g><g opacity=".5" transform="translate(-1359 -4903)"><g opacity=".5"><use fill="#7bcaff" xlink:href="#yp37az"/></g></g><g opacity=".5" transform="translate(-1359 -4903)"><g opacity=".5"><use fill="#7bcaff" xlink:href="#yp37aA"/></g></g><g opacity=".5" transform="translate(-1359 -4903)"><g opacity=".5"><use fill="#7bcaff" xlink:href="#yp37aB"/></g></g><g transform="translate(-1359 -4903)"><use fill="#edf4fc" xlink:href="#yp37aC"/></g><g transform="translate(-1359 -4903)"><use fill="#ffc550" xlink:href="#yp37aD"/></g><g transform="translate(-1359 -4903)"><use fill="#ffc550" xlink:href="#yp37aE"/></g><g transform="translate(-1359 -4903)"><use fill="#f2bbd2" xlink:href="#yp37aF"/></g><g transform="translate(-1359 -4903)"><use fill="#f2bbd2" xlink:href="#yp37aG"/></g><g transform="translate(-1359 -4903)"><use fill="#aaa4f7" xlink:href="#yp37aH"/></g><g transform="translate(-1359 -4903)"><use fill="#edf4fc" xlink:href="#yp37aI"/></g><g transform="translate(-1359 -4903)"><use fill="#ffc550" xlink:href="#yp37aJ"/></g><g transform="translate(-1359 -4903)"><use fill="#aaa4f7" xlink:href="#yp37aK"/></g><g transform="translate(-1359 -4903)"><use fill="#f2bbd2" xlink:href="#yp37aL"/></g><g transform="translate(-1359 -4903)"><use fill="#ffc550" xlink:href="#yp37aM"/></g><g transform="translate(-1359 -4903)"><use fill="#edf4fc" xlink:href="#yp37aN"/></g><g transform="translate(-1359 -4903)"><use fill="#d8d8d8" xlink:href="#yp37aO"/></g><g transform="translate(-1359 -4903)"><use fill="url(#yp37aQ)" xlink:href="#yp37aP"/></g><g transform="translate(-1359 -4903)"><use fill="url(#yp37aS)" xlink:href="#yp37aR"/></g><g transform="translate(-1359 -4903)"><use fill="#4e11f4" xlink:href="#yp37aT"/></g><g transform="translate(-1359 -4903)"><use fill="#ffaf84" xlink:href="#yp37aU"/></g><g transform="translate(-1359 -4903)"><use fill="#ffaf84" xlink:href="#yp37aV"/></g><g transform="translate(-1359 -4903)"><use fill="#4e11f4" xlink:href="#yp37aW"/></g><g transform="translate(-1359 -4903)"><use fill="#ffaf84" xlink:href="#yp37aX"/></g><g transform="translate(-1359 -4903)"><use fill="#fc8449" xlink:href="#yp37aY"/></g><g transform="translate(-1359 -4903)"><use fill="#ffaf84" xlink:href="#yp37aZ"/></g><g transform="translate(-1359 -4903)"><use fill="#ff5b00" xlink:href="#yp37ba"/></g><g transform="translate(-1359 -4903)"><use fill="url(#yp37bc)" xlink:href="#yp37bb"/></g><g transform="translate(-1359 -4903)"><use fill="url(#yp37be)" xlink:href="#yp37bd"/></g><g transform="translate(-1359 -4903)"><use fill="url(#yp37bg)" xlink:href="#yp37bf"/></g><g transform="translate(-1359 -4903)"><use fill="url(#yp37bi)" xlink:href="#yp37bh"/></g><g transform="translate(-1359 -4903)"><use fill="url(#yp37bk)" xlink:href="#yp37bj"/></g><g transform="translate(-1359 -4903)"><use fill="#ffaf84" xlink:href="#yp37bl"/></g><g transform="translate(-1359 -4903)"><use fill="#ffaf84" xlink:href="#yp37bm"/></g><g transform="translate(-1359 -4903)"><use fill="url(#yp37bo)" xlink:href="#yp37bn"/></g><g transform="translate(-1359 -4903)"><use fill="url(#yp37bq)" xlink:href="#yp37bp"/></g><g transform="translate(-1359 -4903)"/><g opacity=".5" transform="translate(-1359 -4903)"><g opacity=".5"><use fill="#f70f47" xlink:href="#yp37br"/></g><g opacity=".5"><use fill="#a111f4" xlink:href="#yp37bs"/></g></g><g transform="translate(-1359 -4903)"><use fill="#fc8449" xlink:href="#yp37bt"/></g></g></svg>