<svg xmlns="http://www.w3.org/2000/svg" xmlns:xlink="http://www.w3.org/1999/xlink" width="138.67" height="138.67" viewBox="0 0 208 208"><defs><path id="imaaa" d="M1640.194 4708.388c0 57.22-46.365 103.599-103.616 103.599-57.182-.004-103.617-46.372-103.617-103.593 0-57.254 46.435-103.616 103.617-103.616 57.25 0 103.616 46.362 103.616 103.61z"/><path id="imaab" d="M1494.902 4762.967c3.387 9.27 7.632 17.303 12.538 23.723a83.729 83.729 0 0 1-30.199-19.542 214.632 214.632 0 0 1 17.661-4.181zm101.016 4.174a83.752 83.752 0 0 1-30.204 19.549c4.906-6.422 9.151-14.456 12.538-23.73a215.275 215.275 0 0 1 17.666 4.181zm-65.189-8.072v31.88c-9.547-3.254-18.071-14.314-24.063-29.929a220.45 220.45 0 0 1 24.063-1.951zm11.696 0c8.052.212 16.09.856 24.067 1.946-5.993 15.62-14.518 26.68-24.067 29.935zm-56.306-44.843c.415 13.513 2.259 26.187 5.261 37.505a226.483 226.483 0 0 0-22.415 5.668c-8.94-12.3-14.603-27.117-15.719-43.173zm44.61 0v33.148a231.84 231.84 0 0 0-27.722 2.363c-2.905-10.665-4.74-22.741-5.174-35.511zm11.696 0h32.896c-.432 12.768-2.269 24.844-5.172 35.509a232.028 232.028 0 0 0-27.724-2.363zm44.607 0h32.875c-1.115 16.054-6.778 30.869-15.717 43.168a225.695 225.695 0 0 0-22.418-5.666c3.001-11.318 4.845-23.991 5.26-37.502zm-44.607-44.784a231.073 231.073 0 0 0 27.736-2.372c2.896 10.653 4.728 22.714 5.16 35.464h-32.896zm-11.696 0v33.092h-32.896c.432-12.752 2.266-24.813 5.162-35.469a230.093 230.093 0 0 0 27.734 2.377zm73.472-10.065c8.932 12.297 14.591 27.107 15.706 43.157h-32.875c-.415-13.498-2.256-26.159-5.251-37.47a227.237 227.237 0 0 0 22.42-5.687zm-112.826 5.682c-2.999 11.311-4.839 23.973-5.256 37.475h-32.873c1.114-16.053 6.775-30.865 15.711-43.164a227.351 227.351 0 0 0 22.418 5.689zm104.55-15.436a214.477 214.477 0 0 1-17.671 4.181c-3.387-9.277-7.634-17.313-12.541-23.737 11.471 4.281 21.753 11.012 30.212 19.556zm-88.482-19.558c-4.906 6.422-9.152 14.459-12.543 23.734a215.795 215.795 0 0 1-17.667-4.183c8.458-8.542 18.74-15.272 30.21-19.551zm23.286-4.258v31.885a220.787 220.787 0 0 1-24.067-1.948c5.995-15.62 14.518-26.68 24.067-29.937zm11.696 0c9.55 3.255 18.074 14.318 24.069 29.941a220.74 220.74 0 0 1-24.069 1.946zm-5.848 177.828c52.519 0 95.259-42.736 95.259-95.255 0-52.525-42.74-95.254-95.259-95.254s-95.257 42.729-95.257 95.254c0 52.519 42.738 95.255 95.257 95.255z"/><linearGradient id="imaac" x1="1469.25" x2="1603.9" y1="4775.7" y2="4641.06" gradientUnits="userSpaceOnUse"><stop offset="0" stop-color="#0693e9"/><stop offset=".01" stop-color="#0693e9"/><stop offset="1" stop-color="#9cc037"/><stop offset="1" stop-color="#9cc037"/></linearGradient></defs><g><g transform="translate(-1433 -4604)"><use fill="#fff" xlink:href="#imaaa"/></g><g transform="translate(-1433 -4604)"><use fill="url(#imaac)" xlink:href="#imaab"/></g></g></svg>