<svg xmlns="http://www.w3.org/2000/svg" xmlns:xlink="http://www.w3.org/1999/xlink" width="25.33" height="25.33" viewBox="0 0 38 38"><defs><path id="686ia" d="M1235.358 2487.359a17.993 17.993 0 0 0-5.306 12.809c0 4.84 1.884 9.389 5.306 12.811a17.995 17.995 0 0 0 12.811 5.308 17.99 17.99 0 0 0 12.809-5.308 17.995 17.995 0 0 0 5.308-12.811 17.99 17.99 0 0 0-5.308-12.809 17.994 17.994 0 0 0-12.809-5.307c-4.84 0-9.389 1.885-12.811 5.307z"/><path id="686ic" d="M1235.863 2512.475a17.296 17.296 0 0 1-5.096-12.307c0-4.647 1.81-9.018 5.096-12.304a17.287 17.287 0 0 1 12.306-5.098c4.648 0 9.019 1.81 12.305 5.098a17.286 17.286 0 0 1 5.097 12.304c0 4.649-1.81 9.019-5.097 12.307a17.29 17.29 0 0 1-12.305 5.096c-4.648 0-9.019-1.81-12.306-5.096zm-1.01-25.622a18.704 18.704 0 0 0-5.515 13.315c0 5.03 1.958 9.759 5.515 13.317a18.708 18.708 0 0 0 13.316 5.515c5.03 0 9.759-1.958 13.316-5.515a18.72 18.72 0 0 0 5.515-13.317c0-5.031-1.96-9.758-5.517-13.315a18.705 18.705 0 0 0-13.314-5.516c-5.03 0-9.759 1.96-13.316 5.516z"/><path id="686ie" d="M1251.643 2510.322l-1.737-.669-1.737.669-1.737-.669-1.737.669-1.737-.669-1.408.542a11.876 11.876 0 0 0-3.614 3.882 17.143 17.143 0 0 0 10.233 3.356c3.731 0 7.281-1.177 10.228-3.354a11.91 11.91 0 0 0-3.638-3.895l-1.379-.531z"/><path id="686ig" d="M1248.169 2518.148a17.81 17.81 0 0 1-10.658-3.496l-.513-.38.32-.553a12.6 12.6 0 0 1 3.83-4.115l.145-.075 1.664-.642 1.737.67 1.738-.67 1.737.67 1.737-.67 1.737.67 1.737-.67 1.778.705a12.644 12.644 0 0 1 3.858 4.129l.32.554-.514.379c-3.093 2.285-6.778 3.494-10.653 3.494zm-9.273-4.267a16.385 16.385 0 0 0 9.273 2.837 16.39 16.39 0 0 0 9.268-2.833 11.231 11.231 0 0 0-3.012-3.064l-1.045-.403-1.737.67-1.737-.67-1.737.67-1.737-.67-1.738.67-1.736-.67-1.074.414c-1.178.81-2.2 1.855-2.988 3.049z"/><path id="686ih" d="M1239.438 2489.7l.475 8.934c.082 1.52.111 3.064.088 4.588l-.086 5.681 1.305.505 1.738-.671 1.737.671 1.737-.671 1.737.671 1.737-.671 1.736.671 1.738-.671 1.738.671 1.305-.505-.086-5.681a66.202 66.202 0 0 1 .087-4.588l.476-8.934z"/><path id="686ij" d="M1241.22 2510.173l-2.028-.782.094-6.181a66.603 66.603 0 0 0-.086-4.538l-.516-9.687h18.97l-.517 9.687a66.073 66.073 0 0 0-.087 4.538l.094 6.18-2.027.783-1.738-.67-1.737.67-1.737-.67-1.737.67-1.737-.67-1.737.67-1.737-.67zm5.211-2.201l1.737.67 1.737-.67 1.737.67 1.737-.67 1.737.67.585-.226-.079-5.183a67.696 67.696 0 0 1 .088-4.637l.436-8.183h-15.955l.435 8.183c.082 1.533.112 3.094.088 4.637l-.078 5.183.584.226 1.737-.67 1.737.67z"/><path id="686ik" d="M1235.962 2487.961a17.146 17.146 0 0 0-5.057 12.207c0 4.613 1.795 8.948 5.057 12.208.414.415.847.807 1.295 1.174a12.777 12.777 0 0 1 3.118-3.554l-1.324-.51.096-6.278a66.478 66.478 0 0 0-.086-4.53l-.524-9.832h19.263l-.525 9.832a67.13 67.13 0 0 0-.086 4.53l.096 6.278-1.331.513a12.747 12.747 0 0 1 3.122 3.554c.449-.369.883-.76 1.3-1.177a17.154 17.154 0 0 0 5.056-12.208c0-4.61-1.796-8.947-5.056-12.207a17.153 17.153 0 0 0-12.207-5.055 17.15 17.15 0 0 0-12.207 5.055z"/><path id="686im" d="M1236.467 2511.871a16.44 16.44 0 0 1-4.848-11.703c0-4.42 1.722-8.575 4.848-11.702a16.446 16.446 0 0 1 11.702-4.848 16.45 16.45 0 0 1 11.702 4.848 16.446 16.446 0 0 1 4.846 11.702c0 4.421-1.721 8.578-4.846 11.703h-.001c-.205.204-.416.406-.632.602a13.381 13.381 0 0 0-1.911-2.237l.68-.262-.104-6.776c-.021-1.49.007-2.997.087-4.481l.563-10.587h-20.77l.564 10.587c.079 1.487.108 2.995.086 4.481l-.103 6.776.673.26a13.411 13.411 0 0 0-1.906 2.234 16.15 16.15 0 0 1-.63-.597zm-1.01-24.414a17.854 17.854 0 0 0-5.267 12.711c0 4.803 1.871 9.318 5.267 12.713.428.43.883.84 1.349 1.222l.643.526.424-.718a11.943 11.943 0 0 1 2.943-3.352l.992-.776-2.034-.784.087-5.78a67.266 67.266 0 0 0-.087-4.578l-.484-9.082h17.756l-.483 9.082a65.902 65.902 0 0 0-.087 4.578l.087 5.78-2.043.785.994.778c1.19.93 2.182 2.059 2.948 3.353l.422.717.645-.526c.47-.386.925-.798 1.352-1.225a17.864 17.864 0 0 0 5.265-12.713c0-4.802-1.87-9.317-5.265-12.711a17.858 17.858 0 0 0-12.712-5.267c-4.802 0-9.317 1.87-12.712 5.267z"/><path id="686io" d="M1243.338 2502.176a1.269 1.269 0 0 0 0-2.535 1.269 1.269 0 0 0 0 2.535zm0-1.68c.228 0 .414.185.414.412a.414.414 0 1 1-.414-.413z"/><path id="686ip" d="M1241.713 2500.91a1.626 1.626 0 0 1 3.25 0c0 .895-.73 1.624-1.625 1.624a1.627 1.627 0 0 1-1.625-1.624zm.715 0a.91.91 0 1 0 1.82-.003.91.91 0 0 0-1.82.003zm.138 0c0-.426.346-.772.771-.772a.771.771 0 1 1-.771.772zm.772-.058a.057.057 0 0 0-.056.058h.113z"/><path id="686iq" d="M1253 2502.176a1.269 1.269 0 0 0 0-2.535 1.269 1.269 0 0 0 0 2.535zm0-1.68c.228 0 .414.185.414.412a.414.414 0 1 1-.414-.413z"/><path id="686ir" d="M1251.375 2500.91a1.625 1.625 0 1 1 1.625 1.624 1.627 1.627 0 0 1-1.625-1.624zm.715 0a.91.91 0 1 0 1.82-.003.91.91 0 0 0-1.82.003zm.139 0c0-.426.346-.772.77-.772a.771.771 0 1 1-.771.772zm.77-.058a.058.058 0 0 0-.056.058h.114z"/><linearGradient id="686ib" x1="1235.36" x2="1260.98" y1="2512.98" y2="2487.36" gradientUnits="userSpaceOnUse"><stop offset="0" stop-color="#0693e9"/><stop offset=".01" stop-color="#0693e9"/><stop offset="1" stop-color="#9cc037"/><stop offset="1" stop-color="#9cc037"/></linearGradient><linearGradient id="686id" x1="1234.85" x2="1261.48" y1="2513.48" y2="2486.85" gradientUnits="userSpaceOnUse"><stop offset="0" stop-color="#0693e9"/><stop offset=".01" stop-color="#0693e9"/><stop offset="1" stop-color="#9cc037"/><stop offset="1" stop-color="#9cc037"/></linearGradient><linearGradient id="686if" x1="1237.94" x2="1258.4" y1="2513.54" y2="2513.54" gradientUnits="userSpaceOnUse"><stop offset="0" stop-color="#0693e9"/><stop offset=".01" stop-color="#0693e9"/><stop offset="1" stop-color="#9cc037"/><stop offset="1" stop-color="#9cc037"/></linearGradient><linearGradient id="686ii" x1="1239.12" x2="1257.22" y1="2508.11" y2="2490.02" gradientUnits="userSpaceOnUse"><stop offset="0" stop-color="#0693e9"/><stop offset=".01" stop-color="#0693e9"/><stop offset="1" stop-color="#9cc037"/><stop offset="1" stop-color="#9cc037"/></linearGradient><linearGradient id="686il" x1="1235.96" x2="1260.38" y1="2512.38" y2="2487.96" gradientUnits="userSpaceOnUse"><stop offset="0" stop-color="#0693e9"/><stop offset=".01" stop-color="#0693e9"/><stop offset="1" stop-color="#9cc037"/><stop offset="1" stop-color="#9cc037"/></linearGradient><linearGradient id="686in" x1="1235.46" x2="1260.88" y1="2512.88" y2="2487.46" gradientUnits="userSpaceOnUse"><stop offset="0" stop-color="#0693e9"/><stop offset=".01" stop-color="#0693e9"/><stop offset="1" stop-color="#9cc037"/><stop offset="1" stop-color="#9cc037"/></linearGradient></defs><g><g transform="translate(-1229 -2481)"><use fill="url(#686ib)" xlink:href="#686ia"/></g><g transform="translate(-1229 -2481)"><use fill="url(#686id)" xlink:href="#686ic"/></g><g transform="translate(-1229 -2481)"><use fill="url(#686if)" xlink:href="#686ie"/></g><g transform="translate(-1229 -2481)"><use fill="#fff" xlink:href="#686ig"/></g><g transform="translate(-1229 -2481)"><use fill="url(#686ii)" xlink:href="#686ih"/></g><g transform="translate(-1229 -2481)"><use fill="#fff" xlink:href="#686ij"/></g><g transform="translate(-1229 -2481)"><use fill="url(#686il)" xlink:href="#686ik"/></g><g transform="translate(-1229 -2481)"><use fill="url(#686in)" xlink:href="#686im"/></g><g transform="translate(-1229 -2481)"><use fill="#fff" xlink:href="#686io"/></g><g transform="translate(-1229 -2481)"><use fill="#fff" xlink:href="#686ip"/></g><g transform="translate(-1229 -2481)"><use fill="#fff" xlink:href="#686iq"/></g><g transform="translate(-1229 -2481)"><use fill="#fff" xlink:href="#686ir"/></g></g></svg>