<svg xmlns="http://www.w3.org/2000/svg" xmlns:xlink="http://www.w3.org/1999/xlink" width="52" height="52"><defs><rect id="a" width="40" height="28" x="4" rx="2"/><rect id="b" width="32" height="23" x="8" y="4" rx="1"/><rect id="c" width="17" height="23" rx="1"/><rect id="e" width="48" height="6" y="24" rx="2"/><rect id="f" width="23" height="30" x="21.5" y="10.5" rx="2"/><rect id="g" width="12" height="20" x="28" y="24" rx="2"/></defs><g fill="none" fill-rule="evenodd"><g transform="translate(2.089 5.33)"><use xlink:href="#a" width="100%" height="100%" fill="#fff"/><rect width="38.5" height="26.5" x="4.75" y=".75" rx="2" stroke="#3a5ba2" stroke-width="1.5"/></g><g transform="translate(2.089 5.33)"><use xlink:href="#b" width="100%" height="100%" fill="#fff"/><rect width="31.25" height="22.25" x="8.375" y="4.375" rx="1" stroke="#3a5ba2" stroke-width=".75"/></g><g transform="translate(10.089 9.33)"><mask id="d" fill="#fff"><use xlink:href="#c" width="100%" height="100%"/></mask><use xlink:href="#c" width="100%" height="100%" fill="#fff"/><rect width="16.25" height="22.25" x=".375" y=".375" rx="1" stroke="#3a6ad1" stroke-width=".75"/><g mask="url(#d)" stroke="#3a6ad1" stroke-width=".625" stroke-linecap="square"><path d="M17.12-28.11l-41.233 41.233m58.912-23.556L-6.435 30.801m24.44-58.028L-23.23 14.007M35.682-9.549L-5.55 31.685m24.439-58.028l-41.234 41.234M36.566-8.665L-4.668 32.569m24.441-58.028l-41.234 41.234M37.45-7.781L-3.784 33.453m24.44-58.028l-41.233 41.234M38.334-6.897L-2.9 34.337m24.44-58.028l-41.234 41.234M39.218-6.013L-2.016 35.22m24.44-58.027L-18.81 18.427M40.102-5.13L-1.132 36.104m24.44-58.027L-17.926 19.31M40.986-4.246L-.248 36.988m24.44-58.028l-41.234 41.234M41.87-3.362L.636 37.872m24.44-58.028l-41.234 41.234M42.753-2.478L1.52 38.756m24.44-58.028l-41.234 41.234M43.637-1.594L2.403 39.64m24.441-58.028L-14.39 22.846M44.521-.71L3.287 40.524m24.44-58.028L-13.506 23.73M45.405.174L4.171 41.408m24.44-58.028l-41.234 41.234M46.289 1.058L5.055 42.29m24.44-58.026l-41.234 41.234M47.173 1.941L5.939 43.175M30.38-14.852l-41.235 41.234M48.057 2.825L6.823 44.06m24.44-58.028L-9.971 27.265M48.94 3.71L7.708 44.942m24.439-58.027L-9.087 28.15M49.825 4.593L8.59 45.827M33.03-12.2L-8.202 29.032m58.91-23.555L9.475 46.711m24.44-58.028L-7.32 29.917M51.592 6.36L10.358 47.596"/></g></g><g transform="translate(2.089 5.33)"><use xlink:href="#e" width="100%" height="100%" fill="#fff"/><rect width="46.5" height="4.5" x=".75" y="24.75" rx="2" stroke="#3a5ba2" stroke-width="1.5"/></g><g transform="rotate(-90 36.71 27.12)"><use xlink:href="#f" width="100%" height="100%" fill="#fff"/><rect width="21.5" height="28.5" x="22.25" y="11.25" rx="2" stroke="#3a5ba2" stroke-width="1.5"/></g><g transform="translate(2.089 5.33)"><use xlink:href="#g" width="100%" height="100%" fill="#fff"/><rect width="10.5" height="18.5" x="28.75" y="24.75" rx="2" stroke="#3a5ba2" stroke-width="1.5"/></g><path d="M31.589 44.83h9m-14.5-25.005V40.33" stroke="#3a5ba2" stroke-width=".75" stroke-linecap="square"/></g></svg>