<svg xmlns="http://www.w3.org/2000/svg" xmlns:xlink="http://www.w3.org/1999/xlink" width="125.33" height="125.33" viewBox="0 0 188 188"><defs><path id="ay2qa" d="M1197.285 1617.163h-94.218c-25.486 0-46.147-20.661-46.147-46.147v-94.218c0-25.487 20.661-46.147 46.147-46.147h94.218c25.486 0 46.147 20.66 46.147 46.147v94.218c0 25.486-20.66 46.147-46.147 46.147z"/><path id="ay2qb" d="M1116.784 1492.153a44.67 44.67 0 0 0-12.1 22.126l42.617 7.225 18.943-38.859a44.992 44.992 0 0 0-17.73-3.634c-11.484 0-22.967 4.378-31.73 13.142z"/><path id="ay2qd" d="M1116.784 1555.653c17.023 17.024 44.31 17.517 61.934 1.489l-31.223-31.226-43.528-7.38c-1.584 13.207 2.682 26.982 12.817 37.117z"/><path id="ay2qf" d="M1155.891 1518.684l40.816-3.882a44.697 44.697 0 0 0-12.695-25.354 44.921 44.921 0 0 0-10.155-7.617z"/><path id="ay2qh" d="M1153.301 1525.618l28.469 28.469c8.276-9.097 12.149-20.772 11.615-32.281z"/><linearGradient id="ay2qc" x1="1114.64" x2="1161.24" y1="1524.23" y2="1477.64" gradientUnits="userSpaceOnUse"><stop offset="0" stop-color="#0694ea"/><stop offset=".01" stop-color="#0694ea"/><stop offset="1" stop-color="#9dc137"/><stop offset="1" stop-color="#9dc137"/></linearGradient><linearGradient id="ay2qe" x1="1120.16" x2="1150.38" y1="1559.02" y2="1528.8" gradientUnits="userSpaceOnUse"><stop offset="0" stop-color="#0694ea"/><stop offset=".01" stop-color="#0694ea"/><stop offset="1" stop-color="#9dc137"/><stop offset="1" stop-color="#9dc137"/></linearGradient><linearGradient id="ay2qg" x1="1160.4" x2="1189.08" y1="1523.2" y2="1494.52" gradientUnits="userSpaceOnUse"><stop offset="0" stop-color="#0694ea"/><stop offset=".01" stop-color="#0694ea"/><stop offset="1" stop-color="#9dc137"/><stop offset="1" stop-color="#9dc137"/></linearGradient><linearGradient id="ay2qi" x1="1167.54" x2="1189.48" y1="1539.85" y2="1517.91" gradientUnits="userSpaceOnUse"><stop offset="0" stop-color="#0694ea"/><stop offset=".01" stop-color="#0694ea"/><stop offset="1" stop-color="#9dc137"/><stop offset="1" stop-color="#9dc137"/></linearGradient></defs><g><g transform="translate(-1056 -1430)"><use fill="#fff" xlink:href="#ay2qa"/></g><g transform="translate(-1056 -1430)"><use fill="url(#ay2qc)" xlink:href="#ay2qb"/></g><g transform="translate(-1056 -1430)"><use fill="url(#ay2qe)" xlink:href="#ay2qd"/></g><g transform="translate(-1056 -1430)"><use fill="url(#ay2qg)" xlink:href="#ay2qf"/></g><g transform="translate(-1056 -1430)"><use fill="url(#ay2qi)" xlink:href="#ay2qh"/></g></g></svg>