<svg xmlns="http://www.w3.org/2000/svg" xmlns:xlink="http://www.w3.org/1999/xlink" width="26" height="25.33" viewBox="0 0 39 38"><defs><path id="k2npa" d="M295.874 2732.707c0 1.454.939 2.683 2.236 3.146v-12.999a3.348 3.348 0 0 0-2.236 3.146zm35.764 3.146a3.347 3.347 0 0 0 2.236-3.146V2726a3.345 3.345 0 0 0-2.236-3.146zm-31.293-.911a3.357 3.357 0 0 0 3.353 3.353 3.358 3.358 0 0 0 3.354-3.353v-11.178a3.358 3.358 0 0 0-3.354-3.352c-.377 0-.732.076-1.07.191.476-6.348 5.781-11.368 12.246-11.368 6.463 0 11.766 5.017 12.248 11.359a3.28 3.28 0 0 0-1.07-.182 3.358 3.358 0 0 0-3.354 3.352v11.178a3.358 3.358 0 0 0 3.354 3.353c.393 0 .766-.082 1.117-.207v1.324c0 .617-.502 1.118-1.117 1.118h-8.03a3.347 3.347 0 0 0-3.148-2.235 3.356 3.356 0 0 0-3.353 3.352 3.357 3.357 0 0 0 3.353 3.353 3.347 3.347 0 0 0 3.148-2.236h8.03a3.356 3.356 0 0 0 3.352-3.352v-17.883c0-8.011-6.518-14.529-14.53-14.529-8.01 0-14.529 6.518-14.529 14.529z"/><linearGradient id="k2npb" x1="302.41" x2="328.46" y1="2740.62" y2="2714.58" gradientUnits="userSpaceOnUse"><stop offset="0" stop-color="#0693e9"/><stop offset=".01" stop-color="#0693e9"/><stop offset="1" stop-color="#9cc037"/><stop offset="1" stop-color="#9cc037"/></linearGradient></defs><g><g transform="translate(-295 -2707)"><use fill="url(#k2npb)" xlink:href="#k2npa"/></g></g></svg>