<svg xmlns="http://www.w3.org/2000/svg" xmlns:xlink="http://www.w3.org/1999/xlink" width="75.33" height="76" viewBox="0 0 113 114"><defs><path id="zl94a" d="M1175.782 2035.195l-3.139 1.048-8.37-7.324-3.139-2.092s-3.137 2.092-3.383 1.801c-29.539 3.896-20.301 34.729-20.301 34.729l-.38.089h74.285V2042.52l-4.185-5.231-3.139-3.14-13.601-6.276-5.232-1.046z"/><path id="zl94c" d="M1151.172 2006.084a6.176 6.176 0 0 1-5.975-6.166 6.178 6.178 0 0 1 5.975-6.166c2.773-10.337 12.032-17.481 22.813-17.481 10.784 0 20.042 7.144 22.816 17.48a6.177 6.177 0 0 1 5.973 6.167 6.177 6.177 0 0 1-5.974 6.166 23.813 23.813 0 0 1-4.62 8.887 1.027 1.027 0 1 1-1.583-1.31c2.147-2.598 3.673-5.673 4.413-8.893a1.026 1.026 0 0 1 1.12-.791c.279.037.376.054.475.054a4.118 4.118 0 0 0 4.113-4.113 4.117 4.117 0 0 0-4.113-4.112c-.1 0-.196.016-.292.029-.528.064-1.184-.248-1.303-.767a21.725 21.725 0 0 0-2.491-6.206v6.944a6.175 6.175 0 0 1-6.17 6.168h-5.473a6.16 6.16 0 0 1-5.133-2.747l-1.731-2.596-1.731 2.596a6.157 6.157 0 0 1-5.132 2.747h-5.474a6.175 6.175 0 0 1-6.17-6.168v-7.033a21.71 21.71 0 0 0-2.541 6.295 1.037 1.037 0 0 1-1.122.79c-.28-.036-.376-.052-.475-.052a4.117 4.117 0 0 0-4.113 4.112 4.118 4.118 0 0 0 4.113 4.113c.099 0 .196-.017.29-.03.536-.068 1.187.249 1.307.767.74 3.22 2.266 6.296 4.412 8.893a1.027 1.027 0 1 1-1.584 1.31 23.797 23.797 0 0 1-4.62-8.887zm39.29-16.447h-32.9v6.169a4.117 4.117 0 0 0 4.112 4.112h5.474a4.107 4.107 0 0 0 3.421-1.831l2.587-3.88a1.029 1.029 0 0 1 1.711 0l2.586 3.88a4.107 4.107 0 0 0 3.422 1.83h5.474a4.116 4.116 0 0 0 4.112-4.111zm-16.476-11.31c-7.306 0-13.83 3.604-17.752 9.314.097-.03.194-.061.3-.061h34.956c.085 0 .16.029.24.049-3.923-5.703-10.444-9.302-17.744-9.302z"/><path id="zl94d" d="M1151.172 2006.084a6.176 6.176 0 0 1-5.975-6.166 6.178 6.178 0 0 1 5.975-6.166c2.773-10.337 12.032-17.481 22.813-17.481 10.784 0 20.042 7.144 22.816 17.48a6.177 6.177 0 0 1 5.973 6.167 6.177 6.177 0 0 1-5.974 6.166 23.813 23.813 0 0 1-4.62 8.887 1.027 1.027 0 1 1-1.583-1.31c2.147-2.598 3.673-5.673 4.413-8.893a1.026 1.026 0 0 1 1.12-.791c.279.037.376.054.475.054a4.118 4.118 0 0 0 4.113-4.113 4.117 4.117 0 0 0-4.113-4.112c-.1 0-.196.016-.292.029-.528.064-1.184-.248-1.303-.767a21.725 21.725 0 0 0-2.491-6.206v6.944a6.175 6.175 0 0 1-6.17 6.168h-5.473a6.16 6.16 0 0 1-5.133-2.747l-1.731-2.596-1.731 2.596a6.157 6.157 0 0 1-5.132 2.747h-5.474a6.175 6.175 0 0 1-6.17-6.168v-7.033a21.71 21.71 0 0 0-2.541 6.295 1.037 1.037 0 0 1-1.122.79c-.28-.036-.376-.052-.475-.052a4.117 4.117 0 0 0-4.113 4.112 4.118 4.118 0 0 0 4.113 4.113c.099 0 .196-.017.29-.03.536-.068 1.187.249 1.307.767.74 3.22 2.266 6.296 4.412 8.893a1.027 1.027 0 1 1-1.584 1.31 23.797 23.797 0 0 1-4.62-8.887zm39.29-10.278v-6.17h-32.9v6.17a4.117 4.117 0 0 0 4.112 4.112h5.474a4.107 4.107 0 0 0 3.421-1.831l2.587-3.88a1.029 1.029 0 0 1 1.711 0l2.586 3.88a4.107 4.107 0 0 0 3.422 1.83h5.474a4.116 4.116 0 0 0 4.112-4.111zm-16.476-17.48c-7.306 0-13.83 3.605-17.752 9.315.097-.03.194-.061.3-.061h34.956c.085 0 .16.029.24.049-3.923-5.703-10.444-9.302-17.744-9.302z"/><path id="zl94e" d="M1202.056 2031.98l-14.207-6.09 4.477-6.907a1.027 1.027 0 0 0-1.205-1.529l-17.136 6.048-17.135-6.048a1.027 1.027 0 1 0-1.205 1.529l4.477 6.907-14.206 6.09a16.431 16.431 0 0 0-9.972 15.12v27.871a1.028 1.028 0 1 0 2.057 0V2047.1a14.38 14.38 0 0 1 8.724-13.23l14.74-6.318 11.491 9.851v37.57a1.028 1.028 0 1 0 2.057 0v-37.57l11.494-9.85 14.74 6.317a14.377 14.377 0 0 1 8.723 13.23v27.872a1.028 1.028 0 1 0 2.057 0V2047.1c0-6.59-3.914-12.525-9.97-15.119zm-43.044-11.582l14.631 5.165c.221.078.464.078.685 0l14.631-5.165-3.419 5.274-11.555 9.904-11.555-9.904z"/><path id="zl94f" d="M1202.056 2031.98l-14.207-6.09 4.477-6.907a1.027 1.027 0 0 0-1.205-1.529l-17.136 6.048-17.135-6.048a1.027 1.027 0 1 0-1.205 1.529l4.477 6.907-14.206 6.09a16.431 16.431 0 0 0-9.972 15.12v27.871a1.028 1.028 0 1 0 2.057 0V2047.1a14.38 14.38 0 0 1 8.724-13.23l14.74-6.318 11.491 9.851v37.57a1.028 1.028 0 1 0 2.057 0v-37.57l11.494-9.85 14.74 6.317a14.377 14.377 0 0 1 8.723 13.23v27.872a1.028 1.028 0 1 0 2.057 0V2047.1c0-6.59-3.914-12.525-9.97-15.119zm-43.044-11.582l14.631 5.165c.221.078.464.078.685 0l14.631-5.165-3.419 5.274-11.555 9.904-11.555-9.904-3.418-5.274z"/><path id="zl94g" d="M1153.424 2052.353c-.568 0-1.028.459-1.028 1.028v21.591a1.028 1.028 0 1 0 2.056 0v-21.591c0-.569-.46-1.028-1.028-1.028z"/><path id="zl94h" d="M1194.55 2052.353c-.568 0-1.028.459-1.028 1.028v21.591a1.028 1.028 0 1 0 2.056 0v-21.591c0-.569-.46-1.028-1.028-1.028z"/><path id="zl94i" d="M1099.96 2015.34c0 11.357 9.207 20.563 20.564 20.563 11.355 0 20.562-9.206 20.562-20.563s-9.207-20.562-20.562-20.562c-11.357 0-20.564 9.205-20.564 20.562z"/><path id="zl94k" d="M1120.522 2020.48c-.568 0-1.028-.46-1.028-1.028v-3.084c0-.569.46-1.029 1.028-1.029a5.147 5.147 0 0 0 5.141-5.14 5.147 5.147 0 0 0-5.14-5.14 5.147 5.147 0 0 0-5.142 5.14 1.027 1.027 0 1 1-2.056 0c0-3.969 3.23-7.198 7.197-7.198 3.968 0 7.197 3.23 7.197 7.198 0 3.62-2.686 6.623-6.169 7.123v2.13c0 .568-.46 1.028-1.028 1.028z"/><path id="zl94l" d="M1122.065 2025.107a1.542 1.542 0 1 1-3.083.001 1.542 1.542 0 0 1 3.083 0z"/><path id="zl94m" d="M1163.297 1963.934a5.137 5.137 0 0 0-4.876 3.515l-4.997 14.991h-7.968a3.085 3.085 0 0 0 0 6.169h57.061a3.084 3.084 0 1 0 0-6.169h-7.968l-4.997-14.991a5.14 5.14 0 0 0-4.877-3.515z"/><path id="zl94o" d="M1202.517 1989.636h-57.062a4.117 4.117 0 0 1-4.113-4.112 4.118 4.118 0 0 1 4.113-4.113h7.227l4.763-14.288a6.161 6.161 0 0 1 5.853-4.218h21.377a6.158 6.158 0 0 1 5.85 4.218l4.765 14.288h7.227a4.117 4.117 0 0 1 4.112 4.113 4.116 4.116 0 0 1-4.112 4.112zm-57.062-6.168a2.058 2.058 0 0 0-2.056 2.056c0 1.133.922 2.056 2.056 2.056h57.062a2.06 2.06 0 0 0 2.056-2.056 2.059 2.059 0 0 0-2.056-2.056h-7.968c-.443 0-.836-.283-.975-.703l-4.997-14.991a4.11 4.11 0 0 0-3.902-2.813h-21.377a4.11 4.11 0 0 0-3.903 2.813l-4.997 14.99c-.14.42-.532.704-.975.704z"/><path id="zl94p" d="M1152.395 1982.44h43.182z"/><path id="zl94q" d="M1195.576 1983.468h-43.182a1.028 1.028 0 1 1 0-2.057h43.182a1.028 1.028 0 1 1 0 2.057z"/><path id="zl94r" d="M1116.41 1972.158h-2.056c-.57 0-1.028-.46-1.028-1.028 0-.569.459-1.029 1.028-1.029h2.056a1.028 1.028 0 1 1 0 2.057z"/><path id="zl94s" d="M1143.141 1972.158h-22.619a1.028 1.028 0 1 1 0-2.057h22.62a1.028 1.028 0 1 1 0 2.057z"/><path id="zl94t" d="M1134.916 1978.327h-2.056a1.027 1.027 0 1 1 0-2.056h2.056a1.028 1.028 0 1 1 0 2.056z"/><path id="zl94u" d="M1128.748 1978.327h-22.62a1.027 1.027 0 1 1 0-2.056h22.62a1.028 1.028 0 1 1 0 2.056z"/><path id="zl94v" d="M1185.99 1977.299c-.431 0-.831-.272-.975-.703l-2.056-6.17a1.027 1.027 0 1 1 1.95-.65l2.056 6.169a1.027 1.027 0 0 1-.975 1.354z"/><linearGradient id="zl94b" x1="1149.97" x2="1198.09" y1="2076.34" y2="2028.21" gradientUnits="userSpaceOnUse"><stop offset="0" stop-color="#0693e9"/><stop offset=".01" stop-color="#0693e9"/><stop offset="1" stop-color="#9cc037"/><stop offset="1" stop-color="#9cc037"/></linearGradient><linearGradient id="zl94j" x1="1105.98" x2="1135.06" y1="2029.88" y2="2000.8" gradientUnits="userSpaceOnUse"><stop offset="0" stop-color="#0693e9"/><stop offset=".01" stop-color="#0693e9"/><stop offset="1" stop-color="#9cc037"/><stop offset="1" stop-color="#9cc037"/></linearGradient><linearGradient id="zl94n" x1="1157.16" x2="1190.81" y1="2001.59" y2="1967.94" gradientUnits="userSpaceOnUse"><stop offset="0" stop-color="#0693e9"/><stop offset=".01" stop-color="#0693e9"/><stop offset="1" stop-color="#9cc037"/><stop offset="1" stop-color="#9cc037"/></linearGradient></defs><g><g transform="translate(-1100 -1963)"><use fill="url(#zl94b)" xlink:href="#zl94a"/></g><g transform="translate(-1100 -1963)"><use fill="#263238" xlink:href="#zl94c"/></g><g transform="translate(-1100 -1963)"><use fill="#fff" fill-opacity="0" stroke="#263238" stroke-miterlimit="50" xlink:href="#zl94d"/></g><g transform="translate(-1100 -1963)"><use fill="#263238" xlink:href="#zl94e"/></g><g transform="translate(-1100 -1963)"><use fill="#fff" fill-opacity="0" stroke="#263238" stroke-miterlimit="50" xlink:href="#zl94f"/></g><g transform="translate(-1100 -1963)"><use fill="#263238" xlink:href="#zl94g"/></g><g transform="translate(-1100 -1963)"><use fill="#fff" fill-opacity="0" stroke="#263238" stroke-miterlimit="50" xlink:href="#zl94g"/></g><g transform="translate(-1100 -1963)"><use fill="#263238" xlink:href="#zl94h"/></g><g transform="translate(-1100 -1963)"><use fill="#fff" fill-opacity="0" stroke="#263238" stroke-miterlimit="50" xlink:href="#zl94h"/></g><g transform="translate(-1100 -1963)"><use fill="url(#zl94j)" xlink:href="#zl94i"/></g><g transform="translate(-1100 -1963)"><use fill="#263238" xlink:href="#zl94k"/></g><g transform="translate(-1100 -1963)"><use fill="#263238" xlink:href="#zl94l"/></g><g transform="translate(-1100 -1963)"><use fill="url(#zl94n)" xlink:href="#zl94m"/></g><g transform="translate(-1100 -1963)"><use fill="#263238" xlink:href="#zl94o"/></g><g transform="translate(-1100 -1963)"><use fill="#40c4ff" xlink:href="#zl94p"/></g><g transform="translate(-1100 -1963)"><use fill="#263238" xlink:href="#zl94q"/></g><g transform="translate(-1100 -1963)"><use fill="#263238" xlink:href="#zl94r"/></g><g transform="translate(-1100 -1963)"><use fill="#263238" xlink:href="#zl94s"/></g><g transform="translate(-1100 -1963)"><use fill="#263238" xlink:href="#zl94t"/></g><g transform="translate(-1100 -1963)"><use fill="#263238" xlink:href="#zl94u"/></g><g transform="translate(-1100 -1963)"><use fill="#263238" xlink:href="#zl94v"/></g></g></svg>