<svg xmlns="http://www.w3.org/2000/svg" xmlns:xlink="http://www.w3.org/1999/xlink" width="52" height="52"><defs><path id="a" d="M16 8.381C16 12.589 12.418 16 8 16s-8-3.411-8-7.619v-7.02C0 .609.627 0 1.4 0h13.2c.773 0 1.4.61 1.4 1.36z"/></defs><g fill="none" fill-rule="evenodd"><g transform="translate(18.089 15.911)"><mask id="b" fill="#fff"><use xlink:href="#a" width="100%" height="100%"/></mask><path d="M15.625 8.381v-7.02c0-.542-.457-.986-1.025-.986H1.4C.832.375.375.819.375 1.361v7.02c0 3.997 3.41 7.244 7.625 7.244s7.625-3.247 7.625-7.244z" stroke="#3a6ad1" stroke-width=".75"/><g mask="url(#b)" stroke="#3a6ad1" stroke-width=".625" stroke-linecap="square"><path d="M10.12-35.11L-31.112 6.122m58.911-23.555l-41.234 41.234m24.44-58.028L-30.23 7.007m58.912-23.556L-12.55 24.685m24.439-58.028L-29.345 7.891m58.911-23.556l-41.234 41.234m24.441-58.028L-28.461 8.775M30.45-14.781l-41.234 41.234m24.44-58.028L-27.577 9.659m58.911-23.556L-9.9 27.337m24.44-58.028l-41.234 41.234m58.912-23.556L-9.016 28.22m24.44-58.027L-25.81 11.427M33.102-12.13L-8.132 29.104m24.44-58.027L-24.926 12.31m58.912-23.556L-7.248 29.988m24.44-58.028l-41.234 41.234M34.87-10.362L-6.364 30.872m24.44-58.028l-41.234 41.234M35.753-9.478L-5.48 31.756m24.44-58.028l-41.234 41.234M36.637-8.594L-4.597 32.64m24.441-58.028L-21.39 15.846M37.521-7.71L-3.713 33.524m24.44-58.028L-20.506 16.73M38.405-6.826L-2.829 34.408m24.44-58.028l-41.234 41.234M39.289-5.942L-1.945 35.29m24.44-58.026l-41.234 41.234M40.173-5.059L-1.061 36.175M23.38-21.852l-41.235 41.234M41.057-4.175L-.177 37.06m24.44-58.028l-41.234 41.233M41.94-3.29L.708 37.942m24.439-58.027L-16.087 21.15M42.825-2.407L1.59 38.827M26.03-19.2l-41.233 41.233M43.708-1.523L2.475 39.711m24.44-58.028L-14.32 22.917M44.592-.64L3.358 40.596"/></g></g><path d="M36.768 24.711v-10.32c0-.69-.56-1.25-1.25-1.25H16.659c-.69 0-1.25.56-1.25 1.25v10.32c0 5.768 4.778 10.45 10.679 10.45 5.901 0 10.679-4.682 10.679-10.45z" stroke="#3a5ba2" stroke-width="1.5"/><path d="M14.66 16.871h-3.428c-1.894 0-3.429-1.504-3.429-3.36v-5.6m6.857 19.04h-3.428c-1.894 0-3.429 1.504-3.429 3.36v5.6m7.429-14H2.609M37.518 16.871h3.428c1.894 0 3.429-1.504 3.429-3.36v-5.6m-6.857 19.04h3.428c1.894 0 3.429 1.504 3.429 3.36v5.6m-7.429-14h12.623M26.089 34.911v-21" stroke="#3a5ba2" stroke-width="1.5" stroke-linecap="round"/><path d="M32.294 9.161a6.251 6.251 0 0 0-12.41 0z" stroke="#3a5ba2" stroke-width="1.5"/><path d="M22.089 39.911v10m4-10v6.52m4-6.52v10" stroke="#3a5ba2" stroke-width=".75" stroke-linecap="round"/></g></svg>