<svg xmlns="http://www.w3.org/2000/svg" xmlns:xlink="http://www.w3.org/1999/xlink" width="124.67" height="124.67" viewBox="0 0 187 187"><defs><path id="adi8a" d="M409.884 1616.513h-94.218c-25.487 0-46.147-20.661-46.147-46.147v-94.22c0-25.485 20.66-46.146 46.147-46.146h94.218c25.486 0 46.147 20.66 46.147 46.147v94.219c0 25.486-20.66 46.147-46.147 46.147z"/><path id="adi8b" d="M349.495 1481.371c-4.431-.44-11.008.291-17.805 5.986-3.97 3.328-6.446 6.835-7.392 10.462-1.231.69-3.893 2.407-6.354 5.443-3.009 3.713-6.286 10.187-4.816 19.954.005.034.016.065.023.099-1.83 3.607-3.102 9.111-.291 16.255 2.637 6.701 7.329 9.731 10.8 11.091 2.854 1.116 5.344 1.318 6.436 1.347.07.119.142.237.216.356 2.678 4.18 7.821 6.878 15.294 8.032-.503 2.951-.824 6.17-.578 8.962a1.428 1.428 0 0 0 1.421 1.302l3.772-.456c.577 0 1.101-.35 1.319-.886.064-.151 6.655-14.477 16.686-23.911 1.516.504 4.8 1.345 8.698.851 4.705-.598 11.308-4.261 15.844-13.681.94.248 1.971.402 3.09.402 2.323 0 5.023-.652 8.055-2.45 5.518-3.273 7.083-6.474 7.532-9.377a13.72 13.72 0 0 0 .097-3.345c.543-1.017 1.951-3.952 2.535-8.001.663-4.586.354-11.527-4.879-18.562-6.21-8.351-13.126-10.945-17.831-11.649-5.157-.771-8.831.481-8.984.533a1.396 1.396 0 0 0-.7.539 24.704 24.704 0 0 0-6.501-3.449 24.413 24.413 0 0 0-8.122-1.364c-4.844 0-10.773 1.358-17.565 5.517z"/><path id="adi8d" d="M350.257 1571.796h-4.377a.921.921 0 0 1-.918-.84c-.665-7.542 2.74-18.192 2.886-18.64a.922.922 0 0 1 1.753.566c-.033.102-3.18 9.944-2.86 17.072h2.906c1.312-3.03 7.7-16.989 17.832-26.138a.918.918 0 0 1 .986-.16c.625.27 15.448 6.434 23.55-11.788a.92.92 0 1 1 1.683.748c-4.61 10.37-11.422 13.29-16.326 13.912-4.236.538-7.743-.489-9.074-.964-10.623 9.843-17.124 25.501-17.19 25.661a.921.921 0 0 1-.851.571z"/><path id="adi8e" d="M396.918 1533.745c-5.625 0-8.998-3.837-9.468-4.408-2.198-2.107-3.049-4.978-2.278-7.693.57-2.005 1.977-3.517 3.584-3.849.808-.166 2.381-.177 3.862 1.635a.922.922 0 0 1-1.427 1.166c-.454-.556-1.178-1.183-2.061-.997-.929.191-1.808 1.216-2.186 2.55-.586 2.06.094 4.262 1.817 5.892a.897.897 0 0 1 .101.113c.226.294 5.673 7.19 15.176 1.552 3.942-2.338 6.226-5.364 6.79-8.996.637-4.106-1.121-8.237-3.145-10.51-1.796-2.017-4.317-2.365-6.019-1.815-.832.268-2.256 1.004-2.453 2.91-.111 1.086.084 1.908.581 2.444.776.836 2.103.81 2.12.81a.917.917 0 0 1 .949.888.92.92 0 0 1-.881.952c-.087.004-2.162.068-3.523-1.38-.885-.944-1.247-2.256-1.078-3.904.218-2.119 1.608-3.792 3.719-4.473 2.729-.88 5.927.06 7.961 2.342 2.311 2.597 4.318 7.32 3.588 12.02-.642 4.14-3.294 7.701-7.669 10.296-3.039 1.802-5.741 2.454-8.06 2.455z"/><path id="adi8f" d="M411.805 1518.174a.921.921 0 0 1-.789-1.395c.31-.518 7.332-12.604-2.07-25.247-11.337-15.242-24.926-10.726-25.06-10.68a.92.92 0 1 1-.607-1.738c.153-.054 3.834-1.307 9.04-.527 4.771.714 11.785 3.349 18.104 11.846 10.16 13.66 2.253 27.16 2.172 27.295a.921.921 0 0 1-.79.446z"/><path id="adi8g" d="M379.509 1499.798c-2.4 0-4.194-.774-5.335-2.302-2.388-3.2-.84-8.498-.772-8.722a.92.92 0 1 1 1.764.529c-.013.045-1.35 4.64.487 7.094.784 1.049 2.046 1.559 3.855 1.559h.027c3.05-.01 5.442-1.577 6.562-4.303 1.349-3.282.407-7.326-2.344-10.062a1.072 1.072 0 0 1-.056-.06c-.03-.036-3.206-3.735-8.94-5.725-7.68-2.666-16.088-1.173-24.994 4.434a.921.921 0 1 1-.982-1.558c11.76-7.405 20.996-6.58 26.673-4.584 5.95 2.092 9.263 5.795 9.625 6.215 3.303 3.303 4.37 8.026 2.722 12.04-1.397 3.399-4.485 5.434-8.261 5.445z"/><path id="adi8h" d="M332.07 1511.568c-2.867 0-5.148-1.803-6.16-3.087-.32-.366-3.2-3.811-2.84-8.98.313-4.507 2.965-8.881 7.88-13 7.066-5.921 13.888-6.55 18.367-6.038 4.625.53 7.713 2.326 8.119 2.573 7.292 3.662 9.204 10.392 7.323 15.155-1.557 3.939-5.29 5.786-9.29 4.597-1.632-.486-2.794-1.418-3.452-2.77-1.343-2.763.01-6.255.07-6.403a.92.92 0 1 1 1.712.678c-.011.027-1.113 2.897-.122 4.926.428.877 1.187 1.468 2.319 1.804 3.74 1.113 6.136-1.195 7.049-3.508 1.528-3.868.156-9.54-6.47-12.85a.862.862 0 0 1-.077-.044c-.478-.297-11.868-7.18-24.364 3.29-4.505 3.777-6.936 7.708-7.225 11.685-.331 4.568 2.367 7.649 2.394 7.68a.874.874 0 0 1 .04.048c.123.155 3.074 3.81 7.157 1.808 1.926-.945 2.396-2.32 2.45-3.306.076-1.361-.603-2.531-1.313-2.984-.411-.262-.802-.287-1.193-.077a.922.922 0 0 1-.87-1.624c.974-.522 2.086-.468 3.053.148 1.398.89 2.267 2.755 2.162 4.639-.067 1.21-.608 3.449-3.478 4.857-1.133.556-2.223.783-3.24.783z"/><path id="adi8i" d="M312.827 1523.915a.922.922 0 0 1-.91-.784c-1.491-9.914 1.826-16.475 4.87-20.232 3.308-4.08 6.946-5.788 7.1-5.859a.92.92 0 0 1 .773 1.673c-.035.015-3.458 1.636-6.494 5.411-4.05 5.037-5.54 11.34-4.427 18.732a.922.922 0 0 1-.912 1.059z"/><path id="adi8j" d="M329.346 1552.481c-1.554 0-12.975-.424-17.738-12.531-5.987-15.218 6.14-23.233 6.263-23.312a.78.78 0 0 1 .062-.037c2.245-1.204 4.79-1.456 6.982-.693 2.028.706 3.635 2.227 4.525 4.283 1.027 2.374.4 5.383-1.595 7.666-1.608 1.84-3.652 2.636-5.467 2.124a.92.92 0 1 1 .499-1.773c1.097.308 2.469-.291 3.58-1.563 1.255-1.435 2.14-3.76 1.293-5.722-.693-1.601-1.883-2.734-3.441-3.275-1.695-.591-3.688-.387-5.47.558-.746.493-10.855 7.5-5.516 21.07 4.599 11.689 15.65 11.383 16.12 11.363a.92.92 0 1 1 .079 1.84 4.035 4.035 0 0 1-.176.002z"/><path id="adi8k" d="M346.742 1561.394a.868.868 0 0 1-.113-.007c-8.415-1.03-14.132-3.817-16.994-8.283-3.151-4.918-1.585-9.985-1.518-10.198.868-2.802 3.487-4.687 6.517-4.687h.009c2.637.004 5.933 1.569 7.279 5.954.589 1.921-.955 4.256-2.767 5.232-1.706.92-3.442.604-4.641-.845a.922.922 0 0 1 1.42-1.174c.63.762 1.42.897 2.347.398 1.199-.646 2.148-2.196 1.879-3.071-.892-2.909-2.956-4.649-5.52-4.652h-.006c-2.218 0-4.13 1.365-4.76 3.397-.015.05-1.364 4.5 1.328 8.677 2.558 3.968 7.824 6.466 15.65 7.424a.92.92 0 0 1-.11 1.835z"/><path id="adi8l" d="M338.623 1540.082c-2.057 0-3.445-.208-3.552-.225a.92.92 0 0 1 .282-1.82c.046.006 4.682.695 9.556-.541 6.365-1.616 10.143-5.627 11.23-11.924.603-3.496-.355-6.42-2.628-8.023-2.035-1.434-4.739-1.576-6.889-.363-1.44.813-3.806 2.937-3.446 8.031a.92.92 0 1 1-1.837.129c-.315-4.458 1.281-8.017 4.378-9.764 2.766-1.562 6.242-1.38 8.855.462 2.878 2.029 4.111 5.616 3.382 9.841-1.208 6.998-5.58 11.635-12.647 13.41-2.47.62-4.844.787-6.684.787z"/><path id="adi8m" d="M378.203 1532.668c-1.437 0-2.901-.795-3.804-2.19-1.132-1.75-1.396-4.673 1.584-7.157 4.235-3.531 8.949-.396 10.849 1.755a.92.92 0 0 1-1.38 1.22c-.176-.199-4.371-4.826-8.29-1.56-2.582 2.152-1.584 4.172-1.217 4.74.636.982 1.929 1.724 3.077 1.165a.92.92 0 1 1 .807 1.655 3.681 3.681 0 0 1-1.626.372z"/><linearGradient id="adi8c" x1="311.22" x2="414.33" y1="1523.26" y2="1523.26" gradientUnits="userSpaceOnUse"><stop offset="0" stop-color="#0694ea"/><stop offset=".01" stop-color="#0694ea"/><stop offset="1" stop-color="#9dc137"/><stop offset="1" stop-color="#9dc137"/></linearGradient></defs><g><g transform="translate(-269 -1430)"><use fill="#fff" xlink:href="#adi8a"/></g><g transform="translate(-269 -1430)"><use fill="url(#adi8c)" xlink:href="#adi8b"/></g><g transform="translate(-269 -1430)"><use fill="#fff" xlink:href="#adi8d"/></g><g transform="translate(-269 -1430)"><use fill="#fff" xlink:href="#adi8e"/></g><g transform="translate(-269 -1430)"><use fill="#fff" xlink:href="#adi8f"/></g><g transform="translate(-269 -1430)"><use fill="#fff" xlink:href="#adi8g"/></g><g transform="translate(-269 -1430)"><use fill="#fff" xlink:href="#adi8h"/></g><g transform="translate(-269 -1430)"><use fill="#fff" xlink:href="#adi8i"/></g><g transform="translate(-269 -1430)"><use fill="#fff" xlink:href="#adi8j"/></g><g transform="translate(-269 -1430)"><use fill="#fff" xlink:href="#adi8k"/></g><g transform="translate(-269 -1430)"><use fill="#fff" xlink:href="#adi8l"/></g><g transform="translate(-269 -1430)"><use fill="#fff" xlink:href="#adi8m"/></g></g></svg>