<svg xmlns="http://www.w3.org/2000/svg" xmlns:xlink="http://www.w3.org/1999/xlink" width="68.67" height="38" viewBox="0 0 103 57"><defs><path id="o42wa" d="M687.285 4253.62a8.183 8.183 0 0 1 0 16.366 8.183 8.183 0 1 1 0-16.366zm30.615-.096a8.279 8.279 0 0 1 0 16.558 8.279 8.279 0 1 1 0-16.558zm14.335-4.286a4.277 4.277 0 0 1 4.275 4.286 4.274 4.274 0 0 1-8.548 0 4.275 4.275 0 0 1 4.273-4.286zm-63.482.045l2.883-3.107 2.882 3.107v2.861a2.214 2.214 0 0 1-2.221 2.209h-1.335a2.205 2.205 0 0 1-2.209-2.209zm-5.868-4.341c0-1.223.988-2.221 2.21-2.221h2.861l3.107 2.883-3.107 2.884h-2.861a2.208 2.208 0 0 1-2.21-2.21zm9.311.662l3.108-2.883h2.86c1.223 0 2.221.998 2.221 2.221v1.336c0 1.222-.998 2.21-2.221 2.21h-2.86zm52.051-4.791a4.274 4.274 0 0 1 4.275 4.275 4.275 4.275 0 0 1-4.275 4.285 4.275 4.275 0 0 1-4.273-4.285 4.274 4.274 0 0 1 4.273-4.275zm15.976 0a4.274 4.274 0 0 1 4.274 4.275 4.275 4.275 0 1 1-8.549 0 4.274 4.274 0 0 1 4.275-4.275zm-50.873 2.347v-3.56h8.73v3.56zm14.055-3.558l10.501 1.638-10.501 1.918zm-34.652 2.333v-2.861c0-1.222.987-2.22 2.209-2.22h1.335c1.224 0 2.221.998 2.221 2.22v2.861l-2.882 3.107zm63.482-9.109a4.274 4.274 0 0 1 4.275 4.274 4.274 4.274 0 0 1-8.548 0 4.272 4.272 0 0 1 4.273-4.274zm-9.299-6.371v5.879h-41.271v-5.879h-17.747v5.879a11.517 11.517 0 0 0-7.179 7.851l-5.285 25.622c-2.255 6.519 1.211 13.631 7.73 15.886 6.517 2.265 13.641-1.201 15.896-7.729l2.221-6.429a11.368 11.368 0 0 0 9.838 5.654c5.239 0 9.647-3.545 10.983-8.369.032-.112.055-.235.089-.359h8.918c.146.64.348 1.257.606 1.851 1.75 4.039 5.778 6.877 10.467 6.877 3.331 0 6.338-1.437 8.413-3.724l1.56 4.499c2.255 6.528 9.367 9.994 15.895 7.729 6.529-2.255 9.985-9.367 7.73-15.886l-5.285-25.622a11.561 11.561 0 0 0-5.833-7.268v-6.462z"/><linearGradient id="o42wb" x1="667.34" x2="736.59" y1="4291.63" y2="4222.37" gradientUnits="userSpaceOnUse"><stop offset="0" stop-color="#0693e9"/><stop offset=".01" stop-color="#0693e9"/><stop offset="1" stop-color="#9cc037"/><stop offset="1" stop-color="#9cc037"/></linearGradient></defs><g><g transform="translate(-650 -4226)"><use fill="url(#o42wb)" xlink:href="#o42wa"/></g></g></svg>