<svg xmlns="http://www.w3.org/2000/svg" xmlns:xlink="http://www.w3.org/1999/xlink" width="25.33" height="25.33" viewBox="0 0 38 38"><defs><path id="h07da" d="M774.725 2707.03a3.315 3.315 0 0 1 3.316 3.316v31.338a3.315 3.315 0 0 1-3.316 3.316h-31.338a3.315 3.315 0 0 1-3.316-3.316v-31.338a3.315 3.315 0 0 1 3.316-3.316zm.785 22.769h-11.884a.786.786 0 0 0-.785.785v11.885h11.884a.786.786 0 0 0 .785-.785zm0-2.531v-7.641h-22.058a.785.785 0 0 0-.784.785v22.057h7.641v-11.885a3.317 3.317 0 0 1 3.317-3.316zm0-10.172v-6.75a.786.786 0 0 0-.785-.785h-31.338a.786.786 0 0 0-.785.785v31.338c0 .433.353.785.785.785h6.75v-22.057a3.315 3.315 0 0 1 3.315-3.316z"/><path id="h07db" d="M744.072 2712.504c0 .871.708 1.581 1.581 1.581a1.582 1.582 0 0 0 0-3.164c-.873 0-1.581.707-1.581 1.583z"/><path id="h07dd" d="M754.039 2722.423c0 .874.708 1.581 1.583 1.581a1.583 1.583 0 0 0 0-3.164c-.875 0-1.583.71-1.583 1.583z"/><path id="h07df" d="M764.09 2732.63a1.581 1.581 0 1 0 3.164 0 1.583 1.583 0 0 0-3.164 0z"/><linearGradient id="h07dc" x1="744.54" x2="746.77" y1="2713.62" y2="2711.38" gradientUnits="userSpaceOnUse"><stop offset="0" stop-color="#0693e9"/><stop offset=".01" stop-color="#0693e9"/><stop offset="1" stop-color="#9cc037"/><stop offset="1" stop-color="#9cc037"/></linearGradient><linearGradient id="h07de" x1="754.5" x2="756.74" y1="2723.54" y2="2721.3" gradientUnits="userSpaceOnUse"><stop offset="0" stop-color="#0693e9"/><stop offset=".01" stop-color="#0693e9"/><stop offset="1" stop-color="#9cc037"/><stop offset="1" stop-color="#9cc037"/></linearGradient><linearGradient id="h07dg" x1="764.55" x2="766.79" y1="2733.75" y2="2731.51" gradientUnits="userSpaceOnUse"><stop offset="0" stop-color="#0693e9"/><stop offset=".01" stop-color="#0693e9"/><stop offset="1" stop-color="#9cc037"/><stop offset="1" stop-color="#9cc037"/></linearGradient></defs><g><g transform="translate(-740 -2707)"><use xlink:href="#h07da"/></g><g transform="translate(-740 -2707)"><use fill="url(#h07dc)" xlink:href="#h07db"/></g><g transform="translate(-740 -2707)"><use fill="url(#h07de)" xlink:href="#h07dd"/></g><g transform="translate(-740 -2707)"><use fill="url(#h07dg)" xlink:href="#h07df"/></g></g></svg>