<svg xmlns="http://www.w3.org/2000/svg" xmlns:xlink="http://www.w3.org/1999/xlink" width="33.33" height="52" viewBox="0 0 50 78"><defs><path id="6gtba" d="M854.973 850.722c-4.144-2.555-6.161-8.225-2.53-13.807a4.797 4.797 0 0 1 1.373-1.379c7.406-4.879 15.232.311 15.232 7.33 0 3.334-1.775 6.227-4.415 7.856v9.091h-9.66zm-2.853-43.975h15.361v5.928a23.484 23.484 0 0 0-7.679-1.285c-2.683 0-5.265.451-7.682 1.285zm-.639-2.852a2.214 2.214 0 0 0-2.213 2.213v7.763c-8.303 4.139-14.044 13.016-14.044 23.301 0 .231.003.46.008.689.349 13.922 11.434 44.187 24.788 44.187 13.21 0 23.767-30.024 24.334-43.736.016-.377.024-.758.024-1.14 0-10.285-5.742-19.162-14.043-23.301v-7.763a2.214 2.214 0 0 0-2.215-2.213z"/><linearGradient id="6gtbb" x1="836.96" x2="882.8" y1="863.51" y2="817.66" gradientUnits="userSpaceOnUse"><stop offset="0" stop-color="#0693e9"/><stop offset=".01" stop-color="#0693e9"/><stop offset="1" stop-color="#9cc037"/><stop offset="1" stop-color="#9cc037"/></linearGradient></defs><g><g transform="translate(-835 -804)"><use fill="url(#6gtbb)" xlink:href="#6gtba"/></g></g></svg>