<svg xmlns="http://www.w3.org/2000/svg" xmlns:xlink="http://www.w3.org/1999/xlink" viewBox="0 0 327.78 199.44"><defs><style>.cls-1{isolation:isolate;}.cls-2{opacity:0.4;fill:url(#linear-gradient);}.cls-3{fill:#fff;}.cls-4{fill:none;stroke:#132236;stroke-linecap:round;stroke-linejoin:round;stroke-width:0.53px;}.cls-5{fill:#82b7fc;}.cls-6{fill:#72c9d8;}.cls-7{fill:url(#linear-gradient-2);}.cls-8{fill:url(#linear-gradient-3);}.cls-9{fill:#f3d5cd;}.cls-10{mix-blend-mode:multiply;fill:url(#linear-gradient-4);}.cls-11{fill:#49301e;}.cls-12{fill:url(#linear-gradient-5);}.cls-13{fill:url(#linear-gradient-6);}.cls-14{fill:url(#linear-gradient-7);}.cls-15{fill:url(#linear-gradient-8);}.cls-16{fill:url(#linear-gradient-9);}.cls-17{fill:url(#linear-gradient-10);}.cls-18{fill:url(#linear-gradient-11);}.cls-19{fill:url(#linear-gradient-12);}.cls-20{fill:url(#linear-gradient-13);}.cls-21{fill:#f3d4cd;}.cls-22{fill:#c44e14;}.cls-23{fill:url(#linear-gradient-14);}.cls-24{fill:url(#linear-gradient-15);}.cls-25{fill:url(#linear-gradient-16);}.cls-26{fill:url(#linear-gradient-17);}.cls-27{fill:url(#linear-gradient-18);}.cls-28{fill:url(#linear-gradient-19);}.cls-29{fill:#de5b15;}.cls-30{fill:url(#linear-gradient-20);}.cls-31{fill:#dd7e47;}.cls-32{fill:#6c8c3d;}.cls-33{fill:#84ac4e;}.cls-34{fill:#3b5b2e;}.cls-35{fill:#517b43;}.cls-36{fill:#899c34;}.cls-37{fill:#a9c247;}.cls-38{fill:#4f8bd7;}.cls-39{fill:#5ca1a5;}</style><linearGradient id="linear-gradient" x1="118.52" y1="1825.93" x2="421.04" y2="1825.93" gradientUnits="userSpaceOnUse"><stop offset="0.01" stop-color="#5392e6"/><stop offset="1" stop-color="#a6bf46"/></linearGradient><linearGradient id="linear-gradient-2" x1="336.3" y1="1792.74" x2="352.81" y2="1798.15" gradientUnits="userSpaceOnUse"><stop offset="0" stop-color="#393d45"/><stop offset="0.24" stop-color="#2d3340"/><stop offset="0.61" stop-color="#22293c"/><stop offset="1" stop-color="#1e263a"/></linearGradient><linearGradient id="linear-gradient-3" x1="346.26" y1="1794.99" x2="371.2" y2="1794.99" xlink:href="#linear-gradient-2"/><linearGradient id="linear-gradient-4" x1="337.58" y1="1744.8" x2="330.7" y2="1734.75" gradientUnits="userSpaceOnUse"><stop offset="0" stop-color="#fff" stop-opacity="0"/><stop offset="0.24" stop-color="#f5f2f4" stop-opacity="0.22"/><stop offset="0.79" stop-color="#dcd3d7" stop-opacity="0.78"/><stop offset="0.99" stop-color="#d2c7cc"/></linearGradient><linearGradient id="linear-gradient-5" x1="326.81" y1="1753.73" x2="351.98" y2="1753.73" gradientUnits="userSpaceOnUse"><stop offset="0" stop-color="#fff"/><stop offset="0.12" stop-color="#f4f7fc"/><stop offset="0.4" stop-color="#e1eaf6"/><stop offset="0.69" stop-color="#d6e2f2"/><stop offset="1" stop-color="#d2dff1"/></linearGradient><linearGradient id="linear-gradient-6" x1="297.34" y1="1766.87" x2="297.34" y2="1773.49" xlink:href="#linear-gradient-5"/><linearGradient id="linear-gradient-7" x1="925.78" y1="1534.8" x2="955.06" y2="1534.8" gradientTransform="translate(45.92 -19.43) rotate(22.97)" gradientUnits="userSpaceOnUse"><stop offset="0" stop-color="#a1d3fc"/><stop offset="0.05" stop-color="#9acdf9"/><stop offset="0.28" stop-color="#7fb9f0"/><stop offset="0.51" stop-color="#6caae9"/><stop offset="0.75" stop-color="#61a1e4"/><stop offset="1" stop-color="#5d9ee3"/></linearGradient><linearGradient id="linear-gradient-8" x1="336.28" y1="1753.33" x2="363.48" y2="1753.33" gradientTransform="matrix(1, 0, 0, 1, 0, 0)" xlink:href="#linear-gradient-7"/><linearGradient id="linear-gradient-9" x1="324.92" y1="1758.59" x2="345.18" y2="1758.59" gradientTransform="matrix(1, 0, 0, 1, 0, 0)" xlink:href="#linear-gradient-7"/><linearGradient id="linear-gradient-10" x1="358.17" y1="1828.51" x2="371.54" y2="1828.51" xlink:href="#linear-gradient-2"/><linearGradient id="linear-gradient-11" x1="617.21" y1="1746.96" x2="631.62" y2="1746.96" gradientTransform="matrix(0.98, 0.17, -0.17, 0.98, 28.81, 1.58)" xlink:href="#linear-gradient-2"/><linearGradient id="linear-gradient-12" x1="367.44" y1="1765.36" x2="373.54" y2="1765.36" xlink:href="#linear-gradient-5"/><linearGradient id="linear-gradient-13" x1="339.39" y1="1751.27" x2="372.82" y2="1751.27" gradientTransform="matrix(1, 0, 0, 1, 0, 0)" xlink:href="#linear-gradient-7"/><linearGradient id="linear-gradient-14" x1="240.11" y1="1759.41" x2="254.79" y2="1759.41" xlink:href="#linear-gradient-2"/><linearGradient id="linear-gradient-15" x1="272.66" y1="1842.85" x2="272.66" y2="1850.86" xlink:href="#linear-gradient-2"/><linearGradient id="linear-gradient-16" x1="259.25" y1="1820.17" x2="237.97" y2="1826.84" xlink:href="#linear-gradient-2"/><linearGradient id="linear-gradient-17" x1="219.34" y1="1859.65" x2="219.34" y2="1871.37" xlink:href="#linear-gradient-2"/><linearGradient id="linear-gradient-18" x1="242.86" y1="1804.79" x2="220.63" y2="1837.18" xlink:href="#linear-gradient-2"/><linearGradient id="linear-gradient-19" x1="246.13" y1="1766.22" x2="244.45" y2="1769.7" xlink:href="#linear-gradient-5"/><linearGradient id="linear-gradient-20" x1="284.41" y1="1767.93" x2="281.87" y2="1773.21" xlink:href="#linear-gradient-5"/></defs><title>Untitled-1</title><g class="cls-1"><g id="Layer_1" data-name="Layer 1"><path class="cls-2" d="M238.59,1766.1s-21.36,24.76-68.1,32.22c-71.18,11.37-69.73,99.68,7.39,117.66s56.6-11.24,165.72-3.74,82.62-74,42.94-99.09c-41-26-2.53-72.35-63.45-82.28C275.23,1723.07,238.59,1766.1,238.59,1766.1Z" transform="translate(-108.34 -1722.5)"/><path class="cls-3" d="M144.18,1872.26c-2.39,0-12.21-2.1-13-11.79-.41-5,.93-8.27,2.23-11.49,1.55-3.84,3-7.47,1.79-13.74a71.32,71.32,0,0,0-1.83-7c-2-6.61-3.11-10.25,5.44-17.27.06,0,4.82-3.64,4.89-8.34.07-5,6.83-10.55,12.91-10.55a9,9,0,0,1,4.29,1,8.32,8.32,0,0,1,4.48,4.91c1,3.32-.27,7.7-4.34,15.1s-1.94,9.93-.07,12.17a8.29,8.29,0,0,1,1.47,2.18c.15.37.32.75.49,1.13,1.24,2.79,2.79,6.25-2.27,13.16-2.87,3.92-2.31,8.25-1.77,12.43.51,3.92,1,8-1.32,11.61a19.88,19.88,0,0,1-13.31,6.43Z" transform="translate(-108.34 -1722.5)"/><path class="cls-3" d="M156.6,1792.34a8.76,8.76,0,0,1,4.17,1c6.89,3.67,5.51,9.74,0,19.67s.17,11.45,1.39,14.56,3.91,6.33-1.75,14.05,1.69,16.68-3.1,24c0,0-4.24,5.48-13.13,6.33h0c-.85,0-11.9-1.16-12.76-11.56-.87-10.62,6.32-13.49,4-25.26s-7.45-15,3.53-24c0,0,4.91-3.64,5-8.53.07-4.73,6.54-10.3,12.66-10.3m0-.5c-6.2,0-13.08,5.65-13.16,10.8-.07,4.57-4.73,8.1-4.78,8.13-8.7,7.14-7.58,10.84-5.54,17.55a68.74,68.74,0,0,1,1.82,7c1.22,6.21-.23,9.8-1.77,13.61-1.31,3.24-2.66,6.59-2.25,11.6.82,9.88,10.83,12,13.26,12h.09c9-.85,13.29-6.28,13.47-6.52,2.43-3.73,1.9-7.84,1.39-11.8-.56-4.33-1.09-8.41,1.72-12.25,5.15-7,3.57-10.57,2.29-13.41-.17-.38-.33-.75-.48-1.12a8.31,8.31,0,0,0-1.51-2.25c-1.82-2.18-3.89-4.65.1-11.89,4.11-7.47,5.37-11.9,4.36-15.29a8.54,8.54,0,0,0-4.6-5.06,9.25,9.25,0,0,0-4.41-1.07Z" transform="translate(-108.34 -1722.5)"/><path class="cls-3" d="M174,1874.55c-.94,0-4.73-7.59-5.63-16.46a3.87,3.87,0,0,1,.66-2.6,1.79,1.79,0,0,1,1.38-.57,4.31,4.31,0,0,1,1.74.45c-.46-2.31-2-11.64,1.51-16a6.16,6.16,0,0,1,5.06-2.29,9.11,9.11,0,0,1,1.26.09c2.24.28,3.4.8,4.57,2.09,1.44,1.59,2.73,4.43.63,9-1.09,2.35-2.13,4.27-3.05,6-2.21,4.07-3.54,6.53-2.42,9.5,1.69,4.5,1,5.82-5.52,10.87l-.07,0Z" transform="translate(-108.34 -1722.5)"/><path class="cls-3" d="M178.75,1837.28a10.71,10.71,0,0,1,1.23.08,6.21,6.21,0,0,1,4.41,2c1.61,1.76,2.49,4.59.6,8.68-3.79,8.16-7.11,11.32-5.49,15.65s1.08,5.55-5.43,10.58h0c-.6,0-4.46-7.17-5.38-16.24,0,0-.29-2.89,1.79-2.89a4.49,4.49,0,0,1,2.09.66s-4.17-18.55,6.22-18.55m0-.5a6.38,6.38,0,0,0-5.25,2.39c-3.39,4.24-2.19,12.87-1.66,15.79a3.85,3.85,0,0,0-1.4-.29,2,2,0,0,0-1.57.66,4.18,4.18,0,0,0-.72,2.78c.85,8.32,4.56,16.69,5.88,16.69h.17l.17-.11c6.6-5.1,7.33-6.56,5.6-11.16-1.08-2.87.16-5.15,2.41-9.29.92-1.69,2-3.61,3.06-6,2.27-4.9.55-7.88-.68-9.23a6.75,6.75,0,0,0-4.72-2.17,9.54,9.54,0,0,0-1.29-.09Z" transform="translate(-108.34 -1722.5)"/><path class="cls-3" d="M326.48,1899.25v-67.79h9.3a19,19,0,0,0,2.55-2.06,30.22,30.22,0,0,0,2.31-2.52l.08-.09v0c0-.11-2.86-11.33-4.35-16.13-2-6.37-2.64-10.47-2-12.53.43-1.38,1.46-7.89,2.37-13.64.67-4.26,1.31-8.28,1.6-9.55l.1-.75c0-.25,0-.48,0-.7a2.86,2.86,0,0,1,.27-1.54c.14-1.5.24-3,.28-4.27.09-3-.87-3.75-2.45-5a19.74,19.74,0,0,1-2.06-1.75l-2-2c-.91-.88-1.8-1.75-2.63-2.6-3.83,3.23-12.74,10.53-17,12.3-5.3,2.2-16.3,4.67-16.41,4.7l-.22.05-.11-.31c-1.18.39-2.28.64-2.29.64l-.23,0-.07-.22s-.1-.32-.21-.88h0a2.56,2.56,0,0,1-1.14.65,7.3,7.3,0,0,0-.37.78,5.71,5.71,0,0,1-.82,1.49,1.84,1.84,0,0,1-1.37.65,2,2,0,0,1-.7-.14,1.73,1.73,0,0,1-1,.45,8.57,8.57,0,0,1-3.39-1.36,1,1,0,0,1-.47-.65.78.78,0,0,1,0-.26h0a.27.27,0,0,1-.23-.13l-.86.26c-.09.74-.19,1.22-.19,1.22l0,.15-.14,0c-.11,0-10.92,3.15-16.17,3.73a16,16,0,0,1-1.9.11,19.52,19.52,0,0,1-3.47-.36,39.65,39.65,0,0,0-6.25-.59l-2.12,0c0,.23,0,.46-.06.71a77.7,77.7,0,0,1-2.45,10.52c-.6,2.14-1.12,4-1.32,5.11-.24,1.36-1.1,5.86-2.5,8.31,5,3.5,12.57,9.17,14.14,10.71,3.23,3.17,4.66,4.82,7.73,14.11,2.23,6.76,4.49,14.46,5,16.09a12.23,12.23,0,0,0,4.75,2.29,4.69,4.69,0,0,1,2.51,3,1.41,1.41,0,0,1,0,.4h34.48v49.35H263.19V1849.9h2.7l-.12-.4a19.17,19.17,0,0,1-.9-4c-2-4-7-14-9.91-19.87-.59-1.21-9.58-6.31-15.13-7.7-.45,5-1.17,10.59-2.18,17a34.64,34.64,0,0,1-5.11,13.54c-2.83,4.42-9.07,13.89-10.52,16.08a23.84,23.84,0,0,0,2.65,3.2,15.38,15.38,0,0,1,1.68,1.91h27.11v29.54H201.72v-29.54H216.5c-.59-.53-1.24-1.13-1.86-1.72s-1.15-1.09-1.67-1.55c-1.64-1.48-.93-2.31-.11-3.27a8.43,8.43,0,0,0,1-1.31,9.11,9.11,0,0,1,1-1.4l0-.06,0-.11a112.74,112.74,0,0,1,6.32-14.86c1.49-2.9,2.66-4.81,3.52-6.2,1.48-2.41,2-3.31,1.79-5.29-.13-1-.24-2.38-.37-3.94-.26-3.25-.62-7.7-1.44-12.39-.24-1.33-.48-2.55-.7-3.68-.94-4.85-1.57-8-.16-10.69,0,0,.38-1.12.94-2.83-2-5.1-2.77-9.11-2.29-11.91.36-2,3.95-7.87,8.23-12.6a37.05,37.05,0,0,1,6.79-6c.53-1,1-1.75,1.32-2.26.21-.32.71-.49,1.63-.55.15-.34.3-.65.33-.74.08-.25.38-.33,1.17-.33h.24a8.37,8.37,0,0,0-.94-3.48,4.56,4.56,0,0,0-.39-.61c-.49-.7-1-1.49-.94-4.34.13-3.55,1.35-4.87,4.51-4.87h.42a8.82,8.82,0,0,1,4.55-1.42,6.86,6.86,0,0,1,1.12.1c3,.55,4.48,3.84,4.54,4a10.84,10.84,0,0,1,.44,2.68,3.56,3.56,0,0,0,.3,1.5,3,3,0,0,0,.35.38c.29.28.63.61.47,1a1.45,1.45,0,0,1-.4.48c-.14.12-.28.25-.28.36a1.28,1.28,0,0,1-.2.9h0l0,.08a.75.75,0,0,1,0,.55,3.14,3.14,0,0,0,.09.62,3.51,3.51,0,0,1,.12,1.18c-.14.73-1.19,1.3-2.89,1.54a3.83,3.83,0,0,0-2.64,1.92c3.68.61,9.6,1.6,12.94,2.2a9.57,9.57,0,0,0,1.47.1c5.26,0,16.92-2.68,17-2.71l.18,0,.09.16.1.17,1.4-.35.14.16a2.61,2.61,0,0,0,.92-.5,3.34,3.34,0,0,1,2-1l.25,0a3.09,3.09,0,0,1,1.35.54l1,0c1.17,0,2.53,0,3.17-.09l.81-.14.61-.17-.09-.24.26-.07s.78-.23,2.32-.77,3.83-1.4,7.13-2.79l1.29-.54c4.32-1.8,6.93-2.89,10.27-6.07,3-2.84,6.61-6.84,8.55-9l1-1.08a7.53,7.53,0,0,1,3.4-4.34l.35-1.09.29.22a2.79,2.79,0,0,0-.33-.57,3.39,3.39,0,0,1-1.83.61,2.15,2.15,0,0,1-.68-.11,15,15,0,0,1-4-3.07c-.25-.36-.52-.84-.76-1.26s-.41-.71-.56-.92c-.33-.47-1.74-3.19-1.8-3.3a3.78,3.78,0,0,1-.92-2.69,7.11,7.11,0,0,1,2.38-5.08,6.6,6.6,0,0,1,4.63-2,5.5,5.5,0,0,1,2.05.39.82.82,0,0,1,.35-.06,8.27,8.27,0,0,1,2.67.77c2.07.86,3.89,4.57,2.92,7.2a12.4,12.4,0,0,0-.91,3.22v.11a13,13,0,0,0,2.39,2.07,1.38,1.38,0,0,0,.24.11.22.22,0,0,0,0-.08l-.24-.43.49.06s.3,0,.8,0H336l0-.22.18-.06a25.12,25.12,0,0,1,7-1.06,30,30,0,0,1,11.12,5.52,118.18,118.18,0,0,1,9.47,9l1.11,1.14c1.43,1.43,7.89,13.81,8.16,14.33l.12.23-.31.15,1,1.35-.21.33.15.15a27.37,27.37,0,0,1,2.89,3.22c.82,1.06,1.18,1.53.64,2.36l-.13.2c-.34.53-.39.57-1.07.82a2.23,2.23,0,0,0-.56.32,1.35,1.35,0,0,1-.87.33h-.21a2.13,2.13,0,0,0-.33,0l-.27,0a1.32,1.32,0,0,1-.3,0l-.36,0c-.62-.09-.93-.77-1-1.1a3.4,3.4,0,0,1-1.52-.53,6.13,6.13,0,0,1-.95-2.42,6.13,6.13,0,0,0-.41-1.24l-.27,0-.13,0-.66-1.39-.53.28-.13-.15a92.14,92.14,0,0,1-8.15-11.57c-.7-1.15-2.3-2.5-4.77-4,.77,1.44,1.62,3,2.57,4.76,3.4,6.27,6.46,11.3,6.49,11.35l.1.18-.15.14a6.35,6.35,0,0,1-.7.54c1.89,6.27,2.15,14.94,2.35,21.28.06,1.89.11,3.52.19,4.77a46.64,46.64,0,0,0,2.05,9.39,59.61,59.61,0,0,1,2.28,10c.54,4.69,1.09,8.34,1.38,10.3.18,1.15.25,1.62.25,1.77a.33.33,0,0,1-.25.3,18.77,18.77,0,0,1,.58,4.66h6.43v67.79Zm31.74-67.79a8.73,8.73,0,0,1,2.92-2.8,8.41,8.41,0,0,0,2.51-2.63v0c-.51-2-2.31-9.34-3.12-12.58-.4-1.6-1-3.37-1.65-5.24a85.32,85.32,0,0,1-2.68-8.83c-.95-4.11-3.39-12.16-5.13-17-1.59,4.13-3.69,10.2-5,14.47-1.12,3.65-.88,4.76-.16,8.06.31,1.4.69,3.15,1.08,5.63,1.3,8.23,2.33,16.08,2.34,16.16l0,.16-.25.14a9.21,9.21,0,0,1,.86,3.48,2.39,2.39,0,0,1-.19,1Z" transform="translate(-108.34 -1722.5)"/><path class="cls-3" d="M324.83,1723a5,5,0,0,1,2.07.42s0-.09.33-.09a7.81,7.81,0,0,1,2.58.75c1.92.8,3.7,4.37,2.77,6.88a12.34,12.34,0,0,0-.92,3.31l-.3-.11h0a16.1,16.1,0,0,0,2.81,2.5,2.58,2.58,0,0,0,.65.22,1.19,1.19,0,0,0-.09-.54,7,7,0,0,0,.83,0l.74,0c0-.18,0-.28,0-.28a25.18,25.18,0,0,1,6.9-1,29.74,29.74,0,0,1,11,5.46,138.93,138.93,0,0,1,10.55,10.15c1.42,1.42,8.12,14.28,8.12,14.28l-.35.16,1.07,1.46a4,4,0,0,1-.23.34c.1.11.2.22.3.31a26,26,0,0,1,2.86,3.2c.81,1,1.08,1.37.63,2.06s-.36.66-1.07.93-.79.63-1.35.63h-.18a2.49,2.49,0,0,0-.36,0c-.25,0-.35,0-.58,0l-.31,0c-.63-.09-.9-1.07-.9-1.07a4.07,4.07,0,0,1-1.52-.48,5.92,5.92,0,0,1-.9-2.3,6.26,6.26,0,0,0-.48-1.42l-.4,0-.71-1.51-.6.31a92.13,92.13,0,0,1-8.11-11.54c-.9-1.48-3.07-3.07-5.63-4.57.88,1.67,1.86,3.48,3,5.55,3.45,6.36,6.49,11.37,6.49,11.37a6.52,6.52,0,0,1-.82.62c2.51,8.14,2.21,20.75,2.58,26.17.41,6,3.52,12.32,4.33,19.36s1.63,11.63,1.63,12c0,0-.11.08-.3.11a18.63,18.63,0,0,1,.61,5.1H378V1899H326.73v-67.29h9.13a19.88,19.88,0,0,0,2.64-2.13,35.13,35.13,0,0,0,2.61-2.87l-.16,0s-2.84-11.28-4.36-16.15-2.74-10-2-12.38,3.3-20.24,4-23.21c0,0,.05-.29.11-.77A4.84,4.84,0,0,1,339,1772c.13-1.29.26-2.85.31-4.38.13-4.34-1.87-4.2-4.59-6.91-1.61-1.6-3.3-3.2-4.79-4.72-3.29,2.79-12.74,10.6-17.11,12.41-5.35,2.21-16.38,4.68-16.38,4.68l-.11-.33c-1.28.44-2.51.72-2.51.72a11,11,0,0,1-.28-1.26c-.6.47-.95.85-1.46.87a18.37,18.37,0,0,1-1.24,2.34,1.59,1.59,0,0,1-1.18.57,1.78,1.78,0,0,1-.74-.18h0a1.7,1.7,0,0,1-1,.49,8.35,8.35,0,0,1-3.25-1.32.64.64,0,0,1-.13-1.07,1.65,1.65,0,0,0-.36-.11c-.07.18-.11.24-.13.24s0-.19,0-.19l-1.27.38c-.09.81-.2,1.36-.2,1.36s-10.84,3.14-16.13,3.72a16.29,16.29,0,0,1-1.87.11c-2.85,0-4.4-.84-9.72-1l-2.36-.06c0,.31,0,.61-.07.94-.52,4.68-3.25,12.68-3.76,15.62-.46,2.61-1.36,6.42-2.59,8.42,5.09,3.55,12.73,9.29,14.29,10.82,3.09,3,4.57,4.62,7.67,14,2.3,7,4.62,14.93,5,16.14.9,1,3,1.84,4.9,2.4,1.25.37,2.86,2.85,2.2,3.37h34.63V1899H263.44v-48.85h2.81a1.26,1.26,0,0,1-.07-.16,22,22,0,0,1-1.06-4.53c-1.73-3.42-7-13.84-9.94-19.91-.67-1.38-10-6.61-15.57-7.9-.63,7-1.67,13.83-2.21,17.29a34.14,34.14,0,0,1-5.08,13.45c-2.84,4.44-9.08,13.9-10.6,16.21a24,24,0,0,0,2.77,3.38,13.1,13.1,0,0,1,1.73,2h27v29H202v-29h15.19c-1.22-1-2.77-2.59-4-3.71-2-1.83-.2-2.33.91-4.26a8.34,8.34,0,0,1,1.1-1.51l-.08-.12a110.89,110.89,0,0,1,6.3-14.82c4.07-7.91,5.74-8.38,5.33-11.63s-.59-9.45-1.81-16.35-2.57-11-.88-14.21c0,0,.4-1.16,1-2.95-1.65-4.2-2.86-8.65-2.3-11.86.34-2,3.91-7.77,8.17-12.47a37.11,37.11,0,0,1,6.79-6c.55-1,1-1.78,1.34-2.29.19-.29.81-.41,1.58-.45.18-.4.37-.79.4-.9s.36-.16.94-.16h.49a8.26,8.26,0,0,0-1-3.85c-.53-1.08-1.44-1.26-1.31-4.83.13-3.39,1.21-4.63,4.27-4.63h.49a8.75,8.75,0,0,1,4.48-1.42,5.61,5.61,0,0,1,1.07.1c2.91.53,4.36,3.83,4.36,3.83a10.66,10.66,0,0,1,.42,2.58,3.7,3.7,0,0,0,.34,1.63c.25.4.94.79.8,1.14s-.7.55-.7.94,0,.55-.15.75.15.39.05.69.3,1.29.2,1.83-.94,1.09-2.68,1.34c-1.49.21-2.25,1.2-3,2.36,3.43.55,9.68,1.6,13.33,2.25a9.16,9.16,0,0,0,1.51.11c5.35,0,17.1-2.72,17.1-2.72s.11.23.17.34l1.45-.36a1.66,1.66,0,0,1,.15.18,3.28,3.28,0,0,0,1.17-.61,3.16,3.16,0,0,1,1.86-1l.21,0a2.6,2.6,0,0,1,1.29.54l1.12,0c1.21,0,2.57,0,3.18-.09l.83-.14c.3-.08.59-.17.89-.27l-.08-.22s.77-.22,2.34-.78h0c1.57-.55,3.94-1.44,7.14-2.79,5.16-2.17,7.94-3.15,11.63-6.65s8.37-8.81,9.59-10.12a7.31,7.31,0,0,1,3.38-4.29l.27-.86.57.42a2.81,2.81,0,0,0-.69-1.53,3.12,3.12,0,0,1-1.88.71,1.72,1.72,0,0,1-.6-.1,14.89,14.89,0,0,1-3.9-3c-.46-.66-1-1.72-1.32-2.19s-1.79-3.27-1.79-3.27c-1.26-1.24-1.5-4.64,1.41-7.47a6.31,6.31,0,0,1,4.46-2m24.51,108.71h9a8.18,8.18,0,0,1,2.91-2.85,8.67,8.67,0,0,0,2.64-2.79l-3.14-12.7c-.95-3.79-3-8.25-4.33-14.07-1-4.4-3.68-13.06-5.38-17.68-1.67,4.27-3.93,10.82-5.25,15.11-1.62,5.28-.4,5.48.91,13.8s2.34,16.15,2.34,16.15a3.13,3.13,0,0,1-.32.15,9,9,0,0,1,.95,3.61,2.09,2.09,0,0,1-.36,1.27M324.83,1722.5h0a6.82,6.82,0,0,0-4.81,2.13,7.34,7.34,0,0,0-2.45,5.25,4.15,4.15,0,0,0,1,2.87c.26.5,1.47,2.81,1.79,3.26.14.2.33.54.54.9s.52.91.78,1.28a15,15,0,0,0,4.14,3.16,2.19,2.19,0,0,0,.77.13,3.43,3.43,0,0,0,1.58-.42l-.06.17-.2.66a7.77,7.77,0,0,0-3.42,4.38l-.94,1c-1.94,2.14-5.55,6.14-8.54,9-3.31,3.14-5.9,4.23-10.2,6l-1.29.54c-3.29,1.39-5.68,2.28-7.11,2.78s-2.3.76-2.31.77l-.51.14.08.24-.35.1-.78.13c-.64,0-2,.09-3.12.09l-.93,0a3.63,3.63,0,0,0-1.4-.54l-.29,0a3.54,3.54,0,0,0-2.19,1.09,2.48,2.48,0,0,1-.68.4l-.13-.15-.3.07-1.07.27h0l-.18-.32-.36.09c-.11,0-11.75,2.7-17,2.7a9.1,9.1,0,0,1-1.43-.1c-3.3-.59-8.85-1.52-12.54-2.13a3.23,3.23,0,0,1,2.24-1.49c1.84-.27,2.94-.89,3.09-1.75a3.69,3.69,0,0,0-.11-1.27,2.9,2.9,0,0,1-.09-.53.92.92,0,0,0-.05-.65,1.65,1.65,0,0,0,.16-.91l.2-.18a1.75,1.75,0,0,0,.46-.56c.23-.54-.21-1-.53-1.27a2.07,2.07,0,0,1-.3-.33,3.21,3.21,0,0,1-.27-1.37,11.61,11.61,0,0,0-.44-2.74c-.08-.19-1.62-3.6-4.75-4.16a6.34,6.34,0,0,0-1.16-.11,9.17,9.17,0,0,0-4.62,1.41h-.35c-3.29,0-4.63,1.43-4.76,5.12-.11,2.92.47,3.75,1,4.48a4.32,4.32,0,0,1,.36.58,8.46,8.46,0,0,1,.91,3.12c-.67,0-1.24,0-1.39.5,0,0-.05.13-.26.58-.92.08-1.42.28-1.67.66s-.77,1.26-1.3,2.21a37.87,37.87,0,0,0-6.79,6c-4.3,4.75-7.92,10.63-8.28,12.72-.49,2.83.27,6.85,2.26,12-.49,1.5-.84,2.53-.91,2.73-1.43,2.72-.8,5.95.16,10.83.22,1.16.46,2.35.69,3.67.83,4.68,1.18,9.12,1.44,12.37.13,1.56.24,2.91.37,4,.23,1.89-.27,2.71-1.75,5.13-.86,1.39-2,3.31-3.53,6.22a114.62,114.62,0,0,0-6.34,14.89l-.07.23a8.73,8.73,0,0,0-.9,1.3,8.28,8.28,0,0,1-1,1.26c-.83,1-1.69,2,.14,3.62.51.47,1.08,1,1.65,1.55l1.39,1.29H201.47v30H253.7v-30H226.49a17.09,17.09,0,0,0-1.65-1.83,24.51,24.51,0,0,1-2.52-3c2-3,7.71-11.7,10.43-15.94a34.76,34.76,0,0,0,5.14-13.64c1-6.33,1.71-11.82,2.16-16.75,5.78,1.53,14.18,6.47,14.68,7.5,2.94,6,8.26,16.58,9.9,19.82a18.93,18.93,0,0,0,.9,4l0,.07h-2.61v49.85h52.24v-49.85H280.7a.75.75,0,0,0,0-.2,4.89,4.89,0,0,0-2.68-3.15,12.18,12.18,0,0,1-4.6-2.18c-.51-1.75-2.72-9.31-4.95-16-3.08-9.34-4.53-11-7.79-14.21-1.56-1.53-9-7.1-14-10.6a31.93,31.93,0,0,0,2.42-8.19c.19-1.11.71-3,1.31-5.1a78.78,78.78,0,0,0,2.46-10.56c0-.16,0-.32,0-.47l1.88,0a39.19,39.19,0,0,1,6.22.59,20.86,20.86,0,0,0,3.51.36,16.25,16.25,0,0,0,1.92-.11c5.28-.58,15.77-3.61,16.22-3.74l.29-.08.06-.3s.09-.43.17-1.08l.57-.16.05,0a.28.28,0,0,0,0,.09,1.17,1.17,0,0,0,.58.83,8.62,8.62,0,0,0,3.52,1.4,1.87,1.87,0,0,0,1.06-.42,2.16,2.16,0,0,0,.65.11,2.07,2.07,0,0,0,1.55-.73,5.85,5.85,0,0,0,.87-1.56c.1-.24.21-.48.3-.66a2.13,2.13,0,0,0,.83-.43,5.11,5.11,0,0,0,.14.51l.13.44.45-.11c.05,0,1-.22,2.08-.57l.1.29.44-.1c.45-.1,11.13-2.5,16.46-4.71,4.24-1.75,13-8.88,16.89-12.19.8.81,1.65,1.64,2.48,2.45.67.65,1.34,1.3,2,1.95a20,20,0,0,0,2.09,1.77c1.57,1.2,2.44,1.87,2.35,4.76,0,1.27-.14,2.7-.3,4.25a3.23,3.23,0,0,0-.25,1.57c0,.21,0,.44,0,.7l-.1.73c-.28,1.24-.92,5.26-1.6,9.52-.91,5.74-1.94,12.25-2.36,13.61-.67,2.14,0,6.17,2,12.68,1.43,4.59,4.07,15,4.33,16v0c-.55.65-1.24,1.45-2.29,2.48a18.3,18.3,0,0,1-2.45,2h-9.47v68.29h52.23v-68.29H372a20.34,20.34,0,0,0-.56-4.29.5.5,0,0,0,.22-.42c0-.17-.06-.57-.25-1.81-.29-2-.84-5.61-1.38-10.29a61.91,61.91,0,0,0-2.28-10,45.54,45.54,0,0,1-2.05-9.34c-.08-1.25-.13-2.87-.19-4.76-.19-6.3-.46-14.88-2.31-21.17.22-.16.41-.31.58-.46l.3-.27-.21-.36s-3.08-5.07-6.48-11.34c-.7-1.28-1.42-2.62-2.12-3.93a12.89,12.89,0,0,1,3.89,3.44,92.54,92.54,0,0,0,8.17,11.61l.26.3.35-.19.13-.07.49,1,.11.23.25,0,.15,0a4.86,4.86,0,0,1,.33,1,6.18,6.18,0,0,0,1,2.54,2.92,2.92,0,0,0,1.52.59,1.71,1.71,0,0,0,1.2,1.13l.38,0a2.86,2.86,0,0,0,.35,0l.23,0a1.73,1.73,0,0,1,.3,0h.24a1.64,1.64,0,0,0,1-.37,2.45,2.45,0,0,1,.51-.3,1.72,1.72,0,0,0,1.19-.91l.13-.21c.64-1,.19-1.55-.62-2.6a27.15,27.15,0,0,0-2.95-3.29h0l0,0,.17-.29-.2-.27-.71-1,.27-.13-.24-.46c-.69-1.33-6.77-13-8.21-14.4l-1.1-1.14a120.24,120.24,0,0,0-9.48-9,30,30,0,0,0-11.17-5.57h-.12a25.48,25.48,0,0,0-7.06,1.07l-.36.13v.15h-.21c-.49,0-.77,0-.77,0l-1-.12.06.12a17.89,17.89,0,0,1-1.72-1.58h0a12.6,12.6,0,0,1,.89-3.13c1-2.74-.89-6.62-3.05-7.52a8.64,8.64,0,0,0-2.77-.79,1.59,1.59,0,0,0-.34,0,5.79,5.79,0,0,0-2.06-.37Zm24.58,104.56.2-.12,0-.33c0-.07-1.05-7.92-2.35-16.16-.39-2.49-.77-4.24-1.08-5.64-.7-3.26-.94-4.35.16-7.93,1.25-4.06,3.21-9.74,4.76-13.83,1.72,4.91,4,12.44,4.9,16.36a84.54,84.54,0,0,0,2.68,8.86c.64,1.87,1.25,3.63,1.65,5.22.8,3.2,2.56,10.35,3.09,12.5a8.21,8.21,0,0,1-2.38,2.46,9.49,9.49,0,0,0-2.93,2.76h-8a2.56,2.56,0,0,0,.09-.79,9.22,9.22,0,0,0-.79-3.36Z" transform="translate(-108.34 -1722.5)"/><line class="cls-4" x1="0.26" y1="165.59" x2="327.52" y2="165.59"/><path class="cls-5" d="M144.22,1872c-.45,0-11.93-1-12.8-11.56s6.32-13.49,4-25.26-7.45-15,3.53-24c0,0,4.91-3.64,5-8.53.09-5.85,9.94-13,16.83-9.29s5.51,9.74,0,19.67.17,11.45,1.39,14.56,3.91,6.33-1.75,14.05,1.69,16.68-3.1,24C157.35,1865.68,153.11,1871.16,144.22,1872Z" transform="translate(-108.34 -1722.5)"/><path class="cls-6" d="M174.07,1874.29c-.45.35-4.48-7-5.42-16.23,0,0-.45-4.56,3.88-2.23,0,0-4.48-20,7.45-18.47a6.21,6.21,0,0,1,4.41,2c1.61,1.76,2.49,4.59.6,8.68-3.79,8.16-7.11,11.32-5.49,15.65S180.58,1869.26,174.07,1874.29Z" transform="translate(-108.34 -1722.5)"/><path class="cls-7" d="M338.58,1774.94c-.67,3-3.22,20.77-4,23.21s.47,7.51,2,12.38,4.36,16.15,4.36,16.15,5.89,1.33,8.12,0c0,0-1-7.83-2.34-16.15s-2.53-8.52-.91-13.8,4.68-14,6.3-17.65-.14-13.61-.14-13.61-11.45,4.83-12.58,6S339,1773.27,338.58,1774.94Z" transform="translate(-108.34 -1722.5)"/><path class="cls-8" d="M346.27,1767.1c-.11,1.75,2.46,10.06,3.54,11.59s5.28,14.79,6.64,20.61,3.38,10.28,4.33,14.07S364,1826.5,364,1826.5s7.18.4,7.18,0-.82-5-1.63-12-3.92-13.4-4.33-19.36,0-20.56-3.38-28.41S346.27,1767.1,346.27,1767.1Z" transform="translate(-108.34 -1722.5)"/><path class="cls-9" d="M329.81,1732.45s2.77,3.29,4.36,4.22,8.2,0,8.2,0-2.25,6.61-5.29,8.46-8.73,1.33-8.73,1.33a13.46,13.46,0,0,0,.8-4.63c-.14-2.14-3.7-3.71-3.7-3.71Z" transform="translate(-108.34 -1722.5)"/><path class="cls-10" d="M329.81,1732.45s2.77,3.29,4.36,4.22,8.2,0,8.2,0-2.25,6.61-5.29,8.46-8.73,1.33-8.73,1.33a13.46,13.46,0,0,0,.8-4.63c-.14-2.14-3.7-3.71-3.7-3.71Z" transform="translate(-108.34 -1722.5)"/><path class="cls-9" d="M319,1732.45s1.46,2.81,1.79,3.27.86,1.53,1.32,2.19a14.89,14.89,0,0,0,3.9,3,3,3,0,0,0,3-1.19,27.85,27.85,0,0,0,2.12-4.23c.53-1.19,0-4.37,0-4.37s-.07-2.44-3.9-2.64a44.06,44.06,0,0,0-5.89,0Z" transform="translate(-108.34 -1722.5)"/><path class="cls-11" d="M319,1732.45c.43.42.93.63,2.38,0s1.32-3,4.1-3.71c1-.24,1.46.3,1.72,1.87l.27,1.57.79.93s-.26-2.12.66-3.18,2.51,1.93.93,2.55,1.85,1.82,1.85,1.82a12.34,12.34,0,0,1,.92-3.31c.93-2.51-.85-6.08-2.77-6.88-2.69-1.11-2.91-.66-2.91-.66s-3.22-1.64-6.53,1.56C317.46,1727.81,317.7,1731.21,319,1732.45Z" transform="translate(-108.34 -1722.5)"/><path class="cls-12" d="M328.3,1742.24l.27-.86s3.11,2.3,3.79,2.3c0,0,3-6.11,2.37-7.33a11.73,11.73,0,0,0,3.11-.15,7.28,7.28,0,0,1,3.25,0s3.18,13.3,5.48,17.5,4.87,7.85,4.87,7.85l.54,3.92a10.8,10.8,0,0,1-6.22,4.5l-4.61,1.45a16.22,16.22,0,0,0-3-11.9c-4.2-5.42-11.37-13.81-11.37-13.81Z" transform="translate(-108.34 -1722.5)"/><path class="cls-9" d="M282.82,1768.85a5.3,5.3,0,0,0,2.1-.87,2.78,2.78,0,0,1,2.07-1c.75.12,1.58.54,1.42.9s-1.9.8-2.22,1.32a4.51,4.51,0,0,0-1,2.1,11,11,0,0,1-.55,2.42,4.11,4.11,0,0,0-2.23-.28C281.23,1773.7,282.82,1768.85,282.82,1768.85Z" transform="translate(-108.34 -1722.5)"/><path class="cls-9" d="M284.27,1769.29c1.24-.32,3.9-.48,4.58,0a13.46,13.46,0,0,1,2.58,2.9c.24.55.95.4.6.91a18.37,18.37,0,0,1-1.24,2.34,1.54,1.54,0,0,1-1.92.39,19.92,19.92,0,0,1-2.92-1.14,3.86,3.86,0,0,0-2.5-.92,5.06,5.06,0,0,1-1.47,0s.76-3.45.56-3.85S284.27,1769.29,284.27,1769.29Z" transform="translate(-108.34 -1722.5)"/><path class="cls-9" d="M292.58,1767.5a39.83,39.83,0,0,1-5.24,0c-.95-.16-1.75,1-2.46,1.67s.4,1.06,1.11,1,1.67-1.14,2.3-1,1.43,1.53,2.15,2.4.79,1.53,1.59,1.48,1.19-.93,2.77-1.68a35.88,35.88,0,0,0,3.74-2.17l-2-3.16A13,13,0,0,1,292.58,1767.5Z" transform="translate(-108.34 -1722.5)"/><path class="cls-13" d="M296.15,1766.87c-1.27.24-3.57.63-3.57.63s.64,2.61.79,3.92a12.37,12.37,0,0,0,.4,2.07,20.91,20.91,0,0,0,4.45-1.54,22.58,22.58,0,0,0,3.89-3.64Z" transform="translate(-108.34 -1722.5)"/><path class="cls-14" d="M324.92,1746.53c-1.22,1.32-5.89,6.61-9.59,10.12s-6.47,4.48-11.63,6.65a95,95,0,0,1-9.48,3.57s1.5,4.19,2.17,6.23c0,0,11-2.47,16.38-4.68s18.28-13.4,18.28-13.4Z" transform="translate(-108.34 -1722.5)"/><path class="cls-15" d="M336.28,1736.09s.82,12.13.61,14.77,3.25,6.69,4.87,10.35,6.09,10.2,7.92,10.38,10.35-.17,13.8-3.28c0,0-3-5-6.49-11.37s-5.69-10.53-7.31-14.7-6.5-7.2-6.5-7.2A25.18,25.18,0,0,0,336.28,1736.09Z" transform="translate(-108.34 -1722.5)"/><path class="cls-16" d="M328.3,1742.24a42.53,42.53,0,0,0,4.6,6,41.42,41.42,0,0,0,4.24,4.22s4.15,5.26,5.5,7.29,2.49,3.53,2.47,5.21.65,5-1.66,8.32c0,0-.13,1.49-4.87,1.62a69.81,69.81,0,0,0,.68-7.3c.13-4.34-1.87-4.2-4.59-6.91a92.57,92.57,0,0,1-7.45-7.71c-1.76-2.3-2.3-6.49-2.3-6.49A7.31,7.31,0,0,1,328.3,1742.24Z" transform="translate(-108.34 -1722.5)"/><path class="cls-17" d="M364.89,1823.66a8.56,8.56,0,0,1-3.61,5.2c-2.55,1.71-3.8,3.43-2.72,4.49,0,0,12.73.12,12.94-1.47.34-2.57-1.36-8.22-1.36-8.22Z" transform="translate(-108.34 -1722.5)"/><path class="cls-18" d="M343.11,1825.1c-1.58.62-1.95,1.89-4.61,4.48s-4.47,2.7-3.59,3.94,10.6.14,10.6.14,4.29-.63,4.19-3.22a8.89,8.89,0,0,0-1.43-4.44Z" transform="translate(-108.34 -1722.5)"/><path class="cls-9" d="M368.32,1766.75a9.64,9.64,0,0,1,1.61,3.41,5.92,5.92,0,0,0,.9,2.3,4.07,4.07,0,0,0,1.52.48s.27,1,.9,1.07.54-.09,1.25,0,.81-.36,1.53-.62.62-.24,1.07-.93.18-1-.63-2.06a26,26,0,0,0-2.86-3.2,16.67,16.67,0,0,1-2.53-3.75Z" transform="translate(-108.34 -1722.5)"/><path class="cls-19" d="M367.44,1765.29l1.61,3.41a4.45,4.45,0,0,0,4.49-2.15L370.2,1762Z" transform="translate(-108.34 -1722.5)"/><path class="cls-20" d="M343.18,1735a29.74,29.74,0,0,1,11,5.46,138.93,138.93,0,0,1,10.55,10.15c1.42,1.42,8.12,14.28,8.12,14.28s-2,1-5.08,2.57a92.13,92.13,0,0,1-8.11-11.54c-2-3.33-10.57-7.27-15.34-9.43S336.69,1736.68,343.18,1735Z" transform="translate(-108.34 -1722.5)"/><path class="cls-21" d="M248.52,1755.83c1-.5,6-1.09,6.27-.3a10.66,10.66,0,0,1,.42,2.58,3.7,3.7,0,0,0,.34,1.63c.25.4.94.79.8,1.14s-.7.55-.7.94,0,.55-.15.75.15.39.05.69.3,1.29.2,1.83-.94,1.09-2.68,1.34-2.47,1.54-3.41,2.92a31.17,31.17,0,0,0-2.21,5.65l-7.34-4.16s2.16-3.12,2.41-4.66.84-4.36.84-4.36Z" transform="translate(-108.34 -1722.5)"/><path class="cls-22" d="M235,1809.06a9.53,9.53,0,0,0,2.54,2.78,5.93,5.93,0,0,1,1.78,1.7,4,4,0,0,1-.13,1.59s.81.62.65,1.24-.28.46-.47,1.16-.64.61-1.16,1.17-.46.49-1.26.65-1-.22-1.67-1.37a26.35,26.35,0,0,1-1.87-3.86,17,17,0,0,0-2.52-3.76Z" transform="translate(-108.34 -1722.5)"/><path class="cls-22" d="M234,1807.69l2.54,2.78a4.42,4.42,0,0,1-3.68,3.34l-3-4.82Z" transform="translate(-108.34 -1722.5)"/><path class="cls-22" d="M238.83,1769.38a33.34,33.34,0,0,0-8,6.69c-4.26,4.7-7.83,10.49-8.17,12.47-1.41,8.11,8.4,24.09,8.4,24.09s1.7-1.46,4.43-3.57c0,0-2.68-10.43-2.3-16,.27-3.89,5.41-10.67,9.82-13.48S245.49,1770.1,238.83,1769.38Z" transform="translate(-108.34 -1722.5)"/><path class="cls-23" d="M244.88,1753c-3.43-.13-4.62,1.06-4.76,4.62s.78,3.75,1.31,4.83a7.25,7.25,0,0,1,.93,4.32,5.66,5.66,0,0,0,3.31.37c2.25-.27,2.65-1.72,3.44-2.38a10.52,10.52,0,0,0,1.32-1.32,3.64,3.64,0,0,1-1.58-2.12c-.27-1.32.79-1.92,1.58-1l.79.9s.8,0,.53-1.5a2.62,2.62,0,0,1,.66-2.73,7.35,7.35,0,0,1,2.38-1.45s-1.45-3.3-4.36-3.83A8.25,8.25,0,0,0,244.88,1753Z" transform="translate(-108.34 -1722.5)"/><path class="cls-24" d="M265.23,1844.16c-.49,1.59.59,4.61.95,5.83s1.67.84,4.88.72,7.75-.24,8.82-.48-.7-3.06-2-3.45c-2.18-.65-4.67-1.71-5.24-2.86s-2.5-1.07-2.5-1.07Z" transform="translate(-108.34 -1722.5)"/><path class="cls-25" d="M230.58,1800.1c-2.72,2.43-2.85,7.31-1.22,11.78s3.41,5.28,8.36,5.48,16.7,6.63,17.46,8.19c3.57,7.34,10.51,21,10.51,21s3.25,1.42,7.31-2c0,0-2.53-8.77-5-16.32-3.1-9.39-4.58-11-7.67-14-1.88-1.85-12.68-9.86-17.08-12.7S233.76,1797.26,230.58,1800.1Z" transform="translate(-108.34 -1722.5)"/><path class="cls-26" d="M216.19,1859.65a5.32,5.32,0,0,0-2.14,2.34c-1.11,1.93-2.94,2.43-.91,4.26s4.87,4.77,5.79,4.87,6.13.51,7.14,0-.2-1.73-1.58-3.14c-1.13-1.15-2.89-3.25-3-3.86a24.5,24.5,0,0,1,.17-3.15Z" transform="translate(-108.34 -1722.5)"/><path class="cls-27" d="M224,1803.35c-1.69,3.18-.34,7.31.88,14.21s1.41,13.1,1.81,16.35-1.26,3.72-5.33,11.63a110.89,110.89,0,0,0-6.3,14.82s2.48,3.74,6.31,4.75c0,0,7.7-11.65,10.94-16.72a34.14,34.14,0,0,0,5.08-13.45c.84-5.34,2.86-18.74,2.71-28.28s-6.89-6.76-9.53-6.56S226.18,1799.29,224,1803.35Z" transform="translate(-108.34 -1722.5)"/><path class="cls-28" d="M240.11,1768.31s.78-1.6.86-1.84,1.38-.2,3.81,0,4.88,2.88,4.88,2.88l-3.45,2.12Z" transform="translate(-108.34 -1722.5)"/><path class="cls-29" d="M243.76,1767.46a12.87,12.87,0,0,1,5.82,2.57c.68.67,3.46,3.18,2.78,9.34-.52,4.68-3.25,12.68-3.76,15.62-.58,3.3-1.86,8.5-3.62,9.58s-2.11,2.34-8,2.17c-4.41-.13-13-3.39-13-3.39s1.14-3.36,2.42-7.44c3.43-10.94,10.48-24.9,12.56-28.09C239.43,1767.14,242.12,1767.37,243.76,1767.46Z" transform="translate(-108.34 -1722.5)"/><path class="cls-30" d="M281.31,1769l2.29-.58a4.61,4.61,0,0,1,.93,4c-.55,2.42-.55,1.47-.55,1.47l-2.23.67Z" transform="translate(-108.34 -1722.5)"/><path class="cls-31" d="M246.23,1777.64c1.6.63,2.2.72,8.56.85s7.34,1.31,11.59.84c5.29-.58,16.13-3.72,16.13-3.72s1-4.65-.53-7.18c0,0-14.48,3.35-18.61,2.61s-11.62-2-14.54-2.45-6.17.15-6,3.8A5.84,5.84,0,0,0,246.23,1777.64Z" transform="translate(-108.34 -1722.5)"/><path class="cls-9" d="M284.65,1775a8.35,8.35,0,0,0,3.25,1.32c.63,0,1.51-1,1.74-1.32s-.27-.59-.59-.63-.28-.93-.84-.88-.36-.42-1-.39-.4-.32-1-.36-1,.6-1.5,1S284.13,1774.67,284.65,1775Z" transform="translate(-108.34 -1722.5)"/><rect class="cls-32" x="155.1" y="127.65" width="38.35" height="48.85"/><rect class="cls-33" x="167.98" y="127.65" width="38.35" height="48.85"/><rect class="cls-34" x="218.39" y="109.21" width="38.35" height="67.29"/><rect class="cls-35" x="231.27" y="109.21" width="38.35" height="67.29"/><rect class="cls-36" x="93.63" y="147.46" width="38.35" height="29.04"/><rect class="cls-37" x="106.51" y="147.46" width="38.35" height="29.04"/><path class="cls-38" d="M146.55,1888.24a.49.49,0,0,0,.34-.57c-7.22-32.24,3.82-76.9,3.93-77.35a.49.49,0,0,0-.35-.59.5.5,0,0,0-.59.35c-.11.45-11.21,45.34-3.93,77.8a.48.48,0,0,0,.57.37Z" transform="translate(-108.34 -1722.5)"/><path class="cls-38" d="M146.6,1830.18l.08,0a.49.49,0,0,0,.22-.65,64.17,64.17,0,0,1-4-10.56.5.5,0,0,0-.59-.36.49.49,0,0,0-.35.59,66.42,66.42,0,0,0,4.05,10.76A.49.49,0,0,0,146.6,1830.18Z" transform="translate(-108.34 -1722.5)"/><path class="cls-38" d="M145.07,1843.44a.5.5,0,0,0,.19-.1c2.36-2.09,8.34-6.07,8.4-6.11a.49.49,0,0,0-.54-.81c-.25.17-6.09,4.06-8.5,6.19a.49.49,0,0,0,0,.69A.48.48,0,0,0,145.07,1843.44Z" transform="translate(-108.34 -1722.5)"/><path class="cls-39" d="M175.23,1887.28a.44.44,0,0,0,.34-.52c-2.75-13.41,1.21-36,1.71-37a.42.42,0,0,0-.11-.6.45.45,0,0,0-.62.11c-.81,1.14-4.51,24.65-1.84,37.66A.44.44,0,0,0,175.23,1887.28Z" transform="translate(-108.34 -1722.5)"/></g></g></svg>