<svg xmlns="http://www.w3.org/2000/svg" xmlns:xlink="http://www.w3.org/1999/xlink" width="65.33" height="29.33" viewBox="0 0 98 44"><defs><path id="s2ica" d="M1482.855 4261.82l-6.139 7.702v-7.702h-3.586v16.415h3.586v-7.812l6.183 7.812h4.292l-6.69-8.317 6.557-8.098zm-17.534 16.789c1.893 0 3.323-.507 4.512-1.145v-3.609c-1.322.903-2.51 1.453-4.137 1.453-2.794 0-5.194-2.112-5.194-5.281 0-3.191 2.4-5.259 5.194-5.259 1.627 0 2.815.486 4.137 1.366v-3.566a9.409 9.409 0 0 0-4.512-1.121c-4.554 0-8.449 3.409-8.449 8.58 0 5.172 3.895 8.582 8.449 8.582zm68.166-40.752l-3.593 20.696.645.538c1.982-.965 4.18-1.875 7.237-1.875 6.113 0 9.652 3.591 9.652 8.418 0 4.717-3.539 8.148-9.169 8.148-3.754 0-7.883-1.661-10.563-4.772v5.792c2.788 2.358 6.541 3.753 10.616 3.753 9.866 0 14.209-6.702 14.209-13.138 0-6.273-4.718-12.439-13.297-12.439-1.608 0-3.271.429-4.344.805l2.198-11.26h13.673v-4.666zm-71.84 9.359c1.781.726 2.926 1.254 2.926 2.353 0 1.122-1.078 1.872-2.705 1.872-1.695 0-3.478-.771-4.622-1.806v3.478c1.1.813 2.927 1.472 4.972 1.472 3.632 0 6.03-2.066 6.03-5.148 0-3.123-2.552-4.157-4.885-5.083-1.716-.703-2.619-1.143-2.619-2.112 0-1.033 1.013-1.606 2.465-1.606 1.364 0 2.992.484 4.07 1.255v-3.3c-1.099-.638-2.596-1.124-4.268-1.124-3.543 0-5.809 2.047-5.809 4.908 0 2.926 2.42 4.004 4.445 4.841zm17.358-6.469c2.465 0 4.819 1.914 4.819 5.281 0 3.366-2.354 5.302-4.819 5.302-2.508 0-4.862-1.914-4.862-5.302 0-3.367 2.354-5.281 4.862-5.281zm0 13.861c4.796 0 8.449-3.607 8.449-8.58s-3.653-8.582-8.449-8.582c-4.797 0-8.494 3.609-8.494 8.582 0 4.994 3.676 8.58 8.494 8.58zm28.212 4.643c5.575 2.52 8.525 4.343 8.525 8.043 0 4.29-3.861 6.65-8.311 6.65-4.021 0-8.203-1.823-10.937-4.612v5.576c2.412 1.876 6.486 3.701 11.152 3.701 7.237 0 13.244-4.29 13.244-11.636 0-6.489-4.88-9.063-10.939-11.743-5.468-2.466-8.257-4.128-8.257-7.614 0-3.968 3.539-5.952 7.614-5.952 3.109 0 6.648 1.127 9.438 3.111v-5.149c-2.361-1.446-5.791-2.626-9.491-2.626-7.025 0-12.6 3.968-12.6 10.884 0 6.326 4.717 8.741 10.562 11.367z"/><path id="s2icc" d="M1482.855 4261.82l-6.138 7.702v-7.702h-3.587v16.415h3.587v-7.813l6.182 7.813h4.291l-6.689-8.318 6.557-8.097zm-17.534 16.789c1.893 0 3.322-.507 4.511-1.146v-3.607c-1.32.901-2.509 1.451-4.137 1.451-2.794 0-5.192-2.111-5.192-5.28 0-3.19 2.398-5.258 5.192-5.258 1.628 0 2.817.483 4.137 1.363v-3.563a9.387 9.387 0 0 0-4.51-1.123c-4.556 0-8.45 3.41-8.45 8.581 0 5.171 3.894 8.581 8.45 8.581zm-.748-29.04c0 1.122-1.078 1.871-2.706 1.871-1.694 0-3.477-.77-4.62-1.804v3.476c1.1.814 2.926 1.473 4.972 1.473 3.63 0 6.03-2.067 6.03-5.148 0-3.124-2.554-4.158-4.886-5.083-1.717-.704-2.618-1.144-2.618-2.112 0-1.033 1.012-1.606 2.464-1.606 1.364 0 2.992.484 4.07 1.254v-3.3c-1.099-.638-2.596-1.123-4.268-1.123-3.542 0-5.809 2.047-5.809 4.908 0 2.925 2.421 4.003 4.444 4.84 1.783.726 2.927 1.254 2.927 2.354zm5.94-3.542c0 4.995 3.673 8.582 8.492 8.582 4.797 0 8.45-3.609 8.45-8.582 0-4.972-3.653-8.58-8.45-8.58-4.797 0-8.493 3.607-8.493 8.58zm3.63 0c0-3.365 2.354-5.28 4.862-5.28 2.465 0 4.82 1.914 4.82 5.28 0 3.367-2.355 5.304-4.82 5.304-2.508 0-4.863-1.915-4.863-5.304zm60.738 7.756l2.198-11.26h13.673v-4.666h-17.265l-3.593 20.696.644.536c1.983-.963 4.182-1.875 7.238-1.875 6.113 0 9.652 3.592 9.652 8.418 0 4.718-3.539 8.15-9.169 8.15-3.753 0-7.882-1.662-10.563-4.773v5.791c2.788 2.36 6.541 3.754 10.616 3.754 9.867 0 14.21-6.702 14.21-13.137 0-6.273-4.719-12.439-13.298-12.439-1.609 0-3.27.428-4.343.805zm-33.187-6.168c0-3.966 3.54-5.95 7.613-5.95 3.111 0 6.65 1.126 9.438 3.11v-5.149c-2.359-1.447-5.79-2.626-9.49-2.626-7.025 0-12.6 3.967-12.6 10.883 0 6.327 4.717 8.741 10.562 11.368 5.576 2.52 8.525 4.342 8.525 8.042 0 4.292-3.86 6.65-8.31 6.65-4.022 0-8.205-1.823-10.939-4.61v5.575c2.413 1.876 6.487 3.7 11.152 3.7 7.24 0 13.244-4.29 13.244-11.636 0-6.488-4.879-9.062-10.938-11.742-5.469-2.467-8.257-4.129-8.257-7.615z"/><linearGradient id="s2icb" x1="1456.87" x2="1552.52" y1="4257.8" y2="4257.8" gradientUnits="userSpaceOnUse"><stop offset="0" stop-color="#0693e9"/><stop offset=".01" stop-color="#0693e9"/><stop offset="1" stop-color="#9cc037"/><stop offset="1" stop-color="#9cc037"/></linearGradient></defs><g><g transform="translate(-1456 -4236)"><use fill="url(#s2icb)" xlink:href="#s2ica"/></g><g transform="translate(-1456 -4236)"><use fill="#fff" fill-opacity="0" stroke="#000" stroke-miterlimit="50" xlink:href="#s2icc"/></g></g></svg>