<svg xmlns="http://www.w3.org/2000/svg" xmlns:xlink="http://www.w3.org/1999/xlink" width="74.67" height="44" viewBox="0 0 112 66"><defs><path id="blkha" d="M329.492 4275.95v-52.905c0-2.577-2.145-4.675-4.778-4.675H243.29c-2.634 0-4.788 2.098-4.788 4.675v52.905h-9.753v4.327l.743.395c.188.103 4.9 2.558 18.294 2.558h72.91c13.394 0 18.107-2.455 18.295-2.558l.742-.395v-4.327z"/><path id="blkhb" d="M320.698 4283.575h-72.911c-13.562 0-18.267-2.494-18.46-2.6l-.922-.49v-4.88h9.753v-52.56c0-2.768 2.303-5.02 5.133-5.02h81.423c2.825 0 5.123 2.252 5.123 5.02v52.56h10.242v4.88l-.925.491c-.19.105-4.895 2.6-18.456 2.6zm-91.603-3.506l.56.298c.05.027 4.746 2.517 18.132 2.517h72.91c13.386 0 18.083-2.49 18.128-2.515l.564-.3v-3.773h-10.242v-53.25c0-2.389-1.99-4.33-4.433-4.33H243.29c-2.45 0-4.442 1.941-4.442 4.33v53.25h-9.754z"/><path id="blkhc" d="M329.491 4275.95v-52.905c0-2.577-2.144-4.675-4.778-4.675H243.29c-2.633 0-4.787 2.098-4.787 4.675v52.905h-9.754v4.327l.743.395c.188.103 4.9 2.558 18.294 2.558h72.911c13.393 0 18.105-2.455 18.294-2.558l.743-.395v-4.327z"/><path id="blkhd" d="M329.491 4275.95v-52.905c0-2.577-2.144-4.675-4.778-4.675H243.29c-2.633 0-4.787 2.098-4.787 4.675v52.905h-9.754v4.327l.743.395c.19.103 4.9 2.558 18.294 2.558h72.911c13.393 0 18.105-2.455 18.294-2.558l.743-.395v-4.327z"/><path id="blkhe" d="M284.214 4223.167a.646.646 0 0 0 .648-.629.64.64 0 0 0-.648-.632.64.64 0 0 0-.649.632c0 .337.29.629.649.629zm39.886 49.853v-48.89h-80.6v48.89zm-33.34 6.504c1.664 0 2.021-.544 2.098-.752h43.17c-2.248.658-6.987 1.637-15.33 1.637h-72.912c-8.343 0-13.092-.979-15.331-1.637h42.288c.074.208.431.752 2.097.752zm-49.436-56.478c0-1.026.885-1.853 1.966-1.853h81.424c1.081 0 1.956.827 1.956 1.853v52.905h-85.346zm1.966-4.676c-2.633 0-4.787 2.098-4.787 4.676v52.905h-9.754v4.327l.743.394c.189.104 4.9 2.559 18.294 2.559h72.912c13.393 0 18.105-2.455 18.293-2.559l.744-.394v-4.327h-10.243v-52.905c0-2.578-2.145-4.676-4.778-4.676z"/><path id="blkhg" d="M272.694 4266.627l1.167-.192a64.233 64.233 0 0 1 5.93-.69l.936-.065v-10.688l-8.033-17.767zm15.063-34.277v11.537l8.033 17.847v-29.384zm-.728 14.813l-6.668-14.813h-7.667l11.255 24.892 3.817 8.442.593.04c2.094.132 4.202.372 6.264.711l1.167.192-8.033-17.848z"/><linearGradient id="blkhf" x1="244.15" x2="324.09" y1="4295.68" y2="4215.74" gradientUnits="userSpaceOnUse"><stop offset="0" stop-color="#0693e9"/><stop offset=".01" stop-color="#0693e9"/><stop offset="1" stop-color="#9cc037"/><stop offset="1" stop-color="#9cc037"/></linearGradient></defs><g><g transform="translate(-228 -4218)"><use fill="#fff" xlink:href="#blkha"/></g><g transform="translate(-228 -4218)"><use fill="#fff" xlink:href="#blkhb"/></g><g transform="translate(-228 -4218)"><use fill="#fff" xlink:href="#blkhc"/></g><g transform="translate(-228 -4218)"><use fill="#fff" xlink:href="#blkhd"/></g><g transform="translate(-228 -4218)"><use fill="url(#blkhf)" xlink:href="#blkhe"/></g><g transform="translate(-228 -4218)"><use fill="#fff" xlink:href="#blkhg"/></g></g></svg>