<svg xmlns="http://www.w3.org/2000/svg" xmlns:xlink="http://www.w3.org/1999/xlink" width="62" height="38" viewBox="0 0 93 57"><defs><path id="rdeca" d="M522.594 3302.468v-42.376c0-2.064-1.718-3.744-3.827-3.744h-65.219c-2.109 0-3.834 1.68-3.834 3.744v42.376h-7.813v3.466l.596.316c.15.083 3.925 2.049 14.653 2.049h58.4c10.728 0 14.502-1.966 14.653-2.05l.595-.315v-3.466z"/><path id="rdecb" d="M515.55 3308.576h-58.4c-10.863 0-14.631-1.998-14.786-2.083l-.739-.393v-3.908h7.812v-42.1c0-2.217 1.845-4.021 4.112-4.021h65.218c2.263 0 4.104 1.804 4.104 4.02v42.1h8.204v3.909l-.742.395c-.152.083-3.921 2.08-14.783 2.08zm-73.372-2.808l.448.238c.04.022 3.802 2.017 14.524 2.017h58.4c10.722 0 14.483-1.995 14.52-2.015l.452-.24v-3.022h-8.204v-42.654c0-1.912-1.593-3.468-3.551-3.468h-65.218c-1.962 0-3.559 1.556-3.559 3.468v42.654h-7.812z"/><path id="rdecc" d="M522.594 3302.468v-42.376c0-2.064-1.718-3.744-3.827-3.744h-65.219c-2.109 0-3.834 1.68-3.834 3.744v42.376h-7.812v3.466l.595.316c.151.083 3.925 2.049 14.653 2.049h58.4c10.728 0 14.502-1.966 14.653-2.05l.595-.315v-3.466z"/><path id="rdecd" d="M522.594 3302.468v-42.376c0-2.064-1.717-3.744-3.827-3.744h-65.22c-2.108 0-3.833 1.68-3.833 3.744v42.376h-7.812v3.466l.595.316c.15.083 3.925 2.049 14.653 2.049h58.4c10.728 0 14.502-1.966 14.653-2.05l.595-.315v-3.466z"/><path id="rdece" d="M486.328 3260.19a.518.518 0 0 0 .519-.505.513.513 0 0 0-.519-.505.512.512 0 0 0-.52.505c0 .271.232.505.52.505zm31.952 39.93v-39.16h-64.56v39.16zm-26.71 5.212c1.334 0 1.62-.439 1.68-.603h34.579c-1.8.526-5.596 1.31-12.278 1.31H457.15c-6.682 0-10.488-.784-12.28-1.31h33.871c.06.164.346.603 1.68.603zm-39.596-45.239c0-.822.708-1.486 1.575-1.486h65.218c.867 0 1.566.664 1.566 1.486v42.375h-68.359zm1.575-3.746c-2.111 0-3.835 1.68-3.835 3.746v42.375h-7.812v3.466l.594.316c.151.083 3.926 2.049 14.654 2.049h58.401c10.726 0 14.501-1.966 14.652-2.049l.596-.316v-3.466h-8.206v-42.375c0-2.066-1.717-3.746-3.826-3.746z"/><path id="rdecg" d="M532.522 3273.92a.577.577 0 0 0 .577-.576v-2.307a.577.577 0 0 0-.577-.576h-.288v-3.05c0-1.654-1.355-2.998-3.027-2.998h-25.655c-1.672 0-3.027 1.344-3.027 2.998v39.549c0 1.655 1.355 2.998 3.027 2.998h25.655c1.672 0 3.027-1.343 3.027-2.998v-25.926h.288a.577.577 0 0 0 .577-.576v-3.655a.576.576 0 0 0-.577-.576h-.288v-2.307z"/><path id="rdech" d="M529.207 3310.234h-25.655c-1.821 0-3.303-1.469-3.303-3.274v-39.549c0-1.806 1.482-3.275 3.303-3.275h25.655c1.822 0 3.303 1.47 3.303 3.275l.012 2.773c.47 0 .853.383.853.854v2.305c0 .47-.383.853-.853.853h-.012l.012 1.754c.47 0 .853.382.853.852v3.656c0 .47-.383.852-.853.852h-.012v25.65c0 1.805-1.481 3.274-3.303 3.274zm-25.655-45.544c-1.516 0-2.75 1.22-2.75 2.721v39.55c0 1.5 1.234 2.72 2.75 2.72h25.655c1.517 0 2.75-1.22 2.75-2.72v-26.204h.565a.3.3 0 0 0 .3-.299v-3.656a.3.3 0 0 0-.3-.299h-.565v-2.86h.565a.3.3 0 0 0 .3-.3v-2.305a.301.301 0 0 0-.3-.3h-.565v-3.327c0-1.5-1.233-2.72-2.75-2.72z"/><path id="rdeci" d="M515.804 3307.653a1.44 1.44 0 0 0 1.44-1.443 1.44 1.44 0 0 0-1.44-1.44 1.44 1.44 0 1 0 0 2.883zm.578-38.628a.864.864 0 1 0-.867-.864c0 .481.388.864.867.864zm13.258 35.465v-34.61h-26.52v34.61zm-27.386-37.079c0-.698.583-1.268 1.297-1.268h25.657c.714 0 1.297.57 1.297 1.268v39.549c0 .698-.583 1.268-1.297 1.268h-25.657c-.714 0-1.297-.57-1.297-1.268zm1.297-2.998c-1.67 0-3.026 1.344-3.026 2.998v39.549c0 1.656 1.356 2.998 3.026 2.998h25.657c1.67 0 3.026-1.342 3.026-2.998v-25.926h.287c.32 0 .578-.258.578-.576v-3.655a.577.577 0 0 0-.578-.576h-.287v-2.307h.287c.32 0 .578-.258.578-.576v-2.307a.575.575 0 0 0-.578-.575h-.287v-3.051c0-1.654-1.356-2.998-3.026-2.998z"/><path id="rdeck" d="M506.588 3287.834h-.102v-2.452a2.738 2.738 0 0 0-2.735-2.733h-9.766a2.739 2.739 0 0 0-2.736 2.733v1.723h-.034a.205.205 0 0 0-.203.204v.989c0 .111.092.203.203.203h.034v2.082h-.034a.204.204 0 0 0-.203.203v1.89c0 .111.092.203.203.203h.034v.646h-.034a.205.205 0 0 0-.203.204v1.889c0 .112.092.203.203.203h.034v13.894a2.738 2.738 0 0 0 2.736 2.732h9.766a2.738 2.738 0 0 0 2.735-2.732v-19.585h.102a.137.137 0 0 0 .136-.136v-2.025a.136.136 0 0 0-.136-.135z"/><path id="rdecl" d="M503.751 3312.724h-9.765a3.014 3.014 0 0 1-3.013-3.01v-13.688a.467.467 0 0 1-.237-.408v-1.888c0-.177.095-.331.237-.415v-.231a.467.467 0 0 1-.237-.408v-1.89c0-.176.095-.33.237-.414v-1.666a.469.469 0 0 1-.237-.408v-.99c0-.175.095-.328.237-.412v-1.513a3.015 3.015 0 0 1 3.013-3.01h9.765a3.015 3.015 0 0 1 3.012 3.01v2.214a.41.41 0 0 1 .237.372v2.025a.413.413 0 0 1-.237.373v19.348a3.014 3.014 0 0 1-3.012 3.009zm-12.462-17.18h.203l.034.277v13.894a2.461 2.461 0 0 0 2.46 2.456h9.765a2.461 2.461 0 0 0 2.46-2.456v-19.862h.236v-1.743h-.237v-2.727a2.46 2.46 0 0 0-2.459-2.457h-9.765a2.46 2.46 0 0 0-2.46 2.457v2h-.237v.842h.203l.034.276v2.358h-.237v1.744h.203l.034.276v.923h-.237z"/><path id="rdecm" d="M498.924 3308.554a.826.826 0 1 1-.002 1.652.826.826 0 0 1 .002-1.652zm0 2.328c.828 0 1.502-.674 1.502-1.501 0-.83-.674-1.504-1.502-1.504-.829 0-1.503.674-1.503 1.504 0 .827.674 1.501 1.503 1.501zm6.036-3.512v-20.32h-12.19v20.32zm-8.463-21.922a.257.257 0 0 0 .258-.258.26.26 0 0 0-.518 0 .26.26 0 0 0 .26.258zm5.003-.088v-.34h-4.23v.34zm-9.235.022c0-.945.773-1.716 1.721-1.716h9.765a1.72 1.72 0 0 1 1.719 1.716v24.333a1.72 1.72 0 0 1-1.719 1.716h-9.765a1.722 1.722 0 0 1-1.721-1.716zm1.721-2.733a2.739 2.739 0 0 0-2.736 2.733v1.724h-.034a.203.203 0 0 0-.203.203v.989c0 .112.091.203.203.203h.034v2.082h-.034a.204.204 0 0 0-.203.204v1.889c0 .111.091.203.203.203h.034v.646h-.034a.204.204 0 0 0-.203.203v1.89c0 .112.091.203.203.203h.034v13.894a2.738 2.738 0 0 0 2.736 2.732h9.765a2.738 2.738 0 0 0 2.736-2.732v-19.584h.102a.136.136 0 0 0 .135-.137v-2.026a.136.136 0 0 0-.135-.135h-.102v-2.451a2.739 2.739 0 0 0-2.736-2.733z"/><linearGradient id="rdecf" x1="454.24" x2="518.27" y1="3318.27" y2="3254.24" gradientUnits="userSpaceOnUse"><stop offset="0" stop-color="#0693e9"/><stop offset=".01" stop-color="#0693e9"/><stop offset="1" stop-color="#9cc037"/><stop offset="1" stop-color="#9cc037"/></linearGradient><linearGradient id="rdecj" x1="497.95" x2="534.81" y1="3305.62" y2="3268.75" gradientUnits="userSpaceOnUse"><stop offset="0" stop-color="#0693e9"/><stop offset=".01" stop-color="#0693e9"/><stop offset="1" stop-color="#9cc037"/><stop offset="1" stop-color="#9cc037"/></linearGradient><linearGradient id="rdecn" x1="488.41" x2="509.32" y1="3308" y2="3287.09" gradientUnits="userSpaceOnUse"><stop offset="0" stop-color="#0693e9"/><stop offset=".01" stop-color="#0693e9"/><stop offset="1" stop-color="#9cc037"/><stop offset="1" stop-color="#9cc037"/></linearGradient></defs><g><g transform="translate(-441 -3256)"><use fill="#fff" xlink:href="#rdeca"/></g><g transform="translate(-441 -3256)"><use fill="#fff" xlink:href="#rdecb"/></g><g transform="translate(-441 -3256)"><use fill="#fff" xlink:href="#rdecc"/></g><g transform="translate(-441 -3256)"><use fill="#fff" xlink:href="#rdecd"/></g><g transform="translate(-441 -3256)"><use fill="url(#rdecf)" xlink:href="#rdece"/></g><g transform="translate(-441 -3256)"><use fill="#fff" xlink:href="#rdecg"/></g><g transform="translate(-441 -3256)"><use fill="#fff" xlink:href="#rdech"/></g><g transform="translate(-441 -3256)"><use fill="url(#rdecj)" xlink:href="#rdeci"/></g><g transform="translate(-441 -3256)"><use fill="#fff" xlink:href="#rdeck"/></g><g transform="translate(-441 -3256)"><use fill="#fff" xlink:href="#rdecl"/></g><g transform="translate(-441 -3256)"><use fill="url(#rdecn)" xlink:href="#rdecm"/></g></g></svg>