<svg xmlns="http://www.w3.org/2000/svg" xmlns:xlink="http://www.w3.org/1999/xlink" width="49.33" height="41.33" viewBox="0 0 74 62"><defs><path id="lmpja" d="M1092.038 4273.986c-.437-.435-.658-.941-.658-1.524l-.056-17.521a2.103 2.103 0 0 1 .623-1.552 2.114 2.114 0 0 1 1.549-.633l29.911-.099c.582 0 1.09.216 1.528.649.437.434.656.942.658 1.521l.055 17.523a2.09 2.09 0 0 1-.622 1.552c-.419.422-.933.631-1.547.631l-29.912.101h-.012c-.578 0-1.083-.217-1.517-.648zm38.344-27.425l-43.878.118c-1.194.005-2.222.44-3.082 1.305-.86.867-1.287 1.897-1.286 3.09l-.003 6.075c1.809-.006 3.359.635 4.655 1.922 1.292 1.286 1.945 2.832 1.951 4.639.005 1.808-.635 3.357-1.921 4.653-1.287 1.295-2.833 1.945-4.641 1.953l.019 6.098c.004 1.194.44 2.221 1.306 3.081.867.86 1.896 1.289 3.089 1.284l43.926-.169c1.195-.001 2.221-.436 3.083-1.303.86-.866 1.287-1.895 1.284-3.091l-.045-6.074c-1.808.008-3.36-.635-4.652-1.919-1.295-1.287-1.948-2.835-1.953-4.642-.006-1.807.635-3.359 1.922-4.653 1.286-1.295 2.833-1.945 4.64-1.951l-.019-6.051c-.005-1.193-.438-2.219-1.304-3.08-.865-.858-1.89-1.285-3.077-1.285h-.014z"/><path id="lmpjc" d="M1094.619 4256.043l.051 15.299 27.685-.091-.05-15.297z"/><path id="lmpje" d="M1087.992 4271.162l-15.947-7.256a2.096 2.096 0 0 1-1.15-1.214 2.102 2.102 0 0 1 .068-1.671l12.388-27.228c.242-.529.649-.901 1.229-1.117.574-.216 1.128-.203 1.656.038l15.947 7.257c.56.253.944.657 1.153 1.214.208.555.183 1.112-.071 1.669l-12.388 27.228c-.24.529-.649.903-1.226 1.118a2.273 2.273 0 0 1-.801.154c-.293 0-.579-.064-.858-.192zm-4.815-48.522c-1.145.428-1.963 1.185-2.456 2.271l-18.197 39.93c-.493 1.085-.527 2.202-.099 3.345.429 1.143 1.187 1.961 2.272 2.456l5.519 2.537c.749-1.644 1.98-2.787 3.689-3.427 1.708-.639 3.385-.587 5.031.161 1.645.748 2.786 1.977 3.426 3.687.641 1.708.588 3.385-.161 5.031l5.551 2.526c1.088.496 2.201.528 3.344.099 1.145-.428 1.963-1.185 2.457-2.271l18.17-39.993c.495-1.086.529-2.2.101-3.345-.429-1.143-1.187-1.961-2.275-2.456l-5.538-2.492c-.748 1.645-1.979 2.786-3.687 3.426-1.709.641-3.386.587-5.031-.161-1.644-.749-2.787-1.979-3.427-3.689-.641-1.708-.586-3.385.161-5.029l-5.506-2.507a4.242 4.242 0 0 0-1.772-.397c-.518 0-1.042.099-1.572.298z"/><path id="lmpjg" d="M1111.823 4235.646c-.428-1.142-1.186-1.96-2.274-2.455l-5.538-2.493c-.748 1.644-1.979 2.787-3.686 3.427-1.71.64-3.388.586-5.032-.162-1.645-.748-2.788-1.978-3.428-3.688-.64-1.709-.585-3.386.162-5.03l-5.506-2.507c-1.087-.493-2.202-.528-3.345-.099-1.145.43-1.963 1.186-2.456 2.272l-18.196 39.93c-.493 1.084-.527 2.2-.098 3.344.428 1.143 1.185 1.961 2.271 2.456l5.52 2.538c.748-1.645 1.978-2.788 3.688-3.428 1.707-.638 3.385-.586 5.03.163 1.646.749 2.787 1.976 3.427 3.686.641 1.708.587 3.385-.16 5.031l5.55 2.527c1.087.494 2.201.526 3.344.097 1.145-.427 1.963-1.183 2.456-2.27l18.17-39.992c.496-1.087.53-2.2.101-3.347zm-8.559 7.209l-12.387 27.227c-.24.53-.65.902-1.226 1.118-.576.217-1.13.205-1.66-.037l-15.947-7.256a2.106 2.106 0 0 1-1.15-1.216c-.208-.555-.185-1.11.07-1.67l12.386-27.229c.242-.528.65-.9 1.23-1.117.575-.216 1.127-.203 1.655.037l15.95 7.258c.558.253.942.657 1.15 1.214.208.556.184 1.112-.07 1.67z"/><path id="lmpjh" d="M1074.421 4261.37l13.923 6.335 11.466-25.2-13.922-6.335z"/><path id="lmpjj" d="M1074.421 4261.37l13.923 6.335 11.466-25.2-13.923-6.335-11.466 25.2z"/><path id="lmpjk" d="M1087.992 4271.162l-15.947-7.256a2.096 2.096 0 0 1-1.15-1.214 2.102 2.102 0 0 1 .068-1.671l12.388-27.228c.242-.529.649-.901 1.229-1.117.574-.216 1.128-.203 1.656.038l15.949 7.258a2.1 2.1 0 0 1 1.151 1.213c.208.555.183 1.112-.071 1.669l-12.388 27.228c-.24.531-.649.903-1.226 1.118a2.273 2.273 0 0 1-.801.154c-.293 0-.579-.064-.858-.192zm-4.815-48.524c-1.145.43-1.963 1.189-2.456 2.273l-18.197 39.93c-.493 1.085-.526 2.202-.099 3.345.429 1.143 1.187 1.961 2.272 2.456l5.519 2.537c.749-1.646 1.98-2.787 3.689-3.427 1.708-.639 3.385-.587 5.031.161 1.645.748 2.786 1.977 3.426 3.687.641 1.71.588 3.385-.161 5.031l5.551 2.526c1.088.496 2.201.528 3.344.099 1.145-.428 1.963-1.185 2.457-2.271l18.17-39.993c.495-1.086.529-2.2.101-3.345-.429-1.143-1.187-1.961-2.275-2.456l-5.538-2.492c-.748 1.645-1.979 2.786-3.685 3.426-1.711.641-3.388.587-5.033-.161-1.644-.749-2.787-1.979-3.427-3.689-.641-1.708-.586-3.385.161-5.029l-5.506-2.507a4.25 4.25 0 0 0-1.774-.397c-.517 0-1.04.098-1.57.296z"/><linearGradient id="lmpjb" x1="1082.15" x2="1134.84" y1="4263.74" y2="4263.57" gradientUnits="userSpaceOnUse"><stop offset="0" stop-color="#0693e9"/><stop offset=".01" stop-color="#0693e9"/><stop offset="1" stop-color="#9cc037"/><stop offset="1" stop-color="#9cc037"/></linearGradient><linearGradient id="lmpjd" x1="1094.64" x2="1122.33" y1="4263.69" y2="4263.6" gradientUnits="userSpaceOnUse"><stop offset="0" stop-color="#0693e9"/><stop offset=".01" stop-color="#0693e9"/><stop offset="1" stop-color="#9cc037"/><stop offset="1" stop-color="#9cc037"/></linearGradient><linearGradient id="lmpjf" x1="1066.37" x2="1107.92" y1="4272.72" y2="4231.16" gradientUnits="userSpaceOnUse"><stop offset="0" stop-color="#0693e9"/><stop offset=".01" stop-color="#0693e9"/><stop offset="1" stop-color="#9cc037"/><stop offset="1" stop-color="#9cc037"/></linearGradient><linearGradient id="lmpji" x1="1076.05" x2="1098.18" y1="4263" y2="4240.87" gradientUnits="userSpaceOnUse"><stop offset="0" stop-color="#0693e9"/><stop offset=".01" stop-color="#0693e9"/><stop offset="1" stop-color="#9cc037"/><stop offset="1" stop-color="#9cc037"/></linearGradient><linearGradient id="lmpjl" x1="1076.22" x2="1098.04" y1="4275.91" y2="4227.95" gradientUnits="userSpaceOnUse"><stop offset="0" stop-color="#0693e9"/><stop offset=".01" stop-color="#0693e9"/><stop offset="1" stop-color="#9cc037"/><stop offset="1" stop-color="#9cc037"/></linearGradient><linearGradient id="lmpjm" x1="1081.38" x2="1092.85" y1="4264.54" y2="4239.34" gradientUnits="userSpaceOnUse"><stop offset="0" stop-color="#0693e9"/><stop offset=".01" stop-color="#0693e9"/><stop offset="1" stop-color="#9cc037"/><stop offset="1" stop-color="#9cc037"/></linearGradient></defs><g><g transform="translate(-1061 -4221)"><use fill="url(#lmpjb)" xlink:href="#lmpja"/></g><g transform="translate(-1061 -4221)"><use fill="url(#lmpjd)" xlink:href="#lmpjc"/></g><g transform="translate(-1061 -4221)"><use fill="url(#lmpjf)" xlink:href="#lmpje"/></g><g transform="translate(-1061 -4221)"><use fill="#fff" fill-opacity="0" stroke="#fff" stroke-miterlimit="50" xlink:href="#lmpjg"/></g><g transform="translate(-1061 -4221)"><use fill="url(#lmpji)" xlink:href="#lmpjh"/></g><g transform="translate(-1061 -4221)"><use fill="#fff" fill-opacity="0" stroke="#fff" stroke-miterlimit="50" xlink:href="#lmpjj"/></g><g transform="translate(-1061 -4221)"><use fill="url(#lmpjl)" xlink:href="#lmpjk"/></g><g transform="translate(-1061 -4221)"><use fill="url(#lmpjm)" xlink:href="#lmpjh"/></g></g></svg>