<svg xmlns="http://www.w3.org/2000/svg" xmlns:xlink="http://www.w3.org/1999/xlink" width="24.67" height="21.33" viewBox="0 0 37 32"><defs><path id="v5cza" d="M1308.188 1479.248h-9.064a.797.797 0 0 0-.795.8v9.283h-2.645l-5.194 4.556a.538.538 0 0 1-.835-.45v-4.106h-3.928a.403.403 0 0 1-.402-.405v-16.95c0-.224.181-.404.402-.404h22.059c.22 0 .402.18.402.405zm9.157 23.165a.534.534 0 0 1-.501-.02l-.068-.05-5.166-4.525-12.515-.013.009-17.79 22.896.012v17.779l-.423.012h-3.908v4.085a.559.559 0 0 1-.283.49zm-17.42-5.437l11.997.012 4.918 4.309v-4.31h4.33v-16.131l-21.237-.011zm4.906-6.086a2.148 2.148 0 0 1-2.143-2.152c0-1.19.959-2.153 2.143-2.153 1.184 0 2.144.963 2.144 2.153 0 1.188-.96 2.152-2.144 2.152zm5.627 0a2.148 2.148 0 0 1-2.144-2.152c0-1.19.96-2.153 2.144-2.153 1.185 0 2.144.963 2.144 2.153a2.148 2.148 0 0 1-2.144 2.152zm5.627 0a2.148 2.148 0 0 1-2.144-2.152c0-1.19.96-2.153 2.144-2.153 1.185 0 2.145.963 2.145 2.153 0 1.188-.96 2.152-2.145 2.152z"/></defs><g><g transform="translate(-1285 -1471)"><use fill="#fff" xlink:href="#v5cza"/></g></g></svg>