<svg xmlns="http://www.w3.org/2000/svg" xmlns:xlink="http://www.w3.org/1999/xlink" width="82" height="81.33" viewBox="0 0 123 122"><defs><path id="q6d5a" d="M1625.967 2475h-74.81c-13.03 0-23.594-10.564-23.594-23.596v-74.808c0-13.032 10.564-23.596 23.595-23.596h74.809c13.03 0 23.596 10.564 23.596 23.596v74.808c0 13.032-10.565 23.596-23.596 23.596z"/><path id="q6d5b" d="M1529.563 2451.404v-74.808c0-11.909 9.687-21.596 21.595-21.596h74.809c11.908 0 21.596 9.687 21.596 21.596v74.808c0 11.909-9.688 21.596-21.596 21.596h-74.809c-11.908 0-21.595-9.687-21.595-21.596zm21.595-98.404c-13.032 0-23.595 10.564-23.595 23.596v74.808c0 13.032 10.563 23.596 23.595 23.596h74.809c13.031 0 23.596-10.564 23.596-23.596v-74.808c0-13.032-10.565-23.596-23.596-23.596z"/><path id="q6d5d" d="M1579.466 2434.571c-.696 0-1.302.261-1.825.78-.521.524-.781 1.129-.781 1.825v15.644c0 .695.26 1.305.781 1.825.523.519 1.129.781 1.825.781h15.644c.695 0 1.304-.259 1.825-.781.523-.52.781-1.13.781-1.825v-15.644c0-.696-.258-1.301-.781-1.825-.521-.523-1.13-.78-1.825-.78z"/><path id="q6d5f" d="M1558.481 2389.336a2.58 2.58 0 0 0-.36 1.828c.109.648.446 1.19 1.013 1.629l10.686 8.144c.567.348 1.11.524 1.629.524.785 0 1.457-.348 2.025-1.042 3.125-3.911 5.453-6.411 6.972-7.496 1.867-1.263 4.215-1.892 7.038-1.892 2.649 0 4.985.695 7.008 2.086 2.021 1.391 3.028 2.997 3.028 4.824 0 2.039-.542 3.693-1.629 4.953-1.085 1.258-2.91 2.477-5.477 3.649-3.387 1.519-6.496 3.88-9.315 7.07-2.828 3.195-4.239 6.594-4.239 10.202v2.935c0 .824.227 1.641.684 2.441.456.806 1.012 1.207 1.664 1.207h15.641c.695 0 1.303-.336 1.824-1.011.522-.672.785-1.379.785-2.117 0-1.083.598-2.54 1.789-4.368 1.194-1.824 2.684-3.234 4.465-4.233a130.159 130.159 0 0 0 3.976-2.318c.956-.586 2.206-1.531 3.749-2.831 1.54-1.305 2.735-2.598 3.583-3.88.848-1.281 1.609-2.945 2.282-4.988.676-2.043 1.011-4.238 1.011-6.581 0-3.606-.891-7.052-2.672-10.329-1.782-3.284-4.082-6.051-6.911-8.313-2.823-2.257-5.996-4.062-9.515-5.41-3.52-1.346-7.016-2.019-10.492-2.019-13.211 0-23.289 5.778-30.242 17.336z"/><linearGradient id="q6d5c" x1="1527.56" x2="1649.56" y1="2414" y2="2414" gradientUnits="userSpaceOnUse"><stop offset="0" stop-color="#0693e9"/><stop offset=".01" stop-color="#0693e9"/><stop offset="1" stop-color="#9cc037"/><stop offset="1" stop-color="#9cc037"/></linearGradient><linearGradient id="q6d5e" x1="1577.64" x2="1596.93" y1="2454.64" y2="2435.35" gradientUnits="userSpaceOnUse"><stop offset="0" stop-color="#0693e9"/><stop offset=".01" stop-color="#0693e9"/><stop offset="1" stop-color="#9cc037"/><stop offset="1" stop-color="#9cc037"/></linearGradient><linearGradient id="q6d5g" x1="1567.12" x2="1607.8" y1="2418.95" y2="2378.27" gradientUnits="userSpaceOnUse"><stop offset="0" stop-color="#0693e9"/><stop offset=".01" stop-color="#0693e9"/><stop offset="1" stop-color="#9cc037"/><stop offset="1" stop-color="#9cc037"/></linearGradient></defs><g><g transform="translate(-1527 -2353)"><use fill="#fff" xlink:href="#q6d5a"/></g><g transform="translate(-1527 -2353)"><use fill="url(#q6d5c)" xlink:href="#q6d5b"/></g><g transform="translate(-1527 -2353)"><use fill="url(#q6d5e)" xlink:href="#q6d5d"/></g><g transform="translate(-1527 -2353)"><use fill="url(#q6d5g)" xlink:href="#q6d5f"/></g></g></svg>