<svg xmlns="http://www.w3.org/2000/svg" xmlns:xlink="http://www.w3.org/1999/xlink" width="54" height="54"><defs><path id="a" d="M18 19H0a9 9 0 0 1 18 0zM9.293 8.8C6.922 8.8 5 6.83 5 4.4 5 1.97 6.922 0 9.293 0c2.37 0 4.292 1.97 4.292 4.4 0 2.43-1.922 4.4-4.292 4.4z"/><path id="c" d="M18 19H0a9 9 0 0 1 18 0zM9.293 8.8C6.922 8.8 5 6.83 5 4.4 5 1.97 6.922 0 9.293 0c2.37 0 4.292 1.97 4.292 4.4 0 2.43-1.922 4.4-4.292 4.4z"/></defs><g transform="translate(2.347 2.33)" fill="none" fill-rule="evenodd"><circle cx="25" cy="25" r="25" fill="#fff" stroke="#3a5ba2" stroke-width="1.471"/><g transform="translate(6 12)"><g transform="translate(0 4)"><mask id="b" fill="#fff"><use xlink:href="#a" width="100%" height="100%"/></mask><use xlink:href="#a" width="100%" height="100%" fill="#fff" stroke="#3a6ad1" stroke-width=".75" stroke-linecap="round" stroke-linejoin="round"/><g mask="url(#b)" stroke="#3a6ad1" stroke-width=".75" stroke-linecap="square"><path d="M9.32-52.94L-38.941-4.675m69.475-27.051L-17.73 16.537m28.111-68.416L-37.882-3.616m69.477-27.049l-48.263 48.262m28.11-68.415L-36.821-2.555m69.476-27.05l-48.263 48.263m28.111-68.415L-35.76-1.494m69.476-27.05l-48.263 48.263m28.11-68.416L-34.7-.434m69.477-27.049l-48.263 48.262m28.11-68.415L-33.639.627m69.476-27.05L-12.426 21.84m28.111-68.415L-32.578 1.688m69.476-27.05L-11.365 22.9m28.11-68.415L-31.518 2.748m69.477-27.05l-48.263 48.263m28.11-68.415L-30.457 3.809M39.02-23.24L-9.245 25.021m28.112-68.414L-29.396 4.87M40.08-22.18L-8.183 26.083m28.11-68.416L-28.336 5.93M41.14-21.12L-7.121 27.143m28.109-68.415L-27.275 6.99m69.476-27.049L-6.062 28.204m28.111-68.415L-26.214 8.052m69.476-27.05L-5.001 29.265M23.11-39.15L-25.155 9.111m69.477-27.049L-3.94 30.325M24.17-38.09l-48.263 48.263m69.476-27.05L-2.88 31.386M25.23-37.03l-48.262 48.264m69.476-27.05L-1.82 32.447m28.111-68.416l-48.263 48.263m69.476-27.05L-.758 33.507m28.11-68.415l-48.263 48.263m69.476-27.05L.302 34.568m28.111-68.415L-19.85 14.415m69.476-27.049L1.363 35.629m28.11-68.416L-18.79 15.476m69.476-27.05L2.423 36.69"/></g></g><g transform="translate(20 4)"><mask id="d" fill="#fff"><use xlink:href="#c" width="100%" height="100%"/></mask><use xlink:href="#c" width="100%" height="100%" fill="#fff" stroke="#3a6ad1" stroke-width=".75" stroke-linecap="round" stroke-linejoin="round"/><g mask="url(#d)" stroke="#3a6ad1" stroke-width=".75" stroke-linecap="square"><path d="M9.32-52.94L-38.941-4.675m69.475-27.051L-17.73 16.537m28.111-68.416L-37.882-3.616m69.477-27.049l-48.263 48.262m28.11-68.415L-36.821-2.555m69.476-27.05l-48.263 48.263m28.111-68.415L-35.76-1.494m69.476-27.05l-48.263 48.263m28.11-68.416L-34.7-.434m69.477-27.049l-48.263 48.262m28.11-68.415L-33.639.627m69.476-27.05L-12.426 21.84m28.111-68.415L-32.578 1.688m69.476-27.05L-11.365 22.9m28.11-68.415L-31.518 2.748m69.477-27.05l-48.263 48.263m28.11-68.415L-30.457 3.809M39.02-23.24L-9.245 25.021m28.112-68.414L-29.396 4.87M40.08-22.18L-8.183 26.083m28.11-68.416L-28.336 5.93M41.14-21.12L-7.121 27.143m28.109-68.415L-27.275 6.99m69.476-27.049L-6.062 28.204m28.111-68.415L-26.214 8.052m69.476-27.05L-5.001 29.265M23.11-39.15L-25.155 9.111m69.477-27.049L-3.94 30.325M24.17-38.09l-48.263 48.263m69.476-27.05L-2.88 31.386M25.23-37.03l-48.262 48.264m69.476-27.05L-1.82 32.447m28.111-68.416l-48.263 48.263m69.476-27.05L-.758 33.507m28.11-68.415l-48.263 48.263m69.476-27.05L.302 34.568m28.111-68.415L-19.85 14.415m69.476-27.049L1.363 35.629m28.11-68.416L-18.79 15.476m69.476-27.05L2.423 36.69"/></g></g><path d="M30.756 25.2c0-6.627-5.241-12-11.707-12-6.466 0-11.708 5.373-11.708 12z" fill="#fff" stroke="#3a5ba2" stroke-width="1.5" stroke-linecap="round" stroke-linejoin="round"/><ellipse cx="19.049" cy="6.2" rx="6.049" ry="6.2" fill="#fff" stroke="#3a5ba2" stroke-width="1.5"/></g></g></svg>