<svg xmlns="http://www.w3.org/2000/svg" xmlns:xlink="http://www.w3.org/1999/xlink" width="19.33" height="22" viewBox="0 0 29 33"><defs><path id="8zvea" d="M287.67 1340.534c1.404 1.81 2.093 3.66 2.107 5.658v.19l-.012 2.657a.593.593 0 0 1-.593.59h-27.68a.593.593 0 0 1-.593-.59s-.01-2.532-.012-2.653a6.468 6.468 0 0 1 0-.197c.014-1.994.703-3.844 2.105-5.652 1.171-1.491 3.092-2.268 4.95-3.018.815-.33 1.658-.671 2.416-1.064a.595.595 0 0 1 .856.409c.757 3.754 1.496 6.67 4.118 10.02.001 0 .001.002.002 0 2.24-2.861 3.105-5.406 3.782-8.426a7.106 7.106 0 0 1-1.466.438 2.166 2.166 0 0 1-.188.342c-.337.492-.867.786-1.418.786h-2.005a1.783 1.783 0 0 1-1.78-1.781v-.698c0-.304.082-.585.216-.836a4.95 4.95 0 0 0-.138-.085c-1.472-.87-2.563-2.51-2.918-4.384-.362-1.98-.308-3.898-.25-5.93.015-.56.031-1.125.038-1.697.056-1.59.966-3.136 2.436-4.152a.982.982 0 0 1 .064-.038c1.26-.723 2.63-1.105 3.964-1.105 1.428 0 2.883.432 4.21 1.25.02.012.04.025.057.038l.211.166.034.029.134.115c.041.036.08.07.116.104l.098.093.031.029.17.176.038.04c.043.047.08.087.115.128.85.89 1.323 2.213 1.318 3.704.002.054.02.62.03 1.414.001.023.002.044.001.062.016 1.388.006 3.43-.156 4.68a11.4 11.4 0 0 1-.158.908 11.703 11.703 0 0 1-.085.383c-.29 1.159-.88 2.244-1.662 3.056-.049.05-.097.099-.147.147-.05.048-.1.097-.152.143a5.21 5.21 0 0 1-1.605.998 5.946 5.946 0 0 1-.346.119.608.608 0 0 1-.209.053c.043.169.065.34.073.5 1.822-.448 2.916-1.618 3.53-2.573.828-1.288 1.322-2.986 1.391-4.785a.593.593 0 0 1 .572-.57c.364-.013.741-.237.741-.591v-3.74c0-.36-.395-.587-.762-.592a.595.595 0 0 1-.582-.528c-.35-3.168-3.353-5.557-6.984-5.557-3.632 0-6.635 2.39-6.985 5.558a.596.596 0 0 1-.584.529c-.367.004-.762.232-.762.592v3.74c0 .366.403.594.777.594h.267a.593.593 0 1 1 0 1.187h-.267c-1.083 0-1.965-.8-1.965-1.781v-3.74c0-.823.593-1.503 1.421-1.713.641-3.54 4.035-6.153 8.098-6.153 4.063 0 7.457 2.614 8.098 6.153.826.21 1.418.89 1.418 1.71v3.74c0 .788-.558 1.455-1.343 1.69-.105 1.386-.474 3.226-1.55 4.899a7.664 7.664 0 0 1-.959 1.207c.47.209.997.44 1.365.589 1.858.75 3.78 1.527 4.948 3.016zm-15.377-19.08c-1.147.804-1.857 1.993-1.899 3.187-.003.219-.01.44-.015.662.437-.28 1.041-.804 1.202-1.153a.593.593 0 0 1 .906-.216c3.508 2.76 6.155 1.264 7.13.492a.594.594 0 0 1 .585-.087c.312.122.572.258.796.4-.079-1.003-.423-1.858-.99-2.454l-.264-.281-.037-.037-.279-.25-.037-.032-.03-.024-.115-.09c-1.136-.697-2.37-1.066-3.575-1.066-1.129 0-2.296.329-3.378.95zm-1.707 10.568c.288 1.518 1.191 2.89 2.355 3.58.146.086.323.196.46.283.198-.077.412-.123.638-.123h2.005c.345 0 .67.114.948.328.17-.032.392-.077.54-.112a4.56 4.56 0 0 0 .31-.105c.443-.172.86-.432 1.237-.771.041-.037.081-.076.12-.114.041-.04.08-.078.118-.118.64-.665 1.125-1.561 1.366-2.523.014-.055.028-.11.04-.164l.034-.164c.046-.217.084-.42.115-.621l.03-.205c.155-1.206.16-3.282.143-4.644-.028-.15-.174-.586-.982-.977-1.172.814-4.117 2.253-7.807-.331-.506.587-1.302 1.19-1.908 1.376-.052 1.866-.085 3.638.238 5.405zm6.015 6.039c.004-.172.016-.63-.088-.747a.567.567 0 0 1-.052-.07c-.089-.134-.233-.295-.417-.295h-2.005a.603.603 0 0 0-.594.596v.698c0 .322.272.594.594.594h2.005c.235 0 .394-.206.437-.27a.981.981 0 0 0 .12-.25 3.169 3.169 0 0 1 0-.256zm11.99 8.14c-.013-1.727-.62-3.342-1.857-4.937-.972-1.237-2.665-1.921-4.457-2.646-.6-.243-1.217-.492-1.815-.767-.726 3.463-1.6 6.454-4.193 9.765-.242.309-.513.61-.936.61-.422 0-.694-.301-.935-.61-2.593-3.311-3.467-6.302-4.194-9.765-.598.276-1.215.525-1.818.768-1.792.725-3.485 1.409-4.458 2.648-1.235 1.592-1.842 3.207-1.854 4.933a4.76 4.76 0 0 0 0 .169l.01 2.074h26.496l.01-2.076z"/></defs><g><g transform="translate(-261 -1317)"><use fill="#c6c6c6" xlink:href="#8zvea"/></g></g></svg>