<svg xmlns="http://www.w3.org/2000/svg" xmlns:xlink="http://www.w3.org/1999/xlink" width="13.33" height="16" viewBox="0 0 20 24"><defs><path id="95jba" d="M347.685 2101.213h-4.393a.315.315 0 0 1-.312-.313v-4.392a.314.314 0 1 1 .627 0v4.078h4.079c.172 0 .313.138.313.314a.312.312 0 0 1-.313.313z"/><path id="95jbb" d="M343.274 2117.84h-11.699a1.578 1.578 0 0 1-1.575-1.574v-15.237c0-.871.707-1.575 1.575-1.575h1.488a.314.314 0 1 1 0 .628h-1.488a.947.947 0 0 0-.945.947v15.237c0 .52.424.945.945.945h11.7a.948.948 0 0 0 .946-.945v-1.492a.313.313 0 0 1 .628 0v1.492c0 .867-.704 1.575-1.575 1.575z"/><path id="95jbc" d="M346.424 2114.46h-11.7a1.578 1.578 0 0 1-1.574-1.574v-15.237c0-.868.707-1.575 1.575-1.575h8.568c.175 0 .314.14.314.313a.315.315 0 0 1-.314.318h-8.568a.947.947 0 0 0-.945.944v15.237c0 .52.425.944.945.944h11.699a.946.946 0 0 0 .947-.944V2100.9c0-.176.139-.314.315-.314.172 0 .313.138.313.314v11.986c0 .87-.704 1.575-1.575 1.575z"/><path id="95jbd" d="M347.685 2101.213a.307.307 0 0 1-.225-.095l-4.39-4.51a.312.312 0 0 1 .004-.445.318.318 0 0 1 .446.006l4.39 4.513a.31.31 0 0 1-.007.442.295.295 0 0 1-.218.089z"/></defs><g><g transform="translate(-329 -2095)"><use fill="#0697ed" xlink:href="#95jba"/></g><g transform="translate(-329 -2095)"><use fill="#fff" fill-opacity="0" stroke="#0697ed" stroke-miterlimit="50" stroke-width=".4" xlink:href="#95jba"/></g><g transform="translate(-329 -2095)"><use fill="#0697ed" xlink:href="#95jbb"/></g><g transform="translate(-329 -2095)"><use fill="#fff" fill-opacity="0" stroke="#0697ed" stroke-miterlimit="50" stroke-width=".4" xlink:href="#95jbb"/></g><g transform="translate(-329 -2095)"><use fill="#0697ed" xlink:href="#95jbc"/></g><g transform="translate(-329 -2095)"><use fill="#fff" fill-opacity="0" stroke="#0697ed" stroke-miterlimit="50" stroke-width=".4" xlink:href="#95jbc"/></g><g transform="translate(-329 -2095)"><use fill="#0697ed" xlink:href="#95jbd"/></g><g transform="translate(-329 -2095)"><use fill="#fff" fill-opacity="0" stroke="#0697ed" stroke-miterlimit="50" stroke-width=".4" xlink:href="#95jbd"/></g></g></svg>