<svg xmlns="http://www.w3.org/2000/svg" xmlns:xlink="http://www.w3.org/1999/xlink" width="78.67" height="75.33" viewBox="0 0 118 113"><defs><path id="ull9a" d="M1159.39 1528.704c0 6.83-5.537 12.366-12.367 12.366-6.829 0-12.366-5.536-12.366-12.366s5.537-12.366 12.366-12.366c6.83 0 12.366 5.537 12.366 12.366z"/><path id="ull9b" d="M1158.034 1576.589l8.975 10.26 10.679 7.118 8.619 2.998 22.483-12.177-.562-3.936s-11.617 5.434-18.362 7.683c-6.744 2.247-14.051-1.5-17.611-3.373-3.561-1.873-10.68-9.556-10.68-9.556zm47.345-30.773a2.248 2.248 0 1 0 .002-4.496 2.248 2.248 0 0 0-.002 4.496zm0-7.495a2.248 2.248 0 1 0 .002-4.496 2.248 2.248 0 0 0-.002 4.496zm0-7.493a2.248 2.248 0 1 0 .001-4.497 2.248 2.248 0 0 0-.001 4.497zm-87.46-23.234v45.717h51.361c10.542 0 19.088-8.546 19.088-19.088v-26.629z"/><path id="ull9d" d="M1102.931 1546.815a1.592 1.592 0 1 1-2.758-1.593 1.592 1.592 0 0 1 2.758 1.593z"/><path id="ull9e" d="M1174.005 1563.115a1.5 1.5 0 0 1-1.3-.75l-2.422-4.193a5.154 5.154 0 0 1 1.884-7.029 5.15 5.15 0 0 1 7.028 1.884l2.898 5.02a1.5 1.5 0 0 1-2.597 1.499l-2.897-5.02a2.15 2.15 0 0 0-2.933-.786 2.15 2.15 0 0 0-.786 2.933l2.422 4.194a1.5 1.5 0 0 1-1.297 2.248z"/><path id="ull9f" d="M1181.072 1560.772a1.5 1.5 0 0 1-1.3-.75l-2.422-4.194a5.153 5.153 0 0 1 1.884-7.028 5.15 5.15 0 0 1 7.028 1.883l2.898 5.019a1.5 1.5 0 0 1-2.598 1.499l-2.896-5.019a2.149 2.149 0 0 0-2.933-.785 2.148 2.148 0 0 0-.786 2.932l2.422 4.194a1.5 1.5 0 0 1-1.297 2.249z"/><path id="ull9g" d="M1185.14 1598.457c-.222 0-.447-.05-.661-.155l-5.504-2.714c-5.695-2.578-10.137-5.483-13.16-8.612-.272-.282-1.667-1.754-4.458-4.699l-4.412-4.66a1.497 1.497 0 0 1 .022-2.082 7.235 7.235 0 0 1 8.429-1.38l1.165.588c.09.046.175.1.254.162l3.06 2.419c.519.41 1.202.84 1.999 1.259l-17.58-30.448a5.92 5.92 0 0 1 2.165-8.078 5.92 5.92 0 0 1 8.077 2.164l9.352 16.198a1.498 1.498 0 1 1-2.596 1.499l-9.352-16.198a2.919 2.919 0 0 0-3.982-1.067 2.92 2.92 0 0 0-1.067 3.983l17.939 31.072a2.772 2.772 0 0 1-.374 3.289 2.76 2.76 0 0 1-3.24.612c-1.27-.614-2.375-1.282-3.2-1.933l-2.942-2.325-1.028-.519a4.245 4.245 0 0 0-3.755-.041l3.242 3.424c2.778 2.931 4.167 4.398 4.438 4.678 2.759 2.856 6.892 5.543 12.285 7.985l5.55 2.735a1.5 1.5 0 0 1-.665 2.844z"/><path id="ull9h" d="M1208.991 1584.017a1.5 1.5 0 0 1-1.469-1.207c-1.38-6.955-5.65-13.637-5.693-13.704l-10.45-18.094a2.112 2.112 0 0 0-1.295-.995 2.124 2.124 0 0 0-1.62.213 2.137 2.137 0 0 0-.78 2.916l1.16 2.01a1.498 1.498 0 1 1-2.595 1.5l-1.162-2.012a5.14 5.14 0 0 1 1.878-7.01 5.096 5.096 0 0 1 3.895-.513 5.096 5.096 0 0 1 3.116 2.392l10.411 18.031c.148.228 4.581 7.154 6.076 14.682a1.5 1.5 0 0 1-1.472 1.791z"/><path id="ull9i" d="M1187.601 1610a1.5 1.5 0 0 1-1.3-.75l-5.296-9.171a1.502 1.502 0 0 1 .55-2.048l29.05-16.772a1.5 1.5 0 0 1 2.047.549l4.858 8.414a1.5 1.5 0 0 1-.549 2.048 1.502 1.502 0 0 1-2.048-.549l-4.109-7.116-26.452 15.273 4.546 7.873a1.5 1.5 0 0 1-1.297 2.249z"/><path id="ull9j" d="M1162.084 1570.854h-44.876c-5.545 0-10.056-4.51-10.056-10.054v-52.893c0-5.545 4.51-10.055 10.056-10.055h88.154c5.545 0 10.055 4.51 10.055 10.055v52.893c0 4.049-2.411 7.686-6.141 9.264a1.498 1.498 0 1 1-1.168-2.761 7.049 7.049 0 0 0 4.31-6.503v-52.893a7.065 7.065 0 0 0-7.056-7.057h-88.154c-3.892 0-7.058 3.166-7.058 7.057v52.893c0 3.891 3.166 7.056 7.058 7.056h44.876a1.499 1.499 0 1 1 0 2.998z"/><path id="ull9k" d="M1151.4 1577.6h-34.193c-9.263 0-16.8-7.537-16.8-16.8v-7.49a1.5 1.5 0 0 1 2.998 0v7.49c0 7.61 6.192 13.801 13.802 13.801h34.192a1.499 1.499 0 1 1 0 2.998z"/><path id="ull9l" d="M1158.646 1562.86h-40.04a3.003 3.003 0 0 1-2.999-3v-51.015a3.003 3.003 0 0 1 3-3h77.622a3.003 3.003 0 0 1 3 3v38.762a1.499 1.499 0 1 1-2.999 0v-38.762l-77.624-.001-.002 51.017 40.042.002a1.499 1.499 0 1 1 0 2.998z"/><path id="ull9m" d="M1143.662 1547.893c-9.457 0-17.15-7.694-17.15-17.15 0-9.459 7.693-17.153 17.15-17.153 9.457 0 17.152 7.694 17.152 17.152 0 1.818-.284 3.61-.844 5.324a1.5 1.5 0 0 1-2.85-.93c.463-1.413.697-2.892.697-4.394 0-7.805-6.35-14.154-14.155-14.154s-14.154 6.35-14.154 14.154 6.35 14.153 14.154 14.153c2.3 0 4.58-.563 6.596-1.627a1.5 1.5 0 0 1 1.4 2.651 17.191 17.191 0 0 1-7.995 1.974z"/><path id="ull9n" d="M1138.917 1537.45c-.349 0-.701-.044-1.048-.132a4.179 4.179 0 0 1-2.578-1.931 4.213 4.213 0 0 1 1.473-5.764l.201-.12a1.205 1.205 0 0 0 .421-1.654l-.395-.666a1.202 1.202 0 0 0-.741-.555 1.203 1.203 0 0 0-.916.132l-5.542 3.285a1.5 1.5 0 0 1-1.528-2.58l5.542-3.285a4.213 4.213 0 0 1 5.764 1.475l.394.664c.573.967.736 2.099.458 3.187a4.176 4.176 0 0 1-1.931 2.578l-.2.118a1.211 1.211 0 0 0 .319 2.212c.314.078.639.032.917-.132l5.023-2.98a1.499 1.499 0 0 1 1.528 2.579l-5.022 2.979c-.658.39-1.393.59-2.139.59z"/><path id="ull9o" d="M1128.022 1545.701c-3.572 0-5.195-1.292-5.928-2.562-1.354-2.344-.297-6.079 2.757-9.747a1.5 1.5 0 0 1 2.304 1.92c-2.263 2.715-3.029 5.35-2.465 6.328.494.855 2.64 1.534 7.06.63 4.391-.897 9.702-3.06 14.955-6.094 11.524-6.653 17.02-14.118 15.74-16.334-.522-.903-2.422-1.258-5.094-.95a1.497 1.497 0 1 1-.344-2.977c5.142-.6 7.204.993 8.034 2.43 3.044 5.272-6.166 14.267-16.837 20.428-5.525 3.19-11.156 5.475-15.854 6.435-1.692.345-3.12.493-4.328.493z"/><path id="ull9p" d="M1178.88 1529.653a1.499 1.499 0 0 1-1.499-1.499v-1.31a1.499 1.499 0 1 1 2.998 0v1.31c0 .828-.67 1.5-1.499 1.5z"/><path id="ull9q" d="M1178.88 1538.308a1.499 1.499 0 0 1-1.499-1.499v-1.31a1.499 1.499 0 0 1 2.998 0v1.31c0 .828-.67 1.5-1.499 1.5z"/><path id="ull9r" d="M1183.871 1533.325h-1.314a1.5 1.5 0 0 1 0-2.998h1.314a1.499 1.499 0 1 1 0 2.998z"/><path id="ull9s" d="M1175.204 1533.325h-1.314a1.499 1.499 0 1 1 0-2.998h1.313a1.499 1.499 0 1 1 0 2.998z"/><linearGradient id="ull9c" x1="1137.08" x2="1195.16" y1="1572.47" y2="1514.39" gradientUnits="userSpaceOnUse"><stop offset="0" stop-color="#0693e9"/><stop offset=".01" stop-color="#0693e9"/><stop offset="1" stop-color="#9cc037"/><stop offset="1" stop-color="#9cc037"/></linearGradient></defs><g><g transform="translate(-1100 -1497)"><use fill="#fff" xlink:href="#ull9a"/></g><g transform="translate(-1100 -1497)"><use fill="url(#ull9c)" xlink:href="#ull9b"/></g><g transform="translate(-1100 -1497)"><use fill="#333" xlink:href="#ull9d"/></g><g transform="translate(-1100 -1497)"><use fill="#333" xlink:href="#ull9e"/></g><g transform="translate(-1100 -1497)"><use fill="#333" xlink:href="#ull9f"/></g><g transform="translate(-1100 -1497)"><use fill="#333" xlink:href="#ull9g"/></g><g transform="translate(-1100 -1497)"><use fill="#333" xlink:href="#ull9h"/></g><g transform="translate(-1100 -1497)"><use fill="#333" xlink:href="#ull9i"/></g><g transform="translate(-1100 -1497)"><use fill="#333" xlink:href="#ull9j"/></g><g transform="translate(-1100 -1497)"><use fill="#333" xlink:href="#ull9k"/></g><g transform="translate(-1100 -1497)"><use fill="#333" xlink:href="#ull9l"/></g><g transform="translate(-1100 -1497)"><use fill="#333" xlink:href="#ull9m"/></g><g transform="translate(-1100 -1497)"><use fill="#333" xlink:href="#ull9n"/></g><g transform="translate(-1100 -1497)"><use fill="#333" xlink:href="#ull9o"/></g><g transform="translate(-1100 -1497)"><use fill="#333" xlink:href="#ull9p"/></g><g transform="translate(-1100 -1497)"><use fill="#333" xlink:href="#ull9q"/></g><g transform="translate(-1100 -1497)"><use fill="#333" xlink:href="#ull9r"/></g><g transform="translate(-1100 -1497)"><use fill="#333" xlink:href="#ull9s"/></g></g></svg>