<svg xmlns="http://www.w3.org/2000/svg" xmlns:xlink="http://www.w3.org/1999/xlink" width="16.67" height="14.67" viewBox="0 0 25 22"><defs><path id="vejfa" d="M587.363 2111.1a.636.636 0 0 0-.636.636v2.431a2.549 2.549 0 0 1-2.546 2.546h-17.363a2.55 2.55 0 0 1-2.546-2.546v-2.43a.636.636 0 1 0-1.272 0v2.43a3.823 3.823 0 0 0 3.818 3.82h17.363a3.823 3.823 0 0 0 3.82-3.82v-2.43a.637.637 0 0 0-.638-.638z"/><path id="vejfb" d="M567.5 2114.88h16a.636.636 0 1 0 0-1.273h-16a.636.636 0 1 0 0 1.272z"/><path id="vejfc" d="M569.11 2105.552l5.33 4.762a1.587 1.587 0 0 0 2.12 0l5.33-4.762a.635.635 0 1 0-.847-.95l-4.907 4.384v-12.335a.636.636 0 0 0-1.273 0v12.335l-4.906-4.383a.635.635 0 1 0-.848.949z"/></defs><g><g transform="translate(-563 -2096)"><use fill="#0697ed" xlink:href="#vejfa"/></g><g transform="translate(-563 -2096)"><use fill="#0697ed" xlink:href="#vejfb"/></g><g transform="translate(-563 -2096)"><use fill="#0697ed" xlink:href="#vejfc"/></g></g></svg>