<svg xmlns="http://www.w3.org/2000/svg" xmlns:xlink="http://www.w3.org/1999/xlink" width="28.67" height="18.67" viewBox="0 0 43 28"><defs><path id="kbama" d="M1589.797 1342.766c-.741.03-1.468.156-2.184.34-2.869.731-5.252 2.238-7.117 4.539-1.794 2.209-2.758 4.747-2.935 7.579a12.51 12.51 0 0 0 .281 3.571c.747 3.286 2.471 5.937 5.188 7.927 2.106 1.542 4.48 2.366 7.081 2.508 1.466.08 2.922-.055 4.348-.429 2.659-.694 4.866-2.081 6.525-4.29 2.402-3.198 2.984-7.293 2.275-11.182h-12.476a2.377 2.377 0 0 0-.012.21c0 1.617.004 5.119.004 5.119h7.102c0 .527-.625 2.645-2.607 3.991-1.165.787-2.472 1.15-3.857 1.238a7.746 7.746 0 0 1-2.876-.334c-2.963-.951-5.167-3.63-5.469-6.894a7.573 7.573 0 0 1 .161-2.405c.88-3.861 4.536-6.722 8.724-6.106 1.855.275 2.923 1.047 3.896 1.879 1.284-1.284 2.554-2.552 3.86-3.861-.317-.229-1.05-.973-2.349-1.726a12.632 12.632 0 0 0-6.295-1.711l-.148-.001c-.373 0-.746.022-1.12.038z"/><path id="kbamc" d="M1614.674 1348.875h-3.49v4.627h-4.626v3.62h4.626V1361.749H1614.805V1357.122H1619.434v-3.62H1614.805v-4.627z"/><linearGradient id="kbamb" x1="1577.53" x2="1603.54" y1="1355.99" y2="1355.99" gradientUnits="userSpaceOnUse"><stop offset="0" stop-color="#ff4c3c"/><stop offset="1" stop-color="#ee023e"/></linearGradient><linearGradient id="kbamd" x1="1606.56" x2="1619.43" y1="1355.31" y2="1355.31" gradientUnits="userSpaceOnUse"><stop offset="0" stop-color="#ff4c3c"/><stop offset="1" stop-color="#ee023e"/></linearGradient></defs><g><g transform="translate(-1577 -1342)"><use fill="url(#kbamb)" xlink:href="#kbama"/></g><g transform="translate(-1577 -1342)"><use fill="url(#kbamd)" xlink:href="#kbamc"/></g></g></svg>