<svg xmlns="http://www.w3.org/2000/svg" xmlns:xlink="http://www.w3.org/1999/xlink" width="28.67" height="29.33" viewBox="0 0 43 44"><defs><path id="sigca" d="M877.352 1893.896c-1.166 0-2.114.95-2.114 2.114v2.115h6.477v-2.115a2.118 2.118 0 0 0-2.114-2.114zm8.996-6.745a2.116 2.116 0 0 0-2.114 2.114v8.86h6.478v-8.86a2.116 2.116 0 0 0-2.114-2.114zm8.997-6.748a2.116 2.116 0 0 0-2.113 2.113v15.609h6.476v-15.609a2.116 2.116 0 0 0-2.114-2.113zm3.626-10.615h1.997c.696 0 1.26.563 1.26 1.259v27.078h6.476v-27.078a1.26 1.26 0 0 1 1.26-1.259h1.998l-6.496-8.771zm-2.47.863l8.996-12.144a.263.263 0 0 1 .21-.104.26.26 0 0 1 .207.104l8.996 12.144a.257.257 0 0 1 .023.273.264.264 0 0 1-.232.143h-4.237v28.077a.26.26 0 0 1-.26.259H874.22a.26.26 0 0 1-.259-.259v-3.374a3.637 3.637 0 0 1 3.633-3.633h2.25c.581 0 1.137.134 1.656.401l1.456.75v-4.266a3.638 3.638 0 0 1 3.634-3.633h2.248c.583 0 1.14.135 1.656.401l1.458.752v-4.267a3.636 3.636 0 0 1 3.634-3.631h2.248c.582 0 1.138.134 1.656.4l1.458.75v-8.727h-4.237a.256.256 0 0 1-.232-.145.26.26 0 0 1 .022-.271zm-.803-.594a1.258 1.258 0 0 0 1.013 2.01h3.237v6.088a4.611 4.611 0 0 0-2.114-.511h-2.248a4.639 4.639 0 0 0-4.634 4.631v2.627a4.582 4.582 0 0 0-2.114-.513h-2.248a4.64 4.64 0 0 0-4.634 4.633v2.626a4.604 4.604 0 0 0-2.112-.512h-2.25a4.638 4.638 0 0 0-4.632 4.634v3.374c0 .694.564 1.258 1.258 1.258h35.984a1.26 1.26 0 0 0 1.26-1.258v-27.077h3.237a1.262 1.262 0 0 0 1.013-2.01l-8.996-12.144a1.259 1.259 0 0 0-2.024 0z"/><linearGradient id="sigcb" x1="880.08" x2="917.84" y1="1906.78" y2="1869.02" gradientUnits="userSpaceOnUse"><stop offset="0" stop-color="#0693e9"/><stop offset=".01" stop-color="#0693e9"/><stop offset="1" stop-color="#9cc037"/><stop offset="1" stop-color="#9cc037"/></linearGradient></defs><g><g transform="translate(-873 -1857)"><use fill="url(#sigcb)" xlink:href="#sigca"/></g></g></svg>