<svg xmlns="http://www.w3.org/2000/svg" xmlns:xlink="http://www.w3.org/1999/xlink" width="19.33" height="18.67" viewBox="0 0 29 28"><defs><path id="371ga" d="M1206.345 1219.06v-17.577l14.088-10.59 14.088 10.653v17.513l-9.608-10.477 8.032-6.95-12.512-9.54-12.542 9.452 8.22 7.147zm10.923-10.053h6.28l9.524 10.052h-25.278zm-2.058-7.038c0-1.423.48-2.632 1.44-3.627 1.065-1.108 2.494-1.662 4.288-1.662 1.553 0 2.774.393 3.664 1.18.834.74 1.25 1.702 1.25 2.885 0 .995-.298 1.844-.893 2.55-.595.704-1.262 1.056-2 1.056-.431 0-.75-.103-.955-.31a1.026 1.026 0 0 1-.295-.9c.009-.053.02-.107.033-.164-.231.501-.524.857-.876 1.064-.354.207-.718.31-1.094.31-.536 0-.972-.194-1.306-.583-.334-.388-.501-.887-.501-1.498 0-.868.285-1.635.855-2.298.569-.663 1.18-.994 1.836-.994.445 0 .812.13 1.102.386.29.258.444.567.462.93l.327-1.1h.962l-.87 2.866a11.38 11.38 0 0 0-.145.537c-.03.135-.045.255-.045.36 0 .196.06.34.18.43.12.088.256.133.409.133.497 0 .944-.26 1.338-.779.395-.519.593-1.197.593-2.035 0-1.012-.353-1.808-1.061-2.386-.707-.578-1.658-.867-2.853-.867-1.658 0-2.926.484-3.803 1.453-.75.824-1.126 1.861-1.126 3.11 0 1.09.359 2.006 1.074 2.747.837.877 2.03 1.316 3.58 1.316.724 0 1.398-.115 2.022-.343a6.716 6.716 0 0 0 1.716-.927l.432.59c-.393.35-.98.676-1.761.981-.781.306-1.641.458-2.58.458-1.824 0-3.228-.569-4.214-1.708-.79-.912-1.185-1.965-1.185-3.16zm5.679-2.31c-.497 0-.927.293-1.291.88-.364.587-.546 1.171-.546 1.751 0 .427.094.754.28.978a.882.882 0 0 0 .707.337c.589 0 1.047-.344 1.376-1.03.329-.688.494-1.309.494-1.863 0-.27-.09-.513-.272-.73-.181-.216-.43-.323-.748-.323z"/></defs><g><g transform="translate(-1206 -1191)"><use fill="#333" xlink:href="#371ga"/></g></g></svg>