<svg xmlns="http://www.w3.org/2000/svg" xmlns:xlink="http://www.w3.org/1999/xlink" width="34" height="33" viewBox="0 0 34 33"><defs><path id="7f57a" d="M1484.597 182.92l-6.538-5.551a.864.864 0 0 0-1.425.66v2.192h-8.004v-2.192a.866.866 0 0 0-1.426-.66l-6.537 5.55a.863.863 0 0 0 0 1.32l6.537 5.552a.867.867 0 0 0 1.426-.66v-2.192h8.004v2.193a.865.865 0 0 0 1.425.659l6.538-5.551a.867.867 0 0 0 0-1.32zm-6.232 4.34v-1.187a.866.866 0 0 0-.866-.865h-9.735a.865.865 0 0 0-.865.865v1.188l-4.335-3.681 4.335-3.681v1.188c0 .478.387.866.865.866h9.735a.866.866 0 0 0 .866-.866v-1.188l4.335 3.68z"/><path id="7f57b" d="M1486.78 199.74v-32.31h2v32.31z"/><path id="7f57c" d="M1455.78 199.74v-32.31h2v32.31z"/></defs><g><g transform="translate(-1455 -167)"><use fill="#0693e9" xlink:href="#7f57a"/></g><g transform="translate(-1455 -167)"><use fill="#0693e9" xlink:href="#7f57b"/></g><g transform="translate(-1455 -167)"><use fill="#0693e9" xlink:href="#7f57c"/></g></g></svg>