<svg xmlns="http://www.w3.org/2000/svg" xmlns:xlink="http://www.w3.org/1999/xlink" width="29.33" height="28.67" viewBox="0 0 44 43"><defs><path id="22ela" d="M880.227 1494.793a20.592 20.592 0 0 0-6.073 14.659 20.592 20.592 0 0 0 6.072 14.658 20.597 20.597 0 0 0 14.66 6.073 20.598 20.598 0 0 0 14.659-6.073 20.588 20.588 0 0 0 6.072-14.658 20.592 20.592 0 0 0-6.072-14.659 20.597 20.597 0 0 0-14.659-6.072 20.592 20.592 0 0 0-14.659 6.072z"/><path id="22elc" d="M880.804 1523.533a19.79 19.79 0 0 1-5.832-14.081 19.78 19.78 0 0 1 5.833-14.081 19.778 19.778 0 0 1 14.081-5.833 19.782 19.782 0 0 1 14.081 5.833 19.78 19.78 0 0 1 5.833 14.081 19.786 19.786 0 0 1-5.833 14.081 19.786 19.786 0 0 1-14.081 5.833 19.787 19.787 0 0 1-14.082-5.833zm-1.155-29.318a21.404 21.404 0 0 0-6.312 15.237 21.406 21.406 0 0 0 6.311 15.236 21.41 21.41 0 0 0 15.238 6.312 21.407 21.407 0 0 0 15.237-6.312 21.407 21.407 0 0 0 6.312-15.236 21.404 21.404 0 0 0-6.312-15.237 21.41 21.41 0 0 0-15.237-6.312 21.407 21.407 0 0 0-15.237 6.312z"/><path id="22ele" d="M898.862 1521.07l-1.989-.767-1.987.767-1.989-.767-1.987.767-1.987-.767-1.611.622a13.568 13.568 0 0 0-4.135 4.442 19.61 19.61 0 0 0 11.709 3.84c4.27 0 8.333-1.346 11.705-3.838a13.623 13.623 0 0 0-4.164-4.457l-1.578-.609z"/><path id="22elg" d="M894.886 1530.024c-4.437 0-8.654-1.384-12.195-4l-.588-.435.366-.632a14.437 14.437 0 0 1 4.384-4.709l.164-.085 1.905-.736 1.988.767 1.988-.767 1.988.767 1.988-.767 1.987.767 1.988-.767 2.035.807a14.487 14.487 0 0 1 4.414 4.725l.367.634-.588.434c-3.541 2.614-7.756 3.997-12.191 3.997zm-10.611-4.882c3.127 2.127 6.779 3.247 10.611 3.247 3.829 0 7.48-1.119 10.606-3.243a12.875 12.875 0 0 0-3.447-3.505l-1.196-.462-1.988.767-1.987-.767-1.988.767-1.988-.767-1.988.767-1.987-.767-1.229.474a12.8 12.8 0 0 0-3.419 3.49z"/><path id="22elh" d="M884.895 1497.472l.544 10.223c.092 1.741.126 3.507.1 5.251l-.099 6.5 1.494.576 1.989-.766 1.987.766 1.987-.766 1.989.766 1.987-.766 1.987.766 1.989-.766 1.987.766 1.496-.576-.099-6.5c-.028-1.744.006-3.51.099-5.251l.545-10.223z"/><path id="22elj" d="M886.934 1520.9l-2.32-.895.108-7.073a76.16 76.16 0 0 0-.1-5.194l-.59-11.085h21.707l-.591 11.085a76.948 76.948 0 0 0-.1 5.194l.109 7.073-2.32.895-1.988-.767-1.988.767-1.987-.767-1.988.767-1.988-.767-1.988.767-1.987-.767zm5.964-2.52l1.988.768 1.988-.767 1.987.767 1.988-.767 1.987.767.669-.26-.09-5.93c-.027-1.76.007-3.545.1-5.306l.499-9.364h-18.257l.499 9.364c.093 1.754.127 3.54.1 5.306l-.09 5.93.669.26 1.988-.767 1.987.767z"/><path id="22elk" d="M880.917 1495.483a19.63 19.63 0 0 0-5.786 13.969 19.626 19.626 0 0 0 5.786 13.968c.474.475.97.923 1.483 1.343a14.588 14.588 0 0 1 3.568-4.067l-1.515-.583.109-7.183a75.263 75.263 0 0 0-.099-5.183l-.599-11.252h22.042l-.599 11.252a76.548 76.548 0 0 0-.099 5.183l.109 7.183-1.523.588a14.611 14.611 0 0 1 3.574 4.064 20.648 20.648 0 0 0 1.487-1.345 19.624 19.624 0 0 0 5.784-13.968 19.628 19.628 0 0 0-5.784-13.969 19.631 19.631 0 0 0-13.969-5.786 19.628 19.628 0 0 0-13.969 5.786z"/><path id="22elm" d="M881.495 1522.843a18.816 18.816 0 0 1-5.546-13.391c0-5.059 1.97-9.814 5.546-13.391a18.816 18.816 0 0 1 13.391-5.546c5.057 0 9.812 1.97 13.391 5.546a18.816 18.816 0 0 1 5.546 13.391 18.82 18.82 0 0 1-5.546 13.391h-.002c-.234.233-.476.464-.724.688a15.302 15.302 0 0 0-2.185-2.56l.777-.299-.117-7.755a75.494 75.494 0 0 1 .098-5.126l.644-12.113h-23.766l.646 12.113c.089 1.702.123 3.427.098 5.126l-.119 7.755.771.297a15.296 15.296 0 0 0-2.182 2.557c-.247-.221-.487-.45-.721-.683zm-1.156-27.938a20.44 20.44 0 0 0-6.024 14.547 20.44 20.44 0 0 0 6.024 14.547c.492.491 1.012.962 1.544 1.397l.737.603.484-.822a13.725 13.725 0 0 1 3.367-3.836l1.135-.888-2.326-.896.1-6.615a77.57 77.57 0 0 0-.1-5.238l-.554-10.391h20.318l-.553 10.391a76.856 76.856 0 0 0-.099 5.238l.1 6.615-2.338.899 1.137.888a13.691 13.691 0 0 1 3.372 3.838l.485.82.737-.603a21.243 21.243 0 0 0 1.548-1.4 20.442 20.442 0 0 0 6.024-14.547 20.44 20.44 0 0 0-6.024-14.547 20.441 20.441 0 0 0-14.547-6.026c-5.494 0-10.66 2.14-14.547 6.026z"/><path id="22elo" d="M889.358 1511.748c.799 0 1.45-.65 1.45-1.45 0-.8-.651-1.45-1.45-1.45-.8 0-1.45.65-1.45 1.45 0 .8.65 1.45 1.45 1.45zm0-1.923a.474.474 0 1 1-.003.948.474.474 0 0 1 .003-.948z"/><path id="22elp" d="M887.499 1510.298a1.86 1.86 0 0 1 1.859-1.858 1.86 1.86 0 0 1 1.859 1.858 1.86 1.86 0 0 1-1.86 1.858 1.86 1.86 0 0 1-1.858-1.858zm.817 0a1.042 1.042 0 0 0 2.084 0 1.042 1.042 0 0 0-2.083 0zm.16 0c0-.486.396-.882.882-.882s.882.396.882.882a.883.883 0 0 1-1.764 0zm.881-.065a.066.066 0 0 0-.065.065h.13z"/><path id="22elq" d="M900.414 1511.748c.799 0 1.45-.65 1.45-1.45 0-.8-.651-1.45-1.45-1.45-.8 0-1.45.65-1.45 1.45 0 .8.65 1.45 1.45 1.45zm0-1.923a.474.474 0 1 1-.003.948.474.474 0 0 1 .003-.948z"/><path id="22elr" d="M898.555 1510.298a1.86 1.86 0 0 1 1.859-1.858 1.86 1.86 0 0 1 1.859 1.858 1.86 1.86 0 0 1-1.86 1.858 1.86 1.86 0 0 1-1.858-1.858zm.817 0a1.042 1.042 0 1 0 1.042-1.041c-.574 0-1.042.467-1.042 1.041zm.16 0c0-.486.396-.882.882-.882s.882.396.882.882a.883.883 0 0 1-1.764 0zm.882-.065a.066.066 0 0 0-.065.065h.13z"/><linearGradient id="22elb" x1="880.23" x2="909.54" y1="1524.11" y2="1494.79" gradientUnits="userSpaceOnUse"><stop offset="0" stop-color="#0693e9"/><stop offset=".01" stop-color="#0693e9"/><stop offset="1" stop-color="#9cc037"/><stop offset="1" stop-color="#9cc037"/></linearGradient><linearGradient id="22eld" x1="879.65" x2="910.12" y1="1524.69" y2="1494.21" gradientUnits="userSpaceOnUse"><stop offset="0" stop-color="#0693e9"/><stop offset=".01" stop-color="#0693e9"/><stop offset="1" stop-color="#9cc037"/><stop offset="1" stop-color="#9cc037"/></linearGradient><linearGradient id="22elf" x1="883.18" x2="906.59" y1="1524.75" y2="1524.75" gradientUnits="userSpaceOnUse"><stop offset="0" stop-color="#0693e9"/><stop offset=".01" stop-color="#0693e9"/><stop offset="1" stop-color="#9cc037"/><stop offset="1" stop-color="#9cc037"/></linearGradient><linearGradient id="22eli" x1="884.53" x2="905.24" y1="1518.54" y2="1497.83" gradientUnits="userSpaceOnUse"><stop offset="0" stop-color="#0693e9"/><stop offset=".01" stop-color="#0693e9"/><stop offset="1" stop-color="#9cc037"/><stop offset="1" stop-color="#9cc037"/></linearGradient><linearGradient id="22ell" x1="880.92" x2="908.85" y1="1523.42" y2="1495.48" gradientUnits="userSpaceOnUse"><stop offset="0" stop-color="#0693e9"/><stop offset=".01" stop-color="#0693e9"/><stop offset="1" stop-color="#9cc037"/><stop offset="1" stop-color="#9cc037"/></linearGradient><linearGradient id="22eln" x1="880.34" x2="909.43" y1="1524" y2="1494.91" gradientUnits="userSpaceOnUse"><stop offset="0" stop-color="#0693e9"/><stop offset=".01" stop-color="#0693e9"/><stop offset="1" stop-color="#9cc037"/><stop offset="1" stop-color="#9cc037"/></linearGradient></defs><g><g transform="translate(-873 -1488)"><use fill="url(#22elb)" xlink:href="#22ela"/></g><g transform="translate(-873 -1488)"><use fill="url(#22eld)" xlink:href="#22elc"/></g><g transform="translate(-873 -1488)"><use fill="url(#22elf)" xlink:href="#22ele"/></g><g transform="translate(-873 -1488)"><use fill="#fff" xlink:href="#22elg"/></g><g transform="translate(-873 -1488)"><use fill="url(#22eli)" xlink:href="#22elh"/></g><g transform="translate(-873 -1488)"><use fill="#fff" xlink:href="#22elj"/></g><g transform="translate(-873 -1488)"><use fill="url(#22ell)" xlink:href="#22elk"/></g><g transform="translate(-873 -1488)"><use fill="url(#22eln)" xlink:href="#22elm"/></g><g transform="translate(-873 -1488)"><use fill="#fff" xlink:href="#22elo"/></g><g transform="translate(-873 -1488)"><use fill="#fff" xlink:href="#22elp"/></g><g transform="translate(-873 -1488)"><use fill="#fff" xlink:href="#22elq"/></g><g transform="translate(-873 -1488)"><use fill="#fff" xlink:href="#22elr"/></g></g></svg>