<svg xmlns="http://www.w3.org/2000/svg" xmlns:xlink="http://www.w3.org/1999/xlink" width="28" height="28" viewBox="0 0 42 42"><defs><path id="l2qfa" d="M919.446 8275.884a1.28 1.28 0 1 1 2.563 0v5.124a1.28 1.28 0 1 1-2.563 0zm21.782 6.406a1.28 1.28 0 0 1-1.282-1.282v-5.124a1.28 1.28 0 1 1 2.563 0v5.124a1.28 1.28 0 0 1-1.281 1.282zm3.843 33.312c-5.66 0-10.25-4.59-10.25-10.25s4.59-10.25 10.25-10.25 10.25 4.59 10.25 10.25-4.59 10.25-10.25 10.25zm0-17.937c-4.239 0-7.687 3.449-7.687 7.687 0 4.239 3.448 7.687 7.687 7.687 4.24 0 7.688-3.448 7.688-7.687 0-4.24-3.448-7.687-7.688-7.687zm-28.187 7.432c0 .135.097.255.214.255h15.161v2.563h-15.161c-1.535 0-2.777-1.266-2.777-2.818v-22.552c0-1.556 1.242-2.818 2.777-2.818h1.067v1.28a2.566 2.566 0 0 0 2.563 2.565 2.566 2.566 0 0 0 2.562-2.564v-1.281h15.375v1.28a2.566 2.566 0 0 0 2.563 2.565 2.566 2.566 0 0 0 2.562-2.564v-1.281h1.068c1.535 0 2.776 1.262 2.776 2.818v9.994h-2.563v-5.124h-28.187zm2.566-9.997v-5.12h5.13v5.12zm0 7.69v-5.13h5.13v5.13zm7.68-7.69v-5.12h5.13v5.12zm0 7.69v-5.13h5.13v5.13zm21.785 2.562a1.28 1.28 0 1 1 0 2.563h-5.125a1.28 1.28 0 0 1-1.281-1.282v-5.125a1.28 1.28 0 1 1 2.562 0v3.844zM934.82 8295.1v-5.12h5.13v5.12z"/></defs><g><g transform="translate(-914 -8274)"><use fill="#d3d3d3" xlink:href="#l2qfa"/></g></g></svg>