<svg xmlns="http://www.w3.org/2000/svg" xmlns:xlink="http://www.w3.org/1999/xlink" width="71.33" height="76.67" viewBox="0 0 107 115"><defs><path id="zzaza" d="M393.421 1575.276v5.438l-13.516-15.746v-5.438z"/><path id="zzazb" d="M371.783 1504.809l3.438 5.082a58.156 58.156 0 0 1 9.998 32.605v.437a13.228 13.228 0 0 1 0 4.571v6.549l13.517 15.746v13.647h-26.47a6.23 6.23 0 0 1 6.229 6.229c0 3.44-6.229 16.147-6.229 16.147s-6.229-12.707-6.229-16.147a6.23 6.23 0 0 1 6.229-6.229h-27.439v-13.647l13.517-15.746v-11.557a58.157 58.157 0 0 1 9.999-32.605zm-34.237-8.06l16.642 27.042h-9.537v61.128h-14.21v-61.128h-9.537zm68.458 0l16.642 27.042h-9.537v61.128h-14.211v-61.128h-9.537z"/><path id="zzazd" d="M375.221 1509.89l-3.439-5.08-3.44 5.08a58.16 58.16 0 0 0-9.998 32.605v8.913a58.16 58.16 0 0 1 9.998-32.605l3.44-5.08 3.44 5.08a58.162 58.162 0 0 1 9.998 32.605v-8.913a58.162 58.162 0 0 0-9.999-32.605z"/><path id="zzaze" d="M344.828 1569.799v5.438l13.516-15.746v-5.438z"/><path id="zzazf" d="M376.154 1583.446h-8.743l4.37-29.393z"/><path id="zzazg" d="M372.266 1587.747c2.678 0 4.96 1.69 5.841 4.062.244-.874.388-1.611.388-2.134a6.23 6.23 0 0 0-12.458 0c0 .523.144 1.26.388 2.134a6.231 6.231 0 0 1 5.841-4.062z"/><path id="zzazh" d="M372.071 1535.807c6.703 0 12.251 4.94 13.203 11.379.095-.642.144-1.3.144-1.968 0-7.371-5.975-13.347-13.347-13.347s-13.347 5.976-13.347 13.347c0 .669.05 1.326.144 1.968.952-6.438 6.5-11.38 13.203-11.38z"/><path id="zzazi" d="M387.103 1584.833h-29.651v-42.338c0-11.946 3.54-23.49 10.237-33.383l4.588-6.778 4.589 6.778a59.333 59.333 0 0 1 10.237 33.383zm-26.876-2.775h24.1v-39.563a56.557 56.557 0 0 0-9.76-31.827l-2.29-3.383-2.29 3.383a56.565 56.565 0 0 0-9.76 31.827z"/><path id="zzazj" d="M400.619 1584.833h-16.291v-34.528l16.29 18.98zm-13.516-2.775h10.74v-11.746l-10.74-12.512z"/><path id="zzazk" d="M360.227 1584.833h-16.291v-15.548l16.29-18.98zm-13.516-2.775h10.74V1557.8l-10.74 12.512z"/><path id="zzazl" d="M378.258 1584.833h-11.962l5.98-40.213zm-8.743-2.775h5.524l-2.762-18.572z"/><path id="zzazm" d="M372.761 1608.975l-1.246-2.542c-.652-1.33-6.37-13.101-6.37-16.758 0-4.2 3.416-7.616 7.616-7.616 4.2 0 7.617 3.416 7.617 7.616 0 3.657-5.719 15.428-6.37 16.758zm0-24.141a4.846 4.846 0 0 0-4.84 4.84c0 1.9 2.61 8.126 4.84 12.923 2.231-4.797 4.841-11.024 4.841-12.923a4.846 4.846 0 0 0-4.84-4.84z"/><path id="zzazn" d="M372.566 1560.05c-8.125 0-14.735-6.61-14.735-14.735s6.61-14.735 14.735-14.735 14.735 6.61 14.735 14.735-6.61 14.735-14.735 14.735zm0-26.696c-6.595 0-11.96 5.365-11.96 11.96 0 6.594 5.365 11.96 11.96 11.96 6.595 0 11.96-5.365 11.96-11.96 0-6.595-5.365-11.96-11.96-11.96z"/><path id="zzazo" d="M332.323 1566.188h-2.775v-41.01h-10.632l19.125-31.078 19.125 31.078H346.54v18.035h-2.776v-20.81h8.436l-14.158-23.007-14.158 23.007h8.44z"/><path id="zzazp" d="M329.55 1582.63v-2.78h2.77v2.78zm0-5.55v-2.78h2.77v2.78zm0-5.56v-2.77h2.77v2.77z"/><path id="zzazq" d="M335.1 1582.63v-2.78h2.78v2.78zm0-5.55v-2.78h2.78v2.78zm0-5.56v-2.77h2.78v2.77zm0-5.55v-2.77h2.78v2.77z"/><path id="zzazr" d="M412.27 1582.63v-2.78h2.78v2.78zm0-5.55v-2.78h2.78v2.78zm0-5.56v-2.77h2.78v2.77z"/><path id="zzazs" d="M406.71 1582.63v-2.78h2.77v2.78zm0-5.55v-2.78h2.77v2.78zm0-5.56v-2.77h2.77v2.77zm0-5.55v-2.77h2.77v2.77z"/><path id="zzazt" d="M346.53 1559.91v-2.77h-2.77v2.77zm0-5.54v-2.78h-2.77v2.78zm0-5.55v-2.78h-2.77v2.78z"/><path id="zzazu" d="M415.04 1566.188h-2.775v-43.786h8.392l-14.159-23.007-14.158 23.007h8.455v20.811h-2.775v-18.036h-10.647l19.125-31.077 19.125 31.077H415.04z"/><path id="zzazv" d="M398.02 1559.91v-2.77h2.77v2.77zm0-5.54v-2.78h2.77v2.78zm0-5.55v-2.78h2.77v2.78z"/><path id="zzazw" d="M366.48 1541.61h1.461v7.727h3.9v1.34h-5.362z"/><path id="zzazx" d="M366.48 1541.61h1.461v7.727h3.9v1.34h-5.362v-9.066z"/><path id="zzazy" d="M373.864 1541.61h2.4c2.279 0 3.692 1.146 3.692 3.034 0 1.841-1.364 3.156-3.631 3.156h-1v2.876h-1.461zm4.618 3.083c0-1.133-.816-1.743-2.084-1.743h-1.072v3.522h1.072c1.268 0 2.084-.658 2.084-1.779z"/><path id="zzazz" d="M373.864 1541.61h2.4c2.279 0 3.692 1.146 3.692 3.034 0 1.841-1.364 3.156-3.631 3.156h-1v2.876h-1.461v-9.066zm4.618 3.083c0-1.133-.816-1.743-2.084-1.743h-1.072v3.522h1.072c1.268 0 2.084-.658 2.084-1.779z"/><linearGradient id="zzazc" x1="330.84" x2="412.71" y1="1585.32" y2="1503.45" gradientUnits="userSpaceOnUse"><stop offset="0" stop-color="#0693e9"/><stop offset=".01" stop-color="#0693e9"/><stop offset="1" stop-color="#9cc037"/><stop offset="1" stop-color="#9cc037"/></linearGradient></defs><g><g transform="translate(-319 -1494)"><use fill="#fff" xlink:href="#zzaza"/></g><g transform="translate(-319 -1494)"><use fill="url(#zzazc)" xlink:href="#zzazb"/></g><g transform="translate(-319 -1494)"><use fill="#fff" xlink:href="#zzazd"/></g><g transform="translate(-319 -1494)"><use fill="#fff" xlink:href="#zzaze"/></g><g transform="translate(-319 -1494)"><use fill="#fff" xlink:href="#zzazf"/></g><g transform="translate(-319 -1494)"><use fill="#fff" xlink:href="#zzazg"/></g><g transform="translate(-319 -1494)"><use fill="#fff" xlink:href="#zzazh"/></g><g transform="translate(-319 -1494)"><use fill="#333" xlink:href="#zzazi"/></g><g transform="translate(-319 -1494)"><use fill="#333" xlink:href="#zzazj"/></g><g transform="translate(-319 -1494)"><use fill="#333" xlink:href="#zzazk"/></g><g transform="translate(-319 -1494)"><use fill="#333" xlink:href="#zzazl"/></g><g transform="translate(-319 -1494)"><use fill="#333" xlink:href="#zzazm"/></g><g transform="translate(-319 -1494)"><use fill="#333" xlink:href="#zzazn"/></g><g transform="translate(-319 -1494)"><use fill="#333" xlink:href="#zzazo"/></g><g transform="translate(-319 -1494)"><use fill="#333" xlink:href="#zzazp"/></g><g transform="translate(-319 -1494)"><use fill="#333" xlink:href="#zzazq"/></g><g transform="translate(-319 -1494)"><use fill="#333" xlink:href="#zzazr"/></g><g transform="translate(-319 -1494)"><use fill="#333" xlink:href="#zzazs"/></g><g transform="translate(-319 -1494)"><use fill="#333" xlink:href="#zzazt"/></g><g transform="translate(-319 -1494)"><use fill="#333" xlink:href="#zzazu"/></g><g transform="translate(-319 -1494)"><use fill="#333" xlink:href="#zzazv"/></g><g transform="translate(-319 -1494)"><use fill="#fff" xlink:href="#zzazw"/></g><g transform="translate(-319 -1494)"><use fill="#fff" fill-opacity="0" stroke="#fff" stroke-miterlimit="50" xlink:href="#zzazx"/></g><g transform="translate(-319 -1494)"><use fill="#fff" xlink:href="#zzazy"/></g><g transform="translate(-319 -1494)"><use fill="#fff" fill-opacity="0" stroke="#fff" stroke-miterlimit="50" xlink:href="#zzazz"/></g></g></svg>