<svg xmlns="http://www.w3.org/2000/svg" xmlns:xlink="http://www.w3.org/1999/xlink" width="20" height="29.33" viewBox="0 0 30 44"><defs><path id="hzi4a" d="M894.681 1713.889c.494.236 1.009.448 1.525.63a.756.756 0 0 0 .497-1.426 13.175 13.175 0 0 1-1.369-.565.756.756 0 0 0-1.006.354.754.754 0 0 0 .353 1.007zm-4.12-8.228a11.797 11.797 0 0 0 4.255 4.737 11.685 11.685 0 0 0 6.283 1.825c1.689 0 3.319-.352 4.848-1.047a.755.755 0 1 0-.625-1.374 10.122 10.122 0 0 1-4.223.913c-1.945 0-3.836-.551-5.474-1.591a10.302 10.302 0 0 1-3.712-4.132.751.751 0 0 0-1.009-.343.755.755 0 0 0-.343 1.012zm17.654-5.181a7.124 7.124 0 0 1-8.811 6.911.755.755 0 0 0-.36 1.466c.67.164 1.36.249 2.055.249 4.755-.002 8.626-3.871 8.626-8.626v-1.367a.753.753 0 0 0-.755-.753.753.753 0 0 0-.755.753zm6.238 0c0 7.363-5.991 13.353-13.354 13.353-.521 0-1.045-.03-1.56-.089a.755.755 0 0 0-.174 1.499c.572.066 1.156.1 1.734.1 8.196 0 14.862-6.667 14.862-14.863v-2.674a.755.755 0 1 0-1.508 0zm-15.742.874a3.952 3.952 0 0 0 3.948 3.946 3.949 3.949 0 0 0 3.945-3.946v-3.648a.753.753 0 1 0-1.508 0v3.648a2.441 2.441 0 0 1-2.437 2.438 2.441 2.441 0 0 1-2.438-2.438v-6.465a.755.755 0 1 0-1.51 0zm-6.236-.874a8.64 8.64 0 0 0 4.431 7.535.755.755 0 0 0 .735-1.317 7.131 7.131 0 0 1-3.658-6.218v-8.209a.753.753 0 0 0-1.508 0zm0-11.227a.754.754 0 1 0 1.508 0v-1.808a.754.754 0 1 0-1.508 0zm-6.239-1.808v13.035c0 2.367.571 4.721 1.649 6.811a14.999 14.999 0 0 0 4.402 5.158.756.756 0 0 0 1.055-.159.756.756 0 0 0-.161-1.056 13.414 13.414 0 0 1-5.435-10.754v-13.035c0-.383.016-.768.049-1.146a.756.756 0 0 0-.752-.82.756.756 0 0 0-.752.691c-.036.421-.055.85-.055 1.275zm12.475 0v4.222a.756.756 0 1 0 1.51 0v-4.222c0-.242.097-.467.273-.636a.878.878 0 0 1 .651-.243c.459.023.832.439.832.926v13.571a.755.755 0 1 0 1.51 0v-13.571c0-1.301-.996-2.368-2.268-2.432a2.356 2.356 0 0 0-1.764.656 2.393 2.393 0 0 0-.744 1.729zm-3.117 0v13.035a.753.753 0 1 0 1.508 0v-13.035c0-1.081.427-2.093 1.2-2.853a3.976 3.976 0 0 1 2.875-1.144c2.161.04 3.919 1.87 3.919 4.076v7.163a.755.755 0 0 0 1.51 0v-7.163c0-3.023-2.422-5.527-5.4-5.585l-.105-.001a5.457 5.457 0 0 0-3.856 1.578 5.462 5.462 0 0 0-1.651 3.929zm13.762-6.041a10.142 10.142 0 0 1 1.978 6.041v13.035c0 2.934-1.268 5.734-3.478 7.681a.754.754 0 1 0 .997 1.131 11.746 11.746 0 0 0 3.989-8.812v-13.035c0-2.511-.784-4.909-2.268-6.932a.754.754 0 1 0-1.218.891zm-15.204 2.268a.754.754 0 0 0 1.047-.201 7.117 7.117 0 0 1 5.9-3.142 7.124 7.124 0 0 1 7.116 7.116v8.449a.754.754 0 0 0 1.51 0v-8.449c0-4.757-3.871-8.626-8.626-8.626a8.628 8.628 0 0 0-7.15 3.806.753.753 0 0 0 .203 1.047zm11.185-5.543c.548.25 1.079.552 1.578.898.131.091.28.135.428.135a.755.755 0 0 0 .43-1.375 11.861 11.861 0 0 0-1.81-1.031.754.754 0 0 0-.626 1.373zm-15.982 21.991a.756.756 0 0 0 1.51 0v-12.675c0-5.643 4.591-10.235 10.234-10.235.575 0 1.151.047 1.713.143a.754.754 0 1 0 .252-1.489 11.933 11.933 0 0 0-1.965-.163c-6.474 0-11.744 5.268-11.744 11.744zm-2.406-17.234a.755.755 0 0 0 1.436.461 13.291 13.291 0 0 1 4.777-6.641 13.245 13.245 0 0 1 7.937-2.614c7.363 0 13.354 5.989 13.354 13.353v7.343a.754.754 0 1 0 1.508 0v-7.343c0-8.195-6.666-14.863-14.862-14.863a14.736 14.736 0 0 0-8.835 2.911 14.78 14.78 0 0 0-5.315 7.393z"/><linearGradient id="hzi4b" x1="887.33" x2="914.86" y1="1707.73" y2="1680.2" gradientUnits="userSpaceOnUse"><stop offset="0" stop-color="#0693e9"/><stop offset=".01" stop-color="#0693e9"/><stop offset="1" stop-color="#9cc037"/><stop offset="1" stop-color="#9cc037"/></linearGradient></defs><g><g transform="translate(-886 -1672)"><use fill="url(#hzi4b)" xlink:href="#hzi4a"/></g></g></svg>