<svg xmlns="http://www.w3.org/2000/svg" xmlns:xlink="http://www.w3.org/1999/xlink" width="34" height="34" viewBox="0 0 34 34"><defs><path id="7cj2a" d="M1179.06 168.855a.572.572 0 0 1 .125-.186l1.61-1.613a.57.57 0 0 1 .806.805l-.64.64h.775c5.933 0 11.386 3.462 13.894 8.82a.57.57 0 0 1-1.03.482c-2.322-4.959-7.371-8.164-12.864-8.164h-.775l.64.641a.57.57 0 0 1-.805.805l-1.611-1.612a.572.572 0 0 1-.124-.186l-.003-.009a.57.57 0 0 1 0-.414l.003-.01zm5.395 29.234a.555.555 0 0 1-.041.208l-.002.009a.572.572 0 0 1-.124.185l-1.612 1.612a.569.569 0 1 1-.805-.805l.64-.64h-.775c-6.357 0-12.125-3.98-14.353-9.906a.57.57 0 0 1 1.066-.402c2.062 5.485 7.401 9.17 13.286 9.17h.777l-.641-.64a.57.57 0 0 1 .804-.806l1.613 1.612a.572.572 0 0 1 .124.186.55.55 0 0 1 .043.216zm-17.227-11.79a.575.575 0 0 1-.209-.04l-.009-.003a.572.572 0 0 1-.186-.124l-1.612-1.612a.569.569 0 1 1 .805-.804l.64.64v-.775c0-6.196 3.68-11.746 9.372-14.14a.569.569 0 0 1 .44 1.05 14.159 14.159 0 0 0-8.674 13.09v.775l.641-.64a.568.568 0 1 1 .806.804l-1.612 1.612a.572.572 0 0 1-.187.124l-.008.003a.57.57 0 0 1-.207.04zm31.031-4.196a.569.569 0 1 1-.805.804l-.64-.64v1.314c0 6.23-3.872 11.96-9.633 14.258a.57.57 0 0 1-.422-1.057c5.333-2.126 8.916-7.432 8.916-13.201v-1.314l-.64.64a.57.57 0 0 1-.805-.804l1.612-1.613a.586.586 0 0 1 .186-.123l.01-.002a.57.57 0 0 1 .61.125zm-8.664 9.276a10.957 10.957 0 0 1-7.81 3.238c-6.09 0-11.059-4.95-11.075-11.032a10.935 10.935 0 0 1 3.212-7.8 10.955 10.955 0 0 1 7.81-3.237c6.09 0 11.06 4.95 11.074 11.033a10.928 10.928 0 0 1-3.21 7.798zm-2.543-12.29h3.52a9.998 9.998 0 0 0-5.79-4.922c1.003 1.151 1.797 2.863 2.27 4.922zm-4.752 1.138v6.008h3.92a19.634 19.634 0 0 0-.105-6.008zm-6.211 6.008a21.212 21.212 0 0 1-.167-2.667c0-1.17.093-2.29.264-3.34h-3.764a9.903 9.903 0 0 0-.2 6.013c.019-.002.036-.006.055-.006zm5.072 0v-6.008h-3.814a19.472 19.472 0 0 0-.105 6.008zm0-7.146v-5.3c-1.537.415-2.869 2.48-3.572 5.3zm-3.726 8.285c.65 3.163 2.069 5.527 3.727 5.975v-5.975zm4.865 0v5.975c1.658-.448 3.078-2.812 3.726-5.975zm3.572-8.285c-.704-2.82-2.036-4.885-3.573-5.3v5.3zm-9.463 0c.474-2.06 1.268-3.774 2.272-4.924a9.818 9.818 0 0 0-3.953 2.424 9.868 9.868 0 0 0-1.813 2.5zm-.143 8.285h-3.65a9.99 9.99 0 0 0 6.073 5.608c-1.116-1.274-1.975-3.24-2.423-5.608zm10.928 0c-.454 2.404-1.333 4.393-2.473 5.665a9.837 9.837 0 0 0 4.069-2.463 9.839 9.839 0 0 0 2.139-3.202zm3.878-7.147h-3.796c.171 1.05.263 2.171.263 3.341 0 .923-.058 1.816-.166 2.667h3.822a.49.49 0 0 1 .115.014c.236-.856.36-1.75.358-2.664a9.841 9.841 0 0 0-.597-3.357z"/></defs><g><g transform="translate(-1165 -167)"><use fill="#0693e9" xlink:href="#7cj2a"/></g></g></svg>