<svg id="Layer_1" data-name="Layer 1" xmlns="http://www.w3.org/2000/svg" xmlns:xlink="http://www.w3.org/1999/xlink" viewBox="0 0 1 902"><defs><style>.cls-1{opacity:0.46;}.cls-2{fill:url(#linear-gradient);}</style><linearGradient id="linear-gradient" x1="369.6" y1="-82.1" x2="-81.6" y2="369.1" gradientUnits="userSpaceOnUse"><stop offset="0.01" stop-color="#5392e6"/><stop offset="1" stop-color="#a6bf46"/></linearGradient></defs><title>line_about_years</title><g class="cls-1"><path class="cls-2" d="M144,370.75a.5.5,0,0,0-.5.5v5a.5.5,0,0,0,1,0v-5A.5.5,0,0,0,144,370.75Zm0-70.07a.5.5,0,0,0-.5.5v5a.5.5,0,0,0,1,0v-5A.5.5,0,0,0,144,300.68Zm0,20a.5.5,0,0,0-.5.5v5a.5.5,0,0,0,1,0v-5A.5.5,0,0,0,144,320.7Zm0-40.05a.5.5,0,0,0-.5.5v5a.5.5,0,0,0,1,0v-5A.5.5,0,0,0,144,280.65Zm0,10a.5.5,0,0,0-.5.5v5a.5.5,0,0,0,1,0v-5A.5.5,0,0,0,144,290.67Zm0,50.05a.5.5,0,0,0-.5.5v5a.5.5,0,0,0,1,0v-5A.5.5,0,0,0,144,340.72Zm0,10a.5.5,0,0,0-.5.5v5a.5.5,0,0,0,1,0v-5A.5.5,0,0,0,144,350.73Zm0,10a.5.5,0,0,0-.5.5v5a.5.5,0,0,0,1,0v-5A.5.5,0,0,0,144,360.74Zm0-90.1a.5.5,0,0,0-.5.5v5a.5.5,0,0,0,1,0v-5A.5.5,0,0,0,144,270.64Zm0,60.07a.5.5,0,0,0-.5.5v5a.5.5,0,0,0,1,0v-5A.5.5,0,0,0,144,330.71Zm0-20a.5.5,0,0,0-.5.5v5a.5.5,0,0,0,1,0v-5A.5.5,0,0,0,144,310.69Zm0-110.13a.5.5,0,0,0-.5.5v5a.5.5,0,0,0,1,0v-5A.5.5,0,0,0,144,200.56Zm0-20a.5.5,0,0,0-.5.5v5a.5.5,0,0,0,1,0v-5A.5.5,0,0,0,144,180.54Zm0,10a.5.5,0,0,0-.5.5v5a.5.5,0,0,0,1,0v-5A.5.5,0,0,0,144,190.55Zm0-20a.5.5,0,0,0-.5.5v5a.5.5,0,0,0,1,0v-5A.5.5,0,0,0,144,170.53Zm0-10a.5.5,0,0,0-.5.5v5a.5.5,0,0,0,1,0v-5A.5.5,0,0,0,144,160.52Zm0,50.06a.5.5,0,0,0-.5.5v5a.5.5,0,1,0,1,0v-5A.5.5,0,0,0,144,210.58Zm0,30a.5.5,0,0,0-.5.5v5a.5.5,0,0,0,1,0v-5A.5.5,0,0,0,144,240.61Zm0,10a.5.5,0,0,0-.5.5v5a.5.5,0,0,0,1,0v-5A.5.5,0,0,0,144,250.62Zm0-20a.5.5,0,0,0-.5.5v5a.5.5,0,1,0,1,0v-5A.5.5,0,0,0,144,230.6Zm0,30a.5.5,0,0,0-.5.5v5a.5.5,0,0,0,1,0v-5A.5.5,0,0,0,144,260.63Zm0-40a.5.5,0,0,0-.5.5v5a.5.5,0,1,0,1,0v-5A.5.5,0,0,0,144,220.59Zm0,270.3a.5.5,0,0,0-.5.5v5a.5.5,0,0,0,1,0v-5A.5.5,0,0,0,144,490.89ZM144,541a.5.5,0,0,0-.5.5v5a.5.5,0,0,0,1,0v-5A.5.5,0,0,0,144,541Zm0-20a.5.5,0,0,0-.5.5v5a.5.5,0,0,0,1,0v-5A.5.5,0,0,0,144,520.92Zm0,10a.5.5,0,0,0-.5.5v5a.5.5,0,0,0,1,0v-5A.5.5,0,0,0,144,530.93Zm0-20a.5.5,0,0,0-.5.5v5a.5.5,0,0,0,1,0v-5A.5.5,0,0,0,144,510.91Zm0-360.4a.5.5,0,0,0-.5.5v5a.5.5,0,0,0,1,0v-5A.5.5,0,0,0,144,150.51Zm0,350.39a.5.5,0,0,0-.5.5v5a.5.5,0,1,0,1,0v-5A.5.5,0,0,0,144,500.9Zm0,90.1a.5.5,0,0,0-.5.5V594a.5.5,0,0,0,1,0v-2.5A.5.5,0,0,0,144,591Zm0-10a.5.5,0,0,0-.5.5v5a.5.5,0,0,0,1,0v-5A.5.5,0,0,0,144,581Zm0-20a.5.5,0,0,0-.5.5v5a.5.5,0,0,0,1,0v-5A.5.5,0,0,0,144,561Zm0-10a.5.5,0,0,0-.5.5v5a.5.5,0,0,0,1,0v-5A.5.5,0,0,0,144,551Zm0,20a.5.5,0,0,0-.5.5v5a.5.5,0,0,0,1,0v-5A.5.5,0,0,0,144,571Zm0-160.18a.5.5,0,0,0-.5.5v5a.5.5,0,0,0,1,0v-5A.5.5,0,0,0,144,410.8Zm0-30a.5.5,0,0,0-.5.5v5a.5.5,0,0,0,1,0v-5A.5.5,0,0,0,144,380.77Zm0,50.05a.5.5,0,0,0-.5.5v5a.5.5,0,0,0,1,0v-5A.5.5,0,0,0,144,430.82Zm0-10a.5.5,0,0,0-.5.5v5a.5.5,0,0,0,1,0v-5A.5.5,0,0,0,144,420.81Zm0,60.07a.5.5,0,0,0-.5.5v5a.5.5,0,0,0,1,0v-5A.5.5,0,0,0,144,480.88Zm0-90.1a.5.5,0,0,0-.5.5v5a.5.5,0,0,0,1,0v-5A.5.5,0,0,0,144,390.78Zm0,10a.5.5,0,0,0-.5.5v5a.5.5,0,0,0,1,0v-5A.5.5,0,0,0,144,400.79Zm0,60.07a.5.5,0,0,0-.5.5v5a.5.5,0,0,0,1,0v-5A.5.5,0,0,0,144,460.86Zm0,10a.5.5,0,0,0-.5.5v5a.5.5,0,0,0,1,0v-5A.5.5,0,0,0,144,470.87Zm0-30a.5.5,0,0,0-.5.5v5a.5.5,0,0,0,1,0v-5A.5.5,0,0,0,144,440.83Zm0,10a.5.5,0,0,0-.5.5v5a.5.5,0,0,0,1,0v-5A.5.5,0,0,0,144,450.84Zm0-550.61a.5.5,0,0,0-.5.5v5a.5.5,0,0,0,.5.5.5.5,0,0,0,.5-.5v-5A.5.5,0,0,0,144-99.77Zm0-70.08a.5.5,0,0,0-.5.5v5a.5.5,0,0,0,.5.5.5.5,0,0,0,.5-.5v-5A.5.5,0,0,0,144-169.85Zm0-10a.5.5,0,0,0-.5.5v5a.5.5,0,0,0,.5.5.5.5,0,0,0,.5-.5v-5A.5.5,0,0,0,144-179.86Zm0,20a.5.5,0,0,0-.5.5v5a.5.5,0,0,0,.5.5.5.5,0,0,0,.5-.5v-5A.5.5,0,0,0,144-159.84Zm0-50a.5.5,0,0,0-.5.5v5a.5.5,0,0,0,.5.5.5.5,0,0,0,.5-.5v-5A.5.5,0,0,0,144-209.89Zm0,20a.5.5,0,0,0-.5.5v5a.5.5,0,0,0,.5.5.5.5,0,0,0,.5-.5v-5A.5.5,0,0,0,144-189.87Zm0-10a.5.5,0,0,0-.5.5v5a.5.5,0,0,0,.5.5.5.5,0,0,0,.5-.5v-5A.5.5,0,0,0,144-199.88Zm0,80.09a.5.5,0,0,0-.5.5v5a.5.5,0,0,0,.5.5.5.5,0,0,0,.5-.5v-5A.5.5,0,0,0,144-119.79Zm0-30a.5.5,0,0,0-.5.5v5a.5.5,0,0,0,.5.5.5.5,0,0,0,.5-.5v-5A.5.5,0,0,0,144-149.83Zm0,40.05a.5.5,0,0,0-.5.5v5a.5.5,0,0,0,.5.5.5.5,0,0,0,.5-.5v-5A.5.5,0,0,0,144-109.78Zm0-30a.5.5,0,0,0-.5.5v5a.5.5,0,0,0,.5.5.5.5,0,0,0,.5-.5v-5A.5.5,0,0,0,144-139.82Zm0,50.06a.5.5,0,0,0-.5.5v5a.5.5,0,0,0,.5.5.5.5,0,0,0,.5-.5v-5A.5.5,0,0,0,144-89.76Zm0-40a.5.5,0,0,0-.5.5v5a.5.5,0,0,0,.5.5.5.5,0,0,0,.5-.5v-5A.5.5,0,0,0,144-129.8ZM144-290a.5.5,0,0,0-.5.5v5a.5.5,0,0,0,.5.5.5.5,0,0,0,.5-.5v-5A.5.5,0,0,0,144-290Zm0,70.08a.5.5,0,0,0-.5.5v5a.5.5,0,0,0,.5.5.5.5,0,0,0,.5-.5v-5A.5.5,0,0,0,144-219.9ZM144-300a.5.5,0,0,0-.5.5v5a.5.5,0,0,0,.5.5.5.5,0,0,0,.5-.5v-5A.5.5,0,0,0,144-300Zm0-7.51a.5.5,0,0,0-.5.5v2.5a.5.5,0,0,0,.5.5.5.5,0,0,0,.5-.5V-307A.5.5,0,0,0,144-307.5ZM144-270a.5.5,0,0,0-.5.5v5a.5.5,0,0,0,.5.5.5.5,0,0,0,.5-.5v-5A.5.5,0,0,0,144-270Zm0-10a.5.5,0,0,0-.5.5v5a.5.5,0,0,0,.5.5.5.5,0,0,0,.5-.5v-5A.5.5,0,0,0,144-280Zm0,40a.5.5,0,0,0-.5.5v5a.5.5,0,0,0,.5.5.5.5,0,0,0,.5-.5v-5A.5.5,0,0,0,144-239.93Zm0,10a.5.5,0,0,0-.5.5v5a.5.5,0,0,0,.5.5.5.5,0,0,0,.5-.5v-5A.5.5,0,0,0,144-229.92Zm0-20a.5.5,0,0,0-.5.5v5a.5.5,0,0,0,.5.5.5.5,0,0,0,.5-.5v-5A.5.5,0,0,0,144-249.94Zm0-10a.5.5,0,0,0-.5.5v5a.5.5,0,0,0,.5.5.5.5,0,0,0,.5-.5v-5A.5.5,0,0,0,144-259.95Zm0,400.45a.5.5,0,0,0-.5.5v5a.5.5,0,0,0,1,0v-5A.5.5,0,0,0,144,140.5Zm0-80.09a.5.5,0,0,0-.5.5v5a.5.5,0,0,0,1,0v-5A.5.5,0,0,0,144,60.41Zm0,20a.5.5,0,0,0-.5.5v5a.5.5,0,0,0,1,0v-5A.5.5,0,0,0,144,80.43Zm0-10a.5.5,0,0,0-.5.5v5a.5.5,0,1,0,1,0v-5A.5.5,0,0,0,144,70.42Zm0-20a.5.5,0,0,0-.5.5v5a.5.5,0,1,0,1,0v-5A.5.5,0,0,0,144,50.4Zm0-20a.5.5,0,0,0-.5.5v5a.5.5,0,0,0,1,0v-5A.5.5,0,0,0,144,30.37Zm0,10a.5.5,0,0,0-.5.5v5a.5.5,0,0,0,1,0v-5A.5.5,0,0,0,144,40.39Zm0,90.1a.5.5,0,0,0-.5.5v5a.5.5,0,0,0,1,0v-5A.5.5,0,0,0,144,130.49Zm0-40.05a.5.5,0,0,0-.5.5v5a.5.5,0,0,0,1,0v-5A.5.5,0,0,0,144,90.44Zm0,30a.5.5,0,0,0-.5.5v5a.5.5,0,1,0,1,0v-5A.5.5,0,0,0,144,120.47Zm0-200.22a.5.5,0,0,0-.5.5v5a.5.5,0,0,0,.5.5.5.5,0,0,0,.5-.5v-5A.5.5,0,0,0,144-79.75Zm0,190.21a.5.5,0,0,0-.5.5v5a.5.5,0,1,0,1,0v-5A.5.5,0,0,0,144,110.46Zm0-10a.5.5,0,0,0-.5.5v5a.5.5,0,0,0,1,0v-5A.5.5,0,0,0,144,100.45Zm0-150.16a.5.5,0,0,0-.5.5v5a.5.5,0,0,0,.5.5.5.5,0,0,0,.5-.5v-5A.5.5,0,0,0,144-49.71Zm0,10a.5.5,0,0,0-.5.5v5a.5.5,0,0,0,.5.5.5.5,0,0,0,.5-.5v-5A.5.5,0,0,0,144-39.7Zm0,10a.5.5,0,0,0-.5.5v5a.5.5,0,0,0,.5.5.5.5,0,0,0,.5-.5v-5A.5.5,0,0,0,144-29.69Zm0-30a.5.5,0,0,0-.5.5v5a.5.5,0,0,0,.5.5.5.5,0,0,0,.5-.5v-5A.5.5,0,0,0,144-59.73Zm0-10a.5.5,0,0,0-.5.5v5a.5.5,0,0,0,.5.5.5.5,0,0,0,.5-.5v-5A.5.5,0,0,0,144-69.74Zm0,80.09a.5.5,0,0,0-.5.5v5a.5.5,0,1,0,1,0v-5A.5.5,0,0,0,144,10.35Zm0-10a.5.5,0,0,0-.5.5v5a.5.5,0,0,0,1,0v-5A.5.5,0,0,0,144,.34Zm0-20a.5.5,0,0,0-.5.5v5a.5.5,0,0,0,.5.5.5.5,0,0,0,.5-.5v-5A.5.5,0,0,0,144-19.68Zm0,40a.5.5,0,0,0-.5.5v5a.5.5,0,1,0,1,0v-5A.5.5,0,0,0,144,20.36Zm0-30a.5.5,0,0,0-.5.5v5a.5.5,0,0,0,.5.5.5.5,0,0,0,.5-.5v-5A.5.5,0,0,0,144-9.67Z" transform="translate(-143.5 307.5)"/></g></svg>