<svg xmlns="http://www.w3.org/2000/svg" xmlns:xlink="http://www.w3.org/1999/xlink" width="423" height="125" viewBox="0 0 423 125"><defs><path id="p122a" d="M310.904 993.804c-7.65 0-13.877-6.226-13.877-13.877v-96.522c0-7.652 6.226-13.877 13.877-13.877h393.968c7.652 0 13.878 6.225 13.878 13.877v96.522c0 7.651-6.226 13.877-13.878 13.877z"/><path id="p122b" d="M704.873 869.778c7.514 0 13.627 6.113 13.627 13.627v96.52c0 7.516-6.113 13.629-13.627 13.629H310.904c-7.513 0-13.627-6.113-13.627-13.628v-96.521c0-7.514 6.114-13.627 13.627-13.627h393.969zm0-.5H310.904c-7.802 0-14.127 6.325-14.127 14.127v96.52c0 7.804 6.325 14.129 14.127 14.129h393.969c7.802 0 14.127-6.325 14.127-14.128v-96.521c0-7.802-6.325-14.127-14.127-14.127z"/><path id="p122c" d="M449.228 898.818c9.49.51 17.913 5.045 23.588 11.93.745-.37 1.5-.722 2.268-1.053-6.121-7.701-15.383-12.793-25.856-13.317z"/><path id="p122d" d="M448.371 964.496c-.312.009-.624.024-.938.024-17.957 0-32.54-14.398-32.862-32.278h-2.435c.321 19.225 15.995 34.713 35.297 34.713.552 0 1.102-.017 1.65-.042a46.64 46.64 0 0 1-.712-2.417z"/><path id="p122e" d="M414.698 928.65c1.46-16.164 14.613-28.953 30.938-29.832v-2.44c-17.67.884-31.909 14.762-33.38 32.273z"/><path id="p122f" d="M428.218 924.547h1.639v11.328h5.428v1.376h-7.067z"/><path id="p122g" d="M440.076 925.564c.021.566-.394 1.019-1.055 1.019-.584 0-.999-.453-.999-1.019a1.01 1.01 0 0 1 1.038-1.035c.622 0 1.016.452 1.016 1.035zm-1.846 11.686v-9.12h1.66v9.12z"/><path id="p122h" d="M443.812 930.598c0-.942-.02-1.716-.075-2.47h1.45l.076 1.47h.057c.51-.865 1.356-1.677 2.865-1.677 1.243 0 2.187.754 2.582 1.828h.037a3.775 3.775 0 0 1 1.019-1.187c.547-.414 1.149-.641 2.017-.641 1.206 0 2.996.792 2.996 3.958v5.373h-1.621v-5.165c0-1.753-.64-2.808-1.978-2.808-.944 0-1.678.697-1.96 1.507a2.725 2.725 0 0 0-.133.83v5.636h-1.621v-5.466c0-1.452-.641-2.507-1.904-2.507-1.037 0-1.79.829-2.054 1.658a2.275 2.275 0 0 0-.132.81v5.505h-1.621z"/><path id="p122i" d="M461.631 932.991c.037 2.244 1.47 3.167 3.13 3.167 1.186 0 1.903-.208 2.525-.47l.282 1.187c-.584.263-1.584.565-3.034.565-2.809 0-4.486-1.847-4.486-4.599 0-2.753 1.62-4.92 4.278-4.92 2.98 0 3.77 2.621 3.77 4.298 0 .34-.038.603-.056.772zm4.862-1.187c.02-1.056-.433-2.696-2.299-2.696-1.678 0-2.413 1.546-2.545 2.696z"/><path id="p122j" d="M505.797 919.538h2.36v2.625c.703-1.035 1.446-1.808 2.227-2.32.78-.511 1.596-.766 2.443-.766.637 0 1.32.203 2.045.609l-1.205 1.948c-.483-.208-.891-.313-1.22-.313-.77 0-1.512.317-2.228.949-.715.632-1.26 1.614-1.633 2.944-.286 1.025-.43 3.093-.43 6.205v6.073h-2.36z"/><path id="p122k" d="M561.662 912.146c.526 0 .975.187 1.347.56.372.375.559.826.559 1.354 0 .517-.187.962-.56 1.336a1.83 1.83 0 0 1-1.346.56c-.515 0-.96-.186-1.332-.56a1.833 1.833 0 0 1-.558-1.336c0-.528.187-.98.558-1.353a1.817 1.817 0 0 1 1.332-.561zm-1.147 7.392s1.155-.837 2.31 0v17.954h-2.31z"/><path id="p122l" d="M603.62 921.501l-1.89 1.535c-1.572-1.2-3.108-1.799-4.608-1.799-.955 0-1.773.248-2.452.743-.682.495-1.02 1.072-1.02 1.733 0 .583.28 1.138.84 1.666.561.54 1.74 1.172 3.534 1.898 2.188.891 3.675 1.748 4.46 2.574.772.836 1.157 1.776 1.157 2.822 0 1.474-.659 2.722-1.976 3.745-1.318 1.024-2.966 1.535-4.94 1.535-1.32 0-2.578-.226-3.775-.677-1.198-.45-2.189-1.072-2.975-1.864l1.847-1.65c1.502 1.33 3.093 1.997 4.777 1.997 1.178 0 2.18-.297 3.01-.89.825-.596 1.24-1.294 1.24-2.097 0-.66-.275-1.249-.82-1.766-.548-.505-1.782-1.144-3.703-1.914-2.06-.836-3.465-1.66-4.207-2.476-.743-.813-1.115-1.742-1.115-2.787 0-1.365.592-2.498 1.777-3.4 1.184-.902 2.68-1.353 4.49-1.353 2.101 0 4.218.808 6.35 2.425z"/><path id="p122m" d="M484.046 929.725c-.017-.22-.038-.437-.038-.664 0-.154.03-.293.038-.443v-9.06h-2.287v25.698h2.287z"/><path id="p122n" d="M496.041 921.696c-1.509-1.748-3.324-2.622-5.445-2.622-1.217 0-2.319.298-3.307.895a6.555 6.555 0 0 0-.734.518v2.392c1.079-1.105 2.366-1.685 3.882-1.685 1.068 0 2.054.3 2.959.901.904.601 1.623 1.445 2.158 2.532a7.726 7.726 0 0 1 .801 3.45 7.728 7.728 0 0 1-.808 3.448c-.539 1.097-1.263 1.951-2.172 2.563-.909.611-1.879.917-2.911.917-1.051 0-2.049-.303-2.994-.91a5.922 5.922 0 0 1-.915-.738v2.277a6.53 6.53 0 0 0 4.095 1.395c2.113 0 3.916-.875 5.412-2.628 1.496-1.752 2.243-3.885 2.243-6.396 0-2.458-.755-4.562-2.264-6.309z"/><path id="p122o" d="M532.205 929.848a7.3 7.3 0 0 1-.645 1.752c-.558 1.067-1.313 1.892-2.264 2.472a5.886 5.886 0 0 1-3.13.87 5.884 5.884 0 0 1-3.13-.87c-.952-.58-1.707-1.405-2.265-2.472a7.255 7.255 0 0 1-.644-1.752h-2.125c.292 1.67 1.017 3.173 2.177 4.506 1.55 1.785 3.548 2.676 5.994 2.676 2.435 0 4.428-.891 5.98-2.676 1.16-1.333 1.884-2.836 2.177-4.506z"/><path id="p122p" d="M519.991 927.454c.134-1.613.708-3.022 1.78-4.203 1.225-1.35 2.69-2.025 4.395-2.025 1.695 0 3.157.675 4.388 2.025 1.076 1.18 1.652 2.59 1.787 4.203h2.112c-.123-2.102-.844-3.944-2.176-5.521-1.614-1.904-3.649-2.856-6.104-2.856-2.465 0-4.504.957-6.12 2.87-1.33 1.578-2.05 3.415-2.174 5.507z"/><path id="p122q" d="M584.504 932.683c-1.636 1.525-2.675 2.145-4.041 2.665a7.46 7.46 0 0 1-2.67.477c-1.893 0-3.484-.667-4.772-2-1.29-1.334-1.956-3.043-2-5.129 0 0 .005-.807.23-1.996.226-1.19 1.175-2.888 2.099-3.713 1.267-1.133 2.78-1.7 4.544-1.7a7.16 7.16 0 0 1 3.056.677c.97.451 1.748 1.045 2.338 1.782.59.737 1.038 1.722 1.347 2.954h-10.346v1.996h12.888c-.023-2.452-.684-4.499-1.984-6.138-1.827-2.32-4.27-3.482-7.332-3.482-2.972 0-5.345 1.134-7.12 3.4-1.397 1.782-2.096 3.811-2.096 6.088 0 2.421.826 4.591 2.477 6.51 1.652 1.92 3.942 2.88 6.87 2.88 1.322 0 2.506-.202 3.552-.603 1.047-.4 2.922-1.185 4.659-3.157z"/><path id="p122r" d="M550.016 929.91l-1.374 1.947 4.296 5.635h2.814z"/><path id="p122s" d="M546.41 925.01l-4.357-5.935h-2.772l5.76 7.884z"/><path id="p122t" d="M549.64 927.557l6.112-8.482h-2.777l-4.726 6.568-1.388 1.93-6.932 9.793h2.758l5.562-7.878z"/></defs><g><g transform="translate(-296 -869)"><use fill="#fff" xlink:href="#p122a"/></g><g transform="translate(-296 -869)"><use fill="#d3d3d3" xlink:href="#p122b"/></g><g transform="translate(-296 -869)"><use fill="#a6def4" xlink:href="#p122c"/></g><g transform="translate(-296 -869)"><use fill="#0694ea" xlink:href="#p122d"/></g><g transform="translate(-296 -869)"><use fill="#6bc2ef" xlink:href="#p122e"/></g><g transform="translate(-296 -869)"><use fill="#333" xlink:href="#p122f"/></g><g transform="translate(-296 -869)"><use fill="#333" xlink:href="#p122g"/></g><g transform="translate(-296 -869)"><use fill="#333" xlink:href="#p122h"/></g><g transform="translate(-296 -869)"><use fill="#333" xlink:href="#p122i"/></g><g transform="translate(-296 -869)"><use fill="#333" xlink:href="#p122j"/></g><g transform="translate(-296 -869)"><use fill="#333" xlink:href="#p122k"/></g><g transform="translate(-296 -869)"><use fill="#333" xlink:href="#p122l"/></g><g transform="translate(-296 -869)"><use fill="#333" xlink:href="#p122m"/></g><g transform="translate(-296 -869)"><use fill="#333" xlink:href="#p122n"/></g><g transform="translate(-296 -869)"><use fill="#333" xlink:href="#p122o"/></g><g transform="translate(-296 -869)"><use fill="#333" xlink:href="#p122p"/></g><g transform="translate(-296 -869)"><use fill="#333" xlink:href="#p122q"/></g><g transform="translate(-296 -869)"><use fill="#333" xlink:href="#p122r"/></g><g transform="translate(-296 -869)"><use fill="#333" xlink:href="#p122s"/></g><g transform="translate(-296 -869)"><use fill="#333" xlink:href="#p122t"/></g></g></svg>