<svg xmlns="http://www.w3.org/2000/svg" xmlns:xlink="http://www.w3.org/1999/xlink" width="152" height="56" viewBox="0 0 152 56"><defs><path id="dfpja" d="M61.512 28.936c7.53.405 14.212 4.003 18.714 9.466a37.226 37.226 0 0 1 1.8-.836C77.17 31.456 69.82 27.416 61.512 27z"/><path id="dfpjb" d="M60.832 81.047c-.248.007-.495.019-.745.019-14.247 0-25.818-11.424-26.073-25.61h-1.932c.255 15.253 12.691 27.542 28.005 27.542.439 0 .874-.014 1.308-.033a37.71 37.71 0 0 1-.563-1.918z"/><path id="dfpjc" d="M34.115 52.606c1.158-12.825 11.595-22.973 24.548-23.67V27c-14.021.702-25.318 11.712-26.485 25.606z"/><path id="dfpjd" d="M44.841 49.35h1.3v8.989h4.307v1.092h-5.607z"/><path id="dfpje" d="M54.25 50.157c.016.449-.313.809-.837.809-.464 0-.792-.36-.792-.809 0-.462.344-.821.822-.821.494 0 .807.359.807.821zm-1.46 9.273v-7.24h1.32v7.24z"/><path id="dfpjf" d="M57.214 54.151c0-.748-.015-1.36-.06-1.959h1.15l.062 1.166h.044c.405-.687 1.077-1.33 2.274-1.33.987 0 1.735.598 2.048 1.45h.03c.224-.404.509-.719.808-.943.434-.328.913-.508 1.6-.508.958 0 2.377.628 2.377 3.141v4.262h-1.285v-4.097c0-1.392-.508-2.229-1.57-2.229-.75 0-1.331.554-1.555 1.196-.061.18-.105.42-.105.66v4.47h-1.287v-4.337c0-1.152-.508-1.989-1.51-1.989-.823 0-1.42.658-1.63 1.316a1.812 1.812 0 0 0-.105.643v4.367h-1.286z"/><path id="dfpjg" d="M71.352 56.05c.03 1.78 1.166 2.513 2.483 2.513.942 0 1.51-.165 2.003-.374l.225.942c-.464.21-1.257.45-2.408.45-2.228 0-3.559-1.467-3.559-3.65 0-2.184 1.285-3.904 3.394-3.904 2.364 0 2.991 2.08 2.991 3.41 0 .27-.029.48-.044.613zm3.858-.942c.016-.838-.343-2.139-1.825-2.139-1.33 0-1.914 1.226-2.019 2.14z"/><path id="dfpjh" d="M106.394 45.376h1.873v2.082c.559-.82 1.148-1.434 1.767-1.839.62-.406 1.265-.609 1.938-.609.506 0 1.048.161 1.624.484l-.957 1.545c-.384-.165-.706-.249-.968-.249-.612 0-1.2.252-1.769.753-.566.502-.998 1.281-1.294 2.337-.229.812-.34 2.453-.34 4.923v4.818h-1.874z"/><path id="dfpji" d="M150.72 39.511c.416 0 .772.148 1.067.445.296.297.443.654.443 1.074 0 .409-.147.763-.443 1.06a1.45 1.45 0 0 1-1.068.445c-.41 0-.76-.148-1.056-.445a1.451 1.451 0 0 1-.444-1.06c0-.42.148-.777.444-1.074a1.435 1.435 0 0 1 1.056-.445zm-.91 5.865s.915-.664 1.832 0v14.245h-1.833z"/><path id="dfpjj" d="M184.01 46.934l-1.5 1.219c-1.248-.952-2.466-1.428-3.657-1.428-.757 0-1.406.196-1.946.59-.54.392-.809.85-.809 1.374 0 .463.222.903.667 1.323.445.428 1.38.929 2.804 1.505 1.736.707 2.916 1.388 3.54 2.042.611.663.917 1.41.917 2.239 0 1.17-.523 2.16-1.568 2.972-1.046.812-2.353 1.218-3.92 1.218a8.412 8.412 0 0 1-2.994-.537c-.95-.358-1.738-.851-2.36-1.48l1.464-1.308c1.192 1.055 2.454 1.584 3.79 1.584.935 0 1.731-.236 2.388-.707.656-.472.984-1.026.984-1.663 0-.524-.218-.991-.65-1.401-.435-.401-1.414-.907-2.938-1.52-1.635-.662-2.749-1.317-3.338-1.963-.59-.645-.885-1.383-.885-2.212 0-1.082.47-1.982 1.41-2.697.94-.716 2.126-1.074 3.562-1.074 1.667 0 3.347.642 5.038 1.924z"/><path id="dfpjk" d="M89.137 53.459c-.013-.175-.03-.347-.03-.527 0-.122.024-.232.03-.352v-7.187h-1.815v20.388h1.815z"/><path id="dfpjl" d="M98.654 47.089c-1.197-1.387-2.638-2.08-4.32-2.08-.967 0-1.84.236-2.624.71a5.163 5.163 0 0 0-.583.41v1.898c.856-.876 1.877-1.336 3.08-1.336.848 0 1.631.237 2.348.714.717.477 1.287 1.147 1.712 2.009a6.13 6.13 0 0 1 .636 2.737c0 .954-.214 1.866-.64 2.736-.429.87-1.003 1.549-1.725 2.033-.72.485-1.49.729-2.309.729-.834 0-1.626-.241-2.376-.722a4.81 4.81 0 0 1-.726-.586v1.806a5.188 5.188 0 0 0 3.249 1.108c1.677 0 3.108-.695 4.294-2.086 1.187-1.39 1.78-3.082 1.78-5.075 0-1.95-.599-3.62-1.796-5.005z"/><path id="dfpjm" d="M127.347 53.557c-.11.48-.279.945-.51 1.39-.444.846-1.044 1.5-1.798 1.96a4.67 4.67 0 0 1-2.484.692c-.902 0-1.729-.23-2.483-.691-.755-.46-1.354-1.115-1.797-1.961-.233-.445-.4-.91-.51-1.39h-1.687c.232 1.325.807 2.517 1.727 3.574 1.231 1.416 2.815 2.124 4.756 2.124 1.932 0 3.514-.708 4.744-2.124.92-1.057 1.496-2.25 1.728-3.574z"/><path id="dfpjn" d="M117.656 51.656c.106-1.279.562-2.397 1.412-3.334.972-1.07 2.134-1.606 3.487-1.606 1.346 0 2.505.535 3.482 1.606.853.937 1.311 2.055 1.418 3.334h1.676c-.098-1.667-.67-3.129-1.726-4.38-1.282-1.51-2.896-2.266-4.844-2.266-1.956 0-3.574.76-4.855 2.278-1.056 1.251-1.628 2.708-1.726 4.368z"/><path id="dfpjo" d="M168.842 55.806c-1.298 1.21-2.122 1.7-3.206 2.114a5.909 5.909 0 0 1-2.118.378c-1.502 0-2.765-.528-3.787-1.587-1.023-1.057-1.552-2.414-1.586-4.068 0 0 .004-.641.182-1.584.18-.943.932-2.291 1.665-2.945 1.006-.9 2.206-1.35 3.605-1.35.848 0 1.656.18 2.426.538.768.358 1.386.829 1.855 1.413.467.585.823 1.366 1.068 2.344h-8.208v1.584h10.224c-.017-1.945-.54-3.57-1.573-4.87-1.449-1.842-3.389-2.763-5.818-2.763-2.358 0-4.24.9-5.648 2.697-1.109 1.414-1.664 3.025-1.664 4.83 0 1.922.655 3.643 1.965 5.166 1.311 1.523 3.128 2.285 5.452 2.285 1.048 0 1.988-.16 2.818-.478.83-.318 2.318-.94 3.696-2.505z"/><path id="dfpjp" d="M141.478 53.605l-1.09 1.546 3.408 4.47h2.233z"/><path id="dfpjq" d="M138.617 49.718l-3.457-4.71h-2.199l4.57 6.256z"/><path id="dfpjr" d="M141.18 51.738l4.85-6.729h-2.204l-3.75 5.21-1.101 1.532-5.5 7.77h2.188l4.414-6.25z"/></defs><g><g transform="translate(-32 -27)"><use fill="#a6def4" xlink:href="#dfpja"/></g><g transform="translate(-32 -27)"><use fill="#0694ea" xlink:href="#dfpjb"/></g><g transform="translate(-32 -27)"><use fill="#6bc2ef" xlink:href="#dfpjc"/></g><g transform="translate(-32 -27)"><use fill="#333" xlink:href="#dfpjd"/></g><g transform="translate(-32 -27)"><use fill="#333" xlink:href="#dfpje"/></g><g transform="translate(-32 -27)"><use fill="#333" xlink:href="#dfpjf"/></g><g transform="translate(-32 -27)"><use fill="#333" xlink:href="#dfpjg"/></g><g transform="translate(-32 -27)"><use fill="#333" xlink:href="#dfpjh"/></g><g transform="translate(-32 -27)"><use fill="#333" xlink:href="#dfpji"/></g><g transform="translate(-32 -27)"><use fill="#333" xlink:href="#dfpjj"/></g><g transform="translate(-32 -27)"><use fill="#333" xlink:href="#dfpjk"/></g><g transform="translate(-32 -27)"><use fill="#333" xlink:href="#dfpjl"/></g><g transform="translate(-32 -27)"><use fill="#333" xlink:href="#dfpjm"/></g><g transform="translate(-32 -27)"><use fill="#333" xlink:href="#dfpjn"/></g><g transform="translate(-32 -27)"><use fill="#333" xlink:href="#dfpjo"/></g><g transform="translate(-32 -27)"><use fill="#333" xlink:href="#dfpjp"/></g><g transform="translate(-32 -27)"><use fill="#333" xlink:href="#dfpjq"/></g><g transform="translate(-32 -27)"><use fill="#333" xlink:href="#dfpjr"/></g></g></svg>