<svg xmlns="http://www.w3.org/2000/svg" xmlns:xlink="http://www.w3.org/1999/xlink" width="49.33" height="12" viewBox="0 0 74 18"><defs><path id="c2oua" d="M567.682 7783.102v1.385h-2.919v7.788h-1.606v-7.788h-2.906v-1.385zm1.056 2.53v1.282h.025c.046-.181.13-.356.253-.524a2.34 2.34 0 0 1 .447-.466c.174-.143.368-.253.582-.344.214-.084.434-.13.654-.13.168 0 .291.008.356.014.065.007.13.02.201.026v1.412a4.392 4.392 0 0 0-.317-.046 2.701 2.701 0 0 0-.318-.02c-.246 0-.479.053-.699.15-.22.096-.408.246-.57.433a2.222 2.222 0 0 0-.388.712 3.02 3.02 0 0 0-.142.978v3.159h-1.463v-6.636zm9.244 6.643h-1.437v-.926h-.026a2.008 2.008 0 0 1-.803.803c-.356.2-.719.303-1.088.303-.873 0-1.508-.213-1.896-.647-.389-.434-.583-1.087-.583-1.961v-4.215h1.463v4.072c0 .583.11.997.336 1.237.221.239.538.362.94.362.31 0 .562-.045.77-.142.207-.097.375-.22.498-.382.13-.156.22-.35.278-.57.06-.22.085-.46.085-.72v-3.85h1.463zm2.492-2.13c.045.426.207.724.486.899.284.169.621.259 1.016.259.136 0 .291-.013.466-.032.175-.02.343-.065.492-.123a.953.953 0 0 0 .382-.265.648.648 0 0 0 .136-.453.623.623 0 0 0-.207-.46 1.459 1.459 0 0 0-.492-.291 5.037 5.037 0 0 0-.686-.19c-.26-.05-.518-.108-.784-.167a7.44 7.44 0 0 1-.79-.22 2.424 2.424 0 0 1-.679-.35 1.523 1.523 0 0 1-.479-.556c-.123-.226-.18-.505-.18-.841 0-.363.09-.66.264-.907.175-.246.401-.44.667-.588a3.06 3.06 0 0 1 .9-.318 5.5 5.5 0 0 1 .944-.091c.344 0 .674.039.984.11.311.07.596.188.848.356.253.162.46.376.628.635.17.259.272.576.318.945h-1.528c-.07-.35-.227-.59-.479-.706a1.965 1.965 0 0 0-.868-.181c-.103 0-.226.006-.368.026a2.018 2.018 0 0 0-.402.097.879.879 0 0 0-.317.208.498.498 0 0 0-.13.355c0 .182.065.324.188.434.123.11.285.2.486.278.2.07.427.137.686.188.26.052.524.11.796.168.265.059.525.136.783.22.26.084.486.2.686.35.201.149.363.33.486.55.123.22.188.499.188.823 0 .394-.09.724-.272 1.003a2.165 2.165 0 0 1-.699.667 3.284 3.284 0 0 1-.958.375 4.797 4.797 0 0 1-2.208-.026 2.862 2.862 0 0 1-.926-.427 2.124 2.124 0 0 1-.614-.72c-.149-.283-.227-.627-.24-1.022h1.476zm5.936-4.513v-1.993h1.463v1.993h1.321v1.095h-1.32v3.547c0 .156.006.285.02.4.012.11.044.209.09.286a.419.419 0 0 0 .213.175c.097.039.22.059.388.059.104 0 .207 0 .311-.007a1.85 1.85 0 0 0 .311-.045v1.133c-.162.019-.324.032-.473.05-.155.02-.31.027-.473.027-.388 0-.699-.038-.932-.11a1.2 1.2 0 0 1-.55-.324 1.123 1.123 0 0 1-.272-.53 3.986 3.986 0 0 1-.084-.732v-3.917h-1.107v-1.107zm3.82 0h1.385v.9h.026c.207-.388.492-.66.861-.83a2.841 2.841 0 0 1 1.197-.251c.525 0 .978.09 1.366.279.39.18.713.433.971.757.26.324.447.699.577 1.126.13.427.194.887.194 1.373 0 .447-.059.88-.175 1.294a3.48 3.48 0 0 1-.524 1.114 2.574 2.574 0 0 1-.894.77c-.362.195-.783.29-1.275.29-.214 0-.428-.018-.64-.056a2.777 2.777 0 0 1-.616-.19 2.191 2.191 0 0 1-.964-.795h-.026v3.315h-1.463zm4.997 2.454a2.347 2.347 0 0 0-.349-.751 1.8 1.8 0 0 0-.576-.524 1.612 1.612 0 0 0-.797-.201c-.615 0-1.08.213-1.39.64-.313.428-.468.998-.468 1.71 0 .336.04.648.123.932.084.285.201.53.37.738.161.207.355.369.582.485.226.123.492.182.79.182.336 0 .615-.071.848-.207.233-.137.421-.317.57-.531a2.21 2.21 0 0 0 .323-.744c.058-.28.091-.564.091-.855 0-.298-.039-.59-.117-.874zm2.703-3.606v-1.38h1.46v1.38zm-.003 1.153h1.462v6.642h-1.462zm7.302 6.558a3.114 3.114 0 0 1-1.055-.726 3.166 3.166 0 0 1-.654-1.106 4.281 4.281 0 0 1-.227-1.413c0-.504.078-.97.227-1.397.15-.428.37-.797.654-1.107.284-.311.64-.55 1.055-.725a3.61 3.61 0 0 1 1.417-.266c.531 0 1.004.09 1.418.266.414.175.764.42 1.055.725.285.31.505.679.654 1.107.15.427.227.893.227 1.397 0 .512-.078.985-.227 1.413a3.166 3.166 0 0 1-.654 1.106 2.977 2.977 0 0 1-1.055.726 3.632 3.632 0 0 1-1.418.264c-.53 0-1.003-.09-1.417-.264zm-4.529.079v-9.17h1.46v9.17zm6.794-1.18c.24-.137.434-.317.59-.538.155-.22.265-.472.343-.75.071-.28.11-.564.11-.856 0-.284-.039-.562-.11-.847a2.244 2.244 0 0 0-.343-.751 1.779 1.779 0 0 0-.59-.53 1.683 1.683 0 0 0-.848-.208c-.323 0-.608.07-.847.208-.24.135-.434.316-.59.53a2.368 2.368 0 0 0-.343.75c-.07.286-.11.564-.11.848 0 .292.04.577.11.856.071.278.188.53.343.75.156.22.35.4.59.538.24.142.524.207.847.207.324 0 .61-.071.848-.207zm2.946-5.458h-.013zm1.094 0v-1.993h1.463v1.994h1.321v1.094h-1.32v3.547c0 .156.005.285.018.4a.76.76 0 0 0 .091.286.41.41 0 0 0 .214.175c.097.039.22.059.388.059.104 0 .207 0 .311-.007a1.84 1.84 0 0 0 .31-.045v1.133c-.16.019-.323.032-.472.05-.156.02-.31.027-.473.027-.388 0-.699-.038-.932-.11a1.2 1.2 0 0 1-.55-.324 1.123 1.123 0 0 1-.272-.53 3.986 3.986 0 0 1-.084-.732v-3.917h-1.107v-1.106z"/><path id="c2oub" d="M558.548 7783.102h-6.707l-2.07-6.383-2.079 6.383-6.706-.007 5.431 3.949-2.078 6.376 5.431-3.942 5.425 3.942-2.072-6.376z"/><path id="c2ouc" d="M553.59 7788.487l-.466-1.443-3.353 2.433z"/></defs><g><g transform="translate(-541 -7777)"><use fill="#333" xlink:href="#c2oua"/></g><g transform="translate(-541 -7777)"><use fill="#00b37a" xlink:href="#c2oub"/></g><g transform="translate(-541 -7777)"><use fill="#005128" xlink:href="#c2ouc"/></g></g></svg>