<svg xmlns="http://www.w3.org/2000/svg" xmlns:xlink="http://www.w3.org/1999/xlink" width="92.67" height="30" viewBox="0 0 139 45"><defs><path id="69y5a" d="M758.624 1894.937v14.019h14.077v4.617h-14.077v14.078h-4.787v-14.078h-13.735v-4.617h13.735v-14.019zm-123.283-1.938c2.394-2.28 6.156-3.819 10.43-3.819 7.979 0 12.824 5.358 12.824 11.342 0 4.388-2.336 7.978-6.326 9.745v.115c4.103 1.424 7.75 4.958 7.75 10.657 0 6.269-4.958 12.139-14.191 12.139-4.787 0-8.605-1.481-11.627-4.159v-5.929c2.679 3.135 6.556 5.186 11.171 5.186 5.757 0 9.348-3.304 9.348-7.693 0-4.446-3.648-7.581-9.804-7.581h-5.301v-4.502h4.105c6.439 0 9.632-3.02 9.632-7.294 0-3.875-2.907-7.068-8.151-7.068-4.045 0-7.694 1.939-9.86 4.503zm35.737 18.295c0 10.828 4.616 16.982 10.486 16.982 5.813 0 10.602-6.211 10.602-16.982 0-10.828-4.789-17.098-10.602-17.098-5.87 0-10.486 6.27-10.486 17.098zm-5.357 0c0-13.793 7.066-22.114 15.843-22.114 8.778 0 15.901 8.321 15.901 22.114 0 13.735-7.123 21.999-15.901 21.999-8.777 0-15.843-8.264-15.843-21.999zm42.805 0c0 10.828 4.615 16.982 10.485 16.982 5.814 0 10.601-6.211 10.601-16.982 0-10.828-4.787-17.098-10.601-17.098-5.87 0-10.485 6.27-10.485 17.098zm-5.358 0c0-13.793 7.067-22.114 15.843-22.114 8.777 0 15.901 8.321 15.901 22.114 0 13.735-7.124 21.999-15.901 21.999-8.776 0-15.843-8.264-15.843-21.999z"/><linearGradient id="69y5b" x1="634.2" x2="772.7" y1="1911.24" y2="1911.24" gradientUnits="userSpaceOnUse"><stop offset="0" stop-color="#0694ea"/><stop offset=".01" stop-color="#0694ea"/><stop offset="1" stop-color="#9dc137"/><stop offset="1" stop-color="#9dc137"/></linearGradient></defs><g><g transform="translate(-634 -1889)"><use fill="url(#69y5b)" xlink:href="#69y5a"/></g></g></svg>