<svg xmlns="http://www.w3.org/2000/svg" xmlns:xlink="http://www.w3.org/1999/xlink" width="72" height="30" viewBox="0 0 108 45"><defs><path id="4w8ia" d="M1522.757 1894.937v14.019h-13.735v4.617h13.735v14.078h4.787v-14.078h14.078v-4.617h-14.078v-14.019zm-81.903 22.683l14.419-19.72v19.776h-14.419zm15.046-27.585l-21.315 29.124v3.191h20.688v10.087h5.014v-10.087h7.296v-4.674h-7.296v-27.641zm32.032 4.161c5.813 0 10.6 6.27 10.6 17.098 0 10.771-4.787 16.982-10.6 16.982-5.87 0-10.487-6.154-10.487-16.982s4.617-17.098 10.487-17.098zm0 39.097c8.776 0 15.901-8.264 15.901-21.999 0-13.793-7.125-22.114-15.901-22.114-8.777 0-15.843 8.321-15.843 22.114 0 13.735 7.066 21.999 15.843 21.999z"/><linearGradient id="4w8ib" x1="1434.59" x2="1541.62" y1="1911.24" y2="1911.24" gradientUnits="userSpaceOnUse"><stop offset="0" stop-color="#0694ea"/><stop offset=".01" stop-color="#0694ea"/><stop offset="1" stop-color="#9dc137"/><stop offset="1" stop-color="#9dc137"/></linearGradient></defs><g><g transform="translate(-1434 -1889)"><use fill="url(#4w8ib)" xlink:href="#4w8ia"/></g></g></svg>