<svg xmlns="http://www.w3.org/2000/svg" xmlns:xlink="http://www.w3.org/1999/xlink" width="82.67" height="38.67" viewBox="0 0 124 58"><defs><path id="65aea" d="M267.332 1917.649h14.419v-19.778l-14.419 19.72zm19.435-27.641v27.641h7.294v4.672h-7.294v10.088h-5.016v-10.088h-20.688v-3.191l21.315-29.122zm66.059 0l-22.17 42.401h-5.643l19.72-37.443h-20.061v-4.958zm-121.572 3.304c2.394-2.279 6.668-4.159 11.284-4.159 8.435 0 13.279 5.813 13.279 12.994 0 6.724-5.699 13.677-16.299 25.247h17.838v5.015h-28.154c18.865-21.088 21.257-25.019 21.257-29.977 0-4.218-2.963-8.265-8.377-8.265-4.616 0-8.434 2.395-10.828 5.073zm89.883-10.828l-19.093 57.505h-5.073l19.036-57.505z"/><linearGradient id="65aeb" x1="229.2" x2="352.83" y1="1911.24" y2="1911.24" gradientUnits="userSpaceOnUse"><stop offset="0" stop-color="#0694ea"/><stop offset=".01" stop-color="#0694ea"/><stop offset="1" stop-color="#9dc137"/><stop offset="1" stop-color="#9dc137"/></linearGradient></defs><g><g transform="translate(-229 -1882)"><use fill="url(#65aeb)" xlink:href="#65aea"/></g></g></svg>