<svg xmlns="http://www.w3.org/2000/svg" xmlns:xlink="http://www.w3.org/1999/xlink" width="89.33" height="30" viewBox="0 0 134 45"><defs><path id="tky2a" d="M1059.431 1889.864v42.573h-5.243v-35.221l-10.544 4.503v-5.528l15.274-6.327zm15.503 21.43c0 10.828 4.617 16.982 10.487 16.982 5.812 0 10.599-6.211 10.599-16.982 0-10.828-4.787-17.098-10.599-17.098-5.87 0-10.487 6.27-10.487 17.098zm-5.357 0c0-13.793 7.066-22.114 15.844-22.114 8.777 0 15.9 8.321 15.9 22.114 0 13.735-7.123 21.999-15.9 21.999-8.778 0-15.844-8.264-15.844-21.999zm42.803 0c0 10.828 4.617 16.982 10.489 16.982 5.812 0 10.598-6.211 10.598-16.982 0-10.828-4.786-17.098-10.598-17.098-5.872 0-10.489 6.27-10.489 17.098zm-5.356 0c0-13.793 7.067-22.114 15.845-22.114 8.775 0 15.899 8.321 15.899 22.114 0 13.735-7.124 21.999-15.899 21.999-8.778 0-15.845-8.264-15.845-21.999zm42.804 0c0 10.828 4.617 16.982 10.487 16.982 5.813 0 10.6-6.211 10.6-16.982 0-10.828-4.787-17.098-10.6-17.098-5.87 0-10.487 6.27-10.487 17.098zm-5.356 0c0-13.793 7.066-22.114 15.843-22.114 8.777 0 15.901 8.321 15.901 22.114 0 13.735-7.124 21.999-15.901 21.999-8.777 0-15.843-8.264-15.843-21.999z"/><linearGradient id="tky2b" x1="1043.64" x2="1176.22" y1="1911.24" y2="1911.24" gradientUnits="userSpaceOnUse"><stop offset="0" stop-color="#0694ea"/><stop offset=".01" stop-color="#0694ea"/><stop offset="1" stop-color="#9dc137"/><stop offset="1" stop-color="#9dc137"/></linearGradient></defs><g><g transform="translate(-1043 -1889)"><use fill="url(#tky2b)" xlink:href="#tky2a"/></g></g></svg>